<?xml version="1.0" standalone="no"?>
<!DOCTYPE svg PUBLIC "-//W3C//DTD SVG 1.1//EN" "http://www.w3.org/Graphics/SVG/1.1/DTD/svg11.dtd" >
<svg xmlns="http://www.w3.org/2000/svg" xmlns:xlink="http://www.w3.org/1999/xlink" version="1.1">
<metadata>
Created by FontForge 20190801 at Sun Apr 16 10:39:42 2006
 By www-data
(c) Copyright SoftMaker Software GmbH and its licensors
</metadata>
<defs>
<font id="GibsonRegular" horiz-adv-x="503" >
  <font-face 
    font-family="GibsonRegular"
    font-weight="400"
    font-stretch="normal"
    units-per-em="1000"
    panose-1="0 0 4 0 0 0 0 0 0 0"
    ascent="800"
    descent="-200"
    x-height="459"
    cap-height="706"
    bbox="-174 -263 990 925"
    underline-thickness="40"
    underline-position="-167"
    unicode-range="U+0020-2215"
  />
<missing-glyph horiz-adv-x="500" 
d="M31 0v925h438v-925h-438zM438 31v863h-376v-863h376z" />
    <glyph glyph-name=".notdef" horiz-adv-x="500" 
d="M31 0v925h438v-925h-438zM438 31v863h-376v-863h376z" />
    <glyph glyph-name=".null" horiz-adv-x="0" 
 />
    <glyph glyph-name="nonmarkingreturn" horiz-adv-x="262" 
 />
    <glyph glyph-name="space" unicode=" " horiz-adv-x="262" 
 />
    <glyph glyph-name="exclam" unicode="!" horiz-adv-x="307" 
d="M146 212l-33 190q-17 111 -17 192q0 120 62 120q58 0 58 -119q0 -84 -16 -192q-9 -60 -18 -119q-10 -48 -14 -72h-22zM155 135q31 0 52 -20t21 -50t-20 -52t-51 -22q-27 0 -50 20q-22 22 -22 48q0 30 20 53t50 23z" />
    <glyph glyph-name="quotedbl" unicode="&#x22;" horiz-adv-x="442" 
d="M29 410q48 75 48 144v17q-28 13 -40.5 28t-12.5 45q0 25 21.5 47.5t46.5 22.5q45 0 70 -35q21 -30 21 -80q0 -96 -89 -178l-44 -36zM257 409q49 63 49 152v10q-52 18 -52 69q0 26 18 49t45 23q46 0 72 -33q22 -31 22 -79q0 -124 -132 -216z" />
    <glyph glyph-name="numbersign" unicode="#" horiz-adv-x="514" 
d="M105 206h-97v67h107l26 193h-107v68h117l29 206h69l-29 -206h124l29 206h69l-29 -206h83v-67h-93l-27 -194h92v-67h-101l-29 -206h-69l29 206h-124l-29 -206h-69zM211 467l-27 -194h123l27 194h-123z" />
    <glyph glyph-name="dollar" unicode="$" horiz-adv-x="452" 
d="M207 799h58l-1 -85q67 -12 124 -37v-106q-62 37 -123 50v-228q75 -43 111 -83q51 -56 51 -123q0 -163 -162 -198v-89h-58v89q-17 0 -37 6t-49 18q-52 21 -80 44v116q78 -81 166 -90v232q-78 48 -114 87q-52 58 -52 129q0 82 44 126q39 39 122 58v84zM207 620
q-66 -18 -66 -87q0 -50 66 -100v187zM329 176q0 54 -64 100v-190q64 27 64 90z" />
    <glyph glyph-name="percent" unicode="%" horiz-adv-x="737" 
d="M517 731l51 -25l-363 -732l-51 25zM726 232q0 -94 -25 -154q-36 -86 -115 -86q-69 0 -105 82q-26 63 -26 144q0 88 25 147q35 83 109 83q73 0 110 -76q27 -57 27 -140zM591 60q66 0 66 165q0 158 -67 158q-65 0 -65 -162q0 -161 66 -161zM268 497q0 -86 -25 -151
q-35 -89 -107 -89q-139 0 -139 239q0 80 29 139q36 78 106 78q73 0 109 -75q27 -57 27 -141zM133 324q66 0 66 166q0 158 -67 158q-65 0 -65 -162t66 -162z" />
    <glyph glyph-name="ampersand" unicode="&#x26;" horiz-adv-x="593" 
d="M80 528q0 71 54 116q52 40 125 40t118 -41.5t45 -115.5q0 -53 -36 -108t-86 -83l83 -106q35 47 63 96h103q-45 -91 -103 -172l124 -154h-118l-70 86q-103 -98 -211 -98q-70 0 -121.5 43.5t-51.5 113.5q0 67 53 123q31 34 109 85q-80 101 -80 175zM243 405l16 12
q66 51 66 109q0 32 -18.5 51.5t-51.5 19.5t-54.5 -21.5t-21.5 -53.5q0 -17 24 -66t40 -51zM215 285q-28 -18 -48.5 -32.5t-29.5 -23.5q-40 -40 -40 -83q0 -28 25 -49q25 -19 55 -19q68 0 145 78z" />
    <glyph glyph-name="quotesingle" unicode="'" horiz-adv-x="222" 
d="M183 690q-48 -72 -48 -159v-4q52 -17 52 -66q0 -30 -22 -52.5t-50 -22.5q-43 0 -64.5 33t-21.5 78q0 114 134 217z" />
    <glyph glyph-name="parenleft" unicode="(" horiz-adv-x="322" 
d="M306 735q-75 -109 -109 -218.5t-34 -246.5q0 -261 143 -452h-65q-93 121 -132 216q-23 55 -36 118.5t-13 129.5q0 115 52 241q47 115 129 212h65z" />
    <glyph glyph-name="parenright" unicode=")" horiz-adv-x="322" 
d="M127 283q0 67 -8 124t-26 113q-33 106 -109 215h65q90 -118 132 -217q49 -119 49 -247q0 -115 -52 -241q-47 -115 -129 -212l-65 -1q143 199 143 466z" />
    <glyph glyph-name="asterisk" unicode="*" horiz-adv-x="483" 
d="M186 516l-73 48q-53 33 -53 58q0 40 42 40q20 0 55 -54q38 -65 49 -74q0 20 -11.5 67t-11.5 69q0 44 36 44q37 0 37 -48q0 -12 -1 -19t-7 -23l-12 -42l-3 -47q7 7 50 76q29 49 62 49t33 -38q0 -22 -21 -39l-40 -22q-24 -13 -66 -45q22 0 66.5 12t66.5 12q19 0 33.5 -9.5
t14.5 -26.5q0 -40 -42 -40q-25 0 -70 12q-14 4 -36 8l-33 6q5 -6 75 -52q55 -37 55 -56q0 -43 -37 -43q-23 0 -62 55l-50 78q0 -23 12 -70.5t12 -72.5q0 -40 -38 -40q-36 0 -36 52q0 13 2 27t7 35t9 40.5t6 31.5l-49 -79q-33 -56 -63 -56q-36 0 -36 42q0 19 55 56
q66 43 73 52q-9 0 -24.5 -3.5t-42.5 -11.5q-42 -12 -68 -12q-44 0 -44 36q0 16 10.5 29t27.5 13q24 0 66 -12.5t66 -12.5h9z" />
    <glyph glyph-name="plus" unicode="+" horiz-adv-x="644" 
d="M17 331h249v249h80v-249h251v-80h-251v-251h-80v251h-249v80z" />
    <glyph glyph-name="comma" unicode="," horiz-adv-x="222" 
d="M34 -161q25 35 36.5 73.5t11.5 78.5l-1 11q-48 21 -48 70q0 27 20 50q22 22 48 22q42 0 67 -35q22 -31 22 -75q0 -110 -135 -217z" />
    <glyph glyph-name="hyphen" unicode="-" horiz-adv-x="342" 
d="M24 287h283v-98h-283v98z" />
    <glyph glyph-name="period" unicode="." horiz-adv-x="222" 
d="M104 136q32 0 55 -18t23 -50q0 -31 -18.5 -54t-49.5 -23q-33 0 -56 20q-22 22 -22 55q0 28 21 49t47 21z" />
    <glyph glyph-name="slash" unicode="/" horiz-adv-x="301" 
d="M217 706h82l-235 -706h-82z" />
    <glyph glyph-name="zero" unicode="0" 
d="M246 719q110 0 170 -129q21 -49 32 -105t11 -121q0 -144 -39 -240q-54 -136 -177 -136q-120 0 -178 139q-42 102 -42 244q0 132 45 227q59 121 178 121zM246 83q115 0 115 269q0 274 -117 274q-123 0 -123 -269q0 -274 125 -274z" />
    <glyph glyph-name="one" unicode="1" 
d="M269 706h48v-706h-94v555l-137 -121l-40 84z" />
    <glyph glyph-name="two" unicode="2" 
d="M7 12q154 192 178 227q109 159 109 254q0 55 -34.5 91.5t-89.5 36.5q-66 0 -156 -75v107q71 66 165 66q100 0 158.5 -66t58.5 -166q0 -146 -207 -398h263v-89h-445v12z" />
    <glyph glyph-name="three" unicode="3" 
d="M54 129q85 -47 138 -47q57 0 91.5 31.5t34.5 87.5q0 71 -47 99q-28 15 -112 26v86q141 0 141 112q0 45 -31 72.5t-76 27.5q-53 0 -139 -41l1 98l76 25q18 5 40.5 9t38.5 4q78 0 133 -51t55 -131q0 -62 -27.5 -98t-86.5 -66q57 -12 94 -61t37 -107q0 -96 -53.5 -157
t-148.5 -61q-78 0 -159 42v100z" />
    <glyph glyph-name="four" unicode="4" 
d="M5 248l345 471h33v-433h88v-83h-88v-203h-91v203h-287v45zM292 286l2 228q-39 -66 -156 -228h154z" />
    <glyph glyph-name="five" unicode="5" 
d="M49 137q75 -55 151 -55q63 0 98.5 34.5t35.5 96.5t-42 98q-20 15 -45.5 23t-58.5 8q-37 0 -96 -9v373h317v-94h-226l-1 -184l36 1q100 0 156.5 -59t56.5 -158q0 -101 -63.5 -163t-165.5 -62q-70 0 -153 48v102z" />
    <glyph glyph-name="six" unicode="6" 
d="M375 649q-85 -56 -138.5 -120.5t-97.5 -163.5q55 41 122 41q87 0 143.5 -59.5t56.5 -147.5q0 -94 -60.5 -153t-154.5 -59q-102 0 -162.5 73.5t-60.5 178.5q0 112 65 235q59 115 151 195l82 58zM123 213q0 -57 35 -94.5t92 -37.5q49 0 82.5 31.5t33.5 81.5q0 53 -31 87
t-83 34q-65 0 -127 -63z" />
    <glyph glyph-name="seven" unicode="7" 
d="M19 706h434v-23l-300 -696l-89 46l259 580h-304v93z" />
    <glyph glyph-name="eight" unicode="8" 
d="M38 512q0 82 57 144.5t141 62.5q86 0 148.5 -57.5t62.5 -143.5q0 -104 -89 -156q100 -44 100 -166q0 -86 -63 -147.5t-150 -61.5q-45 0 -84 15t-73 47q-65 62 -65 152q0 112 106 161q-91 46 -91 150zM246 404q48 0 77 32t29 81q0 47 -30.5 78.5t-77.5 31.5t-82 -33
q-32 -34 -32 -82t33.5 -78t82.5 -30zM242 82q54 0 88 32.5t34 85.5q0 51 -35.5 85.5t-86.5 34.5q-50 0 -88 -33.5t-38 -83.5q0 -51 36.5 -86t89.5 -35z" />
    <glyph glyph-name="nine" unicode="9" 
d="M107 57q160 96 236 284q-56 -41 -124 -41q-87 0 -142 61t-55 147q0 96 60 153t157 57q99 0 162 -76q58 -72 58 -174q0 -113 -65 -236q-61 -116 -152 -195q-24 -20 -81 -58zM231 390q35 0 70.5 16.5t55.5 42.5l3 42q0 57 -35 95.5t-91 38.5q-54 0 -85.5 -34.5t-31.5 -88.5
q0 -45 33 -80q34 -32 81 -32z" />
    <glyph glyph-name="colon" unicode=":" horiz-adv-x="262" 
d="M164 476q28 0 46 -23.5t18 -50.5t-20 -49.5t-47 -22.5q-33 0 -56 20q-22 22 -22 53q0 73 81 73zM152 137q26 0 51 -17.5t25 -45.5v-21q0 -23 -24 -43q-12 -10 -23 -14.5t-24 -4.5q-30 0 -52.5 20t-22.5 50q0 32 19.5 54t50.5 22z" />
    <glyph glyph-name="semicolon" unicode=";" horiz-adv-x="262" 
d="M157 475q28 0 48.5 -20t20.5 -49t-21 -51t-53 -22q-27 0 -48.5 21t-21.5 45q0 31 21.5 53.5t53.5 22.5zM83 -159q49 78 49 163q-52 20 -52 71q0 28 20.5 49t48.5 21q42 0 67 -35q22 -31 22 -75q0 -115 -134 -216z" />
    <glyph glyph-name="less" unicode="&#x3c;" horiz-adv-x="551" 
d="M527 446l-425 -193l425 -193v-68l-508 230v62l508 230v-68z" />
    <glyph glyph-name="equal" unicode="=" horiz-adv-x="644" 
d="M-32 239h666v-78h-666v78zM-32 420h666v-78h-666v78z" />
    <glyph glyph-name="greater" unicode="&#x3e;" horiz-adv-x="551" 
d="M25 60l425 193l-425 193v68l508 -230v-62l-508 -230v68z" />
    <glyph glyph-name="question" unicode="?" horiz-adv-x="322" 
d="M203 546q0 36 -25 55t-62 19l-18 -1l62 99q147 -41 147 -161q0 -70 -70.5 -181t-76.5 -181l-16 -10q-47 49 -47 103q0 22 13.5 53.5t39.5 70.5q53 79 53 134zM89 68q0 27 22.5 48t49.5 21q28 0 50 -22t22 -50q0 -34 -22 -55q-22 -19 -57 -19q-26 0 -47 24q-18 24 -18 53z
" />
    <glyph glyph-name="at" unicode="@" horiz-adv-x="1015" 
d="M529 500q-62 0 -110 -67q-41 -61 -41 -128q0 -41 22.5 -69t61.5 -28q60 0 108 72q41 64 41 128q0 34 -23.5 63t-58.5 29zM662 556h69l-73 -246q-18 -66 -18 -80q0 -29 21 -29q59 0 104 81q38 70 38 135q0 116 -82 189q-78 69 -197 69q-131 0 -217.5 -94t-86.5 -226
t90 -222t222 -90q68 0 133.5 30t108.5 84h67q-48 -81 -133 -128.5t-179 -47.5q-80 0 -147 27t-124 83q-111 110 -111 270q0 154 111 265t266 111q138 0 239 -85q105 -90 105 -227q0 -101 -68 -191q-74 -98 -171 -98q-28 0 -46 17q-18 20 -18 46q-59 -63 -122 -63t-105 47.5
t-42 112.5q0 53 15 99t47 88q66 89 169 89q77 0 115 -78z" />
    <glyph glyph-name="A" unicode="A" horiz-adv-x="644" 
d="M244 706h86l304 -706h-112l-95 224h-263l-86 -224h-110zM387 316l-98 248l-91 -248h189z" />
    <glyph glyph-name="B" unicode="B" horiz-adv-x="544" 
d="M46 706h154q233 0 233 -189q0 -105 -95 -148q158 -27 158 -173q0 -196 -264 -196h-186v706zM393 194q0 68 -48 95q-34 17 -111 17h-45l-45 -1v-212h6l42 -1l41 -1q160 0 160 103zM191 402q139 0 139 109q0 47 -31.5 72t-79.5 25h-75v-206h47z" />
    <glyph glyph-name="C" unicode="C" horiz-adv-x="644" 
d="M602 552q-65 37 -107 52q-57 19 -117 19q-113 0 -190 -79t-77 -192q0 -116 73 -192t188 -76q121 0 240 76l-1 -112q-37 -16 -65.5 -27.5t-52.5 -18.5q-62 -17 -125 -17q-159 0 -261 105t-102 265q0 153 106.5 259.5t258.5 106.5q72 0 119.5 -12.5t112.5 -48.5v-108z" />
    <glyph glyph-name="D" unicode="D" horiz-adv-x="704" 
d="M38 706h201q178 0 287 -79q123 -90 123 -262q0 -148 -81 -244t-228 -114q-31 -3 -70 -5t-90 -2h-142v706zM264 95q124 0 202 65t78 189q0 123 -73 191t-199 68h-134v-513h126z" />
    <glyph glyph-name="E" unicode="E" horiz-adv-x="483" 
d="M50 706h380v-94h-278v-214h271v-94h-271v-212h290v-92h-392v706z" />
    <glyph glyph-name="F" unicode="F" horiz-adv-x="442" 
d="M52 706h364v-95h-264v-188h264v-92h-264v-331h-100v706z" />
    <glyph glyph-name="G" unicode="G" horiz-adv-x="704" 
d="M616 540q-86 43 -121 57q-69 25 -130 25q-106 0 -182 -77.5t-76 -185.5q0 -117 78 -196.5t195 -79.5q49 0 144 32v146h-130v87h222v-304q-150 -58 -252 -58q-155 0 -258.5 108.5t-103.5 263.5q0 152 105 257t259 105q107 0 250 -73v-107z" />
    <glyph glyph-name="H" unicode="H" horiz-adv-x="685" 
d="M39 706h100v-306h357v306h101v-706h-101v306h-357v-306h-100v706z" />
    <glyph glyph-name="I" unicode="I" horiz-adv-x="241" 
d="M63 706h99v-706h-99v706z" />
    <glyph glyph-name="J" unicode="J" horiz-adv-x="241" 
d="M-54 -108q66 0 87 36q14 25 14 98v680h100v-662q0 -128 -29 -179q-41 -71 -159 -71l-18 1l-25 100z" />
    <glyph glyph-name="K" unicode="K" horiz-adv-x="624" 
d="M43 706h103v-313l264 313h131l-288 -335l390 -371h-147l-350 339v-339h-103v706z" />
    <glyph glyph-name="L" unicode="L" horiz-adv-x="483" 
d="M50 706h101v-611h313v-95h-414v706z" />
    <glyph glyph-name="M" unicode="M" horiz-adv-x="745" 
d="M37 706h90l222 -292l220 292h88v-706h-99v489q0 11 1 29t4 42l-207 -289h-17l-207 289l5 -89v-471h-100v706z" />
    <glyph glyph-name="N" unicode="N" horiz-adv-x="745" 
d="M37 706h82l356 -429q57 -68 89 -118l-6 186v361h99v-706h-83l-353 427q-46 56 -90 123l5 -147v-403h-99v706z" />
    <glyph glyph-name="O" unicode="O" horiz-adv-x="805" 
d="M367 720q163 0 270 -107t107 -269q0 -146 -111 -252t-258 -106q-156 0 -267.5 105t-111.5 257q0 159 106.5 265.5t264.5 106.5zM376 84q107 0 186.5 78.5t79.5 186.5q0 113 -77.5 192.5t-191.5 79.5q-111 0 -192.5 -77.5t-81.5 -189.5q0 -114 81 -192t196 -78z" />
    <glyph glyph-name="P" unicode="P" 
d="M48 706h229q92 0 149.5 -52.5t57.5 -142.5q0 -134 -109 -179q-60 -23 -225 -23v-309h-102v706zM248 405q66 0 97 19q40 25 40 87q0 100 -128 100h-107v-206h98z" />
    <glyph glyph-name="Q" unicode="Q" horiz-adv-x="785" 
d="M621 -40q61 0 108 16l-98 -108q-135 27 -317 106q-136 59 -171 83q-78 53 -117 148q-14 35 -21 67t-7 67q0 156 108 269q55 56 120.5 84t145.5 28q147 0 260 -108.5t113 -255.5q0 -132 -69 -222.5t-199 -126.5q89 -47 144 -47zM364 78q117 0 198.5 78.5t81.5 193.5
q0 112 -81.5 190t-195.5 78q-111 0 -189 -80.5t-78 -192.5q0 -106 79.5 -186.5t184.5 -80.5z" />
    <glyph glyph-name="R" unicode="R" horiz-adv-x="563" 
d="M46 706h135q257 0 257 -188q0 -131 -115 -179q50 -29 97 -95l77 -127q47 -81 80 -117h-132q-27 54 -57 103q-66 110 -89 136q-62 72 -137 72h-14v-311h-102v706zM223 405q49 0 80.5 27.5t31.5 76.5q0 59 -51 85q-35 16 -103 16h-33v-205h75z" />
    <glyph glyph-name="S" unicode="S" horiz-adv-x="483" 
d="M35 173q31 -24 53 -39.5t36 -23.5q54 -31 103 -31q43 0 70.5 29.5t27.5 74.5q0 54 -74 107l-138 95q-74 65 -74 150q0 81 54.5 133.5t138.5 52.5q67 0 157 -43v-109q-85 56 -148 56q-44 0 -72 -24t-28 -68q0 -45 75 -99l138 -99q75 -68 75 -149q0 -90 -56.5 -145.5
t-146.5 -55.5q-84 0 -191 71v117z" />
    <glyph glyph-name="T" unicode="T" horiz-adv-x="563" 
d="M-28 706h562v-94h-229v-612h-103v612h-230v94z" />
    <glyph glyph-name="U" unicode="U" horiz-adv-x="704" 
d="M37 706h100v-417q0 -199 186 -199q107 0 153 58q42 51 42 162v396h100v-442q0 -134 -80.5 -206.5t-216.5 -72.5q-141 0 -212.5 82t-71.5 224v415z" />
    <glyph glyph-name="V" unicode="V" horiz-adv-x="604" 
d="M78 706l165 -406l31 -81q13 35 35 93.5t64 164.5q46 117 90 229h111l-285 -706h-33l-286 706h108z" />
    <glyph glyph-name="W" unicode="W" horiz-adv-x="1026" 
d="M65 706l96 -251q54 -147 87 -255q29 108 84 255l97 251h84l144 -368q18 -43 45 -133q32 105 177 501h111l-268 -706h-33q-153 360 -218 557q-18 -56 -45 -133q-32 -89 -68 -185q-28 -75 -93 -239h-33l-283 706h116z" />
    <glyph glyph-name="X" unicode="X" horiz-adv-x="704" 
d="M259 358l-273 348h129l208 -266l213 266h129l-276 -348l284 -358h-128l-222 277l-226 -277h-132z" />
    <glyph glyph-name="Y" unicode="Y" horiz-adv-x="583" 
d="M94 706l168 -236l168 236h124l-243 -333v-373h-101v373l-239 333h123z" />
    <glyph glyph-name="Z" unicode="Z" horiz-adv-x="624" 
d="M400 610h-402v96h593l-440 -612h421v-94h-613z" />
    <glyph glyph-name="bracketleft" unicode="[" horiz-adv-x="322" 
d="M71 735h235v-86h-139v-746h139v-85h-235v917z" />
    <glyph glyph-name="backslash" unicode="\" horiz-adv-x="278" 
d="M-17 737h66l246 -756h-67z" />
    <glyph glyph-name="bracketright" unicode="]" horiz-adv-x="322" 
d="M-15 -96h139v746h-139v85h235v-917h-235v86z" />
    <glyph glyph-name="asciicircum" unicode="^" horiz-adv-x="0" 
d="M-85 894h166l88 -123h-88l-84 70l-82 -70h-89z" />
    <glyph glyph-name="underscore" unicode="_" horiz-adv-x="556" 
d="M0 -125v50h556v-50h-556z" />
    <glyph glyph-name="grave" unicode="`" horiz-adv-x="0" 
d="M-15 670l68 -159h-68l-111 159h111z" />
    <glyph glyph-name="a" unicode="a" horiz-adv-x="403" 
d="M229 292q0 92 -73 92q-59 0 -143 -69l1 95q77 60 161 60q147 0 147 -206l-2 -63l-2 -62q0 -54 19 -60l47 16v-68q-63 -39 -110 -39q-26 0 -44 36q-69 -36 -106 -36q-59 0 -95.5 31t-36.5 91q0 63 90 113q23 12 59 25t88 28v16zM229 219q-141 -35 -141 -103q0 -22 17 -39
t40 -17q19 0 44 11l40 19v129z" />
    <glyph glyph-name="b" unicode="b" 
d="M39 706h95v-280q58 44 126 44q86 0 143 -67q53 -64 53 -153q0 -123 -67.5 -192.5t-189.5 -69.5q-58 0 -160 36v682zM206 80q67 0 111.5 46t44.5 114q0 61 -32 102.5t-91 41.5q-43 0 -105 -37v-259q40 -8 72 -8z" />
    <glyph glyph-name="c" unicode="c" horiz-adv-x="403" 
d="M377 339q-53 41 -128 41q-70 0 -106.5 -45t-36.5 -116q0 -62 40.5 -101.5t102.5 -39.5t135 47v-95q-60 -42 -143 -42q-99 0 -165 71t-66 173q0 101 66 169.5t168 68.5q41 0 133 -33v-98z" />
    <glyph glyph-name="d" unicode="d" 
d="M326 706h95v-706h-95l-1 25q-54 -37 -112 -37q-100 0 -158 74q-51 66 -51 170q0 102 55.5 171t155.5 69q51 0 111 -33v267zM326 354q-37 37 -93 37q-66 0 -103 -49q-31 -45 -31 -115q0 -63 35 -109t98 -46q20 0 49.5 9.5t44.5 22.5v250z" />
    <glyph glyph-name="e" unicode="e" horiz-adv-x="463" 
d="M103 216q0 -30 12 -55.5t32 -45.5q19 -17 45.5 -27t58.5 -10q56 0 158 54v-93q-104 -51 -171 -51q-104 0 -168 71.5t-64 177.5q0 92 55 160q59 72 149 72q104 0 159 -77q48 -66 48 -176h-314zM325 285q-23 100 -108 100q-91 0 -112 -100h220z" />
    <glyph glyph-name="f" unicode="f" horiz-adv-x="262" 
d="M-13 459h70q0 125 23 174q35 82 142 82q19 0 37 -4t45 -16v-86q-51 21 -79 21q-76 0 -76 -114l2 -57h90v-78h-90v-381h-94v381h-70v78z" />
    <glyph glyph-name="g" unicode="g" horiz-adv-x="423" 
d="M36 69q0 26 27 46l49 24q-108 57 -108 156q0 78 52 124t130 46l104 -4l103 -2v-82h-69q29 -41 29 -85q0 -74 -57 -119q-27 -19 -107 -52q-57 -21 -57 -46q0 -20 66 -37q91 -21 124 -39q66 -35 66 -105q0 -77 -66 -121q-56 -36 -139 -36q-80 0 -139 31q-74 39 -74 113
q0 105 107 130q-41 17 -41 58zM180 202q39 0 62.5 28t23.5 68t-26 66q-24 27 -64 27q-37 0 -60 -29q-24 -27 -24 -65q0 -43 23 -69t65 -26zM171 -182q129 0 129 66q0 68 -112 68q-130 0 -130 -66q0 -36 41 -54q31 -14 72 -14z" />
    <glyph glyph-name="h" unicode="h" 
d="M39 706h95v-294q76 56 133 56q160 0 160 -205v-263h-94v126l-1 126q0 65 -13 90q-20 38 -78 38q-48 0 -107 -50v-330h-95v706z" />
    <glyph glyph-name="i" unicode="i" horiz-adv-x="222" 
d="M54 459h95v-459h-95v459zM103 622q24 0 39.5 -18t15.5 -41t-18 -41q-18 -15 -44 -15q-24 0 -39 16.5t-15 40.5q0 23 18.5 40.5t42.5 17.5z" />
    <glyph glyph-name="j" unicode="j" horiz-adv-x="222" 
d="M49 459h95l-1 -529q0 -73 -26 -113t-91 -77l-57 78q80 33 80 129v512zM106 623q18 0 33.5 -18.5t15.5 -39.5q0 -23 -17 -40.5t-39 -17.5q-24 0 -42.5 15.5t-18.5 40.5q0 60 68 60z" />
    <glyph glyph-name="k" unicode="k" horiz-adv-x="483" 
d="M40 706h95v-451l180 204h123l-198 -219l250 -240h-139l-216 214v-214h-95v706z" />
    <glyph glyph-name="l" unicode="l" horiz-adv-x="222" 
d="M54 706h94v-706h-94v706z" />
    <glyph glyph-name="m" unicode="m" horiz-adv-x="764" 
d="M26 459h95v-40q70 49 129 49q73 0 130 -69q69 69 151 69q153 0 153 -219v-249h-95v261q0 118 -79 118q-42 0 -107 -51v-328h-95v251q0 128 -76 128q-58 0 -111 -50v-329h-95v459z" />
    <glyph glyph-name="n" unicode="n" 
d="M39 459h95v-40q64 49 125 49q102 0 140 -68q28 -53 28 -162v-238h-94v245q0 66 -12 93q-18 42 -77 42q-51 0 -110 -49v-331h-95v459z" />
    <glyph glyph-name="o" unicode="o" horiz-adv-x="544" 
d="M254 470q99 0 168.5 -73t69.5 -172q0 -101 -74 -169t-175 -68q-92 0 -165.5 72t-73.5 167q0 105 72 174t178 69zM246 78q64 0 110 44t46 107q0 60 -45 106t-107 46q-64 0 -111 -44.5t-47 -109.5q0 -58 46.5 -103.5t107.5 -45.5z" />
    <glyph glyph-name="p" unicode="p" 
d="M39 459h96v-27q46 38 116 38q96 0 154 -71q51 -66 51 -166q0 -105 -50 -171q-57 -75 -156 -75q-64 0 -115 36v-281h-96v717zM233 72q64 0 99 50q29 43 29 111q0 63 -31 106q-35 48 -97 48q-53 0 -98 -33v-249q56 -33 98 -33z" />
    <glyph glyph-name="q" unicode="q" horiz-adv-x="483" 
d="M329 459h95v-717h-95v277q-25 -15 -51 -23t-52 -8q-103 0 -161.5 68t-58.5 173q0 98 51 167q57 74 152 74q67 0 120 -39v28zM329 354q-51 33 -97 33q-60 0 -96 -44t-36 -107q0 -69 30 -114q36 -51 104 -51q48 0 95 34v249z" />
    <glyph glyph-name="r" unicode="r" horiz-adv-x="363" 
d="M46 459h95v-72q15 28 51.5 54.5t65.5 26.5q45 0 110 -48l-57 -86q-40 38 -69 38q-55 0 -82 -57q-19 -44 -19 -106v-209h-95v459z" />
    <glyph glyph-name="s" unicode="s" horiz-adv-x="363" 
d="M18 134q90 -60 147 -60q54 0 54 41q0 30 -51 63q-88 54 -94 62q-51 42 -51 101q0 58 39.5 93.5t97.5 35.5q63 0 130 -37l1 -99q-22 18 -62 34q-21 8 -36.5 12t-29.5 4q-45 0 -45 -36q0 -30 51 -63l95 -61q51 -44 51 -102q0 -60 -40.5 -97.5t-101.5 -37.5q-74 0 -155 45
v102z" />
    <glyph glyph-name="t" unicode="t" horiz-adv-x="301" 
d="M138 578v-119h128v-78l-129 -1l-4 -237q0 -25 14 -42.5t39 -17.5q48 0 117 47v-101l-67 -28q-41 -13 -71 -13q-65 0 -100 51q-28 44 -28 114l2 114l2 114h-56z" />
    <glyph glyph-name="u" unicode="u" 
d="M39 459h94v-233q0 -70 9 -97q17 -50 74 -50q61 0 115 51v329h96v-459h-96l-1 40q-58 -49 -132 -49q-159 0 -159 213v255z" />
    <glyph glyph-name="v" unicode="v" horiz-adv-x="442" 
d="M81 459l117 -283l112 283h105l-202 -459h-30l-205 459h103z" />
    <glyph glyph-name="w" unicode="w" horiz-adv-x="724" 
d="M65 459q43 -101 114 -290l109 290l78 -1l109 -289q38 107 114 290h104l-199 -459h-41l-68 156q-38 88 -58 160q-22 -60 -63 -160q-19 -47 -65 -156h-42l-193 459h101z" />
    <glyph glyph-name="x" unicode="x" horiz-adv-x="523" 
d="M172 234l-181 225h120l123 -157l124 157h124l-184 -225l196 -234h-123l-137 164l-137 -164h-123z" />
    <glyph glyph-name="y" unicode="y" horiz-adv-x="463" 
d="M82 459q35 -76 73 -159q27 -60 64 -145q22 52 40.5 96t46 105.5t45.5 102.5h105l-322 -717h-105l139 312l-191 405h105z" />
    <glyph glyph-name="z" unicode="z" horiz-adv-x="442" 
d="M242 370h-218v89h383l-245 -373h239v-86h-404z" />
    <glyph glyph-name="braceleft" unicode="{" horiz-adv-x="334" 
d="M42 294q54 0 72 67q4 15 6 44t2 68l-1 43q0 47 2 77.5t9 53.5q23 75 93 75h67v-65h-44q-46 0 -46 -82v-113l-1 -57q0 -42 -24.5 -85t-62.5 -55q88 -29 88 -201l-1 -87q0 -108 47 -108h44v-65h-67q-47 0 -74.5 39.5t-27.5 89.5v171q0 44 -18 83q-21 47 -63 47v60z" />
    <glyph glyph-name="bar" unicode="|" horiz-adv-x="260" 
d="M94 737h73v-756h-73v756z" />
    <glyph glyph-name="braceright" unicode="}" horiz-adv-x="334" 
d="M292 234q-41 0 -63 -47q-18 -36 -18 -83v-171q0 -50 -25 -87q-29 -42 -77 -42h-67v65h44q46 0 46 108l-1 86q0 76 13 118q19 64 76 82q-38 12 -64 58q-13 23 -18.5 41.5t-5.5 41.5v171q0 82 -46 82h-44v65h67q76 0 97 -94q6 -32 6 -155q0 -81 8 -112q17 -67 72 -67v-60z
" />
    <glyph glyph-name="asciitilde" unicode="~" horiz-adv-x="0" 
d="M-63 898q23 0 68 -24q42 -24 66 -24q30 0 42 46l59 -22q-27 -93 -98 -93q-28 0 -75 24t-66 24q-26 0 -47 -51l-57 26q36 94 108 94z" />
    <glyph glyph-name="nonbreakingspace" unicode="&#xa0;" horiz-adv-x="500" 
 />
    <glyph glyph-name="exclamdown" unicode="&#xa1;" horiz-adv-x="262" 
d="M119 493l33 -184q17 -110 17 -186q0 -132 -62 -132q-58 0 -58 114q0 119 48 388h22zM108 714q30 0 49 -22q10 -11 15 -23t5 -29q0 -26 -20.5 -48t-47.5 -22q-29 0 -52 20q-22 22 -22 50q0 29 21 52q10 10 23 16t29 6z" />
    <glyph glyph-name="cent" unicode="&#xa2;" horiz-adv-x="403" 
d="M384 30q-44 -31 -108 -40v-67h-53v66q-46 0 -83.5 19.5t-70.5 57.5q-60 69 -60 166q0 96 59 162q31 35 70 55t85 20v70h53v-71q26 -3 101 -31v-98q-38 30 -101 39v-298q48 8 108 45v-95zM223 81v298q-57 -9 -89 -56q-28 -44 -28 -106q0 -54 31.5 -90.5t85.5 -45.5z" />
    <glyph glyph-name="sterling" unicode="&#xa3;" horiz-adv-x="563" 
d="M25 358l92 -1q-48 99 -48 161q0 87 64 145q60 54 149 54q91 0 146.5 -55t67.5 -146l-87 -29q0 29 -8.5 54t-24.5 47q-34 43 -94 43q-48 0 -81.5 -30.5t-33.5 -80.5q0 -42 55 -162h158v-73h-131q8 -32 8 -69q0 -50 -29 -91l66 -33q44 -19 69 -19q33 0 74 66l74 -40
q-18 -46 -59.5 -80t-87.5 -34q-39 0 -104 34t-94 34q-30 0 -55 -29l-9 -20l-10 -20l-66 52q45 96 120 96q22 46 22 76q0 39 -22 77h-121v73z" />
    <glyph glyph-name="currency" unicode="&#xa4;" horiz-adv-x="750" 
d="M524 258h-304q25 -78 91.5 -126t154.5 -48q121 0 240 76l-1 -112q-37 -16 -65.5 -27.5t-52.5 -18.5q-62 -17 -125 -17q-132 0 -226 74.5t-126 198.5h-87l31 73h46l-1 24v19h-76l31 73h56q30 119 128.5 196.5t225.5 77.5q72 0 119.5 -12.5t112.5 -48.5v-108
q-65 37 -107 52q-57 19 -117 19q-88 0 -154.5 -48t-96.5 -128h384l-31 -73h-368l-1 -22l1 -21h349z" />
    <glyph glyph-name="section" unicode="&#xa7;" horiz-adv-x="423" 
d="M55 554q0 63 44.5 113t107.5 50q28 0 47 -4t38 -16q41 -24 41 -72q0 -25 -15 -44t-40 -19q-36 0 -45 17q-4 12 -4 49q0 14 -26 14q-24 0 -42.5 -24.5t-18.5 -51.5q0 -50 58 -117l109 -124q58 -79 58 -156q0 -57 -71 -141q28 -50 28 -97q0 -63 -44.5 -112.5t-109.5 -49.5
q-46 0 -83 22q-22 12 -32.5 28.5t-10.5 39.5q0 28 17 48t44 20q17 0 34.5 -12t17.5 -32l-2 -11l-2 -12q0 -16 24 -16q27 0 43 23.5t16 49.5q0 49 -60 120l-111 127q-60 77 -60 142q0 76 74 157q-24 45 -24 91zM252 93q33 42 33 79t-55 99l-109 125q-34 -45 -34 -77
q0 -45 65 -120z" />
    <glyph glyph-name="dieresis" unicode="&#xa8;" horiz-adv-x="0" 
d="M-105 650q25 0 42 -17q18 -15 18 -40q0 -27 -18.5 -44.5t-45.5 -17.5q-21 0 -37.5 18.5t-16.5 39.5q0 25 17 43t41 18zM45 599q0 17 18.5 34t35.5 17h12q21 0 37 -19.5t16 -41.5t-17 -40q-15 -18 -38 -18q-64 0 -64 68z" />
    <glyph glyph-name="copyright" unicode="&#xa9;" horiz-adv-x="748" 
d="M501 497l4 -123h-19q-8 43 -39.5 72t-75.5 29q-59 0 -97 -54q-33 -48 -33 -111q0 -67 32 -106q33 -45 98 -45q39 0 68 13q21 9 57 39l11 -17q-67 -70 -143 -70q-81 0 -133 51t-52 134q0 77 51 134t128 57q20 0 51 -10q33 -9 51 -9q17 0 23 16h18zM359 648q137 0 234 -97
t97 -234q0 -138 -96.5 -234.5t-234.5 -96.5q-137 0 -234 97t-97 234t97 234t234 97zM359 24q121 0 207 86t86 207t-86 207t-207 86t-207 -86t-86 -207t86 -207t207 -86z" />
    <glyph glyph-name="guillemotleft" unicode="&#xab;" horiz-adv-x="544" 
d="M382 429h112l-171 -202l168 -197h-109l-163 197zM171 429h109l-168 -202l164 -197h-105l-165 197z" />
    <glyph glyph-name="logicalnot" unicode="&#xac;" horiz-adv-x="675" 
d="M-4 276h639v-276h-53v224h-586v52z" />
    <glyph glyph-name="registered" unicode="&#xae;" horiz-adv-x="748" 
d="M358 -19q-137 0 -234 97t-97 234t98 234t233 97q137 0 234 -97t97 -234t-97 -234t-234 -97zM357 605q-121 0 -206.5 -86.5t-85.5 -207.5t86.5 -206.5t206.5 -85.5q121 0 207 86t86 207q0 120 -86.5 206.5t-207.5 86.5zM308 190q0 -28 45 -28v-17h-153v17q47 0 47 25v277
q0 21 -11 27l-31 1v18h164q131 0 131 -90q0 -39 -28.5 -67.5t-69.5 -28.5l115 -148q11 -14 35 -14v-17h-91l-128 170h-25v-125zM308 337q52 0 83 13q44 17 44 62q0 38 -16.5 54t-60.5 22l-31 2q-20 0 -20 -20z" />
    <glyph glyph-name="degree" unicode="&#xb0;" horiz-adv-x="262" 
d="M128 370q-58 0 -101 42t-43 101q0 57 42.5 100.5t101.5 43.5q58 0 101 -43t43 -101t-42.5 -100.5t-101.5 -42.5zM127 618q-42 0 -73.5 -31t-31.5 -74q0 -42 31 -73.5t75 -31.5t75 31t31 74q0 42 -32.5 73.5t-74.5 31.5z" />
    <glyph glyph-name="plusminus" unicode="&#xb1;" horiz-adv-x="520" 
d="M223 392v227h53v-227h227v-53h-227v-228h-53v228h-227v53h227zM-4 0v53h507v-53h-507z" />
    <glyph glyph-name="acute" unicode="&#xb4;" horiz-adv-x="0" 
d="M14 670h111l-105 -157h-71z" />
    <glyph glyph-name="mu" unicode="&#xb5;" horiz-adv-x="545" 
d="M126 480v-319q0 -47 22.5 -78.5t68.5 -31.5q30 0 62 22t46 51v356h82v-369q0 -27 13 -53.5t39 -26.5q25 0 37 23l14 44l19 -1q-24 -113 -117 -113q-41 0 -62 28q-12 18 -23 67q-66 -95 -152 -95q-29 0 -52 16l-45 31v-22q0 -26 15.5 -78.5t15.5 -75.5q0 -25 -11 -47
t-34 -22t-35 21.5t-12 46.5q0 26 13.5 78t13.5 77v471h82z" />
    <glyph glyph-name="paragraph" unicode="&#xb6;" horiz-adv-x="667" 
d="M539 706v-54h-34v-819h-58v819h-144v-819h-58v486q-73 12 -116 62q-41 52 -41 126q0 95 64 149q59 50 157 50h230z" />
    <glyph glyph-name="periodcentered" unicode="&#xb7;" horiz-adv-x="164" 
d="M92 359q28 0 46 -20.5t18 -46.5q0 -28 -18 -49q-19 -19 -47 -19q-29 0 -50 18q-19 19 -19 49q0 29 20 48.5t50 19.5z" />
    <glyph glyph-name="periodcentered" unicode="&#x2219;" horiz-adv-x="164" 
d="M92 359q28 0 46 -20.5t18 -46.5q0 -28 -18 -49q-19 -19 -47 -19q-29 0 -50 18q-19 19 -19 49q0 29 20 48.5t50 19.5z" />
    <glyph glyph-name="cedilla" unicode="&#xb8;" horiz-adv-x="0" 
d="M-90 -164q12 -3 36 -3q23 0 47 12q26 15 26 38q0 24 -28 37q-10 4 -49 10l37 83h64l-18 -45q79 -18 79 -83q0 -50 -51 -83q-43 -26 -98 -26l-45 3v57z" />
    <glyph glyph-name="guillemotright" unicode="&#xbb;" horiz-adv-x="544" 
d="M171 231l-168 198h107l165 -198l-165 -201h-111zM380 231l-163 198h105l166 -198l-166 -201h-110z" />
    <glyph glyph-name="questiondown" unicode="&#xbf;" horiz-adv-x="322" 
d="M157 511l16 9q47 -44 47 -103q0 -43 -53.5 -123.5t-53.5 -131.5q0 -36 24.5 -57t63.5 -21l18 2l-62 -97q-8 0 -19 4q-64 23 -93 55q-35 38 -35 100q0 69 70.5 181t76.5 182zM157 714q29 0 50 -21.5t21 -52.5q0 -27 -22 -49.5t-50 -22.5q-27 0 -51 21q-22 22 -22 50
q0 34 20.5 54.5t53.5 20.5z" />
    <glyph glyph-name="Agrave" unicode="&#xc0;" horiz-adv-x="644" 
d="M276 894l74 -125h-83l-156 125h165zM244 706h86l304 -706h-112l-95 224h-263l-86 -224h-110zM387 316l-98 248l-91 -248h189z" />
    <glyph glyph-name="Aacute" unicode="&#xc1;" horiz-adv-x="644" 
d="M304 894h161l-151 -125h-81zM244 706h86l304 -706h-112l-95 224h-263l-86 -224h-110zM387 316l-98 248l-91 -248h189z" />
    <glyph glyph-name="Acircumflex" unicode="&#xc2;" horiz-adv-x="644" 
d="M202 894h166l90 -123h-90l-82 70l-84 -70h-88zM244 706h86l304 -706h-112l-95 224h-263l-86 -224h-110zM387 316l-98 248l-91 -248h189z" />
    <glyph glyph-name="Atilde" unicode="&#xc3;" horiz-adv-x="644" 
d="M225 898q23 0 67.5 -24t68.5 -24q25 0 41 46l58 -21q-23 -94 -97 -94q-28 0 -74 24t-68 24q-26 0 -47 -51l-57 26q39 94 108 94zM244 706h86l304 -706h-112l-95 224h-263l-86 -224h-110zM387 316l-98 248l-91 -248h189z" />
    <glyph glyph-name="Adieresis" unicode="&#xc4;" horiz-adv-x="644" 
d="M244 706h86l304 -706h-112l-95 224h-263l-86 -224h-110zM387 316l-98 248l-91 -248h189zM149 895q30 0 49.5 -20t19.5 -50q0 -29 -20.5 -48t-48.5 -19q-27 0 -47 20t-20 46q0 28 18.5 49.5t48.5 21.5zM431 895q25 0 45 -21.5t20 -47.5q0 -28 -21 -49q-21 -19 -49 -19
q-26 0 -47 21q-19 22 -19 51q0 28 20.5 46.5t50.5 18.5z" />
    <glyph glyph-name="Aring" unicode="&#xc5;" horiz-adv-x="644" 
d="M244 706h86l304 -706h-112l-95 224h-263l-86 -224h-110zM387 316l-98 248l-91 -248h189zM290 925q40 0 67 -29.5t27 -67.5q0 -39 -28 -67.5t-69 -28.5q-39 0 -67 29.5t-28 67.5q0 39 29.5 67.5t68.5 28.5zM290 779q20 0 34 15t14 34q0 22 -14 36t-36 14q-18 0 -34 -15
t-16 -35t15.5 -34.5t36.5 -14.5z" />
    <glyph glyph-name="AE" unicode="&#xc6;" horiz-adv-x="845" 
d="M352 706h425v-95h-277v-207h270v-94h-270v-217h286v-93h-386v310h-166l-173 -310h-117zM400 404v211l-114 -211h114z" />
    <glyph glyph-name="Ccedilla" unicode="&#xc7;" horiz-adv-x="644" 
d="M202 -164q12 -3 36 -3q25 0 49.5 13.5t24.5 36.5q0 24 -28 36l-49 11l37 83h64l-17 -44q77 -19 77 -86q0 -50 -51 -82q-44 -25 -98 -25l-45 3v57zM602 552q-65 37 -107 52q-57 19 -117 19q-113 0 -190 -79t-77 -192q0 -116 73 -192t188 -76q121 0 240 76l-1 -112
q-37 -16 -65.5 -27.5t-52.5 -18.5q-62 -17 -125 -17q-159 0 -261 105t-102 265q0 153 106.5 259.5t258.5 106.5q72 0 119.5 -12.5t112.5 -48.5v-108z" />
    <glyph glyph-name="Egrave" unicode="&#xc8;" horiz-adv-x="483" 
d="M215 894l74 -125h-84l-156 125h166zM53 706h380v-94h-278v-214h271v-94h-271v-212h290v-92h-392v706z" />
    <glyph glyph-name="Eacute" unicode="&#xc9;" horiz-adv-x="483" 
d="M238 894h163l-153 -125h-81zM50 706h380v-94h-278v-214h271v-94h-271v-212h290v-92h-392v706z" />
    <glyph glyph-name="Ecircumflex" unicode="&#xca;" horiz-adv-x="483" 
d="M138 894h166l89 -123h-89l-83 70l-83 -70h-89zM50 706h380v-94h-278v-214h271v-94h-271v-212h290v-92h-392v706z" />
    <glyph glyph-name="Edieresis" unicode="&#xcb;" horiz-adv-x="483" 
d="M91 895q30 0 49.5 -20t19.5 -50q0 -28 -21.5 -47.5t-49.5 -19.5q-26 0 -47 21q-18 21 -18 49q0 27 20 47t47 20zM372 895q26 0 45.5 -21t19.5 -48q0 -30 -18.5 -49t-49.5 -19q-26 0 -46.5 21.5t-20.5 48.5q0 29 21 48t49 19zM55 706h380v-94h-278v-214h271v-94h-271v-212
h290v-92h-392v706z" />
    <glyph glyph-name="Igrave" unicode="&#xcc;" horiz-adv-x="241" 
d="M93 894l74 -125h-84l-155 125h165zM56 706h99v-706h-99v706z" />
    <glyph glyph-name="Iacute" unicode="&#xcd;" horiz-adv-x="241" 
d="M134 894h162l-153 -125h-80zM70 706h99v-706h-99v706z" />
    <glyph glyph-name="Icircumflex" unicode="&#xce;" horiz-adv-x="241" 
d="M20 894h166l89 -123h-89l-83 70l-83 -70h-88zM57 706h99v-706h-99v706z" />
    <glyph glyph-name="Idieresis" unicode="&#xcf;" horiz-adv-x="241" 
d="M-37 895q30 0 49.5 -20t19.5 -50q0 -28 -21.5 -47.5t-49.5 -19.5q-26 0 -45.5 21.5t-19.5 49.5q0 25 20.5 45.5t46.5 20.5zM244 895q26 0 46 -20.5t20 -48.5q0 -30 -20.5 -49t-49.5 -19q-26 0 -47 21q-19 22 -19 49q0 29 21 48t49 19zM52 706h99v-706h-99v706z" />
    <glyph glyph-name="Ntilde" unicode="&#xd1;" horiz-adv-x="745" 
d="M281 898q24 0 68.5 -24t67.5 -24q26 0 42 46l58 -22q-26 -93 -97 -93q-28 0 -74 24t-68 24q-26 0 -47 -51l-57 26q36 94 107 94zM37 706h82l356 -429q57 -68 89 -118l-6 186v361h99v-706h-83l-353 427q-46 56 -90 123l5 -147v-403h-99v706z" />
    <glyph glyph-name="Ograve" unicode="&#xd2;" horiz-adv-x="805" 
d="M355 894l75 -125h-85l-155 125h165zM367 720q163 0 270 -107t107 -269q0 -146 -111 -252t-258 -106q-156 0 -267.5 105t-111.5 257q0 159 106.5 265.5t264.5 106.5zM376 84q107 0 186.5 78.5t79.5 186.5q0 113 -77.5 192.5t-191.5 79.5q-111 0 -192.5 -77.5t-81.5 -189.5
q0 -114 81 -192t196 -78z" />
    <glyph glyph-name="Oacute" unicode="&#xd3;" horiz-adv-x="805" 
d="M383 894h161l-152 -125h-80zM367 720q163 0 270 -107t107 -269q0 -146 -111 -252t-258 -106q-156 0 -267.5 105t-111.5 257q0 159 106.5 265.5t264.5 106.5zM376 84q107 0 186.5 78.5t79.5 186.5q0 113 -77.5 192.5t-191.5 79.5q-111 0 -192.5 -77.5t-81.5 -189.5
q0 -114 81 -192t196 -78z" />
    <glyph glyph-name="Ocircumflex" unicode="&#xd4;" horiz-adv-x="805" 
d="M282 894h166l88 -123h-88l-84 70l-82 -70h-89zM367 720q163 0 270 -107t107 -269q0 -146 -111 -252t-258 -106q-156 0 -267.5 105t-111.5 257q0 159 106.5 265.5t264.5 106.5zM376 84q107 0 186.5 78.5t79.5 186.5q0 113 -77.5 192.5t-191.5 79.5q-111 0 -192.5 -77.5
t-81.5 -189.5q0 -114 81 -192t196 -78z" />
    <glyph glyph-name="Otilde" unicode="&#xd5;" horiz-adv-x="805" 
d="M303 898q25 0 69 -24t66 -24q30 0 42 46l59 -22q-26 -93 -97 -93q-27 0 -73.5 24t-67.5 24q-16 0 -30 -18l-18 -33l-57 26q38 94 107 94zM367 720q163 0 270 -107t107 -269q0 -146 -111 -252t-258 -106q-156 0 -267.5 105t-111.5 257q0 159 106.5 265.5t264.5 106.5z
M376 84q107 0 186.5 78.5t79.5 186.5q0 113 -77.5 192.5t-191.5 79.5q-111 0 -192.5 -77.5t-81.5 -189.5q0 -114 81 -192t196 -78z" />
    <glyph glyph-name="Odieresis" unicode="&#xd6;" horiz-adv-x="805" 
d="M367 720q163 0 270 -107t107 -269q0 -146 -111 -252t-258 -106q-156 0 -267.5 105t-111.5 257q0 159 106.5 265.5t264.5 106.5zM376 84q107 0 186.5 78.5t79.5 186.5q0 113 -77.5 192.5t-191.5 79.5q-111 0 -192.5 -77.5t-81.5 -189.5q0 -114 81 -192t196 -78zM230 895
q30 0 49.5 -20t19.5 -50q0 -28 -21.5 -47.5t-49.5 -19.5q-26 0 -47 21q-18 21 -18 50q0 26 21 46t46 20zM512 895q20 0 42.5 -17.5t22.5 -39.5v-26q0 -21 -23 -38q-13 -9 -23 -12.5t-23 -3.5q-27 0 -48 22q-19 22 -19 50q0 26 21.5 45.5t49.5 19.5z" />
    <glyph glyph-name="Oslash" unicode="&#xd8;" horiz-adv-x="805" 
d="M653 731l43 -37l-67 -78q51 -45 83 -118q15 -35 23 -69.5t8 -71.5q0 -159 -104.5 -265t-265.5 -106q-71 0 -122 18q-27 11 -108 57l-69 -76l-43 35l68 78q-3 7 -14 16q-44 53 -66 110t-22 122q0 160 107 267.5t266 107.5q65 0 111 -15.5t106 -52.5zM371 83q116 0 192 78
t76 198q0 106 -75 184l-356 -408q41 -26 81 -39t82 -13zM520 578q-39 22 -75.5 33t-73.5 11q-116 0 -193.5 -79t-77.5 -195q0 -87 66 -173z" />
    <glyph glyph-name="Ugrave" unicode="&#xd9;" horiz-adv-x="704" 
d="M313 894l75 -125h-84l-155 125h164zM37 706h100v-417q0 -199 186 -199q107 0 153 58q42 51 42 162v396h100v-442q0 -134 -80.5 -206.5t-216.5 -72.5q-141 0 -212.5 82t-71.5 224v415z" />
    <glyph glyph-name="Uacute" unicode="&#xda;" horiz-adv-x="704" 
d="M341 894h162l-153 -125h-80zM37 706h100v-417q0 -199 186 -199q107 0 153 58q42 51 42 162v396h100v-442q0 -134 -80.5 -206.5t-216.5 -72.5q-141 0 -212.5 82t-71.5 224v415z" />
    <glyph glyph-name="Ucircumflex" unicode="&#xdb;" horiz-adv-x="704" 
d="M240 894h166l89 -123h-89l-83 70l-83 -70h-88zM37 706h100v-417q0 -199 186 -199q107 0 153 58q42 51 42 162v396h100v-442q0 -134 -80.5 -206.5t-216.5 -72.5q-141 0 -212.5 82t-71.5 224v415z" />
    <glyph glyph-name="Udieresis" unicode="&#xdc;" horiz-adv-x="704" 
d="M37 706h100v-417q0 -199 186 -199q107 0 153 58q42 51 42 162v396h100v-442q0 -134 -80.5 -206.5t-216.5 -72.5q-141 0 -212.5 82t-71.5 224v415zM189 895q28 0 47.5 -21t19.5 -49t-21.5 -47.5t-49.5 -19.5q-26 0 -47 21q-18 21 -18 50q0 26 21.5 46t47.5 20zM469 895
q26 0 46 -21.5t20 -47.5q0 -57 -69 -68q-67 17 -67 66q0 31 20 51t50 20z" />
    <glyph glyph-name="germandbls" unicode="&#xdf;" 
d="M39 498q0 217 206 217q78 0 127.5 -49t49.5 -128q0 -103 -89 -148q66 -34 90.5 -70.5t24.5 -107.5q0 -90 -47 -152q-51 -69 -137 -69q-29 0 -72 8v97q18 -8 30.5 -10.5t24.5 -2.5q53 0 83 39q25 36 25 91q0 133 -156 133v81q127 0 127 106q0 41 -23.5 67.5t-66.5 26.5
q-64 0 -88 -52q-15 -35 -15 -109v-466h-94v498z" />
    <glyph glyph-name="agrave" unicode="&#xe0;" horiz-adv-x="403" 
d="M161 670l69 -159h-69l-110 159h110zM229 292q0 92 -73 92q-59 0 -143 -69l1 95q77 60 161 60q147 0 147 -206l-2 -63l-2 -62q0 -54 19 -60l47 16v-68q-63 -39 -110 -39q-26 0 -44 36q-69 -36 -106 -36q-59 0 -95.5 31t-36.5 91q0 63 90 113q23 12 59 25t88 28v16z
M229 219q-141 -35 -141 -103q0 -22 17 -39t40 -17q19 0 44 11l40 19v129z" />
    <glyph glyph-name="aacute" unicode="&#xe1;" horiz-adv-x="403" 
d="M191 670h111l-104 -157h-71zM229 292q0 92 -73 92q-59 0 -143 -69l1 95q77 60 161 60q147 0 147 -206l-2 -63l-2 -62q0 -54 19 -60l47 16v-68q-63 -39 -110 -39q-26 0 -44 36q-69 -36 -106 -36q-59 0 -95.5 31t-36.5 91q0 63 90 113q23 12 59 25t88 28v16zM229 219
q-141 -35 -141 -103q0 -22 17 -39t40 -17q19 0 44 11l40 19v129z" />
    <glyph glyph-name="acircumflex" unicode="&#xe2;" horiz-adv-x="403" 
d="M126 670h99l118 -158h-75l-93 86l-93 -86h-72zM229 292q0 92 -73 92q-59 0 -143 -69l1 95q77 60 161 60q147 0 147 -206l-2 -63l-2 -62q0 -54 19 -60l47 16v-68q-63 -39 -110 -39q-26 0 -44 36q-69 -36 -106 -36q-59 0 -95.5 31t-36.5 91q0 63 90 113q23 12 59 25t88 28
v16zM229 219q-141 -35 -141 -103q0 -22 17 -39t40 -17q19 0 44 11l40 19v129z" />
    <glyph glyph-name="atilde" unicode="&#xe3;" horiz-adv-x="403" 
d="M113 663q26 0 72 -26q50 -25 66 -25q15 0 25 17l14 30l61 -22q-21 -47 -34 -64q-24 -29 -63 -29q-29 0 -77 24.5t-63 25.5q-27 0 -51 -50l-57 27q21 44 40 64q28 28 67 28zM229 292q0 92 -73 92q-59 0 -143 -69l1 95q77 60 161 60q147 0 147 -206l-2 -63l-2 -62
q0 -54 19 -60l47 16v-68q-63 -39 -110 -39q-26 0 -44 36q-69 -36 -106 -36q-59 0 -95.5 31t-36.5 91q0 63 90 113q23 12 59 25t88 28v16zM229 219q-141 -35 -141 -103q0 -22 17 -39t40 -17q19 0 44 11l40 19v129z" />
    <glyph glyph-name="adieresis" unicode="&#xe4;" horiz-adv-x="403" 
d="M229 292q0 92 -73 92q-59 0 -143 -69l1 95q77 60 161 60q147 0 147 -206l-2 -63l-2 -62q0 -54 19 -60l47 16v-68q-63 -39 -110 -39q-26 0 -44 36q-69 -36 -106 -36q-59 0 -95.5 31t-36.5 91q0 63 90 113q23 12 59 25t88 28v16zM229 219q-141 -35 -141 -103q0 -22 17 -39
t40 -17q19 0 44 11l40 19v129zM65 650q24 0 41 -17q18 -15 18 -40q0 -27 -18.5 -44.5t-44.5 -17.5q-22 0 -40 18q-16 19 -16 41q0 26 18 43t42 17zM215 599q0 17 18.5 34t35.5 17h12q21 0 36.5 -19t15.5 -42q0 -21 -15.5 -39.5t-37.5 -18.5q-65 0 -65 68z" />
    <glyph glyph-name="aring" unicode="&#xe5;" horiz-adv-x="403" 
d="M229 292q0 92 -73 92q-59 0 -143 -69l1 95q77 60 161 60q147 0 147 -206l-2 -63l-2 -62q0 -54 19 -60l47 16v-68q-63 -39 -110 -39q-26 0 -44 36q-69 -36 -106 -36q-59 0 -95.5 31t-36.5 91q0 63 90 113q23 12 59 25t88 28v16zM229 219q-141 -35 -141 -103q0 -22 17 -39
t40 -17q19 0 44 11l40 19v129zM166 682q43 0 70.5 -28t27.5 -73q0 -40 -29 -66t-68 -26t-67 29t-28 67t27.5 67.5t66.5 29.5zM169 535q20 0 34.5 14t14.5 35q0 22 -14 37t-36 15q-19 0 -34.5 -15.5t-15.5 -35.5q0 -18 15 -34t36 -16z" />
    <glyph glyph-name="ae" unicode="&#xe6;" horiz-adv-x="664" 
d="M219 298q0 87 -71 87q-31 0 -76.5 -23t-71.5 -49v97q87 60 166 60q72 0 117 -60q60 60 141 60q88 0 138 -63.5t50 -186.5l-309 -1q0 -69 35 -104t102 -35q85 0 164 58v-96q-28 -15 -47.5 -24.5t-37.5 -16t-38.5 -10.5t-45.5 -4q-45 0 -82 19q-23 11 -70 50
q-95 -68 -171 -68q-51 0 -92 32t-41 83q0 72 88 121q37 19 152 55v19zM219 217q-144 -41 -144 -104q0 -20 19 -38q19 -16 40 -16q31 0 85 35v123zM518 285q-15 98 -100 98q-88 0 -112 -98h212z" />
    <glyph glyph-name="ccedilla" unicode="&#xe7;" horiz-adv-x="403" 
d="M90 -164q11 -3 35 -3q25 0 49.5 13.5t24.5 36.5q0 24 -28 36l-49 11l36 83h65l-17 -45q78 -20 78 -85q0 -50 -51 -82q-44 -25 -98 -25l-45 3v57zM377 339q-53 41 -128 41q-70 0 -106.5 -45t-36.5 -116q0 -62 40.5 -101.5t102.5 -39.5t135 47v-95q-60 -42 -143 -42
q-99 0 -165 71t-66 173q0 101 66 169.5t168 68.5q41 0 133 -33v-98z" />
    <glyph glyph-name="egrave" unicode="&#xe8;" horiz-adv-x="463" 
d="M191 670l69 -159h-69l-109 159h109zM103 216q0 -30 12 -55.5t32 -45.5q19 -17 45.5 -27t58.5 -10q56 0 158 54v-93q-104 -51 -171 -51q-104 0 -168 71.5t-64 177.5q0 92 55 160q59 72 149 72q104 0 159 -77q48 -66 48 -176h-314zM325 285q-23 100 -108 100
q-91 0 -112 -100h220z" />
    <glyph glyph-name="eacute" unicode="&#xe9;" horiz-adv-x="463" 
d="M222 670h109l-103 -157h-71zM103 216q0 -30 12 -55.5t32 -45.5q19 -17 45.5 -27t58.5 -10q56 0 158 54v-93q-104 -51 -171 -51q-104 0 -168 71.5t-64 177.5q0 92 55 160q59 72 149 72q104 0 159 -77q48 -66 48 -176h-314zM325 285q-23 100 -108 100q-91 0 -112 -100h220z
" />
    <glyph glyph-name="ecircumflex" unicode="&#xea;" horiz-adv-x="463" 
d="M156 670h99l118 -158h-75l-92 86l-94 -86h-72zM103 216q0 -30 12 -55.5t32 -45.5q19 -17 45.5 -27t58.5 -10q56 0 158 54v-93q-104 -51 -171 -51q-104 0 -168 71.5t-64 177.5q0 92 55 160q59 72 149 72q104 0 159 -77q48 -66 48 -176h-314zM325 285q-23 100 -108 100
q-91 0 -112 -100h220z" />
    <glyph glyph-name="edieresis" unicode="&#xeb;" horiz-adv-x="463" 
d="M102 650q25 0 42.5 -15.5t17.5 -41.5q0 -27 -17.5 -44.5t-45.5 -17.5q-22 0 -40 18q-16 19 -16 41q0 25 17 42.5t42 17.5zM307 651h13q21 0 37 -19.5t16 -41.5t-17 -40q-15 -18 -37 -18q-66 0 -66 65q0 20 17 37t37 17zM103 217q0 -30 12 -55.5t32 -45.5q19 -17 45.5 -27
t58.5 -10q56 0 158 54v-93q-104 -51 -171 -51q-104 0 -168 71.5t-64 177.5q0 92 55 160q59 72 149 72q104 0 159 -77q48 -66 48 -176h-314zM325 286q-23 100 -108 100q-91 0 -112 -100h220z" />
    <glyph glyph-name="igrave" unicode="&#xec;" horiz-adv-x="222" 
d="M85 670l69 -159h-69l-110 159h110zM55 459h95v-459h-95v459z" />
    <glyph glyph-name="iacute" unicode="&#xed;" horiz-adv-x="222" 
d="M120 670h111l-104 -157h-71zM60 459h95v-459h-95v459z" />
    <glyph glyph-name="icircumflex" unicode="&#xee;" horiz-adv-x="222" 
d="M45 670h98l119 -158h-75l-93 86l-93 -86h-72zM50 459h95v-459h-95v459z" />
    <glyph glyph-name="idieresis" unicode="&#xef;" horiz-adv-x="222" 
d="M-67 597q0 20 18.5 36.5t39.5 16.5q61 0 61 -65q0 -23 -20 -38.5t-44 -15.5q-20 0 -37.5 16.5t-17.5 36.5v13zM208 650q18 0 35.5 -18.5t17.5 -36.5v-12q0 -18 -18 -36q-18 -16 -36 -16q-25 0 -45 15.5t-20 41.5q0 62 66 62zM50 459h95v-459h-95v459z" />
    <glyph glyph-name="ntilde" unicode="&#xf1;" 
d="M166 663q25 0 74 -25.5t65 -25.5q22 0 38 47l61 -22q-27 -93 -98 -93q-28 0 -75.5 25t-63.5 25q-15 0 -32 -18l-20 -32l-55 27q23 46 40 63q27 29 66 29zM38 459h95v-40q64 49 125 49q102 0 140 -68q28 -53 28 -162v-238h-94v245q0 66 -12 93q-18 42 -77 42
q-51 0 -110 -49v-331h-95v459z" />
    <glyph glyph-name="ograve" unicode="&#xf2;" horiz-adv-x="544" 
d="M230 670l69 -159h-69l-110 159h110zM254 470q99 0 168.5 -73t69.5 -172q0 -101 -74 -169t-175 -68q-92 0 -165.5 72t-73.5 167q0 105 72 174t178 69zM246 78q64 0 110 44t46 107q0 60 -45 106t-107 46q-64 0 -111 -44.5t-47 -109.5q0 -58 46.5 -103.5t107.5 -45.5z" />
    <glyph glyph-name="oacute" unicode="&#xf3;" horiz-adv-x="544" 
d="M260 670h111l-104 -157h-72zM254 470q99 0 168.5 -73t69.5 -172q0 -101 -74 -169t-175 -68q-92 0 -165.5 72t-73.5 167q0 105 72 174t178 69zM246 78q64 0 110 44t46 107q0 60 -45 106t-107 46q-64 0 -111 -44.5t-47 -109.5q0 -58 46.5 -103.5t107.5 -45.5z" />
    <glyph glyph-name="ocircumflex" unicode="&#xf4;" horiz-adv-x="544" 
d="M194 670h99l119 -158h-76l-92 86l-93 -86h-73zM254 470q99 0 168.5 -73t69.5 -172q0 -101 -74 -169t-175 -68q-92 0 -165.5 72t-73.5 167q0 105 72 174t178 69zM246 78q64 0 110 44t46 107q0 60 -45 106t-107 46q-64 0 -111 -44.5t-47 -109.5q0 -58 46.5 -103.5
t107.5 -45.5z" />
    <glyph glyph-name="otilde" unicode="&#xf5;" horiz-adv-x="544" 
d="M181 663q25 0 74 -25.5t64 -25.5q21 0 39 47l62 -21q-20 -47 -35 -65q-24 -29 -65 -29q-28 0 -74 24t-64 26q-27 0 -51 -50l-56 27q23 46 40 63q27 29 66 29zM253 470q99 0 168.5 -73t69.5 -172q0 -101 -74 -169t-175 -68q-92 0 -165.5 72t-73.5 167q0 105 72 174t178 69
zM245 78q64 0 110 44t46 107q0 60 -45 106t-107 46q-64 0 -111 -44.5t-47 -109.5q0 -58 46.5 -103.5t107.5 -45.5z" />
    <glyph glyph-name="odieresis" unicode="&#xf6;" horiz-adv-x="544" 
d="M254 470q99 0 168.5 -73t69.5 -172q0 -101 -74 -169t-175 -68q-92 0 -165.5 72t-73.5 167q0 105 72 174t178 69zM246 78q64 0 110 44t46 107q0 60 -45 106t-107 46q-64 0 -111 -44.5t-47 -109.5q0 -58 46.5 -103.5t107.5 -45.5zM82 597q0 21 17 38q19 16 40 16
q24 0 43 -16t19 -39q0 -27 -17.5 -46t-46.5 -19q-21 0 -38 15.5t-17 37.5v13zM357 650q18 0 35.5 -18.5t17.5 -36.5v-12q0 -21 -18.5 -36.5t-41.5 -15.5t-41 17t-18 40q0 62 66 62z" />
    <glyph glyph-name="divide" unicode="&#xf7;" horiz-adv-x="520" 
d="M-4 279h505v-52h-505v52zM243 438q21 0 37.5 -16t16.5 -38q0 -21 -16 -37.5t-38 -16.5q-21 0 -37 15.5t-16 38.5q0 20 15 38q16 16 38 16zM243 176q21 0 37.5 -16t16.5 -38q0 -21 -16 -37.5t-38 -16.5q-21 0 -37 15.5t-16 38.5q0 20 15 38q16 16 38 16z" />
    <glyph glyph-name="oslash" unicode="&#xf8;" horiz-adv-x="544" 
d="M68 67q-65 82 -65 158q0 102 68.5 173.5t172.5 71.5q73 0 148 -47l67 73l34 -31l-67 -73q37 -49 48 -74q17 -37 17 -86q0 -105 -67 -175t-170 -70q-73 0 -153 49l-65 -72l-35 30zM254 72q65 0 107.5 44.5t42.5 111.5q0 48 -35 101l-206 -227q42 -30 91 -30zM334 361
q-32 27 -87 27q-64 0 -109.5 -46t-45.5 -113q0 -50 33 -98z" />
    <glyph glyph-name="ugrave" unicode="&#xf9;" 
d="M215 670l68 -159h-68l-110 159h110zM39 459h94v-233q0 -70 9 -97q17 -50 74 -50q61 0 115 51v329h96v-459h-96l-1 40q-58 -49 -132 -49q-159 0 -159 213v255z" />
    <glyph glyph-name="uacute" unicode="&#xfa;" 
d="M245 670h110l-103 -157h-71zM39 459h94v-233q0 -70 9 -97q17 -50 74 -50q61 0 115 51v329h96v-459h-96l-1 40q-58 -49 -132 -49q-159 0 -159 213v255z" />
    <glyph glyph-name="ucircumflex" unicode="&#xfb;" 
d="M180 670h98l119 -158h-75l-93 86l-93 -86h-72zM39 459h94v-233q0 -70 9 -97q17 -50 74 -50q61 0 115 51v329h96v-459h-96l-1 40q-58 -49 -132 -49q-159 0 -159 213v255z" />
    <glyph glyph-name="udieresis" unicode="&#xfc;" 
d="M39 459h94v-233q0 -70 9 -97q17 -50 74 -50q61 0 115 51v329h96v-459h-96l-1 40q-58 -49 -132 -49q-159 0 -159 213v255zM68 597q0 21 19 37.5t41 16.5q21 0 40 -15t19 -38v-13q0 -24 -18.5 -39t-44.5 -15q-19 0 -37.5 16.5t-18.5 36.5v13zM332 650h13q17 0 34.5 -19
t17.5 -36v-12q0 -18 -18 -36q-18 -16 -36 -16q-25 0 -45 15.5t-20 41.5q0 22 15 42t39 20z" />
    <glyph glyph-name="ydieresis" unicode="&#xff;" horiz-adv-x="463" 
d="M99 650q25 0 42.5 -15.5t17.5 -41.5q0 -27 -17.5 -44.5t-45.5 -17.5q-22 0 -40 18q-16 19 -16 41q0 25 17 42.5t42 17.5zM304 651h13q21 0 37 -19.5t16 -41.5t-17 -40q-15 -18 -37 -18q-66 0 -66 65q0 20 17 37t37 17zM82 460q35 -76 73 -159q27 -60 64 -145
q22 52 40.5 96t46 105.5t45.5 102.5h105l-322 -717h-105l139 312l-191 405h105z" />
    <glyph glyph-name="c128" unicode="&#x112;" horiz-adv-x="520" 
d="M419 500l-73 -130h158v-53h-187l-75 -134h262v-52h-290l-87 -155l-47 27l71 128h-151v52h181l74 134h-255v53h285l87 157z" />
    <glyph glyph-name="c129" unicode="&#x113;" horiz-adv-x="675" 
d="M508 388q53 0 93.5 -39.5t40.5 -93.5t-38 -95t-90 -41q-56 0 -104 32q-19 12 -85 71q-63 -56 -85 -71q-49 -32 -105 -32q-53 0 -91 42t-38 95q0 55 41 93.5t95 38.5q48 0 99 -35q32 -20 84 -68l36 32q27 23 49.5 38t48 24t49.5 9zM142 338q-35 0 -60.5 -27t-25.5 -62
q0 -34 27 -60q27 -24 64 -24q40 0 81 29q19 13 66 59q-45 39 -70 56q-46 29 -82 29zM505 166q36 0 63 24t27 59q0 36 -24.5 62.5t-61.5 26.5q-54 0 -152 -85q45 -43 66 -58q41 -29 82 -29z" />
    <glyph glyph-name="c141" unicode="&#x114;" horiz-adv-x="579" 
d="M568 0h-578l307 660zM53 47h396l-187 449z" />
    <glyph glyph-name="c142" unicode="&#x115;" horiz-adv-x="468" 
d="M191 0l-187 362l187 353h57l186 -353l-186 -362h-57zM219 663l-157 -301l157 -310l158 310z" />
    <glyph glyph-name="mu1" unicode="&#x116;" horiz-adv-x="545" 
d="M126 480v-319q0 -47 22.5 -78.5t68.5 -31.5q30 0 62 22t46 51v356h82v-369q0 -27 13 -53.5t39 -26.5q25 0 37 23l14 44l19 -1q-24 -113 -117 -113q-41 0 -62 28q-12 18 -23 67q-66 -95 -152 -95q-29 0 -52 16l-45 31v-22q0 -26 15.5 -78.5t15.5 -75.5q0 -25 -11 -47
t-34 -22t-35 21.5t-12 46.5q0 26 13.5 78t13.5 77v471h82z" />
    <glyph glyph-name="c279" unicode="&#x117;" horiz-adv-x="342" 
d="M24 287h283v-98h-283v98z" />
    <glyph glyph-name="c281" unicode="&#x119;" horiz-adv-x="750" 
d="M696 552q-65 37 -107 52q-57 19 -117 19q-113 0 -190 -79t-77 -192q0 -116 73 -192t188 -76q121 0 240 76l-1 -112q-37 -16 -65.5 -27.5t-52.5 -18.5q-62 -17 -125 -17q-159 0 -261 105t-102 265q0 153 106.5 259.5t258.5 106.5q72 0 119.5 -12.5t112.5 -48.5v-108z
M574 374h-551l31 73h551zM524 258h-501l31 73h501z" />
    <glyph glyph-name="dotlessi" unicode="&#x131;" horiz-adv-x="222" 
d="M54 459h95v-459h-95v459z" />
    <glyph glyph-name="OE" unicode="&#x152;" horiz-adv-x="815" 
d="M791 706v-94h-266v-214h244v-92h-244v-216h262v-90h-423q-162 0 -266.5 97t-104.5 259q0 165 115 261q107 89 276 89h407zM426 611l-29 1q-134 0 -211 -64q-84 -69 -84 -200q0 -127 90 -196q81 -61 212 -61h22v520z" />
    <glyph glyph-name="oe" unicode="&#x153;" horiz-adv-x="845" 
d="M589 470q95 0 152 -69q52 -62 52 -162v-18h-317q0 -65 37 -104.5t102 -39.5q70 0 171 55v-92q-48 -27 -91.5 -39.5t-89.5 -12.5q-124 0 -180 108q-68 -108 -194 -108q-101 0 -172.5 72.5t-71.5 172.5q0 98 72 167t172 69q116 0 194 -99q65 100 164 100zM238 81
q63 0 104.5 43.5t41.5 107.5q0 62 -46 103.5t-109 41.5q-59 0 -103.5 -44.5t-44.5 -104.5q0 -63 46 -105t111 -42zM701 287q-23 98 -108 98q-43 0 -75.5 -28t-40.5 -70h224z" />
    <glyph glyph-name="Scaron" unicode="&#x160;" horiz-adv-x="727" 
d="M296 0h-283v156h15q6 -30 19 -44.5t43 -14.5h152l-2 26q-209 62 -209 261q0 129 97 205q91 71 223 71q130 0 220 -72q96 -77 96 -206q0 -197 -208 -258l-2 -27h153q52 0 62 59h15v-156h-284l16 146q136 57 136 240q0 109 -47 172q-54 72 -158 72t-158 -72
q-48 -63 -48 -172q0 -182 136 -240z" />
    <glyph glyph-name="Ydieresis" unicode="&#x178;" horiz-adv-x="583" 
d="M122 895q30 0 49.5 -20t19.5 -50q0 -28 -21.5 -47.5t-49.5 -19.5q-21 0 -43 17t-22 39v17q0 26 20.5 45t46.5 19zM404 895q26 0 45.5 -21.5t19.5 -47.5q0 -29 -20.5 -48.5t-48.5 -19.5q-27 0 -48 21q-19 22 -19 51q0 26 21.5 45.5t49.5 19.5zM94 706l168 -236l168 236
h124l-243 -333v-373h-101v373l-239 333h123z" />
    <glyph glyph-name="florin" unicode="&#x192;" horiz-adv-x="520" 
d="M491 0h-477v53h477v-53zM491 333l-477 -221v60l416 191l-416 191v59l477 -220v-60z" />
    <glyph glyph-name="circumflex" unicode="&#x2c6;" horiz-adv-x="0" 
d="M-52 670h99l119 -158h-76l-92 86l-93 -86h-73z" />
    <glyph glyph-name="caron" unicode="&#x2c7;" horiz-adv-x="0" 
d="M-93 670l92 -87l95 87h74l-117 -158h-99l-120 158h75z" />
    <glyph glyph-name="tilde" unicode="&#x2dc;" horiz-adv-x="0" 
d="M-65 663q25 0 74 -25.5t64 -25.5q21 0 39 47l62 -21q-18 -45 -34 -64q-24 -30 -64 -30q-28 0 -76 24.5t-63 25.5q-30 0 -52 -50l-56 28q24 47 39 63q28 28 67 28z" />
    <glyph glyph-name="endash" unicode="&#x2013;" 
d="M16 287h449v-99h-449v99z" />
    <glyph glyph-name="emdash" unicode="&#x2014;" horiz-adv-x="644" 
d="M-32 331h666v-79h-666v79z" />
    <glyph glyph-name="quoteleft" unicode="&#x2018;" horiz-adv-x="222" 
d="M183 690q-48 -72 -48 -159v-4q52 -17 52 -66q0 -30 -22 -52.5t-50 -22.5q-43 0 -64.5 33t-21.5 78q0 114 134 217z" />
    <glyph glyph-name="quoteright" unicode="&#x2019;" horiz-adv-x="222" 
d="M35 410q48 74 48 146v17q-51 24 -51 66q0 29 21 52t50 23q42 0 67 -34q20 -31 20 -75q0 -118 -135 -219z" />
    <glyph glyph-name="quotesinglbase" unicode="&#x201a;" horiz-adv-x="222" 
d="M34 -161q25 35 36.5 73.5t11.5 78.5l-1 11q-48 21 -48 70q0 27 20 50q22 22 48 22q42 0 67 -35q22 -31 22 -75q0 -110 -135 -217z" />
    <glyph glyph-name="quotedblleft" unicode="&#x201c;" horiz-adv-x="442" 
d="M400 690l-34 -68q-6 -16 -8 -25q-6 -24 -6 -51l-1 -18q54 -15 54 -70q0 -29 -22 -51t-49 -22q-43 0 -68 37q-20 32 -20 78q0 57 39.5 120t93.5 94zM172 689q-49 -54 -49 -153v-9q51 -12 51 -68q0 -26 -17.5 -49t-44.5 -23q-94 0 -94 112q0 62 39 124q34 52 93 91z" />
    <glyph glyph-name="quotedblright" unicode="&#x201d;" horiz-adv-x="442" 
d="M25 410q48 75 48 144v17q-28 13 -40.5 28t-12.5 45q0 25 21.5 47.5t46.5 22.5q45 0 70 -35q21 -30 21 -80q0 -96 -89 -178l-44 -36zM253 409q49 63 49 152v10q-52 18 -52 69q0 26 18 49t45 23q46 0 72 -33q22 -31 22 -79q0 -124 -132 -216z" />
    <glyph glyph-name="quotedblbase" unicode="&#x201e;" horiz-adv-x="442" 
d="M25 -158q48 78 48 145v16q-53 14 -53 74q0 27 23 48.5t49 21.5q43 0 67 -37q21 -32 21 -79q0 -56 -41.5 -121.5t-92.5 -91.5zM253 -157q49 66 49 152v8q-52 18 -52 71q0 30 20 50.5t50 20.5q43 0 65 -32.5t22 -77.5q0 -60 -39.5 -124.5t-92.5 -92.5z" />
    <glyph glyph-name="dagger" unicode="&#x2020;" horiz-adv-x="483" 
d="M160 633q0 31 13.5 57.5t41.5 26.5q54 0 54 -93q0 -96 -32 -196q104 27 142 27q27 0 47 -12.5t20 -37.5q0 -50 -64 -50q-32 0 -73 10l-72 19q40 -371 40 -489q0 -150 -60 -150t-60 148q0 108 9 227.5t29 264.5l-71 -19q-44 -11 -72 -11q-65 0 -65 48q0 26 20 38.5
t48 12.5q27 0 61 -6t78 -20q-16 57 -25 109.5t-9 95.5z" />
    <glyph glyph-name="daggerdbl" unicode="&#x2021;" horiz-adv-x="766" 
d="M722 581l-29 -61q-83 102 -230 102q-91 0 -161 -53t-95 -137h445l-30 -63h-429l-2 -33l2 -30h400l-30 -63h-356q27 -89 98 -140.5t168 -51.5q137 0 220 99v-85q-97 -77 -225 -77q-122 0 -213.5 68.5t-118.5 186.5h-113l30 63h71l-1 31l1 32h-101l30 63h83
q27 117 119.5 185t217.5 68q72 0 140.5 -27.5t108.5 -76.5z" />
    <glyph glyph-name="bullet" unicode="&#x2022;" horiz-adv-x="333" 
d="M297 353q0 -55 -37 -92.5t-91 -37.5q-55 0 -94 38t-39 92q0 53 39.5 91.5t93.5 38.5q52 0 90 -38.5t38 -91.5z" />
    <glyph glyph-name="ellipsis" unicode="&#x2026;" horiz-adv-x="1001" 
d="M219 0h-104v106h104v-106zM552 0h-104v106h104v-106zM885 0h-104v106h104v-106z" />
    <glyph glyph-name="perthousand" unicode="&#x2030;" horiz-adv-x="259" 
d="M52 -103q-21 0 -40 19q-17 19 -17 40q0 15 13.5 27.5t28.5 12.5q11 0 28.5 -15t22.5 -15q26 0 26 94l-3 148l-3 150v220q0 302 99 302q24 0 44.5 -15t20.5 -40q0 -18 -15.5 -29.5t-32.5 -11.5q-14 0 -26.5 10t-22.5 12q-18 0 -18 -30q0 -50 9 -153t9 -155l1 -53v-53
q0 -376 -62 -441q-24 -24 -62 -24z" />
    <glyph glyph-name="guilsinglleft" unicode="&#x2039;" horiz-adv-x="364" 
d="M245 108l-157 123v92l157 123v-88l-105 -81l105 -81v-88z" />
    <glyph glyph-name="guilsinglright" unicode="&#x203a;" horiz-adv-x="333" 
d="M88 196l105 81l-105 81v88l157 -123v-92l-157 -123v88z" />
    <glyph glyph-name="uni20AC" unicode="&#x20ac;" horiz-adv-x="750" 
d="M524 258h-304q25 -78 91.5 -126t154.5 -48q121 0 240 76l-1 -112q-37 -16 -65.5 -27.5t-52.5 -18.5q-62 -17 -125 -17q-132 0 -226 74.5t-126 198.5h-87l31 73h46l-1 24v19h-76l31 73h56q30 119 128.5 196.5t225.5 77.5q72 0 119.5 -12.5t112.5 -48.5v-108
q-65 37 -107 52q-57 19 -117 19q-88 0 -154.5 -48t-96.5 -128h384l-31 -73h-368l-1 -22l1 -21h349z" />
    <glyph glyph-name="trademark" unicode="&#x2122;" horiz-adv-x="843" 
d="M301 646l3 -93l-17 -1v8q0 42 -36 57q-9 3 -30 5.5t-43 2.5v-300q0 -26 48 -26v-18h-154v18q49 0 49 26l-1 300q-56 0 -76 -10q-32 -14 -32 -63l-18 1l3 93h304zM442 646l126 -276l121 276h108v-17h-9q-38 0 -38 -24v-280q0 -26 48 -26v-18h-154v18q49 0 49 26v266
l-128 -310h-18l-138 295v-251q0 -26 49 -26v-18h-124v18q49 0 49 26v270q0 23 -15 31q-6 3 -36 3v17h110z" />
    <glyph glyph-name="fraction" unicode="&#x2215;" horiz-adv-x="121" 
d="M198 727l42 -21l-361 -728l-42 22z" />
    <glyph glyph-name="NULL" horiz-adv-x="0" 
 />
    </font>
</defs>
</svg>
