<?xml version="1.0" standalone="no"?>
<!DOCTYPE svg PUBLIC "-//W3C//DTD SVG 1.1//EN" "http://www.w3.org/Graphics/SVG/1.1/DTD/svg11.dtd" >
<svg xmlns="http://www.w3.org/2000/svg" xmlns:xlink="http://www.w3.org/1999/xlink" version="1.1">
<metadata>
Created by FontForge 20201107 at Fri Nov  7 10:00:55 2025
 By 
Copyright (c) 2015 by Laura Worthington. All rights reserved.
</metadata>
<defs>
<font id="Congenial-Bold" horiz-adv-x="1159" >
  <font-face 
    font-family="Congenial"
    font-weight="700"
    font-stretch="normal"
    units-per-em="2048"
    panose-1="2 0 8 3 0 0 0 2 0 4"
    ascent="1536"
    descent="-512"
    x-height="1044"
    cap-height="1372"
    bbox="-104 -684 3002 1976"
    underline-thickness="102"
    underline-position="-204"
    unicode-range="U+000D-F8FF"
  />
<missing-glyph horiz-adv-x="456" 
 />
    <glyph glyph-name=".notdef" horiz-adv-x="456" 
 />
    <glyph glyph-name=".null" horiz-adv-x="0" 
 />
    <glyph glyph-name="nonmarkingreturn" horiz-adv-x="682" 
 />
    <glyph glyph-name="NULL" horiz-adv-x="0" 
 />
    <glyph glyph-name="NULL" horiz-adv-x="0" 
 />
    <glyph glyph-name="CR" unicode="&#xd;" horiz-adv-x="454" 
 />
    <glyph glyph-name="space" unicode=" " horiz-adv-x="454" 
 />
    <glyph glyph-name="exclam" unicode="!" horiz-adv-x="628" 
d="M389 461h-143q-25 0 -40.5 14t-15.5 37l-8 909q0 25 15.5 39.5t40.5 14.5h161q26 0 41 -14.5t15 -39.5l-11 -909q0 -24 -14.5 -37.5t-40.5 -13.5zM311 -18q-85 0 -125.5 42t-40.5 130q0 174 166 174q172 0 172 -174q0 -88 -42 -130t-130 -42z" />
    <glyph glyph-name="quotedbl" unicode="&#x22;" horiz-adv-x="901" 
d="M268 1393q85 0 112.5 -15t27.5 -47q0 -35 -24.5 -166t-45.5 -207q-8 -28 -24 -36.5t-46 -8.5q-31 0 -45 8.5t-24 36.5q-21 76 -45.5 207t-24.5 166q0 21 7.5 33t39 20.5t92.5 8.5zM631 1393q85 0 113 -15t28 -47q0 -35 -24.5 -166t-45.5 -207q-10 -28 -25.5 -36.5
t-45.5 -8.5q-31 0 -45 8.5t-23 36.5q-22 74 -46.5 205.5t-24.5 167.5q0 21 7.5 33t39 20.5t92.5 8.5z" />
    <glyph glyph-name="numbersign" unicode="#" horiz-adv-x="1327" 
d="M649 -2q-30 0 -44.5 17t-8.5 44l74 277h-193l-76 -287q-12 -51 -69 -51h-131q-30 0 -45.5 17.5t-8.5 43.5l74 277h-119q-65 0 -65 47q0 50 25 107t63 57h151l62 225h-143q-66 0 -66 47q0 54 26.5 109t61.5 55h176l86 315q18 50 70 50h131q32 0 46.5 -19t6.5 -47l-82 -299
h191l86 315q18 50 69 50h129q33 0 47.5 -18.5t6.5 -47.5l-82 -299h110q34 0 50 -11.5t16 -41.5q0 -22 -9 -57t-31 -68t-50 -33h-142l-61 -225h133q64 0 64 -58q0 -24 -9 -58t-30 -64.5t-47 -30.5h-168l-76 -287q-12 -51 -70 -51h-129zM596 772l-61 -225h190l61 225h-190z
" />
    <glyph glyph-name="dollar" unicode="$" horiz-adv-x="958" 
d="M565 313q107 44 107 148q0 49 -27 76.5t-80 46.5v-271zM350 879v186q-59 -34 -59 -98q0 -54 59 -88zM565 100v-71q0 -25 -15.5 -41.5t-41.5 -16.5h-96q-23 0 -41.5 17t-18.5 41v69q-84 18 -155 58t-107 84q-15 18 -12 43q3 22 28 39l78 53q11 8 33 8q25 0 43 -21
q21 -25 92 -53v338q-62 21 -108.5 46.5t-85.5 61.5t-59.5 85t-20.5 110q0 130 76.5 213t195.5 113v84q0 25 18.5 42t41.5 17h98q26 0 41.5 -16.5t15.5 -42.5v-78q100 -20 175 -76t118 -135q5 -21 4 -27q-3 -31 -31 -45q-90 -47 -108 -47q-37 0 -51 29q-37 66 -107 100v-272
q156 -48 238 -127.5t82 -218.5q0 -134 -89.5 -233t-230.5 -130z" />
    <glyph glyph-name="percent" unicode="%" horiz-adv-x="2168" 
d="M514 565q-86 0 -161.5 26t-134 75.5t-92.5 129t-34 179.5q0 132 59 225.5t152.5 136.5t210.5 43q85 0 160 -25.5t133.5 -74t92.5 -127t34 -178.5t-34 -179.5t-92.5 -129t-133.5 -75.5t-160 -26zM514 735q65 0 107.5 56t42.5 186t-42 185t-108 55q-67 0 -110.5 -55
t-43.5 -185t43.5 -186t110.5 -56zM1538 1300l-629 -1259q-7 -12 -17.5 -20t-42.5 -14.5t-85 -6.5q-133 0 -133 45q0 10 10 27l629 1259q7 12 17.5 20t42.5 14.5t85 6.5q133 0 133 -45q0 -10 -10 -27zM1661 -8q-117 0 -210.5 44t-152.5 138.5t-59 226.5q0 100 34 178.5
t92.5 127.5t133.5 74.5t162 25.5q85 0 160 -25.5t133.5 -74.5t92.5 -127.5t34 -178.5t-34 -179t-92.5 -128.5t-133.5 -75.5t-160 -26zM1661 162q65 0 107 55.5t42 185.5t-42 185t-107 55q-67 0 -110.5 -55t-43.5 -185t43.5 -185.5t110.5 -55.5z" />
    <glyph glyph-name="ampersand" unicode="&#x26;" horiz-adv-x="1185" 
d="M1085 596h-92q27 -61 27 -135q0 -98 -31 -183.5t-91 -152.5t-159.5 -106t-226.5 -39q-212 0 -339.5 115.5t-127.5 285.5q0 63 14 118.5t36 93t48.5 68t53 48.5t48.5 30t36 17l14 4q-7 3 -18.5 9t-40.5 30t-51.5 53.5t-41 81t-18.5 110.5q0 152 124.5 250.5t319.5 98.5
q97 0 174.5 -27t123.5 -72t70 -99.5t24 -113.5q0 -30 -73 -67t-112 -37q-25 0 -36.5 13.5t-20.5 41.5q-24 80 -57.5 109.5t-96.5 29.5q-68 0 -111.5 -39.5t-43.5 -107.5q0 -80 51.5 -125t136.5 -45h487q43 0 43 -129t-43 -129zM760 463q0 61 -25 133h-137q-73 0 -132 -19.5
t-99.5 -67t-40.5 -116.5q0 -89 52 -135.5t146 -46.5q113 0 174.5 72t61.5 180z" />
    <glyph glyph-name="quotesingle" unicode="'" horiz-adv-x="530" 
d="M266 1393q84 0 109.5 -15t25.5 -47q0 -35 -24 -166t-45 -207q-8 -28 -23 -36.5t-43 -8.5q-29 0 -43 8.5t-24 36.5q-21 76 -45.5 207t-24.5 166q0 32 26 47t111 15z" />
    <glyph glyph-name="parenleft" unicode="(" horiz-adv-x="743" 
d="M84 602q0 93 17 187.5t40 166.5t60.5 149t63.5 122t66.5 99.5t51 67.5t33.5 40q36 41 149 41q117 0 117 -37q0 -13 -23 -39q-22 -26 -50.5 -65t-79.5 -124t-90 -172.5t-69 -206t-30 -229.5t30 -229.5t69 -206t90 -172.5t79.5 -124t50.5 -65q23 -26 23 -38q0 -37 -117 -37
q-113 0 -149 41q-23 28 -33.5 40t-51 67.5t-66 99.5t-64 121.5t-61 149t-39.5 166t-17 187.5z" />
    <glyph glyph-name="parenright" unicode=")" horiz-adv-x="743" 
d="M659 602q0 -93 -17 -187.5t-39.5 -166t-60.5 -148.5t-64 -122t-66 -99.5t-50.5 -67.5t-33.5 -40q-36 -41 -150 -41q-117 0 -117 37q0 12 23 38q22 26 50.5 65t79.5 124t90 172.5t69 206t30 229.5t-30 229.5t-69 206t-90 172.5t-79.5 124t-50.5 65q-23 26 -23 39
q0 37 117 37q114 0 150 -41q22 -26 33.5 -39.5t51 -68t65.5 -100t63.5 -122t60.5 -148.5t40 -166.5t17 -187.5z" />
    <glyph glyph-name="asterisk" unicode="*" horiz-adv-x="786" 
d="M377 768q-31 0 -49.5 18.5t-18.5 47.5q0 48 13 172q-17 -15 -44 -41t-45 -42.5t-22 -19.5q-25 -14 -43 -14q-29 0 -61.5 40.5t-32.5 67.5q0 33 35 54q4 3 26 16.5t54 32t51 30.5q-83 49 -134 89q-34 24 -34 55q0 15 8 26q3 8 20 29t27 29q23 20 43 20q30 0 53 -26
q4 -4 20 -20.5t39 -42t35 -38.5q-12 153 -12 160q0 72 70 72h41q35 0 51 -18t16 -56q0 -19 -10 -147l90 96q21 26 53 26q28 0 48 -20l34 -37q19 -22 19 -43q0 -30 -35 -55q-4 -3 -31.5 -22.5t-56 -39.5t-49.5 -34l131 -82q31 -23 31 -54q0 -25 -35 -64.5t-64 -39.5
q-23 0 -49 22q-4 3 -16.5 16.5t-32.5 35.5t-31 34q10 -147 10 -167q0 -31 -17.5 -48.5t-49.5 -17.5h-45zM268 1149l-2 -2z" />
    <glyph glyph-name="plus" unicode="+" horiz-adv-x="1183" 
d="M653 219h-145q-26 0 -41.5 14t-15.5 39v318h-310q-25 0 -41 15t-16 40v137q0 26 15.5 42t41.5 16h310v305q0 25 16 40t41 15h145q28 0 44 -15t16 -40v-305h331q26 0 41 -16t15 -42v-137q0 -25 -15 -40t-41 -15h-331v-318q0 -25 -16 -39t-44 -14z" />
    <glyph glyph-name="comma" unicode="," horiz-adv-x="624" 
d="M190 -193q-23 0 -37 10.5t-14 30.5t34 70.5t34 93.5q0 18 -10 33t-22 26.5t-22 43.5t-10 80q0 153 172 153q166 0 166 -162q0 -75 -31.5 -147.5t-77.5 -121.5t-95.5 -79.5t-86.5 -30.5z" />
    <glyph glyph-name="hyphen" unicode="-" horiz-adv-x="958" 
d="M133 793h692q43 0 43 -131q0 -130 -43 -130h-692q-43 0 -43 130q0 131 43 131z" />
    <glyph glyph-name="period" unicode="." horiz-adv-x="628" 
d="M311 -18q-85 0 -125.5 42t-40.5 130q0 174 166 174q172 0 172 -174q0 -88 -42 -130t-130 -42z" />
    <glyph glyph-name="slash" unicode="/" horiz-adv-x="1015" 
d="M963 1300l-629 -1259q-12 -24 -45.5 -35.5t-112.5 -11.5q-143 0 -143 49q0 16 8 29l629 1259q13 24 45.5 35.5t111.5 11.5q146 0 146 -51q0 -10 -10 -27z" />
    <glyph glyph-name="zero" unicode="0" horiz-adv-x="1431" 
d="M715 -20q-305 0 -465 178.5t-160 531.5q0 174 46.5 309.5t130.5 221t197.5 129t250.5 43.5t250.5 -43.5t198 -129t131 -221t46.5 -309.5q0 -349 -165.5 -529.5t-460.5 -180.5zM715 227q149 0 230 107.5t81 351.5q0 455 -311 455q-312 0 -312 -455q0 -247 78 -353
t234 -106z" />
    <glyph glyph-name="one" unicode="1" horiz-adv-x="712" 
d="M389 0q-160 0 -160 47v909h-131q-49 0 -49 52q0 36 189 309q24 33 51.5 44t107.5 11q150 0 150 -41v-1284q0 -47 -158 -47z" />
    <glyph glyph-name="two" unicode="2" horiz-adv-x="1103" 
d="M94 0q-39 0 -39 41v158q0 29 11 46t32 34q11 9 60 48t77.5 63t83 70t90.5 82t84 85t79 92.5t60 91.5t43.5 95t14.5 91q0 65 -43 101.5t-119 36.5q-59 0 -98 -22t-80 -66q-45 -48 -86 -48q-53 0 -105.5 49.5t-52.5 88.5q0 24 18.5 56.5t57 67.5t90.5 64.5t126 48.5t155 19
q215 0 331.5 -106.5t116.5 -282.5q0 -78 -30.5 -160.5t-78.5 -152t-106.5 -136t-116.5 -117t-106 -89t-78 -59.5l-30 -20h135q41 0 116.5 3t134 6.5t60.5 3.5q62 0 83.5 -27.5t21.5 -99.5q-3 -83 -18.5 -119.5t-45.5 -36.5h-848z" />
    <glyph glyph-name="three" unicode="3" horiz-adv-x="1077" 
d="M537 -20q-47 0 -120.5 14t-153.5 40.5t-136.5 74t-56.5 104.5q0 27 3.5 54.5t11.5 55.5t24 46t38 18q11 0 41 -23t66.5 -50.5t105 -50.5t146.5 -23q98 0 152.5 49.5t54.5 132.5q0 188 -297 188q-44 0 -65 32t-21 99q0 56 16 76.5t60 30.5q38 10 76.5 27.5t76 42.5
t61 60.5t23.5 74.5q0 44 -31 69t-84 25q-105 0 -202 -72q-11 -7 -27.5 -19t-25 -18t-20.5 -11t-22 -5q-29 0 -84 55t-55 86q0 15 18.5 42t57.5 59.5t89.5 61t123.5 48t151 19.5q195 0 300.5 -85t103.5 -218q0 -60 -21 -114.5t-51 -90.5t-60.5 -63t-51.5 -40l-21 -12
q6 -1 15.5 -4t36.5 -15t52 -27.5t55.5 -44t52.5 -63t37 -85t15 -109.5q0 -186 -130 -314t-328 -128z" />
    <glyph glyph-name="four" unicode="4" horiz-adv-x="1239" 
d="M932 0q-156 0 -156 47v227h-672q-18 0 -29.5 35.5t-11.5 93.5q0 118 25 150l608 778q32 41 158 41q66 0 107.5 -8t54 -17t12.5 -20q0 -15 -10 -27l-584 -761h342v249q0 32 25 64l203 268q23 29 49 29q20 0 27 -10.5t7 -32.5v-1059q0 -47 -155 -47z" />
    <glyph glyph-name="five" unicode="5" horiz-adv-x="1230" 
d="M588 -20q-99 0 -190 22.5t-149.5 55t-94 64.5t-41.5 54q-25 74 22 186q13 33 37 33q11 0 49 -24t84.5 -53.5t122.5 -53.5t154 -24q113 0 182.5 71t69.5 181q0 115 -54 167t-162 52q-65 0 -121 -16t-86.5 -34.5t-57.5 -34.5t-40 -16q-39 0 -103.5 39.5t-64.5 77.5v604
q0 41 39 41h813q64 0 64 -178q0 -56 -10 -77t-29 -21q-2 0 -64.5 3t-141 6t-120.5 3h-268v-203q10 6 28.5 14.5t84.5 22.5t141 14q88 0 169 -29t147 -84t105.5 -144t39.5 -199q0 -233 -153 -376.5t-402 -143.5z" />
    <glyph glyph-name="six" unicode="6" horiz-adv-x="1320" 
d="M688 -20q-271 0 -434.5 162t-163.5 442q0 198 51 354.5t140.5 254.5t207 149t254.5 51q84 0 157 -14.5t121 -35.5t82.5 -46.5t50 -46.5t15.5 -36q0 -32 -47.5 -94.5t-77.5 -62.5q-14 0 -39.5 14.5t-54.5 32.5t-85.5 32.5t-125.5 14.5t-129.5 -31t-96.5 -74.5t-62.5 -87.5
t-36.5 -75l-11 -31q5 5 14 13.5t40.5 30t67.5 38t94 30t120 13.5q219 0 356.5 -130.5t137.5 -346.5q0 -104 -36.5 -197t-104 -165.5t-172.5 -115t-232 -42.5zM389 483q0 -122 80.5 -200t212.5 -78q124 0 195 81.5t71 211.5q0 121 -65.5 192.5t-186.5 71.5t-214 -80t-93 -199
z" />
    <glyph glyph-name="seven" unicode="7" horiz-adv-x="1126" 
d="M264 0q-91 0 -127.5 11t-36.5 34q0 19 37.5 105t113.5 230.5t163 289.5q84 138 157.5 247.5t105.5 150.5l32 40h-271q-42 0 -123.5 -3t-146.5 -6t-66 -3q-19 0 -29 21t-10 77q0 94 15 136t49 42h885q39 0 39 -41l-2 -164q0 -56 -45 -120q-174 -232 -347 -529
q-136 -235 -217 -471q-17 -47 -176 -47z" />
    <glyph glyph-name="eight" unicode="8" horiz-adv-x="1306" 
d="M647 -20q-120 0 -219.5 25t-176 75.5t-119 132.5t-42.5 190q0 51 11.5 97t29.5 79t40.5 61t44.5 46t40 31t30 19l11 5q-6 4 -16.5 11.5t-37.5 33t-47.5 55.5t-37.5 77.5t-17 99.5q0 110 71 197t185.5 132.5t249.5 45.5q134 0 249 -46t186 -133t71 -196q0 -52 -16 -99
t-39 -78t-46 -55t-39 -34l-16 -11q8 -4 22 -11.5t50 -36.5t63 -64t49.5 -96t22.5 -130q0 -108 -42.5 -190t-119 -132.5t-176 -75.5t-219.5 -25zM647 803q77 0 144 60.5t67 140.5q0 89 -57.5 134.5t-153.5 45.5q-95 0 -154 -48.5t-59 -127.5q0 -87 61.5 -146t151.5 -59z
M647 211q115 0 179.5 51t64.5 137q0 88 -71.5 142.5t-172.5 54.5q-100 0 -172 -54t-72 -139q0 -89 63.5 -140.5t180.5 -51.5z" />
    <glyph glyph-name="nine" unicode="9" horiz-adv-x="1300" 
d="M561 -20q-149 0 -254 47t-117 94q-29 72 11 174q10 29 35 29q12 0 41.5 -16t63 -34.5t92 -34.5t122.5 -16q75 0 136 22t97.5 54.5t62.5 75t37 77.5t15 68q-5 -5 -14 -13.5t-40.5 -30t-67 -38t-92.5 -30t-118 -13.5q-219 0 -357 124.5t-138 334.5q0 110 38 208
t107.5 171.5t175.5 116.5t234 43q127 0 232 -38t183.5 -112t122 -190.5t43.5 -266.5q0 -197 -51 -353t-140 -253.5t-206 -148.5t-254 -51zM907 895q0 124 -70 198t-200 74q-125 0 -201 -83t-76 -216q0 -121 67 -189.5t194 -68.5q129 0 207.5 80t78.5 205z" />
    <glyph glyph-name="colon" unicode=":" horiz-adv-x="649" 
d="M322 115q-175 0 -175 180q0 184 175 184q182 0 182 -184q0 -91 -44.5 -135.5t-137.5 -44.5zM322 639q-177 0 -177 180q0 182 177 182q180 0 180 -182q0 -91 -44 -135.5t-136 -44.5z" />
    <glyph glyph-name="semicolon" unicode=";" horiz-adv-x="649" 
d="M322 639q-177 0 -177 180q0 182 177 182q180 0 180 -182q0 -91 -44 -135.5t-136 -44.5zM209 -23q-23 0 -37 10.5t-14 30.5t33.5 70.5t33.5 93.5q0 18 -10 33t-21.5 26.5t-21.5 45.5t-10 86q0 73 46 109t126 36q166 0 166 -158q0 -76 -31.5 -149.5t-77.5 -123t-95.5 -80
t-86.5 -30.5z" />
    <glyph glyph-name="less" unicode="&#x3c;" horiz-adv-x="956" 
d="M406 580l450 -279q31 -20 31 -55q0 -34 -41 -92t-78 -58q-25 0 -47 19l-592 368q-59 38 -59 109q0 67 59 108l592 369q25 21 47 21q36 0 77.5 -56.5t41.5 -93.5q0 -36 -25 -53l-456 -279q-11 -7 -11 -14q0 -3 11 -14z" />
    <glyph glyph-name="equal" unicode="=" horiz-adv-x="1052" 
d="M911 385h-759q-25 0 -41.5 15.5t-16.5 39.5v99q0 26 16 41.5t42 15.5h759q56 0 56 -57v-99q0 -25 -15 -40t-41 -15zM911 725h-759q-25 0 -41.5 15.5t-16.5 39.5v99q0 26 16 41.5t42 15.5h759q24 0 40 -14t16 -43v-99q0 -26 -15 -40.5t-41 -14.5z" />
    <glyph glyph-name="greater" unicode="&#x3e;" horiz-adv-x="956" 
d="M188 96q-37 0 -77.5 56.5t-40.5 91.5q0 36 24 55l457 281q10 3 10 14q0 4 -10 14l-451 277q-30 17 -30 55q0 35 41 92.5t77 57.5q23 0 48 -19l591 -371q60 -38 60 -108q0 -69 -60 -109l-591 -368q-19 -19 -48 -19z" />
    <glyph glyph-name="question" unicode="?" horiz-adv-x="935" 
d="M901 1042q0 -70 -32.5 -140t-79.5 -122.5t-93.5 -96t-79 -75.5t-32.5 -47v-104q0 -41 -150 -41q-149 0 -149 41v168q0 19 32.5 53.5t79.5 75.5t93.5 86.5t79 97.5t32.5 96q0 71 -39.5 107.5t-101.5 36.5q-69 0 -109 -57.5t-63 -172.5q-5 -25 -12.5 -32t-30.5 -7
q-61 0 -137 35.5t-76 67.5q0 57 15.5 113t50.5 109t85.5 93.5t126.5 65t168 24.5q194 0 308 -103.5t114 -271.5zM430 -18q-85 0 -125.5 42t-40.5 130q0 174 166 174q172 0 172 -174q0 -88 -42 -130t-130 -42z" />
    <glyph glyph-name="at" unicode="@" horiz-adv-x="1603" 
d="M758 -233q-144 0 -272.5 48t-224.5 135t-152 217.5t-56 285.5q0 165 59 313t162 257t251 173t317 64q180 0 318.5 -52t221.5 -143t124.5 -206t41.5 -251q0 -120 -30.5 -220t-81.5 -165t-116.5 -101t-135.5 -36q-43 0 -82.5 9.5t-65.5 22.5t-45 26t-28 22l-9 10
q-14 -10 -36.5 -25t-82 -40t-104.5 -25q-63 0 -121.5 26t-104.5 73.5t-74 122t-28 163.5q0 111 42 203.5t109.5 150.5t148.5 89.5t163 31.5q122 0 206.5 -40.5t84.5 -80.5v-491q0 -70 57 -70q41 0 78 93t37 245q0 218 -118.5 338.5t-364.5 120.5q-249 0 -400 -168.5
t-151 -429.5q0 -224 133.5 -356t339.5 -132q73 0 162 26t92 26q39 0 73.5 -50.5t34.5 -101.5q0 -7 -10.5 -18.5t-38 -27.5t-67 -29.5t-107 -23t-149.5 -9.5zM920 340v401q0 23 -16 34t-56 11q-78 0 -127 -77t-49 -228q0 -106 35.5 -159.5t101.5 -53.5q47 0 79 23.5t32 48.5z
" />
    <glyph glyph-name="A" unicode="A" horiz-adv-x="1396" 
d="M553 467h291q28 0 28 27l-149 436q-9 28 -25 28q-15 0 -24 -28l-150 -436q0 -27 29 -27zM930 231h-463q-27 0 -37 -26l-61 -164q-9 -23 -45.5 -32t-122.5 -9q-90 0 -124 7.5t-34 25.5q0 9 14 53l463 1227q13 38 51 51.5t127 13.5t127.5 -13.5t51.5 -51.5l464 -1227
q15 -47 15 -53q0 -18 -35 -25.5t-125 -7.5q-86 0 -122.5 9t-45.5 32l-61 164q-10 26 -37 26z" />
    <glyph glyph-name="B" unicode="B" horiz-adv-x="1284" 
d="M952 733q10 -2 27.5 -7.5t61.5 -29t78 -55t61.5 -89t27.5 -126.5q0 -220 -150.5 -332t-424.5 -112q-209 0 -341 32.5t-132 79.5v1186q0 47 128.5 80t323.5 33q150 0 268 -38t189.5 -118.5t71.5 -192.5q0 -60 -19.5 -114.5t-47.5 -88.5t-55.5 -60t-46.5 -37zM467 535v-250
q0 -36 35.5 -56t132.5 -20q129 0 198.5 51.5t69.5 169.5q0 166 -225 166h-139q-72 0 -72 -61zM467 883q0 -62 72 -62h94q113 0 161 47.5t48 143.5q0 90 -58.5 126t-169.5 36q-147 0 -147 -70v-221z" />
    <glyph glyph-name="C" unicode="C" horiz-adv-x="1382" 
d="M813 -20q-114 0 -218.5 25t-198 79.5t-162.5 133.5t-109.5 194.5t-40.5 255.5q0 139 39.5 257.5t108 203.5t160.5 145t198 89.5t219 29.5q84 0 157 -14.5t120 -35.5t81 -46t49 -46t15 -34q0 -32 -44 -96t-69 -64q-14 0 -47.5 16.5t-98 33.5t-155.5 17q-84 0 -155.5 -26.5
t-128 -79.5t-89 -142t-32.5 -206q0 -115 35 -199.5t98 -133t140.5 -71t172.5 -22.5q85 0 161.5 19.5t119.5 43t78 43t47 19.5q30 0 30 -33q0 -89 -43 -189q-11 -29 -69 -66.5t-160.5 -69t-208.5 -31.5z" />
    <glyph glyph-name="D" unicode="D" horiz-adv-x="1443" 
d="M1360 717q0 -154 -40.5 -278t-111 -208.5t-168.5 -141t-208.5 -82t-235.5 -25.5q-178 0 -307 33t-129 79v1186q0 46 129 79.5t307 33.5q764 0 764 -676zM1051 715q0 74 -9.5 135.5t-29 105.5t-43 78t-57 56t-66 36.5t-74 22t-77 10t-79.5 2.5q-153 0 -153 -69v-799
q0 -76 151 -76q67 0 125.5 13t117 48t100.5 89t68 143.5t26 204.5z" />
    <glyph glyph-name="E" unicode="E" horiz-adv-x="1191" 
d="M217 0q-57 0 -57 57v1258q0 57 57 57h729q66 0 91.5 -68.5t25.5 -207.5q0 -14 -8 -22.5t-19 -8.5q-6 0 -42.5 12.5t-127 25.5t-227.5 13h-152q-30 0 -30 -31v-239q0 -31 30 -31h371q47 0 47 -131q0 -133 -47 -133h-371q-30 0 -30 -31v-233q0 -31 30 -31h205q137 0 227 13
t126 25.5t42 12.5q13 0 21 -8.5t8 -22.5q0 -139 -25.5 -207.5t-91.5 -68.5h-782z" />
    <glyph glyph-name="F" unicode="F" horiz-adv-x="1118" 
d="M311 0q-151 0 -151 47v1268q0 57 57 57h723q66 0 91.5 -68.5t25.5 -207.5q0 -14 -8.5 -22.5t-20.5 -8.5q-6 0 -42 12.5t-126 25.5t-227 13h-170v-301q0 -31 31 -31h364q23 0 35 -27t12 -100q0 -74 -12 -101.5t-35 -27.5h-364q-31 0 -31 -30v-451q0 -47 -152 -47z" />
    <glyph glyph-name="G" unicode="G" horiz-adv-x="1406" 
d="M774 -20q-113 0 -213.5 24t-188.5 77.5t-151.5 133t-100 196.5t-36.5 261q0 172 58.5 310.5t158.5 227t230.5 136t277.5 47.5q84 0 158.5 -15t123.5 -37.5t85.5 -48.5t52.5 -48t16 -36q0 -32 -43.5 -95.5t-68.5 -63.5q-15 0 -50 18.5t-103 37.5t-163 19q-88 0 -160 -24.5
t-129 -77t-88.5 -143t-31.5 -213.5q0 -119 30.5 -205t85.5 -133.5t121 -69.5t146 -22q103 0 155.5 38t52.5 78v283q0 26 100 57t150 31q25 0 36 -11.5t11 -37.5v-412q0 -18 -18.5 -50.5t-61 -72.5t-100.5 -75.5t-148.5 -59.5t-193.5 -24z" />
    <glyph glyph-name="H" unicode="H" horiz-adv-x="1464" 
d="M305 0q-151 0 -151 47v1278q0 47 151 47q152 0 152 -47v-506q0 -31 30 -31h490q31 0 31 31v506q0 47 151 47q152 0 152 -47v-1278q0 -47 -152 -47q-151 0 -151 47v447q0 30 -31 30h-490q-30 0 -30 -30v-447q0 -47 -152 -47z" />
    <glyph glyph-name="I" unicode="I" horiz-adv-x="622" 
d="M311 0q-151 0 -151 47v1278q0 47 151 47q152 0 152 -47v-1278q0 -47 -152 -47z" />
    <glyph glyph-name="J" unicode="J" horiz-adv-x="1007" 
d="M442 -20q-86 0 -165.5 28.5t-128.5 66.5t-78 72t-29 50q0 27 58.5 94t82.5 67q17 0 43 -20q52 -39 97.5 -60.5t99.5 -21.5q58 0 90.5 36.5t32.5 110.5v928q0 47 151 47q152 0 152 -47v-966q0 -166 -109.5 -275.5t-296.5 -109.5z" />
    <glyph glyph-name="K" unicode="K" horiz-adv-x="1370" 
d="M311 0q-151 0 -151 47v1278q0 47 151 47q152 0 152 -47v-545q0 -12 6.5 -17.5t15.5 -0.5q88 47 160.5 120t118.5 153t74.5 154.5t40.5 141.5q7 41 157 41q146 0 146 -41q0 -49 -28 -133t-76.5 -181.5t-128 -197.5t-169.5 -164q51 -20 101 -65.5t86.5 -98t75.5 -110
t71.5 -104t72 -77.5t77.5 -32h34q29 0 29 -27q0 -31 -40 -68t-106 -64t-130 -27q-65 0 -108.5 25t-78.5 77q-32 46 -77 115.5t-75 114.5t-64 91.5t-61.5 71t-49.5 27.5q-25 2 -49.5 -9.5t-24.5 -27.5v-420q0 -47 -152 -47z" />
    <glyph glyph-name="L" unicode="L" horiz-adv-x="1114" 
d="M199 0q-39 0 -39 41v1284q0 47 151 47q152 0 152 -47v-1032q0 -31 31 -31h153q137 0 227.5 13t127 25.5t42.5 12.5q27 0 27 -30q0 -140 -26 -211.5t-91 -71.5h-755z" />
    <glyph glyph-name="M" unicode="M" horiz-adv-x="1775" 
d="M299 0q-61 0 -92.5 6t-39 14.5t-7.5 24.5v1284q7 43 149 43t158 -41l420 -923l424 923q21 41 155 41q150 0 150 -41v-1286q0 -16 -7 -24.5t-38 -14.5t-92 -6q-60 0 -91.5 6t-40 15t-8.5 24v733l-325 -702q-12 -24 -34 -30.5t-91 -6.5q-70 0 -92.5 6.5t-34.5 30.5
l-326 702v-733q0 -15 -8 -24t-39 -15t-90 -6z" />
    <glyph glyph-name="N" unicode="N" horiz-adv-x="1468" 
d="M303 0q-60 0 -93 6.5t-41.5 15.5t-8.5 23v1286q0 41 106 41q72 0 99 -5t38 -19l623 -832v813q0 14 8.5 23t40.5 15.5t90 6.5q60 0 93.5 -6.5t42 -15.5t8.5 -23v-1288q0 -41 -107 -41q-118 0 -137 25l-623 809v-789q0 -14 -8.5 -23t-40.5 -15.5t-90 -6.5z" />
    <glyph glyph-name="O" unicode="O" horiz-adv-x="1488" 
d="M743 -20q-310 0 -487.5 181t-177.5 529q0 139 34.5 255t95.5 198t144.5 139t182 84t208.5 27t208.5 -27t183 -84t145.5 -139t96 -198t35 -255q0 -174 -50 -310.5t-140 -223t-211 -131.5t-267 -45zM743 227q74 0 134.5 24.5t109 76.5t76 143.5t27.5 214.5q0 99 -19 177.5
t-50.5 130t-76.5 85t-94.5 48t-106.5 14.5q-72 0 -132 -24t-109.5 -75t-77 -142t-27.5 -214q0 -459 346 -459z" />
    <glyph glyph-name="P" unicode="P" horiz-adv-x="1271" 
d="M311 0q-151 0 -151 47v1225q0 47 127.5 84t308.5 37q272 0 432 -132t160 -362q0 -136 -45 -243.5t-123 -174t-178 -101t-215 -34.5q-37 0 -78 5t-63 11l-23 5v-320q0 -47 -152 -47zM463 666q0 -74 147 -74q119 0 185.5 73t66.5 224q0 141 -65.5 203.5t-198.5 62.5
q-64 0 -99.5 -23.5t-35.5 -56.5v-409z" />
    <glyph glyph-name="Q" unicode="Q" horiz-adv-x="1519" 
d="M602 2q-113 17 -204.5 64.5t-162.5 128t-110 205t-39 284.5q0 141 35.5 258t97.5 199.5t147.5 140t184.5 84.5t209 27t209 -27t184 -84t147 -139.5t97 -199.5t35 -257q0 -240 -112 -414t-321 -245q45 -1 96 -20.5t91.5 -42.5t107 -42.5t140.5 -19.5q32 0 32 -27
q0 -49 -83 -119.5t-181 -70.5q-63 0 -117 20t-91.5 51t-80.5 69t-82.5 73t-99.5 64t-129 40zM760 227q76 0 137.5 24.5t111 76.5t76.5 143.5t27 216.5q0 124 -28.5 215t-79 141.5t-111 73.5t-133.5 23q-58 0 -107.5 -14t-95.5 -47t-78.5 -84t-51.5 -130t-19 -180
q0 -459 352 -459z" />
    <glyph glyph-name="R" unicode="R" horiz-adv-x="1366" 
d="M311 0q-151 0 -151 47v1227q0 46 130 82.5t306 36.5q273 0 432.5 -116t159.5 -323q0 -87 -31 -164t-75 -125t-88.5 -83.5t-75.5 -50.5l-31 -15q23 -10 55 -49.5t65 -88t70 -95.5t81.5 -79t86.5 -32q7 0 24.5 1t24.5 1q29 0 29 -27q0 -28 -37 -66.5t-102.5 -68.5
t-132.5 -30q-69 0 -125 24.5t-92.5 63.5t-66 86t-53 94.5t-46 86.5t-51.5 64t-64 25h-66q-24 0 -24 -25v-354q0 -47 -152 -47zM463 727q0 -61 104 -61q61 0 111 13t93 42.5t67 84t24 130.5q0 221 -244 221q-155 0 -155 -65v-365z" />
    <glyph glyph-name="S" unicode="S" horiz-adv-x="1163" 
d="M592 -20q-148 0 -285 60t-155 107q-33 77 -33 209q0 35 28 35q12 0 52 -24t89 -53.5t131 -53.5t167 -24q95 0 148.5 44t53.5 113q0 30 -13.5 55.5t-34.5 43.5t-55 35t-66.5 29.5t-77.5 28.5q-10 3 -15 5q-52 18 -81 28.5t-77.5 32t-77 41t-63.5 50t-54 64t-32.5 79
t-13.5 98.5q0 181 145.5 295.5t366.5 114.5q76 0 144 -14.5t113 -35.5t77.5 -45t47.5 -43.5t15 -31.5q0 -32 -41.5 -93t-66.5 -61q-15 0 -51.5 20t-96.5 40t-133 20q-107 0 -164 -39t-57 -109q0 -29 13 -53t31 -40.5t53 -33t62 -26.5t74 -25q163 -51 230 -87
q177 -93 200 -266q3 -27 3 -56q0 -190 -135 -312t-365 -122z" />
    <glyph glyph-name="T" unicode="T" horiz-adv-x="1085" 
d="M543 0q-152 0 -152 47v1032q0 31 -31 31h-270q-47 0 -47 135q0 127 47 127h905q47 0 47 -127q0 -135 -47 -135h-270q-31 0 -31 -31v-1032q0 -47 -151 -47z" />
    <glyph glyph-name="U" unicode="U" horiz-adv-x="1423" 
d="M713 -20q-147 0 -259 41t-180 115t-101.5 170t-33.5 212v813q0 47 152 47q151 0 151 -47v-756q0 -168 66 -251.5t205 -83.5q138 0 204 83.5t66 251.5v756q0 47 152 47q151 0 151 -47v-813q0 -116 -33.5 -212t-101 -170t-179.5 -115t-259 -41z" />
    <glyph glyph-name="V" unicode="V" horiz-adv-x="1314" 
d="M657 0q-58 0 -90.5 6.5t-41.5 15t-15 23.5l-477 1251q0 2 -5 17t-5 16q-3 14 7 22.5t43.5 14.5t92.5 6q171 0 188 -45l303 -924l304 924q17 45 188 45q59 0 92.5 -6t43.5 -14.5t7 -22.5q0 -2 -9.5 -27t-10.5 -26l-467 -1231q-6 -15 -15.5 -23.5t-42 -15t-90.5 -6.5z" />
    <glyph glyph-name="W" unicode="W" horiz-adv-x="1939" 
d="M535 0q-84 0 -114.5 11t-37.5 34l-344 1249q-1 3 -5.5 18t-4.5 17q-2 15 8 23.5t42.5 14t92.5 5.5q91 0 126.5 -10.5t41.5 -34.5l231 -885l252 830q7 25 16.5 36.5t40 19t89.5 7.5q56 0 86 -7.5t41 -19.5t18 -36l254 -830l231 885q5 23 40.5 34t127.5 11q60 0 93 -5.5
t43 -14t8 -23.5q0 -2 -6 -21t-7 -22l-342 -1241q-7 -23 -37.5 -34t-115.5 -11q-87 0 -120 11t-40 34l-274 848l-273 -848q-7 -23 -40 -34t-121 -11z" />
    <glyph glyph-name="X" unicode="X" horiz-adv-x="1286" 
d="M1081 0q-88 0 -124 11.5t-50 33.5l-289 438q-185 -235 -231 -430q-6 -28 -46.5 -40.5t-131.5 -12.5q-89 0 -131.5 11t-42.5 42q0 51 27 113t104.5 162.5t115 146t156.5 180.5q25 29 37 43l-395 600q-10 17 -10 29q0 45 157 45q156 0 181 -45l260 -395q81 110 121 198.5
t65 188.5q6 28 46.5 40.5t131.5 12.5q89 0 131.5 -11t42.5 -42q0 -56 -27.5 -122t-87.5 -149t-119.5 -154.5t-158.5 -182.5l422 -637q12 -20 12 -29q0 -12 -15 -22t-54 -16.5t-97 -6.5z" />
    <glyph glyph-name="Y" unicode="Y" horiz-adv-x="1228" 
d="M614 0q-151 0 -151 47v502l-6 37l-418 712q-10 17 -10 29q0 45 159 45q89 0 124.5 -11.5t47.5 -33.5l254 -459l254 459q12 22 48.5 33.5t125.5 11.5q160 0 160 -45q0 -14 -12 -29l-418 -712q-6 -21 -6 -37v-502q0 -47 -152 -47z" />
    <glyph glyph-name="Z" unicode="Z" horiz-adv-x="1269" 
d="M465 264h334q95 0 167.5 7.5t104.5 17t56 17t32 7.5q27 0 27 -30q0 -140 -26 -211.5t-91 -71.5h-944q-41 0 -41 133q0 102 31 143l653 834h-270q-121 0 -202 -13t-115.5 -25.5t-41.5 -12.5q-26 0 -26 31q0 141 25.5 211.5t90.5 70.5h875q41 0 41 -133q0 -99 -37 -152z
" />
    <glyph glyph-name="bracketleft" unicode="[" horiz-adv-x="827" 
d="M154 -442v1773q0 22 8 31.5t28 9.5h537q31 0 31 -110q0 -113 -31 -113h-303v-1409h303q31 0 31 -111q0 -54 -9 -83t-22 -29h-537q-20 0 -28 9.5t-8 31.5z" />
    <glyph glyph-name="backslash" unicode="\" horiz-adv-x="1005" 
d="M659 41l-604 1259q-10 17 -10 31q0 11 11 20.5t46 18t88 8.5q130 0 158 -47l604 -1261q9 -18 9 -23q0 -11 -12.5 -22t-48.5 -21t-89 -10q-124 0 -152 47z" />
    <glyph glyph-name="bracketright" unicode="]" horiz-adv-x="827" 
d="M674 1331v-1773q0 -22 -8.5 -31.5t-28.5 -9.5h-537q-30 0 -30 110q0 113 30 113h303v1409h-303q-30 0 -30 111q0 54 8.5 83t21.5 29h537q20 0 28.5 -9.5t8.5 -31.5z" />
    <glyph glyph-name="asciicircum" unicode="^" horiz-adv-x="1165" 
d="M571 1075l-309 -477q-13 -23 -41 -23t-85.5 42t-57.5 79q0 23 14 37l395 619q39 53 95 53t94 -55l401 -619q13 -22 13 -37q0 -33 -56.5 -76t-87.5 -43q-26 0 -45 25l-305 475q-4 12 -12 12q-9 0 -13 -12z" />
    <glyph glyph-name="underscore" unicode="_" horiz-adv-x="1339" 
d="M98 -150h1143q13 0 21.5 -8t15 -36.5t6.5 -77.5q0 -50 -6.5 -78.5t-15 -36.5t-21.5 -8h-1143q-43 0 -43 123q0 49 6.5 77.5t15 36.5t21.5 8z" />
    <glyph glyph-name="grave" unicode="`" horiz-adv-x="589" 
d="M422 1153q-15 0 -49 21q-56 35 -148 98.5t-116 85.5q-25 21 -25 43q0 29 56.5 86t84.5 57q21 0 43 -22q143 -157 213 -240q25 -29 25 -45q0 -15 -33.5 -49.5t-50.5 -34.5z" />
    <glyph glyph-name="a" unicode="a" horiz-adv-x="1175" 
d="M365 319q0 -64 44 -98.5t117 -34.5q63 0 108.5 31.5t45.5 63.5v219q0 22 -23 22q-45 0 -112 -30q-37 -13 -65 -27.5t-56 -35t-43.5 -48.5t-15.5 -62zM922 -20q-34 0 -66.5 10.5t-55 26t-40.5 31t-26 26.5l-9 10q-149 -104 -313 -104q-152 0 -247 80t-95 221
q0 88 28.5 151t90.5 108t140.5 74.5t198.5 57.5q80 19 114 34t34 37q0 46 -42.5 73.5t-125.5 27.5q-70 0 -142.5 -23.5t-120 -47t-57.5 -23.5q-26 0 -26 30q0 69 43 170q17 38 119.5 76.5t226.5 38.5q230 0 331 -101t101 -311v-372q0 -88 80 -88h41q29 0 29 -27
q0 -43 -72 -114.5t-139 -71.5z" />
    <glyph glyph-name="b" unicode="b" horiz-adv-x="1204" 
d="M125 229v1196q0 50 151 50q152 0 152 -50v-460q4 4 12.5 11t36.5 24t58.5 30t78 24t95.5 11q81 0 155 -33.5t131 -95t91 -157t34 -210.5q0 -122 -31.5 -222t-84.5 -167t-125 -113t-150 -66.5t-162 -20.5q-190 0 -316 78.5t-126 170.5zM590 844q-63 0 -112.5 -41.5
t-49.5 -87.5v-408q0 -56 43.5 -92.5t110.5 -36.5q44 0 80.5 17.5t67.5 57.5t48 113.5t17 176.5q0 301 -205 301z" />
    <glyph glyph-name="c" unicode="c" horiz-adv-x="1067" 
d="M641 -20q-113 0 -211 30.5t-176.5 91t-124 162.5t-45.5 234q0 139 45.5 249.5t124 178.5t180 103.5t217.5 35.5q73 0 134.5 -12t98 -29.5t57 -37t20.5 -36.5q0 -37 -50 -106.5t-80 -69.5q-10 0 -36 16.5t-69 33t-93 16.5q-40 0 -76.5 -16t-70 -50.5t-54 -99.5t-20.5 -152
q0 -157 77.5 -235t206.5 -78q56 0 107.5 13.5t81.5 29.5t56 29.5t36 13.5t18.5 -7.5t8.5 -21.5q0 -81 -43 -168q-20 -39 -113.5 -78.5t-206.5 -39.5z" />
    <glyph glyph-name="d" unicode="d" horiz-adv-x="1269" 
d="M772 301v477q0 31 -31 54.5t-79 23.5q-47 0 -89 -18.5t-80 -59.5t-60.5 -116.5t-22.5 -178.5q0 -79 18.5 -139t50 -93t67 -49t75.5 -16q61 0 106 37t45 78zM528 -20q-67 0 -130 17.5t-120.5 55.5t-100.5 93t-68 136t-25 179t19 181.5t51 144.5t75 109.5t90 79.5
t98.5 51.5t97.5 29t89 8.5t85.5 -9.5t63.5 -18.5l21 -9v397q0 50 152 50q151 0 151 -50v-1144q0 -88 78 -88h41q31 0 31 -27q0 -42 -73.5 -114t-139.5 -72q-34 0 -67.5 10.5t-56 26t-40.5 31t-26 26.5l-9 10q-4 -4 -12.5 -11t-37 -25t-59.5 -32t-79.5 -25t-98.5 -11z" />
    <glyph glyph-name="e" unicode="e" horiz-adv-x="1087" 
d="M647 -20q-123 0 -225 32t-178 95t-118 162t-42 227q0 117 29.5 213.5t80 161.5t118.5 109.5t142.5 64.5t155.5 20q202 0 309 -84t107 -217q0 -97 -58.5 -174.5t-151 -122t-192.5 -68.5t-198 -26q59 -164 276 -164q54 0 105 14.5t81.5 31.5t56.5 31.5t36 14.5
q12 0 20.5 -7.5t8.5 -21.5q0 -27 -10.5 -76t-28.5 -92q-14 -39 -108.5 -81.5t-215.5 -42.5zM621 881q-85 0 -146 -86.5t-67 -266.5q132 13 222.5 80t90.5 174q0 42 -29 70.5t-71 28.5z" />
    <glyph glyph-name="f" unicode="f" horiz-adv-x="835" 
d="M305 0q-151 0 -151 49v785h-54q-17 0 -30 26t-13 78q0 54 13 80t30 26h54v9q0 191 117.5 306.5t320.5 115.5q93 0 165 -30.5t72 -60.5q0 -29 -52.5 -98t-76.5 -69q-18 0 -57.5 22.5t-73.5 22.5q-45 0 -78.5 -38.5t-33.5 -95.5v-84h225q14 0 23.5 -9.5t9.5 -22.5
q0 -42 -43.5 -110t-79.5 -68h-135v-785q0 -49 -152 -49z" />
    <glyph glyph-name="g" unicode="g" horiz-adv-x="1210" 
d="M768 301v492q0 28 -25.5 48.5t-70.5 20.5q-54 0 -99.5 -19.5t-84 -61.5t-60.5 -118t-22 -180q0 -84 18.5 -144.5t50 -92t67 -46t76.5 -14.5q58 0 104 37.5t46 77.5zM768 -47v104q-12 -9 -33.5 -21.5t-86 -34t-126.5 -21.5q-79 0 -154.5 30.5t-140 88t-104 154
t-39.5 216.5q0 126 36 228.5t96 170t141.5 113t168.5 65t181 19.5q151 0 257.5 -47t106.5 -94v-983q0 -87 -31.5 -165t-89.5 -139t-149 -97t-201 -36q-118 0 -223 36t-121 73q-37 90 -37 168q0 31 29 31q11 0 53 -18.5t108 -37t134 -18.5q106 0 165.5 54t59.5 161z" />
    <glyph glyph-name="h" unicode="h" horiz-adv-x="1282" 
d="M1026 -20q-114 0 -177 64.5t-63 178.5v471q0 68 -37.5 104t-101.5 36q-68 0 -136.5 -52t-68.5 -90v-643q0 -49 -151 -49q-152 0 -152 49v1376q0 50 152 50q151 0 151 -50v-475q57 52 148.5 83.5t187.5 31.5q133 0 222.5 -76.5t89.5 -200.5v-507q0 -88 79 -88h41
q31 0 31 -27q0 -25 -32 -68.5t-84.5 -80.5t-98.5 -37z" />
    <glyph glyph-name="i" unicode="i" horiz-adv-x="620" 
d="M266 1475q85 0 124.5 -37.5t39.5 -120.5q0 -84 -39 -120t-125 -36t-125 36t-39 120q0 83 39.5 120.5t124.5 37.5zM418 995v-714q0 -88 78 -88h43q28 0 28 -27q0 -25 -31.5 -68.5t-83 -80.5t-96.5 -37q-114 0 -177.5 64.5t-63.5 178.5v772q0 49 151 49q152 0 152 -49z" />
    <glyph glyph-name="j" unicode="j" horiz-adv-x="602" 
d="M307 1475q85 0 124.5 -37.5t39.5 -120.5q0 -84 -39 -120t-125 -36t-125 36t-39 120q0 83 39.5 120.5t124.5 37.5zM307 1044q152 0 152 -49v-1028q0 -115 -28.5 -206t-76.5 -146t-106 -83t-121 -28t-123.5 47t-60.5 80t41 43q59 17 94.5 49.5t56.5 102.5t21 184v985
q0 15 11 25t46 17t94 7z" />
    <glyph glyph-name="k" unicode="k" horiz-adv-x="1155" 
d="M276 0q-151 0 -151 49v1376q0 50 151 50q152 0 152 -50v-753q97 32 185.5 128t138.5 208q8 20 17 28t26 8h206q35 0 35 -28q0 -20 -18 -60q-51 -109 -131 -217t-170 -170q56 -31 102.5 -95.5t124.5 -203.5q27 -49 52.5 -65.5t68.5 -16.5h43q27 0 27 -26q0 -23 -37 -66
t-94 -79.5t-103 -36.5q-112 0 -168 94q-144 252 -176 298q-35 49 -57 58q-12 -3 -41 -12.5t-31 -11.5v-357q0 -49 -152 -49z" />
    <glyph glyph-name="l" unicode="l" horiz-adv-x="618" 
d="M365 -20q-114 0 -177 64.5t-63 178.5v1202q0 50 151 50q152 0 152 -50v-1144q0 -88 78 -88h43q29 0 29 -27q0 -25 -31.5 -68.5t-83.5 -80.5t-98 -37z" />
    <glyph glyph-name="m" unicode="m" horiz-adv-x="1871" 
d="M1616 -20q-114 0 -177 64.5t-63 178.5v486q0 61 -34 93t-93 32q-62 0 -123 -46t-61 -83v-656q0 -49 -152 -49q-151 0 -151 49v656q0 63 -37.5 96t-95.5 33q-63 0 -120.5 -43.5t-57.5 -88.5v-653q0 -49 -152 -49t-152 49v717q0 30 -9 56t-19.5 40.5t-19.5 30t-9 25.5
q0 34 92.5 90.5t141.5 56.5q18 0 32.5 -6.5t24 -13.5t22 -27t18.5 -32t21 -44q82 62 143 88q84 35 171 35q158 0 250 -139q64 60 168.5 99.5t195.5 39.5q127 0 218 -69.5t91 -188.5v-526q0 -88 78 -88h43q29 0 29 -27q0 -25 -31.5 -68.5t-83.5 -80.5t-98 -37z" />
    <glyph glyph-name="n" unicode="n" horiz-adv-x="1292" 
d="M1036 -20q-114 0 -176.5 64.5t-62.5 178.5v467q0 144 -142 144q-68 0 -136 -52.5t-68 -91.5v-641q0 -49 -152 -49t-152 49v717q0 30 -9 56t-19.5 40.5t-19.5 30t-9 25.5q0 34 92.5 90.5t141.5 56.5q36 0 57.5 -22.5t48.5 -75.5l12 -25q61 48 156 85.5t193 37.5
q136 0 222.5 -76t86.5 -203v-505q0 -88 78 -88h43q28 0 28 -27q0 -25 -32 -68.5t-84 -80.5t-97 -37z" />
    <glyph glyph-name="o" unicode="o" horiz-adv-x="1247" 
d="M625 -18q-110 0 -206.5 34t-172 99.5t-119 171.5t-43.5 239t43.5 237.5t119 169.5t172 98.5t206.5 33.5t206 -33.5t171.5 -98.5t119 -169.5t43.5 -237.5q0 -107 -28.5 -197t-79 -153.5t-118.5 -107.5t-147.5 -65t-166.5 -21zM625 188q96 0 155.5 81.5t59.5 258.5
t-59.5 258.5t-155.5 81.5t-156.5 -81.5t-60.5 -258.5t60.5 -258.5t156.5 -81.5z" />
    <glyph glyph-name="p" unicode="p" horiz-adv-x="1214" 
d="M293 -512q-152 0 -152 49v1229q0 30 -9 56t-19.5 40.5t-19.5 30t-9 25.5q0 34 91 90.5t140 56.5q42 0 65 -27t56 -96q7 9 29 26t59.5 40.5t90 40t104.5 16.5q84 0 157.5 -30.5t130.5 -90t90 -155.5t33 -218q0 -150 -38 -265.5t-104 -185.5t-150.5 -105t-182.5 -35
q-45 0 -97.5 12.5t-83 24.5t-30.5 14v-494q0 -49 -151 -49zM588 170q98 0 160.5 93t62.5 280q0 88 -16.5 149.5t-46 93t-63.5 45t-77 13.5q-62 0 -113 -42t-51 -73v-450q0 -40 43.5 -74.5t100.5 -34.5z" />
    <glyph glyph-name="q" unicode="q" horiz-adv-x="1208" 
d="M920 -512q-152 0 -152 49v520q-12 -9 -33.5 -21.5t-86.5 -34t-128 -21.5q-62 0 -123 18.5t-118 58t-100 95.5t-69 138t-26 179q0 126 36 228.5t96 170t141 113t168.5 65t181.5 19.5q149 0 256.5 -47t107.5 -94v-1387q0 -49 -151 -49zM768 301v492q0 28 -26.5 48.5
t-71.5 20.5q-54 0 -100 -19.5t-84.5 -61.5t-60.5 -118t-22 -180q0 -85 18.5 -145.5t50.5 -92t67 -45.5t77 -14q59 0 105.5 37.5t46.5 77.5z" />
    <glyph glyph-name="r" unicode="r" horiz-adv-x="886" 
d="M299 0q-152 0 -152 49v717q0 30 -9 56t-19.5 40.5t-19.5 30t-9 25.5q0 34 92.5 90.5t141.5 56.5q18 0 32.5 -6.5t24 -13.5t22 -27t18.5 -32t21 -44q4 5 11.5 13.5t32.5 29.5t50.5 37t64 29.5t75.5 13.5q66 0 124 -24t58 -54q0 -25 -45.5 -95t-81.5 -106q-20 -20 -37 -20
q-12 0 -50.5 25.5t-72.5 25.5q-46 0 -83 -39t-37 -86v-643q0 -49 -152 -49z" />
    <glyph glyph-name="s" unicode="s" horiz-adv-x="987" 
d="M500 -20q-85 0 -168.5 22t-138.5 52t-89 59.5t-34 46.5q0 33 56 98.5t83 65.5q12 0 42.5 -21t65 -46t87.5 -46t104 -21q54 0 82 26.5t28 72.5q0 13 -3 24t-12 21.5t-16 18t-23 16.5t-25.5 14.5t-32 14t-33 12.5t-37.5 13t-37 13q-64 23 -106.5 44t-90 55t-72 82.5
t-24.5 109.5q0 153 121 245.5t316 92.5q81 0 149 -15t107.5 -38t61.5 -46t22 -42q0 -34 -55 -99t-85 -65q-9 0 -30.5 16.5t-46.5 36.5t-66 36.5t-84 16.5q-50 0 -81.5 -27t-31.5 -69q0 -21 10.5 -38.5t22.5 -28.5t41.5 -24.5t45.5 -19.5t57 -20q142 -46 200 -80
q140 -83 140 -233q0 -154 -118 -250t-302 -96z" />
    <glyph glyph-name="t" unicode="t" horiz-adv-x="737" 
d="M106 1044h56v197q0 30 108 76.5t160 46.5q35 0 35 -39v-281h184q14 0 23.5 -9.5t9.5 -22.5q0 -42 -43 -110t-80 -68h-94v-457q0 -93 42.5 -138.5t115.5 -45.5h47q11 0 17.5 -9t6.5 -20q0 -23 -33 -66.5t-85.5 -80.5t-96.5 -37q-148 0 -232.5 85t-84.5 222v547h-56
q-43 0 -43 104q0 106 43 106z" />
    <glyph glyph-name="u" unicode="u" horiz-adv-x="1236" 
d="M457 -20q-148 0 -251.5 91.5t-103.5 241.5v682q0 49 152 49t152 -49v-622q0 -74 43 -114t116 -40q71 0 128 43t57 90v643q0 49 151 49q152 0 152 -49v-714q0 -88 77 -88h44q28 0 28 -27q0 -43 -72 -114.5t-139 -71.5q-83 0 -172 100l-22 26q-154 -126 -340 -126z" />
    <glyph glyph-name="v" unicode="v" horiz-adv-x="1126" 
d="M537 -20q-78 0 -155.5 25.5t-139.5 70.5t-101 114t-39 148v657q0 49 152 49t152 -49v-612q0 -82 49.5 -127t119.5 -45q84 0 135.5 100t51.5 283q0 83 -13 158.5t-28 117.5t-28 76.5t-13 46.5q0 23 32 37t87 14q170 0 213 -98q59 -144 59 -328q-1 -175 -67.5 -320
t-189 -231.5t-277.5 -86.5z" />
    <glyph glyph-name="w" unicode="w" horiz-adv-x="1736" 
d="M483 -20q-177 0 -279 101t-102 288v626q0 49 152 49t152 -49v-569q0 -207 159 -207q70 0 117 45t47 113v618q0 49 152 49q59 0 94 -7t46 -17t11 -25v-620q0 -71 39 -113.5t105 -42.5q98 0 148 97.5t50 277.5q0 83 -13 158.5t-29 117.5t-29 76.5t-13 46.5q0 23 33 37
t88 14q168 0 211 -98q59 -144 59 -328q-1 -178 -61.5 -320.5t-183 -230t-289.5 -87.5q-61 0 -117.5 13.5t-94 33t-66.5 39.5t-43 34l-13 13q-153 -133 -330 -133z" />
    <glyph glyph-name="x" unicode="x" horiz-adv-x="1144" 
d="M901 1044q85 0 116.5 -9.5t31.5 -41.5q0 -98 -60 -176q-15 -20 -31.5 -40t-38.5 -42l-35.5 -35.5t-42.5 -38.5t-37 -32t-42 -35.5t-37 -30.5l354 -479q15 -23 15 -39q0 -10 -12 -19.5t-48 -17.5t-90 -8q-157 0 -180 31l-240 323q-145 -195 -162 -301q-5 -28 -43 -40.5
t-129 -12.5q-84 0 -115.5 10.5t-31.5 42.5q0 84 70 180q106 141 284 293l-319 437q-17 23 -17 41q0 10 12.5 18.5t48.5 15t91 6.5q159 0 182 -30l201 -273q115 151 133 252q3 28 41.5 39.5t130.5 11.5z" />
    <glyph glyph-name="y" unicode="y" horiz-adv-x="1183" 
d="M592 -496q-119 0 -224 36t-120 73q-39 88 -39 168q0 31 31 31q10 0 51.5 -18.5t107 -37t133.5 -18.5q107 0 166.5 53.5t59.5 161.5v129q-137 -102 -295 -102q-146 0 -242 88t-96 239v688q0 15 11 25t46 17t94 7q152 0 152 -49v-622q0 -74 37 -114t108 -40q70 0 127.5 43
t57.5 90v643q0 15 11 25t46 17t94 7q152 0 152 -49v-1054q0 -87 -31.5 -165t-89.5 -139t-148.5 -97t-199.5 -36z" />
    <glyph glyph-name="z" unicode="z" horiz-adv-x="1036" 
d="M94 0q-12 0 -21.5 9t-9.5 26q0 99 11 141t57 105q7 13 95 114t199 227t134 152q14 18 14 25q0 14 -26 14q-137 0 -229.5 -14.5t-131 -28.5t-45.5 -14q-26 0 -26 30q0 136 25 197t91 61h680q35 0 35 -34q0 -96 -12.5 -144.5t-54.5 -101.5q-9 -13 -95 -112t-189 -216
t-128 -147q-21 -24 -21 -33q0 -14 29 -14q155 0 262.5 15t155 29.5t55.5 14.5q27 0 27 -31q0 -270 -135 -270h-746z" />
    <glyph glyph-name="braceleft" unicode="{" horiz-adv-x="802" 
d="M606 -571q-21 0 -71 26q-28 16 -44.5 26t-49 31t-53.5 37.5t-51 43t-50.5 51t-42.5 57.5t-35.5 65.5t-22 73t-8.5 82.5q0 85 20.5 179.5t20.5 125.5q0 44 -14 74.5t-58 58.5q-33 22 -46.5 33.5t-22 33.5t-8.5 58t8.5 58t22 33.5t46.5 33.5q44 28 58 58.5t14 74.5
q0 31 -20.5 126t-20.5 180q0 42 8.5 82.5t22 73t35.5 65.5t42.5 57.5t50.5 51t51 43t53.5 37.5t49 31t44.5 26q50 26 71 26q18 0 31 -9.5t33 -37.5q57 -86 57 -102q0 -4 -1 -7.5t-3 -7.5t-4 -6t-6.5 -5.5t-6.5 -5l-8 -6t-8 -5.5q-14 -10 -48.5 -33.5t-52.5 -36.5t-46.5 -36
t-44 -42.5t-32.5 -46t-24.5 -57t-7.5 -64.5q0 -55 23.5 -137.5t23.5 -169.5q0 -70 -38 -133.5t-85 -108.5q123 -118 123 -241q0 -87 -23.5 -169.5t-23.5 -137.5q0 -34 7.5 -64.5t24.5 -57t32.5 -46t44 -42.5t46.5 -36t52.5 -36.5t48.5 -33.5q2 -1 8 -5.5l8 -6t6.5 -5
t6.5 -5.5t4 -6t3 -7.5t1 -7.5q0 -16 -57 -102q-20 -28 -33 -37.5t-31 -9.5z" />
    <glyph glyph-name="bar" unicode="|" horiz-adv-x="559" 
d="M281 -381q-60 0 -94.5 7t-44 16.5t-9.5 23.5v1764q0 14 9.5 23.5t44 16.5t94.5 7q59 0 93 -7t44 -16.5t10 -23.5v-1764q0 -14 -10 -23.5t-44 -16.5t-93 -7z" />
    <glyph glyph-name="braceright" unicode="}" horiz-adv-x="802" 
d="M195 -571q-18 0 -31 9.5t-33 37.5q-55 83 -55 102q0 4 1 7.5t3 7.5t4 6t6.5 5.5t6.5 5l8 6t8 5.5q14 10 48.5 33.5t52.5 36.5t46.5 36t44 42.5t32.5 46t24.5 57t7.5 64.5q0 55 -23.5 137.5t-23.5 169.5q0 70 37.5 133t84.5 108q-46 44 -84 108t-38 134q0 87 23.5 169.5
t23.5 137.5q0 34 -7.5 64.5t-24.5 57t-32.5 46t-44 42.5t-46.5 36t-52.5 36.5t-48.5 33.5q-2 1 -8 5.5l-8 6t-6.5 5t-6.5 5.5t-4 6t-3 7.5t-1 7.5q0 19 55 102q20 28 33 37.5t31 9.5q23 0 73 -26q28 -16 44.5 -26t49 -31t53.5 -37.5t51 -43t50.5 -51t42.5 -57.5t35.5 -65.5
t22 -73t8.5 -82.5q0 -85 -20.5 -180t-20.5 -126q0 -44 14 -74.5t57 -58.5q48 -31 63 -52t15 -73t-15 -73t-63 -52q-43 -28 -57 -58.5t-14 -74.5q0 -31 20.5 -125.5t20.5 -179.5q0 -42 -8.5 -82.5t-22 -73t-35.5 -65.5t-42.5 -57.5t-50.5 -51t-51 -43t-53.5 -37.5t-49 -31
t-44.5 -26q-50 -26 -73 -26z" />
    <glyph glyph-name="asciitilde" unicode="~" horiz-adv-x="1267" 
d="M1032 932q29 39 62 39q27 0 92 -60q24 -24 33.5 -38.5t9.5 -34.5q0 -30 -25 -71t-66.5 -81t-106 -68t-134.5 -28q-66 0 -138 23.5t-124.5 52t-119.5 52t-124 23.5q-88 0 -149 -92q-23 -41 -64 -41q-9 0 -23.5 7t-24 13.5t-27 20.5t-21.5 17q-43 46 -43 79q0 27 27 67
t71 80t112.5 68.5t139.5 28.5q53 0 127.5 -23.5t136 -52t126 -52t98.5 -23.5q35 0 79.5 24t75.5 70z" />
    <glyph glyph-name="exclamdown" unicode="&#xa1;" horiz-adv-x="628" 
d="M240 565h143q25 0 40 -14t15 -37l8 -909q0 -25 -15 -39.5t-40 -14.5h-162q-26 0 -40.5 14.5t-14.5 39.5l10 909q0 23 15 37t41 14zM317 1044q85 0 125.5 -42t40.5 -130q0 -174 -166 -174q-172 0 -172 174q0 88 42 130t130 42z" />
    <glyph glyph-name="cent" unicode="&#xa2;" horiz-adv-x="1064" 
d="M582 -123q-49 0 -76.5 5t-35 11.5t-7.5 16.5v108q-89 21 -164 63.5t-133.5 105t-91.5 151t-33 192.5q0 117 33.5 213t92.5 161.5t133.5 107t162.5 59.5v109q0 10 7.5 16.5t35 11t76.5 4.5q44 0 68 -4.5t31 -11t7 -16.5v-99q144 -16 233 -71.5t89 -106.5q0 -110 -17 -174
q-4 -13 -8 -19t-15.5 -15t-35.5 -13t-62 -4q-51 0 -70.5 14t-21.5 41q-8 103 -98 144v-646q76 4 141 24t102 38t48 18t19.5 -7t8.5 -21q0 -49 -38 -158q-16 -34 -96 -73.5t-179 -49.5v-92q0 -10 -6.5 -16.5t-31 -11.5t-68.5 -5zM344 541q0 -196 125 -269v584
q-125 -79 -125 -315z" />
    <glyph glyph-name="sterling" unicode="&#xa3;" horiz-adv-x="1097" 
d="M797 512h-250q2 -12 2 -33q0 -109 -66 -205q65 19 125 19q31 0 98 -20.5t95 -20.5q32 0 83.5 29.5t61.5 29.5q19 0 56.5 -64t37.5 -87q0 -10 -32 -39t-77 -60t-101 -55t-97 -24t-138 36.5t-128 36.5q-35 0 -117.5 -39t-107.5 -39q-37 0 -86.5 68.5t-49.5 104.5
q0 14 28 38.5t61.5 50t61.5 65t28 79.5q0 48 -15 129h-157q-43 0 -43 109q0 108 43 108h98q-33 121 -33 211q0 135 64 239t171.5 159t239.5 55q88 0 162 -23.5t116 -56.5t64.5 -63.5t22.5 -49.5q0 -42 -57.5 -113t-92.5 -71q-13 0 -35.5 21.5t-46 47t-65 47t-86.5 21.5
q-78 0 -126 -51t-48 -166q0 -75 33 -207h303q43 0 43 -108q0 -109 -43 -109z" />
    <glyph glyph-name="yen" unicode="&#xa5;" horiz-adv-x="1024" 
d="M760 227h-115v-176q0 -23 -15.5 -37t-41.5 -14h-160q-25 0 -40 14t-15 37v176h-107q-26 0 -41.5 15.5t-15.5 40.5v73q0 26 15.5 42t41.5 16h107v43h-107q-26 0 -41.5 15t-15.5 40v74q0 26 15.5 41.5t41.5 15.5h107v57q0 2 -381 611q-17 38 -2.5 55.5t41.5 17.5h180
q16 0 28 -6t16 -11t11 -17l240 -392l246 392q7 12 11 17t16 11t28 6h174q27 0 41.5 -17.5t-2.5 -55.5q-375 -599 -375 -604v-64h115q23 0 39 -13.5t16 -43.5v-74q0 -25 -15 -40t-40 -15h-115v-43h115q23 0 39 -14t16 -44v-73q0 -25 -15 -40.5t-40 -15.5z" />
    <glyph glyph-name="brokenbar" unicode="&#xa6;" horiz-adv-x="321" 
d="M211 -317h-100q-27 0 -43.5 14.5t-16.5 40.5v594q0 22 15 37.5t45 15.5h100q26 0 41.5 -14t15.5 -39v-594q0 -26 -15.5 -40.5t-41.5 -14.5zM211 612h-100q-27 0 -43.5 15t-16.5 41v594q0 22 15 37.5t45 15.5h100q26 0 41.5 -14t15.5 -39v-594q0 -25 -15.5 -40.5
t-41.5 -15.5z" />
    <glyph glyph-name="section" unicode="&#xa7;" horiz-adv-x="899" 
d="M436 -18q-149 0 -248.5 82.5t-99.5 181.5q0 47 64 86q54 33 118 33q33 0 56 -19q24 -21 24 -53q0 -42 25 -67t67 -25q103 0 103 90q0 15 -4.5 28t-17 25.5t-22 20.5t-35 20.5t-39 19t-48.5 21.5q-51 22 -80 36.5t-76 41t-75 52.5t-57 62t-42.5 80.5t-13.5 96.5
q0 60 27 109.5t59 72.5q-22 26 -33.5 63t-11.5 68q0 148 112 239t277 91q150 0 249 -82t99 -182q0 -43 -80 -89q-58 -30 -102 -30q-40 0 -68 28q-12 18 -12 43q0 40 -24.5 66.5t-67.5 26.5q-103 0 -103 -91q0 -43 32 -67t110 -58q16 -6 24 -10q44 -19 67 -30t65.5 -33.5
t66.5 -40.5t55.5 -47.5t48.5 -59t29 -69.5t12 -84q0 -108 -78 -197q37 -61 37 -121q0 -147 -112 -238t-277 -91zM305 850q-14 -33 -14 -62q0 -37 33.5 -67.5t97.5 -63.5q21 -11 81 -40t93 -46q12 28 12 62q0 37 -35.5 69t-101.5 64q-19 10 -77 38.5t-89 45.5z" />
    <glyph glyph-name="dieresis" unicode="&#xa8;" horiz-adv-x="757" 
d="M186 1153q-78 0 -114.5 40t-36.5 122q0 162 151 162q77 0 116.5 -41.5t39.5 -120.5q0 -162 -156 -162zM567 1153q-78 0 -114.5 40t-36.5 122q0 162 151 162q77 0 116.5 -41.5t39.5 -120.5q0 -162 -156 -162z" />
    <glyph glyph-name="copyright" unicode="&#xa9;" horiz-adv-x="1406" 
d="M705 195q-168 0 -312 78.5t-229.5 216t-85.5 301.5q0 165 85.5 303.5t229.5 217.5t312 79q126 0 241 -47t199.5 -126.5t135 -191.5t50.5 -235t-50.5 -234t-135 -190t-199.5 -125.5t-241 -46.5zM705 1206q-180 0 -300 -113t-120 -305q0 -186 119.5 -299.5t300.5 -113.5
q178 0 299.5 115t121.5 298q0 192 -120.5 305t-300.5 113zM975 920q0 -31 -44 -48.5t-79 -17.5q-50 0 -55 39q-3 15 -8.5 31t-19.5 33.5t-32 17.5q-104 0 -104 -193q0 -54 9 -90.5t25.5 -53t32.5 -22.5t37 -6q18 0 31 6t18 11.5t13 17.5q1 1 4 6l4.5 7.5t5.5 6.5t7 6
t8.5 3.5t11.5 1.5q41 0 86 -16.5t45 -47.5q0 -26 -13.5 -54.5t-40.5 -58t-79.5 -48.5t-120.5 -19q-131 0 -216 89.5t-85 254.5q0 176 78.5 277.5t238.5 101.5q115 0 177 -62t65 -173z" />
    <glyph glyph-name="ordfeminine" unicode="&#xaa;" horiz-adv-x="917" 
d="M297 823q0 -45 31.5 -69.5t83.5 -24.5q40 0 69 19.5t29 39.5v158q0 17 -16 17q-43 0 -99 -29q-98 -46 -98 -111zM698 565q-32 0 -68 18.5t-56 36.5l-19 19q-104 -74 -231 -74q-118 0 -192.5 61.5t-74.5 164.5q0 54 16 96.5t43.5 72.5t74.5 54.5t97 41t122 34.5
q52 11 74 22.5t22 28.5q0 59 -111 59q-52 0 -108 -17.5t-94 -35t-46 -17.5q-22 0 -22 25q0 68 37 141q16 29 92.5 56.5t177.5 27.5q174 0 254 -76.5t80 -232.5v-274q0 -66 59 -66h19q30 0 30 -24q0 -34 -59 -88t-117 -54z" />
    <glyph glyph-name="guillemotleft" unicode="&#xab;" horiz-adv-x="1390" 
d="M719 776q-292 -203 -369 -272q-28 -25 -28 -49q0 -22 22 -37q50 -38 177.5 -122.5t195.5 -125.5q35 -22 35 -53q0 -25 -64 -111q-15 -22 -43 -22q-25 0 -43 14q-440 274 -487 321q-56 41 -56 127q0 71 54 125q24 30 165 139t312 232q24 19 47 19q26 0 49 -27l45 -64
q17 -34 17 -45q0 -26 -29 -49zM1270 776q-292 -203 -369 -272q-29 -29 -29 -49q0 -22 23 -37q50 -38 177.5 -122.5t195.5 -125.5q35 -22 35 -53q0 -25 -64 -111q-15 -22 -43 -22q-22 0 -43 14q-446 280 -487 321q-56 41 -56 127q0 71 54 125q24 30 165 139t312 232
q29 19 47 19q26 0 49 -27l45 -64q16 -32 16 -45q0 -29 -28 -49z" />
    <glyph glyph-name="registered" unicode="&#xae;" horiz-adv-x="1406" 
d="M705 195q-168 0 -312 78.5t-229.5 216t-85.5 301.5q0 165 85.5 303.5t229.5 217.5t312 79q126 0 241 -47t199.5 -126.5t135 -191.5t50.5 -235t-50.5 -234t-135 -190t-199.5 -125.5t-241 -46.5zM999 956q0 -134 -149 -235l174 -203q102 117 102 273q0 186 -121.5 300.5
t-299.5 114.5q-118 0 -216 -53h183q75 0 132 -9.5t102.5 -31t69 -61t23.5 -95.5zM285 791q0 -101 40.5 -185t112.5 -139l-4 649q-149 -120 -149 -325zM705 381q140 0 251 78h-16q-43 0 -58.5 0.5t-34 5.5t-30.5 16q-18 19 -69 86t-58 78q-13 -3 -59 -29v-118
q0 -16 -11 -27.5t-34 -11.5h-135q107 -78 254 -78zM631 1014v-242q87 44 130.5 84.5t43.5 85.5q0 33 -32 52.5t-85 19.5h-57z" />
    <glyph glyph-name="macron" unicode="&#xaf;" horiz-adv-x="925" 
d="M119 1427h692q43 0 43 -110q0 -109 -43 -109h-692q-43 0 -43 109q0 110 43 110z" />
    <glyph glyph-name="degree" unicode="&#xb0;" horiz-adv-x="974" 
d="M487 606q-171 0 -286 102t-115 285q0 121 55.5 208.5t145 129t200.5 41.5q110 0 199 -41.5t145 -129t56 -208.5q0 -123 -56 -212.5t-145 -132t-199 -42.5zM485 797q172 0 172 196q0 106 -48 151.5t-124 45.5q-172 0 -172 -197q0 -196 172 -196z" />
    <glyph glyph-name="plusminus" unicode="&#xb1;" horiz-adv-x="1034" 
d="M565 287h-116q-26 0 -42 15t-16 40v303h-303q-25 0 -41 15t-16 40v103q0 26 15.5 41.5t41.5 15.5h303v299q0 24 16.5 39.5t41.5 15.5h116q28 0 44 -15t16 -40v-299h325q56 0 56 -57v-103q0 -26 -15 -40.5t-41 -14.5h-325v-303q0 -23 -14.5 -39t-45.5 -16zM102 2
q-29 0 -47 20t-18 54v59q0 35 17 55.5t48 20.5h834q29 0 47 -19t18 -57v-59q0 -34 -17.5 -54t-47.5 -20h-834z" />
    <glyph glyph-name="twosuperior" unicode="&#xb2;" horiz-adv-x="950" 
d="M127 340q-13 0 -21 8t-8 23v129q0 35 37 63q173 131 258 218q172 176 172 313q0 42 -24.5 66t-69.5 24q-43 0 -66.5 -23t-52.5 -82q-18 -37 -59 -37q-61 0 -109.5 34t-48.5 67q0 36 23 76t65 78t113.5 62.5t157.5 24.5q165 0 250 -78.5t83 -209.5q0 -67 -28 -136.5
t-72 -126t-92.5 -106t-96 -85.5t-75.5 -55t-37 -24h98q64 0 125 4.5t96.5 9.5t38.5 5q36 0 46 -27t6 -72q-3 -143 -64 -143h-645z" />
    <glyph glyph-name="threesuperior" unicode="&#xb3;" horiz-adv-x="919" 
d="M455 319q-69 0 -130.5 14t-103.5 35t-73 46t-45.5 47.5t-14.5 38.5q0 27 36 88t60 61q8 0 29 -18t46 -39t73.5 -39t105.5 -18q65 0 103.5 34.5t38.5 89.5q0 65 -59.5 99.5t-164.5 34.5q-35 0 -51 22.5t-16 75.5q0 45 12 62.5t45 25.5q39 8 77.5 25.5t70.5 51t32 72.5
q0 27 -18 42.5t-49 15.5q-78 0 -154 -72q-4 -4 -15 -14t-15.5 -13.5t-13.5 -7.5t-19 -4q-25 0 -78 40.5t-53 64.5q0 18 23 49.5t64 66t111.5 59.5t151.5 25q143 0 222 -63.5t79 -163.5q0 -46 -16.5 -87.5t-39.5 -67.5t-46 -45t-40 -27l-16 -8q8 -2 22 -6.5t49 -24.5
t61.5 -46t48.5 -75t22 -109q0 -141 -97.5 -239.5t-254.5 -98.5z" />
    <glyph glyph-name="acute" unicode="&#xb4;" horiz-adv-x="495" 
d="M111 1135q-17 0 -50.5 36.5t-33.5 53.5q0 18 22 43q26 33 230 256q20 20 40 20q30 0 87 -56t57 -89q0 -25 -23 -45q-26 -24 -128.5 -96.5t-153.5 -104.5q-27 -18 -47 -18z" />
    <glyph glyph-name="mu" unicode="&#xb5;" horiz-adv-x="995" 
d="M287 -352h-156q-25 0 -40 14t-15 39v1642q0 24 15 38t40 14h156q25 0 40 -14t15 -38v-1081q0 -30 38 -53t91 -23q64 0 124 51.5t60 88.5v1017q0 24 15.5 38t40.5 14h155q25 0 40.5 -14t15.5 -38v-1294q0 -24 -15.5 -38.5t-40.5 -14.5h-155q-25 0 -40.5 14.5t-15.5 38.5
v27q-38 -44 -98 -69t-113 -25q-59 0 -102 16v-297q0 -25 -15 -39t-40 -14z" />
    <glyph glyph-name="paragraph" unicode="&#xb6;" 
d="M938 -178h-129q-24 0 -38.5 13t-14.5 36v678h-76v-676q0 -24 -14.5 -37.5t-40.5 -13.5h-144q-25 0 -40 14t-15 37v672q-81 5 -150 30.5t-123.5 70.5t-86 116.5t-31.5 161.5q0 104 27.5 182.5t75.5 128.5t120 81t153 43.5t183 12.5h407q25 0 39.5 -14t14.5 -39v-127
q0 -25 -14.5 -39t-39.5 -14h-10v-1268q0 -23 -14 -36t-39 -13zM680 735h76v449h-76v-449z" />
    <glyph glyph-name="cedilla" unicode="&#xb8;" horiz-adv-x="499" 
d="M231 -485q-48 0 -95.5 13t-74 28.5t-26.5 25.5q0 17 24 53.5t33 36.5q4 0 36.5 -15t64.5 -15q47 0 72.5 26.5t25.5 65.5q0 26 -18.5 48t-41 35t-41 27t-18.5 25v133q0 19 10.5 28t24.5 9h106q33 0 33 -37v-98q139 -58 139 -174q0 -93 -80.5 -154t-173.5 -61z" />
    <glyph glyph-name="onesuperior" unicode="&#xb9;" horiz-adv-x="579" 
d="M309 342q-133 0 -133 41v672h-88q-39 0 -39 43q0 8 10 27.5t28.5 48.5t34.5 52.5t39.5 57.5t31.5 45q19 23 43.5 32t85.5 9q118 0 118 -31v-956q0 -41 -131 -41z" />
    <glyph glyph-name="ordmasculine" unicode="&#xba;" horiz-adv-x="1030" 
d="M514 565q-86 0 -161.5 26t-134 75.5t-92.5 129t-34 179.5q0 132 59 225.5t152.5 136.5t210.5 43q85 0 160 -25.5t133.5 -74t92.5 -127t34 -178.5t-34 -179.5t-92.5 -129t-133.5 -75.5t-160 -26zM514 735q65 0 107.5 56t42.5 186t-42 185t-108 55q-67 0 -110.5 -55
t-43.5 -185t43.5 -186t110.5 -56z" />
    <glyph glyph-name="guillemotright" unicode="&#xbb;" horiz-adv-x="1390" 
d="M201 -16q-27 0 -49 26q-20 26 -41 60.5t-21 48.5q0 30 31 49q62 38 191.5 127t181.5 129q24 18 24 39q0 26 -26 47q-40 36 -367 266q-35 21 -35 53q0 14 21 48q6 11 43 61q21 25 47 25q18 0 41 -19q52 -37 130 -91.5t128.5 -90.5t104 -74.5t84.5 -63t40 -36.5
q53 -53 53 -123q0 -83 -57 -129q-36 -34 -171 -131t-308 -205q-20 -16 -45 -16zM752 -16q-28 0 -50 26q-20 25 -40.5 60t-20.5 49q0 27 31 49q61 37 190.5 125.5t184.5 130.5q24 21 24 39q0 24 -29 47q-29 29 -366 266q-19 12 -26 23.5t-7 29.5t19 48l45 61q17 25 45 25
q18 0 41 -19q52 -37 130 -91.5t128.5 -90.5t104 -74.5t84.5 -63t40 -36.5q53 -53 53 -123q0 -83 -57 -129q-36 -34 -171 -131t-308 -205q-16 -16 -45 -16z" />
    <glyph glyph-name="onequarter" unicode="&#xbc;" horiz-adv-x="1966" 
d="M1702 0q-51 0 -80 6t-38 14t-9 21v156h-518q-12 0 -21.5 31t-9.5 73q0 88 18 113l455 583q22 31 129 31q52 0 84.5 -6t41.5 -13t9 -14q0 -9 -8 -20l-426 -567h246v167q0 27 18 48l164 223q23 26 45 26q13 0 19 -5t7 -11t1 -20v-795q0 -41 -127 -41zM1348 1300l-629 -1259
q-12 -24 -45.5 -35.5t-112.5 -11.5q-143 0 -143 49q0 16 8 29l629 1259q13 24 45.5 35.5t111.5 11.5q146 0 146 -51q0 -10 -10 -27zM309 342q-133 0 -133 41v672h-88q-39 0 -39 43q0 8 10 27.5t28.5 48.5t34.5 52.5t39.5 57.5t31.5 45q19 23 43.5 32t85.5 9q118 0 118 -31
v-956q0 -41 -131 -41z" />
    <glyph glyph-name="onehalf" unicode="&#xbd;" horiz-adv-x="2037" 
d="M1233 0q-13 0 -21 8t-8 23v129q0 35 37 63q173 131 258 218q172 176 172 313q0 42 -24.5 66t-69.5 24q-43 0 -66.5 -23t-52.5 -82q-18 -37 -59 -37q-61 0 -109.5 34t-48.5 67q0 28 13.5 59.5t43 64t70.5 58.5t101.5 42.5t129.5 16.5q165 0 249.5 -78.5t84.5 -209.5
q0 -67 -28 -136.5t-72 -126t-92.5 -106t-96 -85.5t-75.5 -55t-37 -24h98q64 0 125 4.5t96.5 9.5t38.5 5q25 0 37.5 -16t14 -34t0.5 -49q-6 -143 -64 -143h-645zM1348 1300l-629 -1259q-12 -24 -45.5 -35.5t-112.5 -11.5q-143 0 -143 49q0 16 8 29l629 1259q13 24 45.5 35.5
t111.5 11.5q146 0 146 -51q0 -10 -10 -27zM309 342q-133 0 -133 41v672h-88q-39 0 -39 43q0 8 10 27.5t28.5 48.5t34.5 52.5t39.5 57.5t31.5 45q19 23 43.5 32t85.5 9q118 0 118 -31v-956q0 -41 -131 -41z" />
    <glyph glyph-name="threequarters" unicode="&#xbe;" horiz-adv-x="2160" 
d="M1907 0q-51 0 -80 6t-38 14t-9 21v156h-518q-12 0 -21.5 31t-9.5 73q0 88 18 113l455 583q22 31 129 31q52 0 84.5 -6t41.5 -13t9 -14q0 -9 -8 -20l-426 -567h246v167q0 27 18 48l164 223q23 26 45 26q13 0 19 -5t7 -11t1 -20v-795q0 -41 -127 -41zM414 319
q-69 0 -130.5 14t-103.5 35t-73 46t-45.5 47.5t-14.5 38.5q0 27 36 88t60 61q8 0 29 -18t46 -39t73.5 -39t105.5 -18q65 0 103.5 34.5t38.5 89.5q0 65 -59.5 99.5t-164.5 34.5q-35 0 -51 22.5t-16 75.5q0 45 12 62.5t45 25.5q39 8 77.5 25.5t70.5 51t32 72.5q0 27 -18 42.5
t-49 15.5q-78 0 -154 -72q-4 -4 -15 -14t-15.5 -13.5t-13.5 -7.5t-19 -4q-25 0 -78 40.5t-53 64.5q0 18 23 49.5t64 66t111.5 59.5t151.5 25q143 0 222 -63.5t79 -163.5q0 -46 -16.5 -87.5t-39.5 -67.5t-46 -45t-39 -27l-17 -8q8 -2 22 -6.5t49 -24.5t61.5 -46t48.5 -75
t22 -109q0 -141 -97.5 -239.5t-254.5 -98.5zM1552 1300l-628 -1259q-12 -24 -45.5 -35.5t-112.5 -11.5q-143 0 -143 49q0 16 8 29l629 1259q13 24 45.5 35.5t111.5 11.5q146 0 146 -51q0 -9 -11 -27z" />
    <glyph glyph-name="questiondown" unicode="&#xbf;" horiz-adv-x="935" 
d="M33 -14q0 70 32.5 140t79.5 122.5t93.5 96t79 75.5t32.5 47v104q0 41 150 41q149 0 149 -41v-168q0 -19 -32.5 -53.5t-79.5 -75.5t-93.5 -86.5t-79 -97.5t-32.5 -96q0 -71 39.5 -107.5t101.5 -36.5q69 0 109 57.5t63 172.5q5 25 12.5 32t30.5 7q61 0 137 -35.5t76 -67.5
q0 -57 -15.5 -113t-50.5 -109t-85.5 -93.5t-126.5 -65t-168 -24.5q-194 0 -308 103.5t-114 271.5zM504 1047q85 0 125.5 -42.5t40.5 -130.5q0 -174 -166 -174q-172 0 -172 174q0 88 42 130.5t130 42.5z" />
    <glyph glyph-name="Agrave" unicode="&#xc0;" horiz-adv-x="1396" 
d="M553 467h291q28 0 28 27l-149 436q-9 28 -25 28q-15 0 -24 -28l-150 -436q0 -27 29 -27zM930 231h-463q-27 0 -37 -26l-61 -164q-9 -23 -45.5 -32t-122.5 -9q-90 0 -124 7.5t-34 25.5q0 9 14 53l463 1227q13 38 51 51.5t127 13.5t127.5 -13.5t51.5 -51.5l464 -1227
q15 -47 15 -53q0 -18 -35 -25.5t-125 -7.5q-86 0 -122.5 9t-45.5 32l-61 164q-10 26 -37 26zM825 1481q-17 0 -49 20q-54 34 -147 98.5t-117 86.5q-25 21 -25 43q0 29 57 86t85 57q20 0 43 -23q154 -169 213 -239q24 -27 24 -45q0 -15 -33.5 -49.5t-50.5 -34.5z" />
    <glyph glyph-name="Aacute" unicode="&#xc1;" horiz-adv-x="1396" 
d="M553 467h291q28 0 28 27l-149 436q-9 28 -25 28q-15 0 -24 -28l-150 -436q0 -27 29 -27zM930 231h-463q-27 0 -37 -26l-61 -164q-9 -23 -45.5 -32t-122.5 -9q-90 0 -124 7.5t-34 25.5q0 9 14 53l463 1227q13 38 51 51.5t127 13.5t127.5 -13.5t51.5 -51.5l464 -1227
q15 -47 15 -53q0 -18 -35 -25.5t-125 -7.5q-86 0 -122.5 9t-45.5 32l-61 164q-10 26 -37 26zM563 1462q-17 0 -50.5 36.5t-33.5 53.5t23 43q35 43 229 256q21 21 41 21q30 0 86.5 -56.5t56.5 -89.5q0 -26 -22 -45q-25 -24 -127.5 -95.5t-155.5 -104.5q-29 -19 -47 -19z" />
    <glyph glyph-name="Acircumflex" unicode="&#xc2;" horiz-adv-x="1396" 
d="M930 231h-463q-27 0 -37 -26l-61 -164q-9 -23 -45.5 -32t-122.5 -9q-90 0 -124 7.5t-34 25.5q0 9 14 53l463 1227q13 38 51 51.5t127 13.5t127.5 -13.5t51.5 -51.5l464 -1227q15 -47 15 -53q0 -18 -35 -25.5t-125 -7.5q-86 0 -122.5 9t-45.5 32l-61 164q-10 26 -37 26z
M899 1452q-19 0 -47 21l-154 133q-146 -131 -151 -131q-25 -21 -47 -21q-21 0 -41 16l-76 74q-23 23 -23 45q0 12 25 41l219 191q24 20 41 25t53 5q39 0 56.5 -5t40.5 -25l217 -191q24 -24 24 -43q0 -25 -20 -43l-74 -71q-18 -21 -43 -21zM553 467h291q28 0 28 27l-149 436
q-9 28 -25 28q-15 0 -24 -28l-150 -436q0 -27 29 -27z" />
    <glyph glyph-name="Atilde" unicode="&#xc3;" horiz-adv-x="1396" 
d="M553 467h291q28 0 28 27l-149 436q-9 28 -25 28q-15 0 -24 -28l-150 -436q0 -27 29 -27zM930 231h-463q-27 0 -37 -26l-61 -164q-9 -23 -45.5 -32t-122.5 -9q-90 0 -124 7.5t-34 25.5q0 9 14 53l463 1227q13 38 51 51.5t127 13.5t127.5 -13.5t51.5 -51.5l464 -1227
q15 -47 15 -53q0 -18 -35 -25.5t-125 -7.5q-86 0 -122.5 9t-45.5 32l-61 164q-10 26 -37 26zM461 1509q-18 -12 -33 -12q-21 0 -65 54.5t-44 70.5q0 20 23 49q37 43 95 73t122 30q48 0 104.5 -23t104 -45.5t72.5 -22.5q36 0 94 64q14 14 24 14q21 0 69 -53.5t48 -73.5
q0 -40 -65.5 -93.5t-151.5 -53.5q-51 0 -107 22.5t-105 45t-83 22.5q-9 0 -18.5 -3.5t-20.5 -11.5t-18.5 -14.5t-22 -19.5t-22.5 -19z" />
    <glyph glyph-name="Adieresis" unicode="&#xc4;" horiz-adv-x="1396" 
d="M553 467h291q28 0 28 27l-149 436q-9 28 -25 28q-15 0 -24 -28l-150 -436q0 -27 29 -27zM930 231h-463q-27 0 -37 -26l-61 -164q-9 -23 -45.5 -32t-122.5 -9q-90 0 -124 7.5t-34 25.5q0 9 14 53l463 1227q13 38 51 51.5t127 13.5t127.5 -13.5t51.5 -51.5l464 -1227
q15 -47 15 -53q0 -18 -35 -25.5t-125 -7.5q-86 0 -122.5 9t-45.5 32l-61 164q-10 26 -37 26zM506 1481q-78 0 -115 39.5t-37 121.5q0 162 152 162q77 0 116.5 -41.5t39.5 -120.5q0 -82 -38.5 -121.5t-117.5 -39.5zM887 1481q-78 0 -115 39.5t-37 121.5q0 162 152 162
q155 0 155 -162q0 -82 -38 -121.5t-117 -39.5z" />
    <glyph glyph-name="Aring" unicode="&#xc5;" horiz-adv-x="1396" 
d="M553 467h291q28 0 28 27l-149 436q-9 28 -25 28q-15 0 -24 -28l-150 -436q0 -27 29 -27zM930 231h-463q-27 0 -37 -26l-61 -164q-9 -23 -45.5 -32t-122.5 -9q-90 0 -124 7.5t-34 25.5q0 9 14 53l463 1227q13 38 51 51.5t127 13.5t127.5 -13.5t51.5 -51.5l464 -1227
q15 -47 15 -53q0 -18 -35 -25.5t-125 -7.5q-86 0 -122.5 9t-45.5 32l-61 164q-10 26 -37 26zM696 1448q-94 0 -159.5 62.5t-65.5 150.5q0 89 66 152t159 63t160.5 -63t67.5 -152q0 -87 -67.5 -150t-160.5 -63zM696 1749q-34 0 -57 -25.5t-23 -62.5q0 -35 23 -60.5t57 -25.5
q33 0 55.5 25t22.5 61q0 37 -23 62.5t-55 25.5z" />
    <glyph glyph-name="AE" unicode="&#xc6;" horiz-adv-x="1871" 
d="M831 1372h855q63 0 63 -184q0 -56 -10 -77t-29 -21q-2 0 -34.5 3t-81.5 6t-91 3h-362q-11 0 -11 -12v-263q0 -8 11 -8h428q49 0 49 -135t-49 -135h-428q-4 0 -7.5 -4.5t-3.5 -9.5v-252q0 -13 11 -13h372q41 0 97 3t96.5 6.5t42.5 3.5q39 0 39 -99q0 -184 -64 -184h-860
q-39 0 -39 41v205h-350q-25 0 -39 -27l-88 -178q-12 -23 -50 -32t-124 -9q-58 0 -93 6t-47 15t-11 22q0 6 1.5 12.5t3.5 11t6 13t7 14.5l608 1213q19 38 56.5 51.5t125.5 13.5zM563 512q-3 -27 27 -27h235v607z" />
    <glyph glyph-name="Ccedilla" unicode="&#xc7;" horiz-adv-x="1382" 
d="M782 -506q-48 0 -95.5 13.5t-74 29t-26.5 25.5q0 17 24 53.5t33 36.5q4 0 36 -15.5t64 -15.5q47 0 73 26.5t26 65.5q0 26 -18.5 48t-41 35t-41 27t-18.5 25v134v2q-104 10 -196.5 40.5t-174 87t-141 133.5t-93.5 185.5t-34 237.5q0 139 39.5 257.5t108 203.5t160.5 145
t198 89.5t219 29.5q84 0 157 -14.5t120 -35.5t81 -46t49 -46t15 -34q0 -32 -44 -96t-69 -64q-14 0 -47.5 16.5t-98 33.5t-155.5 17q-84 0 -155.5 -26.5t-128 -79.5t-89 -142t-32.5 -206q0 -115 35 -199.5t98 -133t140.5 -71t172.5 -22.5q85 0 161.5 19.5t119.5 43t78 43
t47 19.5q30 0 30 -33q0 -89 -43 -189q-16 -41 -120 -94t-234 -67v-4v-99q139 -58 139 -174q0 -93 -80.5 -154t-173.5 -61z" />
    <glyph glyph-name="Egrave" unicode="&#xc8;" horiz-adv-x="1191" 
d="M217 0q-57 0 -57 57v1258q0 57 57 57h729q66 0 91.5 -68.5t25.5 -207.5q0 -14 -8 -22.5t-19 -8.5q-6 0 -42.5 12.5t-127 25.5t-227.5 13h-152q-30 0 -30 -31v-239q0 -31 30 -31h371q47 0 47 -131q0 -133 -47 -133h-371q-30 0 -30 -31v-233q0 -31 30 -31h205q137 0 227 13
t126 25.5t42 12.5q13 0 21 -8.5t8 -22.5q0 -139 -25.5 -207.5t-91.5 -68.5h-782zM723 1481q-17 0 -49 20q-54 34 -147 98.5t-117 86.5q-25 21 -25 43q0 29 56.5 86t84.5 57q20 0 43 -23q154 -169 213 -239q25 -29 25 -45q0 -15 -33.5 -49.5t-50.5 -34.5z" />
    <glyph glyph-name="Eacute" unicode="&#xc9;" horiz-adv-x="1191" 
d="M217 0q-57 0 -57 57v1258q0 57 57 57h729q66 0 91.5 -68.5t25.5 -207.5q0 -14 -8 -22.5t-19 -8.5q-6 0 -42.5 12.5t-127 25.5t-227.5 13h-152q-30 0 -30 -31v-239q0 -31 30 -31h371q47 0 47 -131q0 -133 -47 -133h-371q-30 0 -30 -31v-233q0 -31 30 -31h205q137 0 227 13
t126 25.5t42 12.5q13 0 21 -8.5t8 -22.5q0 -139 -25.5 -207.5t-91.5 -68.5h-782zM461 1462q-17 0 -50.5 36.5t-33.5 53.5q0 18 22 43q26 33 230 256q21 21 41 21q30 0 86.5 -56.5t56.5 -89.5q0 -26 -22 -45q-25 -24 -127.5 -95.5t-155.5 -104.5q-29 -19 -47 -19z" />
    <glyph glyph-name="Ecircumflex" unicode="&#xca;" horiz-adv-x="1191" 
d="M217 0q-57 0 -57 57v1258q0 57 57 57h729q66 0 91.5 -68.5t25.5 -207.5q0 -14 -8 -22.5t-19 -8.5q-6 0 -42.5 12.5t-127 25.5t-227.5 13h-152q-30 0 -30 -31v-239q0 -31 30 -31h371q47 0 47 -131q0 -133 -47 -133h-371q-30 0 -30 -31v-233q0 -31 30 -31h205q137 0 227 13
t126 25.5t42 12.5q13 0 21 -8.5t8 -22.5q0 -139 -25.5 -207.5t-91.5 -68.5h-782zM797 1452q-19 0 -47 21l-154 133q-146 -131 -152 -131q-25 -21 -47 -21q-21 0 -41 16l-75 74q-23 23 -23 45q0 12 25 41l219 191q24 20 41 25t53 5q39 0 56 -5t40 -25l217 -191q25 -25 25 -43
q0 -25 -21 -43l-73 -71q-18 -21 -43 -21z" />
    <glyph glyph-name="Edieresis" unicode="&#xcb;" horiz-adv-x="1191" 
d="M217 0q-57 0 -57 57v1258q0 57 57 57h729q66 0 91.5 -68.5t25.5 -207.5q0 -14 -8 -22.5t-19 -8.5q-6 0 -42.5 12.5t-127 25.5t-227.5 13h-152q-30 0 -30 -31v-239q0 -31 30 -31h371q47 0 47 -131q0 -133 -47 -133h-371q-30 0 -30 -31v-233q0 -31 30 -31h205q137 0 227 13
t126 25.5t42 12.5q13 0 21 -8.5t8 -22.5q0 -139 -25.5 -207.5t-91.5 -68.5h-782zM403 1481q-78 0 -114.5 39.5t-36.5 121.5q0 162 151 162q77 0 116.5 -41.5t39.5 -120.5q0 -82 -38.5 -121.5t-117.5 -39.5zM784 1481q-78 0 -114.5 39.5t-36.5 121.5q0 162 151 162
q77 0 116.5 -41.5t39.5 -120.5q0 -82 -38.5 -121.5t-117.5 -39.5z" />
    <glyph glyph-name="Igrave" unicode="&#xcc;" horiz-adv-x="622" 
d="M311 0q-151 0 -151 47v1278q0 47 151 47q152 0 152 -47v-1278q0 -47 -152 -47zM438 1481q-17 0 -49 20q-54 34 -147 98.5t-117 86.5q-25 21 -25 43q0 29 57 86t85 57q20 0 43 -23q154 -169 213 -239q24 -27 24 -45q0 -15 -33.5 -49.5t-50.5 -34.5z" />
    <glyph glyph-name="Iacute" unicode="&#xcd;" horiz-adv-x="622" 
d="M311 0q-151 0 -151 47v1278q0 47 151 47q152 0 152 -47v-1278q0 -47 -152 -47zM176 1462q-17 0 -50.5 36.5t-33.5 53.5t23 43q35 43 229 256q21 21 41 21q30 0 86.5 -56.5t56.5 -89.5q0 -26 -22 -45q-25 -24 -127.5 -95.5t-155.5 -104.5q-28 -19 -47 -19z" />
    <glyph glyph-name="Icircumflex" unicode="&#xce;" horiz-adv-x="622" 
d="M311 0q-151 0 -151 47v1278q0 47 151 47q152 0 152 -47v-1278q0 -47 -152 -47zM512 1452q-19 0 -47 21l-154 133q-146 -131 -151 -131q-25 -21 -47 -21q-21 0 -41 16l-76 74q-23 23 -23 45q0 12 25 41l219 191q24 20 41 25t53 5q39 0 56.5 -5t40.5 -25l217 -191
q24 -24 24 -43q0 -25 -20 -43l-74 -71q-17 -21 -43 -21z" />
    <glyph glyph-name="Idieresis" unicode="&#xcf;" horiz-adv-x="622" 
d="M311 0q-151 0 -151 47v1278q0 47 151 47q152 0 152 -47v-1278q0 -47 -152 -47zM119 1481q-78 0 -115 39.5t-37 121.5q0 162 152 162q155 0 155 -162q0 -82 -38 -121.5t-117 -39.5zM500 1481q-78 0 -115 39.5t-37 121.5q0 162 152 162q155 0 155 -162q0 -82 -38 -121.5
t-117 -39.5z" />
    <glyph glyph-name="Eth" unicode="&#xd0;" horiz-adv-x="1443" 
d="M92 788h68v492q0 46 129 79.5t307 33.5q764 0 764 -676q0 -154 -40.5 -278t-111 -208.5t-168.5 -141t-208.5 -82t-235.5 -25.5q-178 0 -307 33t-129 79v434h-68q-43 0 -43 129q0 131 43 131zM1051 715q0 74 -9.5 135.5t-29 105.5t-43 78t-57 56t-66 36.5t-74 22t-77 10
t-79.5 2.5q-153 0 -153 -69v-304h199q43 0 43 -131q0 -129 -43 -129h-199v-235q0 -76 151 -76q67 0 125.5 13t117 48t100.5 89t68 143.5t26 204.5z" />
    <glyph glyph-name="Ntilde" unicode="&#xd1;" horiz-adv-x="1468" 
d="M303 0q-60 0 -93 6.5t-41.5 15.5t-8.5 23v1286q0 41 106 41q72 0 99 -5t38 -19l623 -832v813q0 14 8.5 23t40.5 15.5t90 6.5q60 0 93.5 -6.5t42 -15.5t8.5 -23v-1288q0 -41 -107 -41q-118 0 -137 25l-623 809v-789q0 -14 -8.5 -23t-40.5 -15.5t-90 -6.5zM498 1509
q-18 -12 -33 -12q-21 0 -65 54.5t-44 70.5q0 20 23 49q37 43 95 73t122 30q48 0 104.5 -23t104 -45.5t72.5 -22.5q36 0 94 64q14 14 24 14q21 0 69 -53.5t48 -73.5q0 -40 -65.5 -93.5t-151.5 -53.5q-51 0 -107 22.5t-105 45t-83 22.5q-9 0 -18.5 -3.5t-20.5 -11.5
t-18.5 -14.5t-22 -19.5t-22.5 -19z" />
    <glyph glyph-name="Ograve" unicode="&#xd2;" horiz-adv-x="1488" 
d="M743 -20q-310 0 -487.5 181t-177.5 529q0 139 34.5 255t95.5 198t144.5 139t182 84t208.5 27t208.5 -27t183 -84t145.5 -139t96 -198t35 -255q0 -174 -50 -310.5t-140 -223t-211 -131.5t-267 -45zM743 227q74 0 134.5 24.5t109 76.5t76 143.5t27.5 214.5q0 99 -19 177.5
t-50.5 130t-76.5 85t-94.5 48t-106.5 14.5q-72 0 -132 -24t-109.5 -75t-77 -142t-27.5 -214q0 -459 346 -459zM870 1481q-17 0 -49 20q-54 34 -147 98.5t-117 86.5q-25 21 -25 43q0 29 57 86t85 57q20 0 43 -23q154 -169 213 -239q24 -27 24 -45q0 -15 -33.5 -49.5
t-50.5 -34.5z" />
    <glyph glyph-name="Oacute" unicode="&#xd3;" horiz-adv-x="1488" 
d="M743 -20q-310 0 -487.5 181t-177.5 529q0 139 34.5 255t95.5 198t144.5 139t182 84t208.5 27t208.5 -27t183 -84t145.5 -139t96 -198t35 -255q0 -174 -50 -310.5t-140 -223t-211 -131.5t-267 -45zM743 227q74 0 134.5 24.5t109 76.5t76 143.5t27.5 214.5q0 99 -19 177.5
t-50.5 130t-76.5 85t-94.5 48t-106.5 14.5q-72 0 -132 -24t-109.5 -75t-77 -142t-27.5 -214q0 -459 346 -459zM610 1462q-17 0 -50.5 36.5t-33.5 53.5t23 43q35 43 229 256q21 21 41 21q30 0 87 -56.5t57 -89.5q0 -25 -23 -45q-25 -24 -127.5 -95.5t-155.5 -104.5
q-29 -19 -47 -19z" />
    <glyph glyph-name="Ocircumflex" unicode="&#xd4;" horiz-adv-x="1488" 
d="M743 -20q-310 0 -487.5 181t-177.5 529q0 139 34.5 255t95.5 198t144.5 139t182 84t208.5 27t208.5 -27t183 -84t145.5 -139t96 -198t35 -255q0 -174 -50 -310.5t-140 -223t-211 -131.5t-267 -45zM743 227q74 0 134.5 24.5t109 76.5t76 143.5t27.5 214.5q0 99 -19 177.5
t-50.5 130t-76.5 85t-94.5 48t-106.5 14.5q-72 0 -132 -24t-109.5 -75t-77 -142t-27.5 -214q0 -459 346 -459zM944 1452q-19 0 -47 21l-154 133q-146 -131 -151 -131q-25 -21 -47 -21q-21 0 -41 16l-76 74q-22 22 -22 45q0 13 24 41l219 191q24 20 41 25t53 5q39 0 56.5 -5
t40.5 -25l217 -191q24 -24 24 -43q0 -25 -20 -43l-74 -71q-18 -21 -43 -21z" />
    <glyph glyph-name="Otilde" unicode="&#xd5;" horiz-adv-x="1488" 
d="M743 -20q-310 0 -487.5 181t-177.5 529q0 139 34.5 255t95.5 198t144.5 139t182 84t208.5 27t208.5 -27t183 -84t145.5 -139t96 -198t35 -255q0 -174 -50 -310.5t-140 -223t-211 -131.5t-267 -45zM743 227q74 0 134.5 24.5t109 76.5t76 143.5t27.5 214.5q0 99 -19 177.5
t-50.5 130t-76.5 85t-94.5 48t-106.5 14.5q-72 0 -132 -24t-109.5 -75t-77 -142t-27.5 -214q0 -459 346 -459zM508 1509q-18 -12 -33 -12q-21 0 -64.5 54.5t-43.5 70.5q0 22 22 49q37 43 95 73t122 30q48 0 104.5 -23t104 -45.5t72.5 -22.5q36 0 94 64q14 14 25 14
q21 0 68.5 -53.5t47.5 -73.5q0 -40 -65.5 -93.5t-151.5 -53.5q-51 0 -107 22.5t-105 45t-83 22.5q-9 0 -18.5 -3.5t-20.5 -11.5t-18.5 -14.5t-22 -19.5t-22.5 -19z" />
    <glyph glyph-name="Odieresis" unicode="&#xd6;" horiz-adv-x="1488" 
d="M743 -20q-310 0 -487.5 181t-177.5 529q0 139 34.5 255t95.5 198t144.5 139t182 84t208.5 27t208.5 -27t183 -84t145.5 -139t96 -198t35 -255q0 -174 -50 -310.5t-140 -223t-211 -131.5t-267 -45zM743 227q74 0 134.5 24.5t109 76.5t76 143.5t27.5 214.5q0 99 -19 177.5
t-50.5 130t-76.5 85t-94.5 48t-106.5 14.5q-72 0 -132 -24t-109.5 -75t-77 -142t-27.5 -214q0 -459 346 -459zM551 1481q-78 0 -115 39.5t-37 121.5q0 162 152 162q77 0 116.5 -41.5t39.5 -120.5q0 -82 -38.5 -121.5t-117.5 -39.5zM932 1481q-78 0 -115 39.5t-37 121.5
q0 162 152 162q155 0 155 -162q0 -82 -38 -121.5t-117 -39.5z" />
    <glyph glyph-name="multiply" unicode="&#xd7;" horiz-adv-x="1056" 
d="M805 268q-20 0 -41 21l-240 237l-227 -225q-18 -18 -41 -18q-20 0 -43 20l-109 109q-20 17 -20 43q0 19 20 39l226 227l-224 225q-20 20 -20 43q0 24 18 39l107 109q20 20 41 20q24 0 43 -22l225 -224l219 219q19 19 43 19q22 0 41 -19l109 -106q20 -20 20 -45
q0 -21 -20 -41l-219 -221l239 -240q21 -17 21 -39q0 -18 -21 -43l-106 -106q-18 -21 -41 -21z" />
    <glyph glyph-name="Oslash" unicode="&#xd8;" horiz-adv-x="1488" 
d="M1212 1327l-36 -76q235 -189 235 -561q0 -174 -50 -310.5t-140 -223t-211 -131.5t-267 -45q-106 0 -190 20l-14 -31q-12 -24 -45.5 -35.5t-112.5 -11.5q-143 0 -143 49q0 16 8 29l57 117q-225 184 -225 573q0 139 34.5 255t95.5 198t144.5 139t182 84t208.5 27
q89 0 183 -23l14 29q13 24 46 35.5t112 11.5q80 0 105.5 -17t25.5 -55q0 -14 -17 -47zM743 227q74 0 134.5 24.5t109 76.5t76 143.5t27.5 214.5q0 169 -56 281l-364 -734q37 -6 73 -6zM397 686q0 -176 49 -280l363 729q-35 6 -66 6q-72 0 -132 -24t-109.5 -75t-77 -142
t-27.5 -214z" />
    <glyph glyph-name="Ugrave" unicode="&#xd9;" horiz-adv-x="1423" 
d="M713 -20q-147 0 -259 41t-180 115t-101.5 170t-33.5 212v813q0 47 152 47q151 0 151 -47v-756q0 -168 66 -251.5t205 -83.5q138 0 204 83.5t66 251.5v756q0 47 152 47q151 0 151 -47v-813q0 -116 -33.5 -212t-101 -170t-179.5 -115t-259 -41zM838 1481q-18 0 -50 20
q-54 34 -147 98.5t-117 86.5q-24 21 -24 43q0 29 56.5 86t84.5 57q20 0 43 -23q154 -169 213 -239q25 -29 25 -45q0 -15 -33.5 -49.5t-50.5 -34.5z" />
    <glyph glyph-name="Uacute" unicode="&#xda;" horiz-adv-x="1423" 
d="M713 -20q-147 0 -259 41t-180 115t-101.5 170t-33.5 212v813q0 47 152 47q151 0 151 -47v-756q0 -168 66 -251.5t205 -83.5q138 0 204 83.5t66 251.5v756q0 47 152 47q151 0 151 -47v-813q0 -116 -33.5 -212t-101 -170t-179.5 -115t-259 -41zM578 1462q-17 0 -50.5 36.5
t-33.5 53.5q0 18 22 43q35 43 229 256q21 21 41 21q30 0 87 -56.5t57 -89.5q0 -25 -23 -45q-25 -24 -127.5 -95.5t-154.5 -104.5q-29 -19 -47 -19z" />
    <glyph glyph-name="Ucircumflex" unicode="&#xdb;" horiz-adv-x="1423" 
d="M713 -20q-147 0 -259 41t-180 115t-101.5 170t-33.5 212v813q0 47 152 47q151 0 151 -47v-756q0 -168 66 -251.5t205 -83.5q138 0 204 83.5t66 251.5v756q0 47 152 47q151 0 151 -47v-813q0 -116 -33.5 -212t-101 -170t-179.5 -115t-259 -41zM911 1452q-19 0 -47 21
l-153 133q-146 -131 -152 -131q-25 -21 -47 -21q-21 0 -41 16l-76 74q-22 22 -22 45q0 13 24 41l219 191q24 20 41 25t54 5q39 0 56 -5t40 -25l217 -191q25 -25 25 -43q0 -25 -21 -43l-74 -71q-18 -21 -43 -21z" />
    <glyph glyph-name="Udieresis" unicode="&#xdc;" horiz-adv-x="1423" 
d="M713 -20q-147 0 -259 41t-180 115t-101.5 170t-33.5 212v813q0 47 152 47q151 0 151 -47v-756q0 -168 66 -251.5t205 -83.5q138 0 204 83.5t66 251.5v756q0 47 152 47q151 0 151 -47v-813q0 -116 -33.5 -212t-101 -170t-179.5 -115t-259 -41zM518 1481q-78 0 -114.5 39.5
t-36.5 121.5q0 162 151 162q77 0 116.5 -41.5t39.5 -120.5q0 -82 -38.5 -121.5t-117.5 -39.5zM899 1481q-78 0 -114.5 39.5t-36.5 121.5q0 162 151 162q77 0 116.5 -41.5t39.5 -120.5q0 -82 -38.5 -121.5t-117.5 -39.5z" />
    <glyph glyph-name="Yacute" unicode="&#xdd;" horiz-adv-x="1228" 
d="M614 0q-151 0 -151 47v502l-6 37l-418 712q-10 17 -10 29q0 45 159 45q89 0 124.5 -11.5t47.5 -33.5l254 -459l254 459q12 22 48.5 33.5t125.5 11.5q160 0 160 -45q0 -14 -12 -29l-418 -712q-6 -21 -6 -37v-502q0 -47 -152 -47zM479 1462q-17 0 -50.5 36.5t-33.5 53.5
t23 43q35 43 229 256q21 21 41 21q30 0 86.5 -56.5t56.5 -89.5q0 -26 -22 -45q-25 -24 -127.5 -95.5t-155.5 -104.5q-29 -19 -47 -19z" />
    <glyph glyph-name="Thorn" unicode="&#xde;" horiz-adv-x="1050" 
d="M211 0q-26 0 -41.5 14t-15.5 39v1278q0 25 15.5 40t41.5 15h166q28 0 43.5 -15.5t15.5 -39.5v-201q72 35 154 35q182 0 293.5 -113.5t111.5 -303.5q0 -102 -34 -189.5t-91 -146t-131 -91t-155 -32.5q-85 0 -148 26v-262q0 -21 -14.5 -37t-44.5 -16h-166zM561 944
q-49 0 -86 -21t-37 -61v-297q0 -53 123 -53q81 0 123.5 67t42.5 169q0 94 -43.5 145t-122.5 51z" />
    <glyph glyph-name="germandbls" unicode="&#xdf;" horiz-adv-x="1243" 
d="M436 936v-893q0 -43 -157 -43q-146 0 -146 43v932q0 196 131.5 319t337.5 123q194 0 313 -100.5t119 -251.5q0 -58 -15 -108t-33 -77t-33 -52.5t-15 -39.5q0 -10 18 -24.5t54 -40t63 -49.5q133 -115 133 -293q0 -187 -106 -293t-262 -106q-72 0 -147.5 30.5t-119 65.5
t-43.5 55q0 30 58 98t84 68q13 0 37 -19.5t55 -39t61 -19.5q46 0 80.5 38.5t34.5 100.5q0 113 -137 205q-15 9 -45.5 27t-44.5 27.5t-32.5 24t-26 27.5t-7.5 27q0 8 1 14.5t5 15t6 12.5t9 15.5t10 16.5q27 44 41 70.5t26.5 69t12.5 85.5q0 74 -44.5 120t-117.5 46
q-76 0 -117 -58t-41 -169z" />
    <glyph glyph-name="agrave" unicode="&#xe0;" horiz-adv-x="1175" 
d="M365 319q0 -64 44 -98.5t117 -34.5q63 0 108.5 31.5t45.5 63.5v219q0 22 -23 22q-45 0 -112 -30q-37 -13 -65 -27.5t-56 -35t-43.5 -48.5t-15.5 -62zM922 -20q-34 0 -66.5 10.5t-55 26t-40.5 31t-26 26.5l-9 10q-149 -104 -313 -104q-152 0 -247 80t-95 221
q0 88 28.5 151t90.5 108t140.5 74.5t198.5 57.5q80 19 114 34t34 37q0 46 -42.5 73.5t-125.5 27.5q-70 0 -142.5 -23.5t-120 -47t-57.5 -23.5q-26 0 -26 30q0 69 43 170q17 38 119.5 76.5t226.5 38.5q230 0 331 -101t101 -311v-372q0 -88 80 -88h41q29 0 29 -27
q0 -43 -72 -114.5t-139 -71.5zM662 1149q-18 0 -50 20q-54 34 -147 98.5t-117 86.5q-24 21 -24 43q0 29 56.5 86t84.5 57q21 0 43 -22q143 -157 213 -240q24 -27 24 -45q0 -15 -33 -49.5t-50 -34.5z" />
    <glyph glyph-name="aacute" unicode="&#xe1;" horiz-adv-x="1175" 
d="M365 319q0 -64 44 -98.5t117 -34.5q63 0 108.5 31.5t45.5 63.5v219q0 22 -23 22q-45 0 -112 -30q-37 -13 -65 -27.5t-56 -35t-43.5 -48.5t-15.5 -62zM922 -20q-34 0 -66.5 10.5t-55 26t-40.5 31t-26 26.5l-9 10q-149 -104 -313 -104q-152 0 -247 80t-95 221
q0 88 28.5 151t90.5 108t140.5 74.5t198.5 57.5q80 19 114 34t34 37q0 46 -42.5 73.5t-125.5 27.5q-70 0 -142.5 -23.5t-120 -47t-57.5 -23.5q-26 0 -26 30q0 69 43 170q17 38 119.5 76.5t226.5 38.5q230 0 331 -101t101 -311v-372q0 -88 80 -88h41q29 0 29 -27
q0 -43 -72 -114.5t-139 -71.5zM453 1135q-17 0 -50.5 36.5t-33.5 53.5q0 18 22 43q26 33 230 256q20 20 41 20q30 0 86.5 -56t56.5 -89q0 -25 -23 -45q-26 -24 -128.5 -96.5t-153.5 -104.5q-27 -18 -47 -18z" />
    <glyph glyph-name="acircumflex" unicode="&#xe2;" horiz-adv-x="1175" 
d="M922 -20q-34 0 -66.5 10.5t-55 26t-40.5 31t-26 26.5l-9 10q-149 -104 -313 -104q-152 0 -247 80t-95 221q0 88 28.5 151t90.5 108t140.5 74.5t198.5 57.5q80 19 114 34t34 37q0 46 -42.5 73.5t-125.5 27.5q-70 0 -142.5 -23.5t-120 -47t-57.5 -23.5q-26 0 -26 30
q0 69 43 170q17 38 119.5 76.5t226.5 38.5q230 0 331 -101t101 -311v-372q0 -88 80 -88h41q29 0 29 -27q0 -43 -72 -114.5t-139 -71.5zM788 1124q-19 0 -47 21l-153 133q-146 -131 -152 -131q-25 -21 -47 -21q-20 0 -41 17l-76 74q-22 22 -22 45q0 13 24 41l220 190
q24 20 41 25.5t53 5.5q39 0 56 -5.5t40 -25.5l217 -190q25 -25 25 -43q0 -25 -21 -43l-74 -72q-17 -21 -43 -21zM365 319q0 -64 44 -98.5t117 -34.5q63 0 108.5 31.5t45.5 63.5v219q0 22 -23 22q-45 0 -112 -30q-37 -13 -65 -27.5t-56 -35t-43.5 -48.5t-15.5 -62z" />
    <glyph glyph-name="atilde" unicode="&#xe3;" horiz-adv-x="1175" 
d="M365 319q0 -64 44 -98.5t117 -34.5q63 0 108.5 31.5t45.5 63.5v219q0 22 -23 22q-45 0 -112 -30q-37 -13 -65 -27.5t-56 -35t-43.5 -48.5t-15.5 -62zM922 -20q-34 0 -66.5 10.5t-55 26t-40.5 31t-26 26.5l-9 10q-149 -104 -313 -104q-152 0 -247 80t-95 221
q0 88 28.5 151t90.5 108t140.5 74.5t198.5 57.5q80 19 114 34t34 37q0 46 -42.5 73.5t-125.5 27.5q-70 0 -142.5 -23.5t-120 -47t-57.5 -23.5q-26 0 -26 30q0 69 43 170q17 38 119.5 76.5t226.5 38.5q230 0 331 -101t101 -311v-372q0 -88 80 -88h41q29 0 29 -27
q0 -43 -72 -114.5t-139 -71.5zM350 1182q-20 -13 -33 -13q-21 0 -64.5 54.5t-43.5 70.5q0 22 22 49q37 43 95.5 73t122.5 30q48 0 104.5 -22.5t103.5 -45t72 -22.5q37 0 94 63q15 15 25 15q21 0 69 -53.5t48 -73.5q0 -40 -65.5 -94t-151.5 -54q-51 0 -107 22.5t-105 45
t-83 22.5q-9 0 -18 -3t-21 -11.5t-19 -14t-23.5 -19.5t-21.5 -19z" />
    <glyph glyph-name="adieresis" unicode="&#xe4;" horiz-adv-x="1175" 
d="M365 319q0 -64 44 -98.5t117 -34.5q63 0 108.5 31.5t45.5 63.5v219q0 22 -23 22q-45 0 -112 -30q-37 -13 -65 -27.5t-56 -35t-43.5 -48.5t-15.5 -62zM922 -20q-34 0 -66.5 10.5t-55 26t-40.5 31t-26 26.5l-9 10q-149 -104 -313 -104q-152 0 -247 80t-95 221
q0 88 28.5 151t90.5 108t140.5 74.5t198.5 57.5q80 19 114 34t34 37q0 46 -42.5 73.5t-125.5 27.5q-70 0 -142.5 -23.5t-120 -47t-57.5 -23.5q-26 0 -26 30q0 69 43 170q17 38 119.5 76.5t226.5 38.5q230 0 331 -101t101 -311v-372q0 -88 80 -88h41q29 0 29 -27
q0 -43 -72 -114.5t-139 -71.5zM358 1151q-78 0 -114.5 40t-36.5 122q0 162 151 162q77 0 116.5 -41.5t39.5 -120.5q0 -162 -156 -162zM739 1151q-78 0 -114.5 40t-36.5 122q0 162 151 162q77 0 116.5 -41.5t39.5 -120.5q0 -162 -156 -162z" />
    <glyph glyph-name="aring" unicode="&#xe5;" horiz-adv-x="1175" 
d="M365 319q0 -64 44 -98.5t117 -34.5q63 0 108.5 31.5t45.5 63.5v219q0 22 -23 22q-45 0 -112 -30q-37 -13 -65 -27.5t-56 -35t-43.5 -48.5t-15.5 -62zM922 -20q-34 0 -66.5 10.5t-55 26t-40.5 31t-26 26.5l-9 10q-149 -104 -313 -104q-152 0 -247 80t-95 221
q0 88 28.5 151t90.5 108t140.5 74.5t198.5 57.5q80 19 114 34t34 37q0 46 -42.5 73.5t-125.5 27.5q-70 0 -142.5 -23.5t-120 -47t-57.5 -23.5q-26 0 -26 30q0 69 43 170q17 38 119.5 76.5t226.5 38.5q230 0 331 -101t101 -311v-372q0 -88 80 -88h41q29 0 29 -27
q0 -43 -72 -114.5t-139 -71.5zM586 1120q-94 0 -160 62.5t-66 150.5q0 89 66.5 152t159.5 63t160 -63t67 -152q0 -87 -67 -150t-160 -63zM586 1421q-34 0 -57 -25.5t-23 -62.5q0 -35 23 -60.5t57 -25.5q33 0 55.5 25t22.5 61q0 37 -23 62.5t-55 25.5z" />
    <glyph glyph-name="ae" unicode="&#xe6;" horiz-adv-x="1640" 
d="M844 117q-71 -52 -189 -94.5t-241 -42.5q-148 0 -246 85.5t-98 227.5q0 85 26.5 145.5t85.5 104t136 72.5t196 57q80 19 114 34t34 37q0 46 -42.5 73.5t-125.5 27.5q-55 0 -110.5 -14.5t-90.5 -32.5t-65 -32.5t-40 -14.5q-26 0 -26 30q0 69 43 170q17 39 111.5 77
t213.5 38q226 0 326 -109q126 109 315 109q206 0 305 -82.5t99 -220.5q0 -81 -35.5 -147.5t-92 -109.5t-133 -73.5t-151 -45t-153.5 -19.5q57 -158 256 -158q55 0 106 14.5t81 31.5t56.5 31.5t36.5 14.5t18.5 -7.5t8.5 -21.5q0 -70 -37 -168q-14 -39 -109.5 -81.5
t-216.5 -42.5q-224 0 -366 137zM369 326q0 -133 151 -133q60 0 102 26.5t42 52.5v220q0 24 -23 24q-44 0 -113 -29q-76 -23 -117.5 -59.5t-41.5 -101.5zM1178 879q-83 0 -134 -83.5t-55 -267.5q67 13 114 30t86.5 45.5t59 73.5t19.5 107q0 44 -24.5 69.5t-65.5 25.5z" />
    <glyph glyph-name="ccedilla" unicode="&#xe7;" horiz-adv-x="1067" 
d="M602 -510q-48 0 -95.5 13.5t-74 29t-26.5 25.5q0 17 24 53.5t33 36.5q4 0 36 -15.5t64 -15.5q47 0 73 26.5t26 65.5q0 26 -18.5 48t-41 35t-41 27t-18.5 25v133v9q-97 12 -178.5 48t-145 97.5t-99.5 155t-36 211.5q0 139 45.5 249.5t124 178.5t180 103.5t217.5 35.5
q73 0 134.5 -12t98 -29.5t57 -37t20.5 -36.5q0 -37 -50 -106.5t-80 -69.5q-10 0 -36 16.5t-69 33t-93 16.5q-40 0 -76.5 -16t-70 -50.5t-54 -99.5t-20.5 -152q0 -157 77.5 -235t206.5 -78q56 0 107.5 13.5t81.5 29.5t56 29.5t36 13.5t18.5 -7.5t8.5 -21.5q0 -81 -43 -168
q-15 -32 -84.5 -66.5t-159.5 -45.5v-9v-98q139 -58 139 -174q0 -93 -80.5 -154t-173.5 -61z" />
    <glyph glyph-name="egrave" unicode="&#xe8;" horiz-adv-x="1087" 
d="M647 -20q-123 0 -225 32t-178 95t-118 162t-42 227q0 117 29.5 213.5t80 161.5t118.5 109.5t142.5 64.5t155.5 20q202 0 309 -84t107 -217q0 -97 -58.5 -174.5t-151 -122t-192.5 -68.5t-198 -26q59 -164 276 -164q54 0 105 14.5t81.5 31.5t56.5 31.5t36 14.5
q12 0 20.5 -7.5t8.5 -21.5q0 -27 -10.5 -76t-28.5 -92q-14 -39 -108.5 -81.5t-215.5 -42.5zM719 1155q-15 0 -49 21q-56 35 -148 98.5t-116 85.5q-25 21 -25 43q0 29 56.5 86t84.5 57q21 0 43 -22q143 -157 213 -240q25 -29 25 -45q0 -15 -33.5 -49.5t-50.5 -34.5zM621 881
q-85 0 -146 -86.5t-67 -266.5q132 13 222.5 80t90.5 174q0 42 -29 70.5t-71 28.5z" />
    <glyph glyph-name="eacute" unicode="&#xe9;" horiz-adv-x="1087" 
d="M647 -20q-123 0 -225 32t-178 95t-118 162t-42 227q0 117 29.5 213.5t80 161.5t118.5 109.5t142.5 64.5t155.5 20q202 0 309 -84t107 -217q0 -97 -58.5 -174.5t-151 -122t-192.5 -68.5t-198 -26q59 -164 276 -164q54 0 105 14.5t81.5 31.5t56.5 31.5t36 14.5
q12 0 20.5 -7.5t8.5 -21.5q0 -27 -10.5 -76t-28.5 -92q-14 -39 -108.5 -81.5t-215.5 -42.5zM479 1126q-17 0 -50.5 36.5t-33.5 54.5q0 17 23 43q35 43 229 256q20 20 41 20q30 0 86.5 -56t56.5 -89q0 -26 -22 -45q-25 -24 -128 -96t-155 -105q-29 -19 -47 -19zM621 881
q-85 0 -146 -86.5t-67 -266.5q132 13 222.5 80t90.5 174q0 42 -29 70.5t-71 28.5z" />
    <glyph glyph-name="ecircumflex" unicode="&#xea;" horiz-adv-x="1087" 
d="M647 -20q-123 0 -225 32t-178 95t-118 162t-42 227q0 117 29.5 213.5t80 161.5t118.5 109.5t142.5 64.5t155.5 20q202 0 309 -84t107 -217q0 -97 -58.5 -174.5t-151 -122t-192.5 -68.5t-198 -26q59 -164 276 -164q54 0 105 14.5t81.5 31.5t56.5 31.5t36 14.5
q12 0 20.5 -7.5t8.5 -21.5q0 -27 -10.5 -76t-28.5 -92q-14 -39 -108.5 -81.5t-215.5 -42.5zM811 1114q-19 0 -47 21l-154 133q-146 -131 -151 -131q-25 -21 -47 -21q-20 0 -41 17l-76 73q-23 23 -23 45q0 12 25 41l219 191q24 20 41 25t53 5q39 0 56.5 -5t40.5 -25l217 -191
q24 -24 24 -43q0 -25 -20 -43l-74 -71q-18 -21 -43 -21zM621 881q-85 0 -146 -86.5t-67 -266.5q132 13 222.5 80t90.5 174q0 42 -29 70.5t-71 28.5z" />
    <glyph glyph-name="edieresis" unicode="&#xeb;" horiz-adv-x="1087" 
d="M647 -20q-123 0 -225 32t-178 95t-118 162t-42 227q0 117 29.5 213.5t80 161.5t118.5 109.5t142.5 64.5t155.5 20q202 0 309 -84t107 -217q0 -97 -58.5 -174.5t-151 -122t-192.5 -68.5t-198 -26q59 -164 276 -164q54 0 105 14.5t81.5 31.5t56.5 31.5t36 14.5
q12 0 20.5 -7.5t8.5 -21.5q0 -27 -10.5 -76t-28.5 -92q-14 -39 -108.5 -81.5t-215.5 -42.5zM807 1139q-78 0 -115 39.5t-37 121.5q0 162 152 162q77 0 116.5 -41.5t39.5 -120.5q0 -82 -38.5 -121.5t-117.5 -39.5zM426 1139q-78 0 -115 39.5t-37 121.5q0 162 152 162
q77 0 116.5 -41.5t39.5 -120.5q0 -82 -38.5 -121.5t-117.5 -39.5zM621 881q-85 0 -146 -86.5t-67 -266.5q132 13 222.5 80t90.5 174q0 42 -29 70.5t-71 28.5z" />
    <glyph glyph-name="igrave" unicode="&#xec;" horiz-adv-x="620" 
d="M418 995v-714q0 -88 78 -88h43q28 0 28 -27q0 -25 -31.5 -68.5t-83 -80.5t-96.5 -37q-114 0 -177.5 64.5t-63.5 178.5v772q0 49 151 49q152 0 152 -49zM408 1153q-16 0 -50 21q-56 35 -148 98.5t-116 85.5q-24 21 -24 43q0 29 56.5 86t84.5 57q21 0 43 -22
q143 -157 213 -240q25 -29 25 -45q0 -15 -33.5 -49.5t-50.5 -34.5z" />
    <glyph glyph-name="iacute" unicode="&#xed;" horiz-adv-x="620" 
d="M418 995v-714q0 -88 78 -88h43q28 0 28 -27q0 -25 -31.5 -68.5t-83 -80.5t-96.5 -37q-114 0 -177.5 64.5t-63.5 178.5v772q0 49 151 49q152 0 152 -49zM133 1147q-17 0 -50.5 36.5t-33.5 53.5t23 43q35 43 229 256q20 20 41 20q30 0 86.5 -56t56.5 -89q0 -26 -22 -45
q-25 -24 -128 -96t-155 -105q-27 -18 -47 -18z" />
    <glyph glyph-name="icircumflex" unicode="&#xee;" horiz-adv-x="620" 
d="M418 995v-714q0 -88 78 -88h43q28 0 28 -27q0 -25 -31.5 -68.5t-83 -80.5t-96.5 -37q-114 0 -177.5 64.5t-63.5 178.5v772q0 49 151 49q152 0 152 -49zM465 1124q-19 0 -47 21l-154 133q-146 -131 -151 -131q-25 -21 -47 -21q-20 0 -41 17l-76 74q-23 23 -23 45
q0 12 25 41l219 190q24 20 41 25.5t53 5.5q39 0 56 -5.5t40 -25.5l218 -190q24 -24 24 -43q0 -26 -20 -43l-74 -72q-17 -21 -43 -21z" />
    <glyph glyph-name="idieresis" unicode="&#xef;" horiz-adv-x="620" 
d="M418 995v-714q0 -88 78 -88h43q28 0 28 -27q0 -25 -31.5 -68.5t-83 -80.5t-96.5 -37q-114 0 -177.5 64.5t-63.5 178.5v772q0 49 151 49q152 0 152 -49zM72 1153q-78 0 -115 40t-37 122q0 162 152 162q155 0 155 -162q0 -82 -38 -122t-117 -40zM453 1153q-78 0 -115 40
t-37 122q0 162 152 162q155 0 155 -162q0 -82 -38 -122t-117 -40z" />
    <glyph glyph-name="eth" unicode="&#xf0;" horiz-adv-x="1107" 
d="M211 1055l135 84q-29 33 -60 67t-62 67.5t-44 47.5q-10 17 -10 27t14.5 19.5t52 17.5t91.5 8q118 0 159 -41l76 -76l176 110q32 23 86 -69q57 -90 27 -109l-145 -92q317 -372 317 -624q0 -233 -135.5 -371.5t-356.5 -138.5q-204 0 -328 113.5t-124 271.5q0 69 25.5 134
t69.5 117t93 95.5t107 78.5t99.5 56.5t80.5 38.5q-47 63 -70 90l-159 -100q-31 -19 -86 71q-57 90 -29 107zM737 498q0 84 -67 211q-34 -17 -67 -37t-77.5 -54t-76.5 -69.5t-55 -83t-23 -94.5q0 -69 46.5 -113.5t119.5 -44.5q80 0 140 80t60 205z" />
    <glyph glyph-name="ntilde" unicode="&#xf1;" horiz-adv-x="1292" 
d="M1036 -20q-114 0 -176.5 64.5t-62.5 178.5v467q0 144 -142 144q-68 0 -136 -52.5t-68 -91.5v-641q0 -49 -152 -49t-152 49v717q0 30 -9 56t-19.5 40.5t-19.5 30t-9 25.5q0 34 92.5 90.5t141.5 56.5q36 0 57.5 -22.5t48.5 -75.5l12 -25q61 48 156 85.5t193 37.5
q136 0 222.5 -76t86.5 -203v-505q0 -88 78 -88h43q28 0 28 -27q0 -25 -32 -68.5t-84 -80.5t-97 -37zM410 1182q-20 -13 -33 -13q-21 0 -65 54.5t-44 70.5q0 20 23 49q37 43 95 73t122 30q48 0 104.5 -22.5t103.5 -45t72 -22.5q38 0 95 63q15 15 24 15q21 0 69 -53.5
t48 -73.5q0 -40 -65.5 -94t-151.5 -54q-51 0 -107 22.5t-105 45t-83 22.5q-9 0 -18 -3.5t-20.5 -11.5t-19 -13.5t-22.5 -19t-22 -19.5z" />
    <glyph glyph-name="ograve" unicode="&#xf2;" horiz-adv-x="1247" 
d="M625 -18q-110 0 -206.5 34t-172 99.5t-119 171.5t-43.5 239t43.5 237.5t119 169.5t172 98.5t206.5 33.5t206 -33.5t171.5 -98.5t119 -169.5t43.5 -237.5q0 -107 -28.5 -197t-79 -153.5t-118.5 -107.5t-147.5 -65t-166.5 -21zM625 188q96 0 155.5 81.5t59.5 258.5
t-59.5 258.5t-155.5 81.5t-156.5 -81.5t-60.5 -258.5t60.5 -258.5t156.5 -81.5zM750 1153q-16 0 -50 21q-56 35 -148 98.5t-116 85.5q-24 21 -24 43q0 29 56.5 86t84.5 57q21 0 43 -22q143 -157 213 -240q25 -29 25 -45q0 -15 -33.5 -49.5t-50.5 -34.5z" />
    <glyph glyph-name="oacute" unicode="&#xf3;" horiz-adv-x="1247" 
d="M625 -18q-110 0 -206.5 34t-172 99.5t-119 171.5t-43.5 239t43.5 237.5t119 169.5t172 98.5t206.5 33.5t206 -33.5t171.5 -98.5t119 -169.5t43.5 -237.5q0 -107 -28.5 -197t-79 -153.5t-118.5 -107.5t-147.5 -65t-166.5 -21zM625 188q96 0 155.5 81.5t59.5 258.5
t-59.5 258.5t-155.5 81.5t-156.5 -81.5t-60.5 -258.5t60.5 -258.5t156.5 -81.5zM489 1135q-17 0 -50 36t-33 54t22 43q35 43 229 256q20 20 41 20q30 0 87 -56t57 -89q0 -25 -23 -45q-26 -24 -128.5 -96.5t-153.5 -104.5q-27 -18 -48 -18z" />
    <glyph glyph-name="ocircumflex" unicode="&#xf4;" horiz-adv-x="1247" 
d="M625 -18q-110 0 -206.5 34t-172 99.5t-119 171.5t-43.5 239t43.5 237.5t119 169.5t172 98.5t206.5 33.5t206 -33.5t171.5 -98.5t119 -169.5t43.5 -237.5q0 -107 -28.5 -197t-79 -153.5t-118.5 -107.5t-147.5 -65t-166.5 -21zM625 188q96 0 155.5 81.5t59.5 258.5
t-59.5 258.5t-155.5 81.5t-156.5 -81.5t-60.5 -258.5t60.5 -258.5t156.5 -81.5zM823 1124q-19 0 -47 21l-153 133q-146 -131 -152 -131q-25 -21 -47 -21q-20 0 -41 17l-76 74q-22 22 -22 45q0 13 24 41l219 190q24 20 41.5 25.5t53.5 5.5q39 0 56 -5.5t40 -25.5l217 -190
q25 -25 25 -43q0 -25 -21 -43l-74 -72q-17 -21 -43 -21z" />
    <glyph glyph-name="otilde" unicode="&#xf5;" horiz-adv-x="1247" 
d="M625 -18q-110 0 -206.5 34t-172 99.5t-119 171.5t-43.5 239t43.5 237.5t119 169.5t172 98.5t206.5 33.5t206 -33.5t171.5 -98.5t119 -169.5t43.5 -237.5q0 -107 -28.5 -197t-79 -153.5t-118.5 -107.5t-147.5 -65t-166.5 -21zM625 188q96 0 155.5 81.5t59.5 258.5
t-59.5 258.5t-155.5 81.5t-156.5 -81.5t-60.5 -258.5t60.5 -258.5t156.5 -81.5zM387 1182q-19 -13 -33 -13q-21 0 -64.5 54.5t-43.5 70.5q0 22 22 49q37 43 95 73t122 30q48 0 104.5 -22.5t104 -45t72.5 -22.5q37 0 94 63q15 15 25 15q21 0 68.5 -53.5t47.5 -73.5
q0 -40 -65.5 -94t-151.5 -54q-51 0 -107 22.5t-105 45t-83 22.5q-9 0 -18 -3.5t-20.5 -11.5t-19 -13.5t-22.5 -19t-22 -19.5z" />
    <glyph glyph-name="odieresis" unicode="&#xf6;" horiz-adv-x="1247" 
d="M625 -18q-110 0 -206.5 34t-172 99.5t-119 171.5t-43.5 239t43.5 237.5t119 169.5t172 98.5t206.5 33.5t206 -33.5t171.5 -98.5t119 -169.5t43.5 -237.5q0 -107 -28.5 -197t-79 -153.5t-118.5 -107.5t-147.5 -65t-166.5 -21zM625 188q96 0 155.5 81.5t59.5 258.5
t-59.5 258.5t-155.5 81.5t-156.5 -81.5t-60.5 -258.5t60.5 -258.5t156.5 -81.5zM430 1153q-78 0 -114.5 40t-36.5 122q0 162 151 162q77 0 116.5 -41.5t39.5 -120.5q0 -162 -156 -162zM811 1153q-78 0 -115 40t-37 122q0 162 152 162q77 0 116.5 -41.5t39.5 -120.5
q0 -162 -156 -162z" />
    <glyph glyph-name="divide" unicode="&#xf7;" horiz-adv-x="1075" 
d="M532 864q-69 0 -111 40.5t-42 103.5t42 103t111 40t110.5 -40t41.5 -103q0 -62 -42 -103t-110 -41zM938 567h-801q-25 0 -41 15.5t-16 40.5v96q0 26 15.5 41.5t41.5 15.5h801q55 0 55 -57v-96q0 -25 -14.5 -40.5t-40.5 -15.5zM530 193q-68 0 -110.5 40.5t-42.5 104.5
q0 62 42.5 101.5t110.5 39.5q70 0 112 -39.5t42 -101.5q0 -64 -42 -104.5t-112 -40.5z" />
    <glyph glyph-name="oslash" unicode="&#xf8;" horiz-adv-x="1216" 
d="M385 350l268 535q-28 4 -43 4q-106 0 -178 -90.5t-72 -268.5q0 -103 25 -180zM815 752l-287 -568q38 -14 82 -14q105 0 176.5 91t71.5 269q0 134 -43 222zM473 -6l-10 -25q-10 -24 -44 -35.5t-114 -11.5q-143 0 -143 49q0 16 8 29l57 119q-151 145 -151 407
q0 133 41.5 237.5t114.5 169.5t169 98.5t209 33.5q44 0 88 -6l7 10q13 24 45.5 35.5t111.5 11.5q80 0 105.5 -17t25.5 -55q0 -16 -16 -47l-21 -41q187 -143 187 -430q0 -134 -41.5 -239.5t-114.5 -171.5t-169 -100.5t-208 -34.5q-77 0 -137 14z" />
    <glyph glyph-name="ugrave" unicode="&#xf9;" horiz-adv-x="1236" 
d="M457 -20q-148 0 -251.5 91.5t-103.5 241.5v682q0 49 152 49t152 -49v-622q0 -74 43 -114t116 -40q71 0 128 43t57 90v643q0 49 151 49q152 0 152 -49v-714q0 -88 77 -88h44q28 0 28 -27q0 -43 -72 -114.5t-139 -71.5q-83 0 -172 100l-22 26q-154 -126 -340 -126z
M745 1153q-15 0 -49 21q-56 35 -148 98.5t-116 85.5q-24 21 -24 43q0 29 56.5 86t84.5 57q21 0 43 -22q143 -157 213 -240q24 -27 24 -45q0 -15 -33.5 -49.5t-50.5 -34.5z" />
    <glyph glyph-name="uacute" unicode="&#xfa;" horiz-adv-x="1236" 
d="M457 -20q-148 0 -251.5 91.5t-103.5 241.5v682q0 49 152 49t152 -49v-622q0 -74 43 -114t116 -40q71 0 128 43t57 90v643q0 49 151 49q152 0 152 -49v-714q0 -88 77 -88h44q28 0 28 -27q0 -43 -72 -114.5t-139 -71.5q-83 0 -172 100l-22 26q-154 -126 -340 -126z
M483 1135q-17 0 -50.5 36.5t-33.5 53.5t23 43q35 43 229 256q20 20 41 20q30 0 87 -56t57 -89q0 -25 -23 -45q-25 -24 -128 -96t-155 -105q-27 -18 -47 -18z" />
    <glyph glyph-name="ucircumflex" unicode="&#xfb;" horiz-adv-x="1236" 
d="M457 -20q-148 0 -251.5 91.5t-103.5 241.5v682q0 49 152 49t152 -49v-622q0 -74 43 -114t116 -40q71 0 128 43t57 90v643q0 49 151 49q152 0 152 -49v-714q0 -88 77 -88h44q28 0 28 -27q0 -43 -72 -114.5t-139 -71.5q-83 0 -172 100l-22 26q-154 -126 -340 -126z
M819 1124q-19 0 -47 21l-154 133q-146 -131 -151 -131q-25 -21 -47 -21q-20 0 -41 17l-76 74q-22 22 -22 45q0 13 24 41l219 190q24 20 41 25.5t53 5.5q39 0 56.5 -5.5t40.5 -25.5l217 -190q24 -24 24 -43q0 -26 -20 -43l-74 -72q-18 -21 -43 -21z" />
    <glyph glyph-name="udieresis" unicode="&#xfc;" horiz-adv-x="1236" 
d="M457 -20q-148 0 -251.5 91.5t-103.5 241.5v682q0 49 152 49t152 -49v-622q0 -74 43 -114t116 -40q71 0 128 43t57 90v643q0 49 151 49q152 0 152 -49v-714q0 -88 77 -88h44q28 0 28 -27q0 -43 -72 -114.5t-139 -71.5q-83 0 -172 100l-22 26q-154 -126 -340 -126z
M426 1153q-78 0 -115 40t-37 122q0 162 152 162q77 0 116.5 -41.5t39.5 -120.5q0 -162 -156 -162zM807 1153q-78 0 -115 40t-37 122q0 162 152 162q77 0 116.5 -41.5t39.5 -120.5q0 -162 -156 -162z" />
    <glyph glyph-name="yacute" unicode="&#xfd;" horiz-adv-x="1183" 
d="M592 -496q-119 0 -224 36t-120 73q-39 88 -39 168q0 31 31 31q10 0 51.5 -18.5t107 -37t133.5 -18.5q107 0 166.5 53.5t59.5 161.5v129q-137 -102 -295 -102q-146 0 -242 88t-96 239v688q0 15 11 25t46 17t94 7q152 0 152 -49v-622q0 -74 37 -114t108 -40q70 0 127.5 43
t57.5 90v643q0 15 11 25t46 17t94 7q152 0 152 -49v-1054q0 -87 -31.5 -165t-89.5 -139t-148.5 -97t-199.5 -36zM500 1137q-17 0 -50.5 36.5t-33.5 53.5q0 18 22 43q26 33 230 256q20 20 41 20q30 0 86.5 -56t56.5 -89q0 -25 -23 -45q-26 -24 -128.5 -96.5t-153.5 -104.5
q-27 -18 -47 -18z" />
    <glyph glyph-name="thorn" unicode="&#xfe;" horiz-adv-x="1101" 
d="M360 -377h-163q-26 0 -42 14t-16 39v1670q0 25 16 40t42 15h163q28 0 44 -15t16 -40v-392q76 31 164 31q103 0 187 -40.5t137 -109t81.5 -155t28.5 -182.5q0 -105 -27.5 -197t-80.5 -163.5t-137 -112.5t-189 -41q-96 0 -164 20v-328q0 -22 -15 -37.5t-45 -15.5zM422 682
v-414q25 -32 55 -42.5t84 -10.5q88 0 135 85.5t47 197.5q0 47 -10 91t-29 82t-52.5 60.5t-76.5 22.5q-61 0 -96.5 -17.5t-56.5 -54.5z" />
    <glyph glyph-name="ydieresis" unicode="&#xff;" horiz-adv-x="1183" 
d="M592 -496q-119 0 -224 36t-120 73q-39 88 -39 168q0 31 31 31q10 0 51.5 -18.5t107 -37t133.5 -18.5q107 0 166.5 53.5t59.5 161.5v129q-137 -102 -295 -102q-146 0 -242 88t-96 239v688q0 15 11 25t46 17t94 7q152 0 152 -49v-622q0 -74 37 -114t108 -40q70 0 127.5 43
t57.5 90v643q0 15 11 25t46 17t94 7q152 0 152 -49v-1054q0 -87 -31.5 -165t-89.5 -139t-148.5 -97t-199.5 -36zM399 1153q-78 0 -114.5 40t-36.5 122q0 162 151 162q77 0 116.5 -41.5t39.5 -120.5q0 -162 -156 -162zM780 1153q-78 0 -114.5 40t-36.5 122q0 162 151 162
q77 0 116.5 -41.5t39.5 -120.5q0 -162 -156 -162z" />
    <glyph glyph-name="Amacron" unicode="&#x100;" horiz-adv-x="1396" 
d="M553 467h291q28 0 28 27l-149 436q-9 28 -25 28q-15 0 -24 -28l-150 -436q0 -27 29 -27zM930 231h-463q-27 0 -37 -26l-61 -164q-9 -23 -45.5 -32t-122.5 -9q-90 0 -124 7.5t-34 25.5q0 9 14 53l463 1227q13 38 51 51.5t127 13.5t127.5 -13.5t51.5 -51.5l464 -1227
q15 -47 15 -53q0 -18 -35 -25.5t-125 -7.5q-86 0 -122.5 9t-45.5 32l-61 164q-10 26 -37 26zM352 1755h692q43 0 43 -110q0 -109 -43 -109h-692q-43 0 -43 109q0 110 43 110z" />
    <glyph glyph-name="amacron" unicode="&#x101;" horiz-adv-x="1175" 
d="M365 319q0 -64 44 -98.5t117 -34.5q63 0 108.5 31.5t45.5 63.5v219q0 22 -23 22q-45 0 -112 -30q-37 -13 -65 -27.5t-56 -35t-43.5 -48.5t-15.5 -62zM922 -20q-34 0 -66.5 10.5t-55 26t-40.5 31t-26 26.5l-9 10q-149 -104 -313 -104q-152 0 -247 80t-95 221
q0 88 28.5 151t90.5 108t140.5 74.5t198.5 57.5q80 19 114 34t34 37q0 46 -42.5 73.5t-125.5 27.5q-70 0 -142.5 -23.5t-120 -47t-57.5 -23.5q-26 0 -26 30q0 69 43 170q17 38 119.5 76.5t226.5 38.5q230 0 331 -101t101 -311v-372q0 -88 80 -88h41q29 0 29 -27
q0 -43 -72 -114.5t-139 -71.5zM233 1393h693q43 0 43 -111q0 -108 -43 -108h-693q-43 0 -43 108q0 111 43 111z" />
    <glyph glyph-name="Abreve" unicode="&#x102;" horiz-adv-x="1396" 
d="M553 467h291q28 0 28 27l-149 436q-9 28 -25 28q-15 0 -24 -28l-150 -436q0 -27 29 -27zM930 231h-463q-27 0 -37 -26l-61 -164q-9 -23 -45.5 -32t-122.5 -9q-90 0 -124 7.5t-34 25.5q0 9 14 53l463 1227q13 38 51 51.5t127 13.5t127.5 -13.5t51.5 -51.5l464 -1227
q15 -47 15 -53q0 -18 -35 -25.5t-125 -7.5q-86 0 -122.5 9t-45.5 32l-61 164q-10 26 -37 26zM698 1473q-61 0 -120 30.5t-97.5 74t-62 87t-23.5 72.5q0 33 45.5 60.5t83.5 27.5q18 0 29.5 -12t28.5 -41q43 -71 67 -93q25 -22 51 -22q22 0 46 22.5t36 41t31 51.5
q19 30 31 41.5t28 11.5q37 0 83 -27.5t46 -60.5q0 -26 -23.5 -69t-61.5 -87.5t-97 -76t-121 -31.5z" />
    <glyph glyph-name="abreve" unicode="&#x103;" horiz-adv-x="1175" 
d="M365 319q0 -64 44 -98.5t117 -34.5q63 0 108.5 31.5t45.5 63.5v219q0 22 -23 22q-45 0 -112 -30q-37 -13 -65 -27.5t-56 -35t-43.5 -48.5t-15.5 -62zM922 -20q-34 0 -66.5 10.5t-55 26t-40.5 31t-26 26.5l-9 10q-149 -104 -313 -104q-152 0 -247 80t-95 221
q0 88 28.5 151t90.5 108t140.5 74.5t198.5 57.5q80 19 114 34t34 37q0 46 -42.5 73.5t-125.5 27.5q-70 0 -142.5 -23.5t-120 -47t-57.5 -23.5q-26 0 -26 30q0 69 43 170q17 38 119.5 76.5t226.5 38.5q230 0 331 -101t101 -311v-372q0 -88 80 -88h41q29 0 29 -27
q0 -43 -72 -114.5t-139 -71.5zM588 1145q-61 0 -120 30.5t-97.5 74t-62 87t-23.5 72.5q0 33 45.5 60.5t83.5 27.5q17 0 28.5 -11.5t28.5 -41.5q44 -74 71 -96q24 -19 48 -19q22 0 46 23t35 40.5t31 51.5q18 30 31 41.5t29 11.5q37 0 83 -27.5t46 -60.5q0 -26 -23.5 -69
t-61.5 -87.5t-97 -76t-121 -31.5z" />
    <glyph glyph-name="Aogonek" unicode="&#x104;" horiz-adv-x="1396" 
d="M1274 -391q-101 0 -168.5 53.5t-67.5 153.5q0 101 95 184q-94 6 -105 41l-61 164q-10 26 -37 26h-463q-27 0 -37 -26l-61 -164q-9 -23 -45.5 -32t-122.5 -9q-90 0 -124 7.5t-34 25.5q0 9 14 53l463 1227q13 38 51 51.5t127 13.5t127.5 -13.5t51.5 -51.5l464 -1227
q15 -47 15 -53q0 -12 -8 -17l-27 -24q-86 -92 -86 -160q0 -51 43 -51q17 0 37 11t35 11q29 0 53 -38.5t24 -73.5t-47 -58.5t-106 -23.5zM553 467h291q28 0 28 27l-149 436q-9 28 -25 28q-15 0 -24 -28l-150 -436q0 -27 29 -27z" />
    <glyph glyph-name="aogonek" unicode="&#x105;" horiz-adv-x="1175" 
d="M893 -420q-101 0 -168.5 53.5t-67.5 153.5q0 50 25.5 97.5t52 73t66.5 56.5q-22 14 -41 31.5t-27 28.5l-8 10q-149 -104 -313 -104q-152 0 -247 80t-95 221q0 88 28.5 151t90.5 108t140.5 74.5t198.5 57.5q80 19 114 34t34 37q0 46 -42.5 73.5t-125.5 27.5
q-70 0 -142.5 -23.5t-120 -47t-57.5 -23.5q-26 0 -26 30q0 69 43 170q17 38 119.5 76.5t226.5 38.5q230 0 331 -101t101 -311v-372q0 -88 80 -88h41q29 0 29 -27q0 -35 -53.5 -95.5t-114.5 -82.5l-25 -25q-86 -92 -86 -160q0 -51 43 -51q17 0 37 11.5t35 11.5q29 0 53.5 -39
t24.5 -74t-47.5 -58.5t-106.5 -23.5zM365 319q0 -64 44 -98.5t117 -34.5q63 0 108.5 31.5t45.5 63.5v219q0 22 -23 22q-45 0 -112 -30q-37 -13 -65 -27.5t-56 -35t-43.5 -48.5t-15.5 -62z" />
    <glyph glyph-name="Cacute" unicode="&#x106;" horiz-adv-x="1382" 
d="M813 -20q-114 0 -218.5 25t-198 79.5t-162.5 133.5t-109.5 194.5t-40.5 255.5q0 139 39.5 257.5t108 203.5t160.5 145t198 89.5t219 29.5q84 0 157 -14.5t120 -35.5t81 -46t49 -46t15 -34q0 -32 -44 -96t-69 -64q-14 0 -47.5 16.5t-98 33.5t-155.5 17q-84 0 -155.5 -26.5
t-128 -79.5t-89 -142t-32.5 -206q0 -115 35 -199.5t98 -133t140.5 -71t172.5 -22.5q85 0 161.5 19.5t119.5 43t78 43t47 19.5q30 0 30 -33q0 -89 -43 -189q-11 -29 -69 -66.5t-160.5 -69t-208.5 -31.5zM682 1481q-17 0 -50.5 36.5t-33.5 53.5t23 43q35 43 229 256
q20 20 41 20q30 0 86.5 -56t56.5 -89q0 -26 -22 -45q-25 -24 -128 -96t-155 -105q-27 -18 -47 -18z" />
    <glyph glyph-name="cacute" unicode="&#x107;" horiz-adv-x="1067" 
d="M641 -20q-113 0 -211 30.5t-176.5 91t-124 162.5t-45.5 234q0 139 45.5 249.5t124 178.5t180 103.5t217.5 35.5q73 0 134.5 -12t98 -29.5t57 -37t20.5 -36.5q0 -37 -50 -106.5t-80 -69.5q-10 0 -36 16.5t-69 33t-93 16.5q-40 0 -76.5 -16t-70 -50.5t-54 -99.5t-20.5 -152
q0 -157 77.5 -235t206.5 -78q56 0 107.5 13.5t81.5 29.5t56 29.5t36 13.5t18.5 -7.5t8.5 -21.5q0 -81 -43 -168q-20 -39 -113.5 -78.5t-206.5 -39.5zM524 1126q-17 0 -50.5 36.5t-33.5 54.5q0 17 23 43q35 43 229 256q20 20 41 20q30 0 87 -56t57 -89q0 -25 -23 -45
q-25 -24 -128 -96t-155 -105q-29 -19 -47 -19z" />
    <glyph glyph-name="Ccaron" unicode="&#x10c;" horiz-adv-x="1382" 
d="M813 -20q-114 0 -218.5 25t-198 79.5t-162.5 133.5t-109.5 194.5t-40.5 255.5q0 139 39.5 257.5t108 203.5t160.5 145t198 89.5t219 29.5q84 0 157 -14.5t120 -35.5t81 -46t49 -46t15 -34q0 -32 -44 -96t-69 -64q-14 0 -47.5 16.5t-98 33.5t-155.5 17q-84 0 -155.5 -26.5
t-128 -79.5t-89 -142t-32.5 -206q0 -115 35 -199.5t98 -133t140.5 -71t172.5 -22.5q85 0 161.5 19.5t119.5 43t78 43t47 19.5q30 0 30 -33q0 -89 -43 -189q-11 -29 -69 -66.5t-160.5 -69t-208.5 -31.5zM813 1475q-20 0 -38 6.5t-29 15t-27 23.5l-201 200q-24 27 -24 43
q0 20 18 35l72 66q20 16 41 16q29 0 45 -16l141 -144l147 144q20 16 46 16q21 0 43 -18l69 -62q17 -17 17 -37q0 -16 -23 -43l-201 -200q-19 -17 -28.5 -24t-28 -14t-39.5 -7z" />
    <glyph glyph-name="ccaron" unicode="&#x10d;" horiz-adv-x="1067" 
d="M641 -20q-113 0 -211 30.5t-176.5 91t-124 162.5t-45.5 234q0 139 45.5 249.5t124 178.5t180 103.5t217.5 35.5q73 0 134.5 -12t98 -29.5t57 -37t20.5 -36.5q0 -37 -50 -106.5t-80 -69.5q-10 0 -36 16.5t-69 33t-93 16.5q-40 0 -76.5 -16t-70 -50.5t-54 -99.5t-20.5 -152
q0 -157 77.5 -235t206.5 -78q56 0 107.5 13.5t81.5 29.5t56 29.5t36 13.5t18.5 -7.5t8.5 -21.5q0 -81 -43 -168q-20 -39 -113.5 -78.5t-206.5 -39.5zM662 1145q-29 0 -50 11t-45 34l-200 201q-25 29 -25 43q0 19 18 34l72 66q20 16 41 16q29 0 45 -16l141 -143l148 143
q20 16 45 16q21 0 43 -18l70 -62q16 -16 16 -36q0 -16 -23 -43l-200 -201q-19 -17 -28.5 -24t-28 -14t-39.5 -7z" />
    <glyph glyph-name="Dcaron" unicode="&#x10e;" horiz-adv-x="1443" 
d="M1360 717q0 -154 -40.5 -278t-111 -208.5t-168.5 -141t-208.5 -82t-235.5 -25.5q-178 0 -307 33t-129 79v1186q0 46 129 79.5t307 33.5q764 0 764 -676zM1051 715q0 74 -9.5 135.5t-29 105.5t-43 78t-57 56t-66 36.5t-74 22t-77 10t-79.5 2.5q-153 0 -153 -69v-799
q0 -76 151 -76q67 0 125.5 13t117 48t100.5 89t68 143.5t26 204.5zM688 1464q-20 0 -38 6.5t-29 15t-27 23.5l-201 201q-24 27 -24 43q0 20 18 35l72 65q21 17 41 17q28 0 45 -17l141 -143l148 143q21 17 45 17q20 0 43 -19l69 -61q17 -17 17 -37q0 -16 -23 -43l-201 -201
q-19 -17 -28.5 -24t-28 -14t-39.5 -7z" />
    <glyph glyph-name="dcaron" unicode="&#x10f;" horiz-adv-x="1269" 
d="M772 301v477q0 31 -31 54.5t-79 23.5q-47 0 -89 -18.5t-80 -59.5t-60.5 -116.5t-22.5 -178.5q0 -79 18.5 -139t50 -93t67 -49t75.5 -16q61 0 106 37t45 78zM528 -20q-67 0 -130 17.5t-120.5 55.5t-100.5 93t-68 136t-25 179t19 181.5t51 144.5t75 109.5t90 79.5
t98.5 51.5t97.5 29t89 8.5t85.5 -9.5t63.5 -18.5l21 -9v397q0 50 152 50q151 0 151 -50v-1144q0 -88 78 -88h41q31 0 31 -27q0 -42 -73.5 -114t-139.5 -72q-34 0 -67.5 10.5t-56 26t-40.5 31t-26 26.5l-9 10q-4 -4 -12.5 -11t-37 -25t-59.5 -32t-79.5 -25t-98.5 -11z
M1202 831q-23 0 -37 10.5t-14 30.5t34 70.5t34 93.5q0 18 -10 33t-22 26.5t-22 43.5t-10 80q0 153 172 153q166 0 166 -162q0 -75 -31.5 -147.5t-77.5 -121.5t-95.5 -79.5t-86.5 -30.5z" />
    <glyph glyph-name="Emacron" unicode="&#x112;" horiz-adv-x="1191" 
d="M217 0q-57 0 -57 57v1258q0 57 57 57h729q66 0 91.5 -68.5t25.5 -207.5q0 -14 -8 -22.5t-19 -8.5q-6 0 -42.5 12.5t-127 25.5t-227.5 13h-152q-30 0 -30 -31v-239q0 -31 30 -31h371q47 0 47 -131q0 -133 -47 -133h-371q-30 0 -30 -31v-233q0 -31 30 -31h205q137 0 227 13
t126 25.5t42 12.5q13 0 21 -8.5t8 -22.5q0 -139 -25.5 -207.5t-91.5 -68.5h-782zM250 1696h692q43 0 43 -111q0 -108 -43 -108h-692q-43 0 -43 108q0 111 43 111z" />
    <glyph glyph-name="emacron" unicode="&#x113;" horiz-adv-x="1087" 
d="M647 -20q-123 0 -225 32t-178 95t-118 162t-42 227q0 117 29.5 213.5t80 161.5t118.5 109.5t142.5 64.5t155.5 20q202 0 309 -84t107 -217q0 -97 -58.5 -174.5t-151 -122t-192.5 -68.5t-198 -26q59 -164 276 -164q54 0 105 14.5t81.5 31.5t56.5 31.5t36 14.5
q12 0 20.5 -7.5t8.5 -21.5q0 -27 -10.5 -76t-28.5 -92q-14 -39 -108.5 -81.5t-215.5 -42.5zM268 1389h693q43 0 43 -111q0 -109 -43 -109h-693q-43 0 -43 109q0 111 43 111zM621 881q-85 0 -146 -86.5t-67 -266.5q132 13 222.5 80t90.5 174q0 42 -29 70.5t-71 28.5z" />
    <glyph glyph-name="Ebreve" unicode="&#x114;" horiz-adv-x="1191" 
d="M217 0q-57 0 -57 57v1258q0 57 57 57h729q66 0 91.5 -68.5t25.5 -207.5q0 -14 -8 -22.5t-19 -8.5q-6 0 -42.5 12.5t-127 25.5t-227.5 13h-152q-30 0 -30 -31v-239q0 -31 30 -31h371q47 0 47 -131q0 -133 -47 -133h-371q-30 0 -30 -31v-233q0 -31 30 -31h205q137 0 227 13
t126 25.5t42 12.5q13 0 21 -8.5t8 -22.5q0 -139 -25.5 -207.5t-91.5 -68.5h-782zM596 1473q-61 0 -120 30.5t-97.5 74t-62 87t-23.5 72.5q0 33 45.5 60.5t83.5 27.5q17 0 28.5 -11.5t28.5 -41.5q44 -74 71 -96q24 -19 48 -19q22 0 46 22.5t36 41t31 51.5q19 30 31 41.5
t28 11.5q37 0 83 -27.5t46 -60.5q0 -26 -23.5 -69t-61.5 -87.5t-97 -76t-121 -31.5z" />
    <glyph glyph-name="ebreve" unicode="&#x115;" horiz-adv-x="1087" 
d="M647 -20q-123 0 -225 32t-178 95t-118 162t-42 227q0 117 29.5 213.5t80 161.5t118.5 109.5t142.5 64.5t155.5 20q202 0 309 -84t107 -217q0 -97 -58.5 -174.5t-151 -122t-192.5 -68.5t-198 -26q59 -164 276 -164q54 0 105 14.5t81.5 31.5t56.5 31.5t36 14.5
q12 0 20.5 -7.5t8.5 -21.5q0 -27 -10.5 -76t-28.5 -92q-14 -39 -108.5 -81.5t-215.5 -42.5zM608 1159q-61 0 -120 30.5t-97.5 74t-62 87t-23.5 72.5q0 33 45.5 60.5t83.5 27.5q18 0 29.5 -12t28.5 -41q43 -71 67 -93q25 -22 51 -22q22 0 46 22.5t36 41t31 51.5
q19 30 31 41.5t28 11.5q37 0 83 -27.5t46 -60.5q0 -26 -23.5 -69t-61.5 -87.5t-97 -76t-121 -31.5zM621 881q-85 0 -146 -86.5t-67 -266.5q132 13 222.5 80t90.5 174q0 42 -29 70.5t-71 28.5z" />
    <glyph glyph-name="Eogonek" unicode="&#x118;" horiz-adv-x="1191" 
d="M217 0q-57 0 -57 57v1258q0 57 57 57h729q66 0 91.5 -68.5t25.5 -207.5q0 -14 -8 -22.5t-19 -8.5q-6 0 -42.5 12.5t-127 25.5t-227.5 13h-152q-30 0 -30 -31v-239q0 -31 30 -31h371q47 0 47 -131q0 -133 -47 -133h-371q-30 0 -30 -31v-233q0 -31 30 -31h205q137 0 227 13
t126 25.5t42 12.5q13 0 21 -8.5t8 -22.5q0 -139 -25.5 -207.5t-91.5 -68.5h-284q-1 -3 -31 -33q-86 -92 -86 -160q0 -51 43 -51q17 0 37 11.5t35 11.5q29 0 53.5 -39t24.5 -74t-47.5 -58.5t-106.5 -23.5q-101 0 -168.5 53.5t-67.5 153.5q0 113 121 209h-305z" />
    <glyph glyph-name="eogonek" unicode="&#x119;" horiz-adv-x="1087" 
d="M584 -422q-101 0 -168.5 53.5t-67.5 153.5q0 113 125 213q-180 40 -284.5 166.5t-104.5 331.5q0 117 29.5 213.5t80 161.5t118.5 109.5t142.5 64.5t155.5 20q202 0 309 -84t107 -217q0 -97 -58.5 -174.5t-151 -122t-192.5 -68.5t-198 -26q59 -164 276 -164q54 0 105 14.5
t81.5 31.5t56.5 31.5t36 14.5q12 0 20.5 -7.5t8.5 -21.5q0 -27 -10.5 -76t-28.5 -92q-14 -38 -108 -80.5t-214 -43.5l-18 -19q-86 -92 -86 -160q0 -51 43 -51q17 0 36.5 11.5t34.5 11.5q29 0 53.5 -39t24.5 -74t-47 -58.5t-106 -23.5zM621 881q-85 0 -146 -86.5t-67 -266.5
q132 13 222.5 80t90.5 174q0 42 -29 70.5t-71 28.5z" />
    <glyph glyph-name="Imacron" unicode="&#x12a;" horiz-adv-x="622" 
d="M311 0q-151 0 -151 47v1278q0 47 151 47q152 0 152 -47v-1278q0 -47 -152 -47zM-35 1716h692q43 0 43 -110q0 -109 -43 -109h-692q-43 0 -43 109q0 110 43 110z" />
    <glyph glyph-name="imacron" unicode="&#x12b;" horiz-adv-x="620" 
d="M418 995v-714q0 -88 78 -88h43q28 0 28 -27q0 -25 -31.5 -68.5t-83 -80.5t-96.5 -37q-114 0 -177.5 64.5t-63.5 178.5v772q0 49 151 49q152 0 152 -49zM-61 1376h692q43 0 43 -110q0 -109 -43 -109h-692q-43 0 -43 109q0 110 43 110z" />
    <glyph glyph-name="Ibreve" unicode="&#x12c;" horiz-adv-x="622" 
d="M311 0q-151 0 -151 47v1278q0 47 151 47q152 0 152 -47v-1278q0 -47 -152 -47zM311 1473q-61 0 -120 30.5t-97.5 74t-62 87t-23.5 72.5q0 33 45.5 60.5t83.5 27.5q17 0 29 -12t29 -41q43 -71 67 -93q25 -22 51 -22q22 0 46 22.5t36 41t31 51.5q19 30 31 41.5t28 11.5
q37 0 83 -27.5t46 -60.5q0 -26 -23.5 -69t-61.5 -87.5t-97 -76t-121 -31.5z" />
    <glyph glyph-name="ibreve" unicode="&#x12d;" horiz-adv-x="620" 
d="M418 995v-714q0 -88 78 -88h43q28 0 28 -27q0 -25 -31.5 -68.5t-83 -80.5t-96.5 -37q-114 0 -177.5 64.5t-63.5 178.5v772q0 49 151 49q152 0 152 -49zM270 1137q-61 0 -120 30.5t-97.5 74t-62 87t-23.5 72.5q0 33 45.5 60.5t83.5 27.5q18 0 29.5 -12t28.5 -41
q43 -71 67 -93q25 -22 51 -22q22 0 46 22.5t36 41t31 51.5q19 30 31 41.5t28 11.5q37 0 83 -27.5t46 -60.5q0 -26 -23.5 -69t-61.5 -87.5t-97 -76t-121 -31.5z" />
    <glyph glyph-name="dotlessi" unicode="&#x131;" horiz-adv-x="620" 
d="M418 995v-714q0 -88 78 -88h43q28 0 28 -27q0 -25 -31.5 -68.5t-83 -80.5t-96.5 -37q-114 0 -177.5 64.5t-63.5 178.5v772q0 49 151 49q152 0 152 -49z" />
    <glyph glyph-name="Lacute" unicode="&#x139;" horiz-adv-x="1114" 
d="M199 0q-39 0 -39 41v1284q0 47 151 47q152 0 152 -47v-1032q0 -31 31 -31h153q137 0 227.5 13t127 25.5t42.5 12.5q27 0 27 -30q0 -140 -26 -211.5t-91 -71.5h-755zM205 1460q-17 0 -50.5 36.5t-33.5 53.5q0 18 22 43q26 33 230 256q21 21 41 21q30 0 86.5 -56.5
t56.5 -89.5q0 -26 -22 -45q-25 -24 -127.5 -95.5t-155.5 -104.5q-28 -19 -47 -19z" />
    <glyph glyph-name="lacute" unicode="&#x13a;" horiz-adv-x="618" 
d="M365 -20q-114 0 -177 64.5t-63 178.5v1202q0 50 151 50q152 0 152 -50v-1144q0 -88 78 -88h43q29 0 29 -27q0 -25 -31.5 -68.5t-83.5 -80.5t-98 -37zM150 1567q-17 0 -50.5 36.5t-33.5 53.5q0 18 22 43q35 43 229 256q20 20 41 20q30 0 87 -56t57 -89q0 -25 -23 -45
q-26 -24 -128.5 -96.5t-153.5 -104.5q-27 -18 -47 -18z" />
    <glyph glyph-name="Lcaron" unicode="&#x13d;" horiz-adv-x="1114" 
d="M199 0q-39 0 -39 41v1284q0 47 151 47q152 0 152 -47v-1032q0 -31 31 -31h153q137 0 227.5 13t127 25.5t42.5 12.5q27 0 27 -30q0 -140 -26 -211.5t-91 -71.5h-755zM662 831q-23 0 -37.5 10.5t-14.5 30.5t34 70.5t34 93.5q0 18 -10 33t-22 26.5t-22 43.5t-10 80
q0 153 172 153q166 0 166 -162q0 -75 -31.5 -147.5t-77 -121.5t-95 -79.5t-86.5 -30.5z" />
    <glyph glyph-name="lcaron" unicode="&#x13e;" horiz-adv-x="618" 
d="M365 -20q-114 0 -177 64.5t-63 178.5v1202q0 50 151 50q152 0 152 -50v-1144q0 -88 78 -88h43q29 0 29 -27q0 -25 -31.5 -68.5t-83.5 -80.5t-98 -37zM559 831q-23 0 -37 10.5t-14 30.5t33.5 70.5t33.5 93.5q0 18 -10 33t-21.5 26.5t-21.5 43.5t-10 80q0 153 172 153
q166 0 166 -162q0 -75 -31.5 -147.5t-77.5 -121.5t-95.5 -79.5t-86.5 -30.5z" />
    <glyph glyph-name="Lslash" unicode="&#x141;" horiz-adv-x="1114" 
d="M-27 616l187 86v623q0 47 151 47q152 0 152 -47v-481l119 55q11 4 23 -1.5t30.5 -30.5t38.5 -70q54 -116 16 -135l-227 -107v-262q0 -31 31 -31h153q137 0 227.5 13t127 25.5t42.5 12.5q27 0 27 -30q0 -140 -26 -211.5t-91 -71.5h-755q-39 0 -39 41v373l-78 -35
q-11 -5 -23 0.5t-30.5 30t-38.5 69.5q-56 117 -17 137z" />
    <glyph glyph-name="lslash" unicode="&#x142;" horiz-adv-x="618" 
d="M-74 698l199 93v634q0 50 151 50q152 0 152 -50v-493l107 49q11 4 23 -1.5t30.5 -30.5t38.5 -70q55 -117 16 -136l-215 -100v-362q0 -88 78 -88h43q29 0 29 -27q0 -25 -31.5 -68.5t-83.5 -80.5t-98 -37q-114 0 -177 64.5t-63 178.5v279l-90 -41q-11 -5 -23 0.5t-30.5 30
t-38.5 69.5q-56 117 -17 137z" />
    <glyph glyph-name="Nacute" unicode="&#x143;" horiz-adv-x="1468" 
d="M303 0q-60 0 -93 6.5t-41.5 15.5t-8.5 23v1286q0 41 106 41q72 0 99 -5t38 -19l623 -832v813q0 14 8.5 23t40.5 15.5t90 6.5q60 0 93.5 -6.5t42 -15.5t8.5 -23v-1288q0 -41 -107 -41q-118 0 -137 25l-623 809v-789q0 -14 -8.5 -23t-40.5 -15.5t-90 -6.5zM600 1462
q-17 0 -50.5 36.5t-33.5 53.5t23 43q35 43 229 256q21 21 41 21q30 0 86.5 -56.5t56.5 -89.5q0 -26 -22 -45q-25 -24 -127.5 -95.5t-155.5 -104.5q-29 -19 -47 -19z" />
    <glyph glyph-name="nacute" unicode="&#x144;" horiz-adv-x="1292" 
d="M1036 -20q-114 0 -176.5 64.5t-62.5 178.5v467q0 144 -142 144q-68 0 -136 -52.5t-68 -91.5v-641q0 -49 -152 -49t-152 49v717q0 30 -9 56t-19.5 40.5t-19.5 30t-9 25.5q0 34 92.5 90.5t141.5 56.5q36 0 57.5 -22.5t48.5 -75.5l12 -25q61 48 156 85.5t193 37.5
q136 0 222.5 -76t86.5 -203v-505q0 -88 78 -88h43q28 0 28 -27q0 -25 -32 -68.5t-84 -80.5t-97 -37zM551 1133q-17 0 -50.5 36.5t-33.5 53.5q0 18 22 43q26 33 230 256q20 20 41 20q30 0 86.5 -56t56.5 -89q0 -26 -22 -45q-25 -24 -128 -96t-155 -105q-27 -18 -47 -18z" />
    <glyph glyph-name="Ncaron" unicode="&#x147;" horiz-adv-x="1468" 
d="M303 0q-60 0 -93 6.5t-41.5 15.5t-8.5 23v1286q0 41 106 41q72 0 99 -5t38 -19l623 -832v813q0 14 8.5 23t40.5 15.5t90 6.5q60 0 93.5 -6.5t42 -15.5t8.5 -23v-1288q0 -41 -107 -41q-118 0 -137 25l-623 809v-789q0 -14 -8.5 -23t-40.5 -15.5t-90 -6.5zM733 1454
q-20 0 -38 6.5t-29 15t-27 23.5l-201 201q-24 27 -24 43q0 20 18 35l72 65q21 17 41 17q28 0 45 -17l141 -143l148 143q21 17 45 17q20 0 43 -19l69 -61q17 -17 17 -37q0 -16 -23 -43l-201 -201q-19 -17 -28.5 -24t-28 -14t-39.5 -7z" />
    <glyph glyph-name="ncaron" unicode="&#x148;" horiz-adv-x="1292" 
d="M1036 -20q-114 0 -176.5 64.5t-62.5 178.5v467q0 144 -142 144q-68 0 -136 -52.5t-68 -91.5v-641q0 -49 -152 -49t-152 49v717q0 30 -9 56t-19.5 40.5t-19.5 30t-9 25.5q0 34 92.5 90.5t141.5 56.5q36 0 57.5 -22.5t48.5 -75.5l12 -25q61 48 156 85.5t193 37.5
q136 0 222.5 -76t86.5 -203v-505q0 -88 78 -88h43q28 0 28 -27q0 -25 -32 -68.5t-84 -80.5t-97 -37zM764 1149q-20 0 -38 6.5t-29 15t-27 23.5l-201 201q-25 29 -25 43q0 19 19 35l72 65q20 16 40 16q30 0 46 -16l141 -143l147 143q20 16 45 16q21 0 43 -18l70 -61
q16 -16 16 -37q0 -17 -22 -43l-201 -201q-19 -17 -28.5 -24t-28 -14t-39.5 -7z" />
    <glyph glyph-name="Omacron" unicode="&#x14c;" horiz-adv-x="1488" 
d="M743 -20q-310 0 -487.5 181t-177.5 529q0 139 34.5 255t95.5 198t144.5 139t182 84t208.5 27t208.5 -27t183 -84t145.5 -139t96 -198t35 -255q0 -174 -50 -310.5t-140 -223t-211 -131.5t-267 -45zM743 227q74 0 134.5 24.5t109 76.5t76 143.5t27.5 214.5q0 99 -19 177.5
t-50.5 130t-76.5 85t-94.5 48t-106.5 14.5q-72 0 -132 -24t-109.5 -75t-77 -142t-27.5 -214q0 -459 346 -459zM397 1706h693q43 0 43 -111q0 -108 -43 -108h-693q-43 0 -43 108q0 111 43 111z" />
    <glyph glyph-name="omacron" unicode="&#x14d;" horiz-adv-x="1247" 
d="M625 -18q-110 0 -206.5 34t-172 99.5t-119 171.5t-43.5 239t43.5 237.5t119 169.5t172 98.5t206.5 33.5t206 -33.5t171.5 -98.5t119 -169.5t43.5 -237.5q0 -107 -28.5 -197t-79 -153.5t-118.5 -107.5t-147.5 -65t-166.5 -21zM625 188q96 0 155.5 81.5t59.5 258.5
t-59.5 258.5t-155.5 81.5t-156.5 -81.5t-60.5 -258.5t60.5 -258.5t156.5 -81.5zM276 1401h693q43 0 43 -111q0 -108 -43 -108h-693q-43 0 -43 108q0 111 43 111z" />
    <glyph glyph-name="Obreve" unicode="&#x14e;" horiz-adv-x="1488" 
d="M743 -20q-310 0 -487.5 181t-177.5 529q0 139 34.5 255t95.5 198t144.5 139t182 84t208.5 27t208.5 -27t183 -84t145.5 -139t96 -198t35 -255q0 -174 -50 -310.5t-140 -223t-211 -131.5t-267 -45zM743 227q74 0 134.5 24.5t109 76.5t76 143.5t27.5 214.5q0 99 -19 177.5
t-50.5 130t-76.5 85t-94.5 48t-106.5 14.5q-72 0 -132 -24t-109.5 -75t-77 -142t-27.5 -214q0 -459 346 -459zM743 1473q-61 0 -120 30.5t-97.5 74t-62 87t-23.5 72.5q0 33 45.5 60.5t83.5 27.5q17 0 29 -12t29 -41q43 -71 67 -93q25 -22 51 -22q22 0 46 22.5t36 41t31 51.5
q18 30 31 41.5t29 11.5q37 0 83 -27.5t46 -60.5q0 -26 -23.5 -69.5t-62 -87.5t-97.5 -75.5t-121 -31.5z" />
    <glyph glyph-name="obreve" unicode="&#x14f;" horiz-adv-x="1247" 
d="M625 -18q-110 0 -206.5 34t-172 99.5t-119 171.5t-43.5 239t43.5 237.5t119 169.5t172 98.5t206.5 33.5t206 -33.5t171.5 -98.5t119 -169.5t43.5 -237.5q0 -107 -28.5 -197t-79 -153.5t-118.5 -107.5t-147.5 -65t-166.5 -21zM625 188q96 0 155.5 81.5t59.5 258.5
t-59.5 258.5t-155.5 81.5t-156.5 -81.5t-60.5 -258.5t60.5 -258.5t156.5 -81.5zM623 1145q-61 0 -120 30.5t-98 74t-62.5 87t-23.5 72.5q0 33 46 60.5t84 27.5q17 0 28.5 -11.5t28.5 -41.5q44 -74 71 -96q24 -19 48 -19q22 0 46 23t35 40.5t31 51.5q18 30 31 41.5t29 11.5
q37 0 83 -27.5t46 -60.5q0 -26 -23.5 -69t-61.5 -87.5t-97 -76t-121 -31.5z" />
    <glyph glyph-name="Ohungarumlaut" unicode="&#x150;" horiz-adv-x="1488" 
d="M743 -20q-310 0 -487.5 181t-177.5 529q0 139 34.5 255t95.5 198t144.5 139t182 84t208.5 27t208.5 -27t183 -84t145.5 -139t96 -198t35 -255q0 -174 -50 -310.5t-140 -223t-211 -131.5t-267 -45zM743 227q74 0 134.5 24.5t109 76.5t76 143.5t27.5 214.5q0 99 -19 177.5
t-50.5 130t-76.5 85t-94.5 48t-106.5 14.5q-72 0 -132 -24t-109.5 -75t-77 -142t-27.5 -214q0 -459 346 -459zM426 1483q-15 0 -49.5 33.5t-34.5 48.5q0 16 25 45q59 70 213 239q23 23 43 23q28 0 84.5 -57t56.5 -86q0 -22 -25 -43q-23 -22 -114.5 -84.5t-149.5 -98.5
q-32 -20 -49 -20zM807 1483q-15 0 -49.5 33.5t-34.5 48.5q0 16 25 45q59 70 213 239q23 23 43 23q28 0 84.5 -57t56.5 -86q0 -22 -25 -43q-23 -22 -114.5 -84.5t-149.5 -98.5q-32 -20 -49 -20z" />
    <glyph glyph-name="ohungarumlaut" unicode="&#x151;" horiz-adv-x="1247" 
d="M625 -18q-110 0 -206.5 34t-172 99.5t-119 171.5t-43.5 239t43.5 237.5t119 169.5t172 98.5t206.5 33.5t206 -33.5t171.5 -98.5t119 -169.5t43.5 -237.5q0 -107 -28.5 -197t-79 -153.5t-118.5 -107.5t-147.5 -65t-166.5 -21zM625 188q96 0 155.5 81.5t59.5 258.5
t-59.5 258.5t-155.5 81.5t-156.5 -81.5t-60.5 -258.5t60.5 -258.5t156.5 -81.5zM358 1147q-15 0 -49.5 33.5t-34.5 48.5q0 16 25 45q59 70 213 239q23 23 43 23q28 0 84.5 -57t56.5 -86q0 -22 -24 -43q-23 -22 -114.5 -84.5t-149.5 -98.5q-32 -20 -50 -20zM739 1147
q-15 0 -49.5 33.5t-34.5 48.5q0 16 25 45q59 70 213 239q23 23 43 23q28 0 84.5 -57t56.5 -86q0 -22 -24 -43q-23 -22 -114.5 -84t-150.5 -99q-32 -20 -49 -20z" />
    <glyph glyph-name="OE" unicode="&#x152;" horiz-adv-x="2146" 
d="M1147 1372h821q64 0 64 -184q0 -56 -10 -77t-29 -21q-2 0 -43.5 3t-99 6t-99.5 3h-328q-10 0 -10 -12v-261q0 -10 10 -10h428q47 0 47 -135t-47 -135h-428q-10 0 -10 -12v-250q0 -17 10 -17h338q41 0 106 3t114 6.5t51 3.5q39 0 39 -99q0 -184 -64 -184h-860
q-39 0 -39 41v43q-157 -104 -379 -104q-148 0 -267 44.5t-205 131.5t-132.5 223t-46.5 311q0 139 34 255t94 198t142.5 139t178.5 84t202 27q216 0 379 -111v49q0 41 39 41zM743 227q74 0 134.5 24.5t109 76.5t76 143.5t27.5 214.5q0 99 -19 177.5t-50.5 130t-76.5 85
t-94.5 48t-106.5 14.5q-72 0 -132 -24t-109.5 -75t-77 -142t-27.5 -214q0 -459 346 -459z" />
    <glyph glyph-name="oe" unicode="&#x153;" horiz-adv-x="1769" 
d="M1403 209q54 0 105 14.5t81.5 31.5t56 31.5t35.5 14.5q27 0 27 -29q0 -70 -37 -168q-15 -39 -108.5 -81.5t-214.5 -42.5q-248 0 -387 133q-127 -133 -353 -133q-243 0 -383.5 139t-140.5 407q0 266 140 402.5t384 136.5q230 0 357 -133q130 133 346 133
q204 0 303.5 -82.5t99.5 -220.5q0 -82 -36 -148.5t-92.5 -109t-134 -73t-151.5 -45t-153 -19.5q54 -158 256 -158zM604 184q201 0 201 342q0 340 -201 340q-203 0 -203 -340q0 -342 203 -342zM1405 784q0 44 -24.5 69.5t-65.5 25.5q-83 0 -134 -83.5t-55 -267.5
q67 13 114 30t86.5 45.5t59 73.5t19.5 107z" />
    <glyph glyph-name="Racute" unicode="&#x154;" horiz-adv-x="1366" 
d="M311 0q-151 0 -151 47v1227q0 46 130 82.5t306 36.5q273 0 432.5 -116t159.5 -323q0 -87 -31 -164t-75 -125t-88.5 -83.5t-75.5 -50.5l-31 -15q23 -10 55 -49.5t65 -88t70 -95.5t81.5 -79t86.5 -32q7 0 24.5 1t24.5 1q29 0 29 -27q0 -28 -37 -66.5t-102.5 -68.5
t-132.5 -30q-69 0 -125 24.5t-92.5 63.5t-66 86t-53 94.5t-46 86.5t-51.5 64t-64 25h-66q-24 0 -24 -25v-354q0 -47 -152 -47zM463 727q0 -61 104 -61q61 0 111 13t93 42.5t67 84t24 130.5q0 221 -244 221q-155 0 -155 -65v-365zM549 1462q-17 0 -50.5 36.5t-33.5 53.5
q0 18 22 43q26 33 230 256q21 21 41 21q30 0 86.5 -56.5t56.5 -89.5q0 -26 -22 -45q-25 -24 -127.5 -95.5t-155.5 -104.5q-29 -19 -47 -19z" />
    <glyph glyph-name="racute" unicode="&#x155;" horiz-adv-x="886" 
d="M299 0q-152 0 -152 49v717q0 30 -9 56t-19.5 40.5t-19.5 30t-9 25.5q0 34 92.5 90.5t141.5 56.5q18 0 32.5 -6.5t24 -13.5t22 -27t18.5 -32t21 -44q4 5 11.5 13.5t32.5 29.5t50.5 37t64 29.5t75.5 13.5q66 0 124 -24t58 -54q0 -25 -45.5 -95t-81.5 -106q-20 -20 -37 -20
q-12 0 -50.5 25.5t-72.5 25.5q-46 0 -83 -39t-37 -86v-643q0 -49 -152 -49zM526 1145q-17 0 -50.5 36.5t-33.5 53.5t23 43q35 43 229 256q20 20 41 20q30 0 87 -56t57 -89q0 -25 -23 -45q-25 -24 -128 -96t-155 -105q-27 -18 -47 -18z" />
    <glyph glyph-name="Rcaron" unicode="&#x158;" horiz-adv-x="1366" 
d="M311 0q-151 0 -151 47v1227q0 46 130 82.5t306 36.5q273 0 432.5 -116t159.5 -323q0 -87 -31 -164t-75 -125t-88.5 -83.5t-75.5 -50.5l-31 -15q23 -10 55 -49.5t65 -88t70 -95.5t81.5 -79t86.5 -32q7 0 24.5 1t24.5 1q29 0 29 -27q0 -28 -37 -66.5t-102.5 -68.5
t-132.5 -30q-69 0 -125 24.5t-92.5 63.5t-66 86t-53 94.5t-46 86.5t-51.5 64t-64 25h-66q-24 0 -24 -25v-354q0 -47 -152 -47zM463 727q0 -61 104 -61q61 0 111 13t93 42.5t67 84t24 130.5q0 221 -244 221q-155 0 -155 -65v-365zM641 1466q-20 0 -38 6.5t-29 15t-27 23.5
l-201 201q-24 27 -24 43q0 20 18 35l72 65q21 17 41 17q28 0 45 -17l141 -143l147 143q21 17 45 17q20 0 43 -19l70 -61q17 -17 17 -37q0 -16 -23 -43l-201 -201q-19 -17 -28.5 -24t-28 -14t-39.5 -7z" />
    <glyph glyph-name="rcaron" unicode="&#x159;" horiz-adv-x="886" 
d="M299 0q-152 0 -152 49v717q0 30 -9 56t-19.5 40.5t-19.5 30t-9 25.5q0 34 92.5 90.5t141.5 56.5q18 0 32.5 -6.5t24 -13.5t22 -27t18.5 -32t21 -44q4 5 11.5 13.5t32.5 29.5t50.5 37t64 29.5t75.5 13.5q66 0 124 -24t58 -54q0 -25 -45.5 -95t-81.5 -106q-20 -20 -37 -20
q-12 0 -50.5 25.5t-72.5 25.5q-46 0 -83 -39t-37 -86v-643q0 -49 -152 -49zM598 1139q-20 0 -38 6.5t-29 15t-27 23.5l-201 200q-24 27 -24 43q0 20 18 35l72 66q20 16 41 16q29 0 45 -16l141 -144l147 144q20 16 45 16q21 0 43 -18l70 -62q17 -17 17 -37q0 -16 -23 -43
l-201 -200q-19 -17 -28.5 -24t-28 -14t-39.5 -7z" />
    <glyph glyph-name="Sacute" unicode="&#x15a;" horiz-adv-x="1163" 
d="M592 -20q-148 0 -285 60t-155 107q-33 77 -33 209q0 35 28 35q12 0 52 -24t89 -53.5t131 -53.5t167 -24q95 0 148.5 44t53.5 113q0 30 -13.5 55.5t-34.5 43.5t-55 35t-66.5 29.5t-77.5 28.5q-10 3 -15 5q-52 18 -81 28.5t-77.5 32t-77 41t-63.5 50t-54 64t-32.5 79
t-13.5 98.5q0 181 145.5 295.5t366.5 114.5q76 0 144 -14.5t113 -35.5t77.5 -45t47.5 -43.5t15 -31.5q0 -32 -41.5 -93t-66.5 -61q-15 0 -51.5 20t-96.5 40t-133 20q-107 0 -164 -39t-57 -109q0 -29 13 -53t31 -40.5t53 -33t62 -26.5t74 -25q163 -51 230 -87
q177 -93 200 -266q3 -27 3 -56q0 -190 -135 -312t-365 -122zM530 1456q-17 0 -50.5 36.5t-33.5 53.5t23 43q35 43 229 256q21 21 41 21q30 0 87 -56.5t57 -89.5q0 -25 -23 -45q-25 -24 -127.5 -95.5t-154.5 -104.5q-29 -19 -48 -19z" />
    <glyph glyph-name="sacute" unicode="&#x15b;" horiz-adv-x="987" 
d="M500 -20q-85 0 -168.5 22t-138.5 52t-89 59.5t-34 46.5q0 33 56 98.5t83 65.5q12 0 42.5 -21t65 -46t87.5 -46t104 -21q54 0 82 26.5t28 72.5q0 13 -3 24t-12 21.5t-16 18t-23 16.5t-25.5 14.5t-32 14t-33 12.5t-37.5 13t-37 13q-64 23 -106.5 44t-90 55t-72 82.5
t-24.5 109.5q0 153 121 245.5t316 92.5q81 0 149 -15t107.5 -38t61.5 -46t22 -42q0 -34 -55 -99t-85 -65q-9 0 -30.5 16.5t-46.5 36.5t-66 36.5t-84 16.5q-50 0 -81.5 -27t-31.5 -69q0 -21 10.5 -38.5t22.5 -28.5t41.5 -24.5t45.5 -19.5t57 -20q142 -46 200 -80
q140 -83 140 -233q0 -154 -118 -250t-302 -96zM408 1126q-17 0 -50.5 36.5t-33.5 54.5t22 43q35 43 229 256q20 20 41 20q30 0 87 -56t57 -89q0 -25 -23 -45q-26 -24 -128.5 -96.5t-153.5 -104.5q-29 -19 -47 -19z" />
    <glyph glyph-name="Scaron" unicode="&#x160;" horiz-adv-x="1163" 
d="M592 -20q-148 0 -285 60t-155 107q-33 77 -33 209q0 35 28 35q12 0 52 -24t89 -53.5t131 -53.5t167 -24q95 0 148.5 44t53.5 113q0 30 -13.5 55.5t-34.5 43.5t-55 35t-66.5 29.5t-77.5 28.5q-10 3 -15 5q-52 18 -81 28.5t-77.5 32t-77 41t-63.5 50t-54 64t-32.5 79
t-13.5 98.5q0 181 145.5 295.5t366.5 114.5q76 0 144 -14.5t113 -35.5t77.5 -45t47.5 -43.5t15 -31.5q0 -32 -41.5 -93t-66.5 -61q-15 0 -51.5 20t-96.5 40t-133 20q-107 0 -164 -39t-57 -109q0 -29 13 -53t31 -40.5t53 -33t62 -26.5t74 -25q163 -51 230 -87
q177 -93 200 -266q3 -27 3 -56q0 -190 -135 -312t-365 -122zM647 1477q-20 0 -38 6.5t-29 15t-27 23.5l-201 200q-24 27 -24 43q0 20 18 35l72 66q20 16 41 16q29 0 45 -16l141 -144l148 144q20 16 45 16q21 0 43 -18l69 -62q17 -17 17 -37q0 -16 -23 -43l-201 -200
q-19 -17 -28.5 -24t-28 -14t-39.5 -7z" />
    <glyph glyph-name="scaron" unicode="&#x161;" horiz-adv-x="987" 
d="M500 -20q-85 0 -168.5 22t-138.5 52t-89 59.5t-34 46.5q0 33 56 98.5t83 65.5q12 0 42.5 -21t65 -46t87.5 -46t104 -21q54 0 82 26.5t28 72.5q0 13 -3 24t-12 21.5t-16 18t-23 16.5t-25.5 14.5t-32 14t-33 12.5t-37.5 13t-37 13q-64 23 -106.5 44t-90 55t-72 82.5
t-24.5 109.5q0 153 121 245.5t316 92.5q81 0 149 -15t107.5 -38t61.5 -46t22 -42q0 -34 -55 -99t-85 -65q-9 0 -30.5 16.5t-46.5 36.5t-66 36.5t-84 16.5q-50 0 -81.5 -27t-31.5 -69q0 -21 10.5 -38.5t22.5 -28.5t41.5 -24.5t45.5 -19.5t57 -20q142 -46 200 -80
q140 -83 140 -233q0 -154 -118 -250t-302 -96zM530 1143q-20 0 -38 6.5t-29 15t-27 23.5l-200 201q-25 29 -25 43q0 19 18 34l72 66q20 16 41 16q29 0 45 -16l141 -143l148 143q20 16 45 16q21 0 43 -18l70 -62q16 -16 16 -36q0 -16 -23 -43l-200 -201q-19 -16 -29 -23.5
t-28.5 -14.5t-39.5 -7z" />
    <glyph glyph-name="Tcommaaccent" unicode="&#x162;" horiz-adv-x="1085" 
d="M543 0q-152 0 -152 47v1032q0 31 -31 31h-270q-47 0 -47 135q0 127 47 127h905q47 0 47 -127q0 -135 -47 -135h-270q-31 0 -31 -31v-1032q0 -47 -151 -47zM422 -684q-23 0 -37 10.5t-14 30.5t33.5 70.5t33.5 93.5q0 18 -10 33t-21.5 26.5t-21.5 43t-10 79.5
q0 154 172 154q166 0 166 -162q0 -75 -31.5 -147.5t-77.5 -121.5t-95.5 -79.5t-86.5 -30.5z" />
    <glyph glyph-name="tcommaaccent" unicode="&#x163;" horiz-adv-x="737" 
d="M106 1044h56v197q0 30 108 76.5t160 46.5q35 0 35 -39v-281h184q14 0 23.5 -9.5t9.5 -22.5q0 -42 -43 -110t-80 -68h-94v-457q0 -93 42.5 -138.5t115.5 -45.5h47q11 0 17.5 -9t6.5 -20q0 -23 -33 -66.5t-85.5 -80.5t-96.5 -37q-148 0 -232.5 85t-84.5 222v547h-56
q-43 0 -43 104q0 106 43 106zM248 -684q-23 0 -37 10.5t-14 30.5t33.5 70.5t33.5 93.5q0 18 -10 33t-21.5 26.5t-21.5 43t-10 79.5q0 154 172 154q166 0 166 -162q0 -75 -31.5 -147.5t-77.5 -121.5t-95.5 -79.5t-86.5 -30.5z" />
    <glyph glyph-name="Tcaron" unicode="&#x164;" horiz-adv-x="1085" 
d="M543 0q-152 0 -152 47v1032q0 31 -31 31h-270q-47 0 -47 135q0 127 47 127h905q47 0 47 -127q0 -135 -47 -135h-270q-31 0 -31 -31v-1032q0 -47 -151 -47zM543 1454q-20 0 -38 6.5t-29 15t-27 23.5l-201 201q-25 29 -25 43q0 19 19 35l71 65q21 17 41 17q28 0 45 -17
l142 -143l147 143q21 17 45 17q20 0 43 -19l70 -61q16 -16 16 -37q0 -17 -22 -43l-201 -201q-19 -17 -28.5 -24t-28 -14t-39.5 -7z" />
    <glyph glyph-name="tcaron" unicode="&#x165;" horiz-adv-x="737" 
d="M106 1044h56v197q0 30 108 76.5t160 46.5q35 0 35 -39v-281h184q14 0 23.5 -9.5t9.5 -22.5q0 -42 -43 -110t-80 -68h-94v-457q0 -93 42.5 -138.5t115.5 -45.5h47q11 0 17.5 -9t6.5 -20q0 -23 -33 -66.5t-85.5 -80.5t-96.5 -37q-148 0 -232.5 85t-84.5 222v547h-56
q-43 0 -43 104q0 106 43 106zM588 1137q-23 0 -37 10.5t-14 30.5t33.5 70t33.5 93q0 18 -10 33t-21.5 26.5t-21.5 43.5t-10 80q0 153 172 153q166 0 166 -161q0 -75 -31.5 -147.5t-77.5 -121.5t-95.5 -79.5t-86.5 -30.5z" />
    <glyph glyph-name="Umacron" unicode="&#x16a;" horiz-adv-x="1423" 
d="M713 -20q-147 0 -259 41t-180 115t-101.5 170t-33.5 212v813q0 47 152 47q151 0 151 -47v-756q0 -168 66 -251.5t205 -83.5q138 0 204 83.5t66 251.5v756q0 47 152 47q151 0 151 -47v-813q0 -116 -33.5 -212t-101 -170t-179.5 -115t-259 -41zM365 1718h692q43 0 43 -110
q0 -109 -43 -109h-692q-43 0 -43 109q0 110 43 110z" />
    <glyph glyph-name="umacron" unicode="&#x16b;" horiz-adv-x="1236" 
d="M457 -20q-148 0 -251.5 91.5t-103.5 241.5v682q0 49 152 49t152 -49v-622q0 -74 43 -114t116 -40q71 0 128 43t57 90v643q0 49 151 49q152 0 152 -49v-714q0 -88 77 -88h44q28 0 28 -27q0 -43 -72 -114.5t-139 -71.5q-83 0 -172 100l-22 26q-154 -126 -340 -126z
M238 1403h692q43 0 43 -111q0 -108 -43 -108h-692q-43 0 -43 108q0 111 43 111z" />
    <glyph glyph-name="Ubreve" unicode="&#x16c;" horiz-adv-x="1423" 
d="M713 -20q-147 0 -259 41t-180 115t-101.5 170t-33.5 212v813q0 47 152 47q151 0 151 -47v-756q0 -168 66 -251.5t205 -83.5q138 0 204 83.5t66 251.5v756q0 47 152 47q151 0 151 -47v-813q0 -116 -33.5 -212t-101 -170t-179.5 -115t-259 -41zM711 1473q-61 0 -120 30.5
t-97.5 74t-62 87t-23.5 72.5q0 33 45.5 60.5t83.5 27.5q17 0 28.5 -11.5t28.5 -41.5q44 -74 71 -96q24 -19 48 -19q22 0 46 23t35 40.5t31 51.5q18 30 31 41.5t29 11.5q37 0 83 -27.5t46 -60.5q0 -26 -23.5 -69t-61.5 -87.5t-97 -76t-121 -31.5z" />
    <glyph glyph-name="ubreve" unicode="&#x16d;" horiz-adv-x="1236" 
d="M457 -20q-148 0 -251.5 91.5t-103.5 241.5v682q0 49 152 49t152 -49v-622q0 -74 43 -114t116 -40q71 0 128 43t57 90v643q0 49 151 49q152 0 152 -49v-714q0 -88 77 -88h44q28 0 28 -27q0 -43 -72 -114.5t-139 -71.5q-83 0 -172 100l-22 26q-154 -126 -340 -126z
M592 1137q-61 0 -120 30.5t-97.5 74t-62 87t-23.5 72.5q0 33 45.5 60.5t83.5 27.5q17 0 28.5 -11.5t28.5 -41.5q44 -74 71 -96q24 -19 48 -19q22 0 46 22.5t36 41t31 51.5q19 30 31 41.5t28 11.5q37 0 83 -27.5t46 -60.5q0 -26 -23.5 -69t-61.5 -87.5t-97 -76t-121 -31.5z
" />
    <glyph glyph-name="Uring" unicode="&#x16e;" horiz-adv-x="1423" 
d="M713 -20q-147 0 -259 41t-180 115t-101.5 170t-33.5 212v813q0 47 152 47q151 0 151 -47v-756q0 -168 66 -251.5t205 -83.5q138 0 204 83.5t66 251.5v756q0 47 152 47q151 0 151 -47v-813q0 -116 -33.5 -212t-101 -170t-179.5 -115t-259 -41zM711 1448q-94 0 -160 62.5
t-66 150.5q0 89 66.5 152t159.5 63t160 -63t67 -152q0 -87 -67 -150t-160 -63zM711 1749q-34 0 -57 -25.5t-23 -62.5q0 -35 23 -60.5t57 -25.5q33 0 55 25t22 61q0 37 -22.5 62.5t-54.5 25.5z" />
    <glyph glyph-name="uring" unicode="&#x16f;" horiz-adv-x="1236" 
d="M457 -20q-148 0 -251.5 91.5t-103.5 241.5v682q0 49 152 49t152 -49v-622q0 -74 43 -114t116 -40q71 0 128 43t57 90v643q0 49 151 49q152 0 152 -49v-714q0 -88 77 -88h44q28 0 28 -27q0 -43 -72 -114.5t-139 -71.5q-83 0 -172 100l-22 26q-154 -126 -340 -126z
M575 1147q-94 0 -159.5 62.5t-65.5 150.5q0 89 66 152t159 63t160.5 -63t67.5 -152q0 -87 -67.5 -150t-160.5 -63zM575 1448q-34 0 -56.5 -25.5t-22.5 -62.5q0 -36 23 -61t56 -25t55.5 25t22.5 61q0 37 -23 62.5t-55 25.5z" />
    <glyph glyph-name="Uhungarumlaut" unicode="&#x170;" horiz-adv-x="1423" 
d="M713 -20q-147 0 -259 41t-180 115t-101.5 170t-33.5 212v813q0 47 152 47q151 0 151 -47v-756q0 -168 66 -251.5t205 -83.5q138 0 204 83.5t66 251.5v756q0 47 152 47q151 0 151 -47v-813q0 -116 -33.5 -212t-101 -170t-179.5 -115t-259 -41zM446 1483q-15 0 -49.5 33.5
t-34.5 48.5q0 16 25 45q59 70 213 239q23 23 43 23q28 0 84.5 -57t56.5 -86q0 -22 -24 -43q-23 -22 -114.5 -84.5t-149.5 -98.5q-32 -20 -50 -20zM827 1483q-15 0 -49.5 33.5t-34.5 48.5q0 16 25 45q59 70 213 239q23 23 43 23q28 0 84.5 -57t56.5 -86q0 -22 -24 -43
q-23 -22 -114.5 -84.5t-149.5 -98.5q-32 -20 -50 -20z" />
    <glyph glyph-name="uhungarumlaut" unicode="&#x171;" horiz-adv-x="1236" 
d="M457 -20q-148 0 -251.5 91.5t-103.5 241.5v682q0 49 152 49t152 -49v-622q0 -74 43 -114t116 -40q71 0 128 43t57 90v643q0 49 151 49q152 0 152 -49v-714q0 -88 77 -88h44q28 0 28 -27q0 -43 -72 -114.5t-139 -71.5q-83 0 -172 100l-22 26q-154 -126 -340 -126z
M334 1161q-15 0 -49.5 33.5t-34.5 48.5q0 18 24 45q70 83 213 240q22 22 43 22q28 0 85 -57t57 -86q0 -22 -25 -43q-23 -22 -113.5 -83t-150.5 -99q-34 -21 -49 -21zM715 1161q-15 0 -49.5 33.5t-34.5 48.5q0 18 24 45q70 83 213 240q22 22 43 22q28 0 85 -57t57 -86
q0 -22 -25 -43q-23 -22 -113.5 -83t-150.5 -99q-34 -21 -49 -21z" />
    <glyph glyph-name="Ydieresis" unicode="&#x178;" horiz-adv-x="1228" 
d="M614 0q-151 0 -151 47v502l-6 37l-418 712q-10 17 -10 29q0 45 159 45q89 0 124.5 -11.5t47.5 -33.5l254 -459l254 459q12 22 48.5 33.5t125.5 11.5q160 0 160 -45q0 -14 -12 -29l-418 -712q-6 -21 -6 -37v-502q0 -47 -152 -47zM422 1481q-78 0 -115 39.5t-37 121.5
q0 162 152 162q77 0 116.5 -41.5t39.5 -120.5q0 -82 -38.5 -121.5t-117.5 -39.5zM803 1481q-78 0 -115 39.5t-37 121.5q0 162 152 162q155 0 155 -162q0 -82 -38 -121.5t-117 -39.5z" />
    <glyph glyph-name="Zacute" unicode="&#x179;" horiz-adv-x="1269" 
d="M465 264h334q95 0 167.5 7.5t104.5 17t56 17t32 7.5q27 0 27 -30q0 -140 -26 -211.5t-91 -71.5h-944q-41 0 -41 133q0 102 31 143l653 834h-270q-121 0 -202 -13t-115.5 -25.5t-41.5 -12.5q-26 0 -26 31q0 141 25.5 211.5t90.5 70.5h875q41 0 41 -133q0 -99 -37 -152z
M500 1462q-17 0 -50.5 36.5t-33.5 53.5q0 18 22 43q26 33 230 256q21 21 41 21q30 0 86.5 -56.5t56.5 -89.5q0 -25 -23 -45q-25 -24 -127.5 -95.5t-154.5 -104.5q-29 -19 -47 -19z" />
    <glyph glyph-name="zacute" unicode="&#x17a;" horiz-adv-x="1036" 
d="M94 0q-12 0 -21.5 9t-9.5 26q0 99 11 141t57 105q7 13 95 114t199 227t134 152q14 18 14 25q0 14 -26 14q-137 0 -229.5 -14.5t-131 -28.5t-45.5 -14q-26 0 -26 30q0 136 25 197t91 61h680q35 0 35 -34q0 -96 -12.5 -144.5t-54.5 -101.5q-9 -13 -95 -112t-189 -216
t-128 -147q-21 -24 -21 -33q0 -14 29 -14q155 0 262.5 15t155 29.5t55.5 14.5q27 0 27 -31q0 -270 -135 -270h-746zM426 1122q-17 0 -50.5 36.5t-33.5 53.5t23 43q35 43 229 256q21 21 41 21q30 0 86.5 -56.5t56.5 -89.5q0 -26 -22 -45q-25 -24 -127.5 -95.5t-155.5 -104.5
q-29 -19 -47 -19z" />
    <glyph glyph-name="Zdotaccent" unicode="&#x17b;" horiz-adv-x="1269" 
d="M465 264h334q95 0 167.5 7.5t104.5 17t56 17t32 7.5q27 0 27 -30q0 -140 -26 -211.5t-91 -71.5h-944q-41 0 -41 133q0 102 31 143l653 834h-270q-121 0 -202 -13t-115.5 -25.5t-41.5 -12.5q-26 0 -26 31q0 141 25.5 211.5t90.5 70.5h875q41 0 41 -133q0 -99 -37 -152z
M633 1481q-78 0 -115 39.5t-37 121.5q0 162 152 162q155 0 155 -162q0 -82 -38 -121.5t-117 -39.5z" />
    <glyph glyph-name="zdotaccent" unicode="&#x17c;" horiz-adv-x="1036" 
d="M94 0q-12 0 -21.5 9t-9.5 26q0 99 11 141t57 105q7 13 95 114t199 227t134 152q14 18 14 25q0 14 -26 14q-137 0 -229.5 -14.5t-131 -28.5t-45.5 -14q-26 0 -26 30q0 136 25 197t91 61h680q35 0 35 -34q0 -96 -12.5 -144.5t-54.5 -101.5q-9 -13 -95 -112t-189 -216
t-128 -147q-21 -24 -21 -33q0 -14 29 -14q155 0 262.5 15t155 29.5t55.5 14.5q27 0 27 -31q0 -270 -135 -270h-746zM532 1139q-78 0 -114.5 39.5t-36.5 121.5q0 162 151 162q77 0 116.5 -41.5t39.5 -120.5q0 -82 -38.5 -121.5t-117.5 -39.5z" />
    <glyph glyph-name="Zcaron" unicode="&#x17d;" horiz-adv-x="1269" 
d="M465 264h334q95 0 167.5 7.5t104.5 17t56 17t32 7.5q27 0 27 -30q0 -140 -26 -211.5t-91 -71.5h-944q-41 0 -41 133q0 102 31 143l653 834h-270q-121 0 -202 -13t-115.5 -25.5t-41.5 -12.5q-26 0 -26 31q0 141 25.5 211.5t90.5 70.5h875q41 0 41 -133q0 -99 -37 -152z
M635 1454q-20 0 -38 6.5t-29 15t-27 23.5l-201 201q-25 29 -25 43q0 19 19 35l72 65q21 17 40 17q29 0 46 -17l141 -143l147 143q21 17 45 17q20 0 43 -19l70 -61q16 -16 16 -37q0 -17 -22 -43l-201 -201q-19 -17 -28.5 -24t-28 -14t-39.5 -7z" />
    <glyph glyph-name="zcaron" unicode="&#x17e;" horiz-adv-x="1036" 
d="M94 0q-12 0 -21.5 9t-9.5 26q0 99 11 141t57 105q7 13 95 114t199 227t134 152q14 18 14 25q0 14 -26 14q-137 0 -229.5 -14.5t-131 -28.5t-45.5 -14q-26 0 -26 30q0 136 25 197t91 61h680q35 0 35 -34q0 -96 -12.5 -144.5t-54.5 -101.5q-9 -13 -95 -112t-189 -216
t-128 -147q-21 -24 -21 -33q0 -14 29 -14q155 0 262.5 15t155 29.5t55.5 14.5q27 0 27 -31q0 -270 -135 -270h-746zM518 1126q-20 0 -38 6.5t-29 15t-27 23.5l-201 201q-24 27 -24 43q0 20 18 35l72 66q20 16 41 16q29 0 45 -16l141 -144l148 144q20 16 45 16q20 0 43 -19
l69 -61q17 -17 17 -37q0 -16 -23 -43l-201 -201q-19 -17 -28.5 -24t-28 -14t-39.5 -7z" />
    <glyph glyph-name="florin" unicode="&#x192;" horiz-adv-x="751" 
d="M279 737h-64q-26 0 -37.5 19t-11.5 80q0 58 12 76t39 18h62v262q0 65 18 124.5t53.5 109t96 79t137.5 29.5q80 0 129 -31.5t49 -70.5q0 -32 -32.5 -68.5t-53.5 -36.5q-8 0 -37 14.5t-61 14.5q-41 0 -55.5 -44t-14.5 -126v-256h135q27 0 39 -18t12 -76q0 -61 -11.5 -80
t-37.5 -19h-137v-528q0 -160 -90 -261.5t-260 -101.5q-79 0 -133 33.5t-54 69.5q0 30 32.5 70t53.5 40q8 0 40.5 -17t66.5 -17q57 0 86 54.5t29 143.5v514z" />
    <glyph glyph-name="Scommaaccent" unicode="&#x218;" horiz-adv-x="1163" 
d="M592 -20q-148 0 -285 60t-155 107q-33 77 -33 209q0 35 28 35q12 0 52 -24t89 -53.5t131 -53.5t167 -24q95 0 148.5 44t53.5 113q0 30 -13.5 55.5t-34.5 43.5t-55 35t-66.5 29.5t-77.5 28.5q-10 3 -15 5q-52 18 -81 28.5t-77.5 32t-77 41t-63.5 50t-54 64t-32.5 79
t-13.5 98.5q0 181 145.5 295.5t366.5 114.5q76 0 144 -14.5t113 -35.5t77.5 -45t47.5 -43.5t15 -31.5q0 -32 -41.5 -93t-66.5 -61q-15 0 -51.5 20t-96.5 40t-133 20q-107 0 -164 -39t-57 -109q0 -29 13 -53t31 -40.5t53 -33t62 -26.5t74 -25q163 -51 230 -87
q177 -93 200 -266q3 -27 3 -56q0 -190 -135 -312t-365 -122zM461 -684q-23 0 -37 10.5t-14 30.5t33.5 70.5t33.5 93.5q0 18 -10 33t-21.5 26.5t-21.5 43t-10 79.5q0 154 172 154q166 0 166 -162q0 -75 -31.5 -147.5t-77.5 -121.5t-95.5 -79.5t-86.5 -30.5z" />
    <glyph glyph-name="scommaaccent" unicode="&#x219;" horiz-adv-x="987" 
d="M500 -20q-85 0 -168.5 22t-138.5 52t-89 59.5t-34 46.5q0 33 56 98.5t83 65.5q12 0 42.5 -21t65 -46t87.5 -46t104 -21q54 0 82 26.5t28 72.5q0 13 -3 24t-12 21.5t-16 18t-23 16.5t-25.5 14.5t-32 14t-33 12.5t-37.5 13t-37 13q-64 23 -106.5 44t-90 55t-72 82.5
t-24.5 109.5q0 153 121 245.5t316 92.5q81 0 149 -15t107.5 -38t61.5 -46t22 -42q0 -34 -55 -99t-85 -65q-9 0 -30.5 16.5t-46.5 36.5t-66 36.5t-84 16.5q-50 0 -81.5 -27t-31.5 -69q0 -21 10.5 -38.5t22.5 -28.5t41.5 -24.5t45.5 -19.5t57 -20q142 -46 200 -80
q140 -83 140 -233q0 -154 -118 -250t-302 -96zM373 -684q-23 0 -37 10.5t-14 30.5t33.5 70.5t33.5 93.5q0 18 -10 33t-21.5 26.5t-21.5 43t-10 79.5q0 154 172 154q166 0 166 -162q0 -75 -31.5 -147.5t-77.5 -121.5t-95.5 -79.5t-86.5 -30.5z" />
    <glyph glyph-name="circumflex" unicode="&#x2c6;" horiz-adv-x="727" 
d="M561 1124q-19 0 -47 21l-154 133q-146 -131 -151 -131q-25 -21 -47 -21q-20 0 -41 17l-76 74q-22 22 -22 45q0 13 24 41l219 190q24 20 41 25.5t53 5.5q39 0 56.5 -5.5t40.5 -25.5l217 -190q24 -24 24 -43q0 -26 -20 -43l-74 -72q-18 -21 -43 -21z" />
    <glyph glyph-name="caron" unicode="&#x2c7;" horiz-adv-x="673" 
d="M342 1126q-20 0 -38 6.5t-29 15t-27 23.5l-201 201q-24 27 -24 43q0 20 18 35l72 66q20 16 41 16q29 0 45 -16l141 -144l147 144q20 16 45 16q20 0 43 -19l70 -61q17 -17 17 -37q0 -16 -23 -43l-201 -201q-19 -17 -28.5 -24t-28 -14t-39.5 -7z" />
    <glyph glyph-name="breve" unicode="&#x2d8;" horiz-adv-x="661" 
d="M332 1145q-61 0 -120 30.5t-97.5 74t-62 87t-23.5 72.5q0 33 45.5 60.5t83.5 27.5q17 0 28.5 -11.5t28.5 -41.5q44 -74 71 -96q24 -19 48 -19q22 0 46 23t35 40.5t31 51.5q18 30 31 41.5t29 11.5q37 0 83 -27.5t46 -60.5q0 -26 -23.5 -69t-61.5 -87.5t-97 -76t-121 -31.5
z" />
    <glyph glyph-name="dotaccent" unicode="&#x2d9;" horiz-adv-x="376" 
d="M186 1153q-78 0 -114.5 40t-36.5 122q0 162 151 162q77 0 116.5 -41.5t39.5 -120.5q0 -162 -156 -162z" />
    <glyph glyph-name="ring" unicode="&#x2da;" horiz-adv-x="516" 
d="M256 1120q-94 0 -159.5 62.5t-65.5 150.5q0 89 66 152t159 63t160 -63t67 -152q0 -87 -67 -150t-160 -63zM256 1421q-34 0 -57 -25.5t-23 -62.5q0 -35 23 -60.5t57 -25.5q33 0 55.5 25t22.5 61q0 37 -23 62.5t-55 25.5z" />
    <glyph glyph-name="ogonek" unicode="&#x2db;" horiz-adv-x="438" 
d="M252 -422q-101 0 -168.5 53.5t-67.5 153.5q0 34 12 67t27 55.5t41 48.5t42 38.5t42 32.5q32 22 47 22q22 0 63.5 -20t41.5 -31q0 -2 -1 -4.5t-4 -5.5l-6 -6t-9.5 -9t-12.5 -12q-86 -92 -86 -160q0 -51 43 -51q17 0 37 11.5t35 11.5q29 0 53.5 -39t24.5 -74t-47.5 -58.5
t-106.5 -23.5z" />
    <glyph glyph-name="tilde" unicode="&#x2dc;" horiz-adv-x="792" 
d="M164 1182q-20 -13 -33 -13q-21 0 -64.5 54.5t-43.5 70.5q0 22 22 49q37 43 95 73t122 30q48 0 104.5 -22.5t104 -45t72.5 -22.5q37 0 94 63q15 15 25 15q21 0 68.5 -53.5t47.5 -73.5q0 -40 -65.5 -94t-151.5 -54q-51 0 -107 22.5t-105 45t-83 22.5q-9 0 -18 -3.5
t-20.5 -11.5t-19 -13.5t-22.5 -19t-22 -19.5z" />
    <glyph glyph-name="hungarumlaut" unicode="&#x2dd;" horiz-adv-x="845" 
d="M106 1155q-15 0 -49 33.5t-34 48.5q0 18 24 45q70 83 213 240q22 22 43 22q28 0 84.5 -57t56.5 -86q0 -22 -24 -43q-23 -22 -113.5 -83t-150.5 -99q-34 -21 -50 -21zM487 1155q-15 0 -49.5 33.5t-34.5 48.5q0 16 25 45q70 83 213 240q22 22 43 22q28 0 84.5 -57t56.5 -86
q0 -22 -24 -43q-23 -22 -113.5 -83t-150.5 -99q-34 -21 -50 -21z" />
    <glyph glyph-name="endash" unicode="&#x2013;" horiz-adv-x="983" 
d="M119 793h753q43 0 43 -131q0 -130 -43 -130h-753q-43 0 -43 130q0 131 43 131z" />
    <glyph glyph-name="emdash" unicode="&#x2014;" horiz-adv-x="1335" 
d="M98 793h1143q43 0 43 -131q0 -130 -43 -130h-1143q-43 0 -43 130q0 131 43 131z" />
    <glyph glyph-name="quoteleft" unicode="&#x2018;" horiz-adv-x="655" 
d="M455 1393q61 0 61 -47q0 -23 -37 -80q-35 -55 -35 -101q0 -19 9.5 -36t21.5 -31.5t21.5 -49.5t9.5 -85q0 -83 -46 -121.5t-138 -38.5q-93 0 -138 40t-45 132q0 64 24 129t61 115t80 90.5t83 62t68 21.5z" />
    <glyph glyph-name="quoteright" unicode="&#x2019;" horiz-adv-x="647" 
d="M201 803q-26 0 -44 12.5t-18 34.5q0 23 39 80q35 59 35 102q0 19 -9.5 36t-21 31t-21 49t-9.5 85q0 84 45.5 122t138.5 38q92 0 136 -39.5t44 -132.5q0 -79 -36 -158.5t-87 -134.5t-104 -90t-88 -35z" />
    <glyph glyph-name="quotesinglbase" unicode="&#x201a;" horiz-adv-x="632" 
d="M197 -201q-27 0 -43.5 12t-16.5 33q0 20 35 76q33 52 33 94q0 17 -9 33.5t-20 30t-20 46t-9 79.5q0 78 43.5 113.5t131.5 35.5q87 0 128.5 -37.5t41.5 -124.5q0 -74 -34 -148.5t-82 -126t-97.5 -84t-81.5 -32.5z" />
    <glyph glyph-name="quotedblleft" unicode="&#x201c;" horiz-adv-x="1110" 
d="M907 1401q28 0 46 -12t18 -35q0 -7 -2 -14t-6 -15.5t-7.5 -15t-11 -18t-10.5 -17.5q-35 -52 -35 -100q0 -19 9 -37t20.5 -32t20.5 -49t9 -85q0 -84 -45 -122t-139 -38q-92 0 -136 40t-44 132q0 79 36 158.5t87 134.5t103 90t87 35zM455 1401q61 0 61 -47q0 -23 -37 -80
q-35 -59 -35 -100q0 -19 9.5 -37t21.5 -32t21.5 -49t9.5 -85q0 -83 -46 -121.5t-138 -38.5q-93 0 -138 40t-45 132q0 64 24 129t61 115t80 90.5t83 62t68 21.5z" />
    <glyph glyph-name="quotedblright" unicode="&#x201d;" horiz-adv-x="1099" 
d="M201 803q-26 0 -44 12.5t-18 34.5q0 23 39 80q35 59 35 102q0 19 -9.5 36t-21 31t-21 49t-9.5 85q0 84 45.5 122t138.5 38q92 0 136 -39.5t44 -132.5q0 -79 -36 -158.5t-87 -134.5t-104 -90t-88 -35zM655 803q-27 0 -44 12t-17 35q0 26 37 80q35 52 35 102q0 19 -9.5 36
t-21.5 31t-21.5 49t-9.5 85q0 84 45.5 122t138.5 38q94 0 138.5 -39.5t44.5 -132.5q0 -64 -24 -129t-61 -115t-80 -90.5t-83 -62t-68 -21.5z" />
    <glyph glyph-name="quotedblbase" unicode="&#x201e;" horiz-adv-x="1060" 
d="M197 -209q-60 0 -60 43q0 20 35 76q33 52 33 94q0 17 -9 33.5t-20 30t-20 46t-9 79.5q0 78 43.5 114.5t131.5 36.5q87 0 128.5 -38.5t41.5 -125.5q0 -73 -34 -147.5t-82 -125.5t-97.5 -83.5t-81.5 -32.5zM625 -209q-60 0 -60 43q0 20 35 76q33 52 33 94q0 17 -9 33.5
t-20 30t-20 46t-9 79.5q0 78 43.5 114.5t131.5 36.5q87 0 128.5 -38.5t41.5 -125.5q0 -73 -34 -147.5t-82 -125.5t-97.5 -83.5t-81.5 -32.5z" />
    <glyph glyph-name="dagger" unicode="&#x2020;" horiz-adv-x="778" 
d="M639 815h-131v-858q0 -30 -17.5 -51t-52.5 -21h-112q-30 0 -48 19.5t-18 52.5v858h-123q-32 0 -48.5 23.5t-16.5 87.5q0 67 16 90.5t47 23.5h125v361q0 32 18.5 53t47.5 21h112q32 0 51 -20.5t19 -53.5v-361h129q29 0 47 -23t18 -91q0 -111 -63 -111z" />
    <glyph glyph-name="daggerdbl" unicode="&#x2021;" horiz-adv-x="831" 
d="M690 201h-160v-353q0 -21 -14.5 -37t-44.5 -16h-119q-26 0 -41.5 14.5t-15.5 38.5v353h-164q-26 0 -41.5 15t-15.5 40q0 23 0.5 35t2 38t5.5 42t11 34t19.5 26.5t28.5 8.5h154v336h-164q-26 0 -41.5 16.5t-15.5 41.5q0 182 67 182h154v403q0 26 15.5 41t41.5 15h119
q28 0 43.5 -15t15.5 -41v-403h170q23 0 39.5 -14.5t16.5 -43.5q0 -36 -2 -62.5t-8 -56.5t-20 -46.5t-36 -16.5h-160v-336h170q23 0 39.5 -14t16.5 -43q0 -36 -2 -62.5t-8 -56.5t-20 -46.5t-36 -16.5z" />
    <glyph glyph-name="bullet" unicode="&#x2022;" horiz-adv-x="516" 
d="M252 473q-86 0 -129 46.5t-43 144.5q0 194 172 194t172 -194q0 -98 -43 -144.5t-129 -46.5z" />
    <glyph glyph-name="ellipsis" unicode="&#x2026;" horiz-adv-x="1845" 
d="M315 -18q-176 0 -176 180q0 182 176 182q181 0 181 -182q0 -180 -181 -180zM920 -18q-175 0 -175 180q0 92 43 137t132 45q182 0 182 -182q0 -91 -44.5 -135.5t-137.5 -44.5zM1526 -18q-176 0 -176 180q0 182 176 182q180 0 180 -182q0 -91 -44 -135.5t-136 -44.5z" />
    <glyph glyph-name="perthousand" unicode="&#x2030;" horiz-adv-x="3084" 
d="M514 565q-86 0 -161.5 26t-134 75.5t-92.5 129t-34 179.5q0 132 59 225.5t152.5 136.5t210.5 43q85 0 160 -25.5t133.5 -74t92.5 -127t34 -178.5t-34 -179.5t-92.5 -129t-133.5 -75.5t-160 -26zM514 735q65 0 107.5 56t42.5 186t-42 185t-108 55q-67 0 -110.5 -55
t-43.5 -185t43.5 -186t110.5 -56zM1538 1300l-629 -1259q-7 -12 -17.5 -20t-42.5 -14.5t-85 -6.5q-133 0 -133 45q0 10 10 27l629 1259q7 12 17.5 20t42.5 14.5t85 6.5q133 0 133 -45q0 -10 -10 -27zM1661 -8q-117 0 -210.5 44t-152.5 138.5t-59 226.5q0 100 34 178.5
t92.5 127.5t133.5 74.5t162 25.5q85 0 160 -25.5t133.5 -74.5t92.5 -127.5t34 -178.5t-34 -179t-92.5 -128.5t-133.5 -75.5t-160 -26zM1661 162q65 0 107 55.5t42 185.5t-42 185t-107 55q-67 0 -110.5 -55t-43.5 -185t43.5 -185.5t110.5 -55.5zM2583 -8q-117 0 -210.5 44
t-152.5 138.5t-59 226.5q0 100 34 178.5t92.5 127.5t133.5 74.5t162 25.5q85 0 159.5 -25.5t133 -74.5t92.5 -127.5t34 -178.5q0 -132 -59 -226.5t-152 -138.5t-208 -44zM2583 162q65 0 107 55.5t42 185.5t-42 185t-107 55q-67 0 -110.5 -55t-43.5 -185t43.5 -185.5
t110.5 -55.5z" />
    <glyph glyph-name="guilsinglleft" unicode="&#x2039;" horiz-adv-x="839" 
d="M733 776q-287 -200 -368 -272q-29 -26 -29 -49q0 -22 22 -37q50 -38 177.5 -122.5t195.5 -125.5q35 -22 35 -53q0 -25 -64 -111q-15 -22 -43 -22q-25 0 -43 14q-440 274 -487 321q-55 40 -55 127q0 72 53 125q24 30 165 139t312 232q24 19 47 19q26 0 49 -27l45 -64
q17 -34 17 -45q0 -26 -29 -49z" />
    <glyph glyph-name="guilsinglright" unicode="&#x203a;" horiz-adv-x="839" 
d="M186 -16q-27 0 -49 26q-20 25 -40.5 60t-20.5 49q0 31 30 49q62 38 191.5 127t181.5 129q25 19 25 39q0 25 -27 47q-44 39 -366 266q-35 21 -35 53q0 16 20 48q6 11 43 61q21 25 47 25q18 0 41 -19q53 -37 130 -91.5t128.5 -90.5t104.5 -74.5t84.5 -63t40.5 -36.5
q53 -53 53 -123q0 -83 -57 -129q-35 -33 -171 -130.5t-309 -205.5q-20 -16 -45 -16z" />
    <glyph glyph-name="fraction" unicode="&#x2044;" horiz-adv-x="1005" 
d="M952 1300l-628 -1259q-7 -12 -17.5 -20t-43 -14.5t-85.5 -6.5q-133 0 -133 45q0 10 10 27l629 1259q7 12 17.5 20t42.5 14.5t85 6.5q134 0 134 -45q0 -9 -11 -27z" />
    <glyph glyph-name="zerosuperior" unicode="&#x2070;" horiz-adv-x="1163" 
d="M586 319q-236 0 -360 134t-124 399q0 258 132.5 393t351.5 135q220 0 350.5 -134.5t130.5 -393.5q0 -263 -126.5 -398t-354.5 -135zM586 516q213 0 213 334q0 332 -213 332q-102 0 -157.5 -78t-55.5 -254q0 -180 54 -257t159 -77z" />
    <glyph glyph-name="foursuperior" unicode="&#x2074;" horiz-adv-x="1013" 
d="M739 344q-51 0 -80 6t-38 14t-9 21v156h-518q-12 0 -21.5 31t-9.5 73q0 86 19 113l455 583q22 31 129 31q52 0 84.5 -6t41.5 -13t9 -14q0 -9 -8 -20l-426 -567h245v168q0 25 19 47l164 223q24 27 45 27q13 0 19 -5.5t6.5 -11t0.5 -20.5v-795q0 -41 -127 -41z" />
    <glyph glyph-name="fivesuperior" unicode="&#x2075;" horiz-adv-x="1017" 
d="M481 328q-86 0 -162.5 20t-123.5 49t-75 56t-30 45q-6 28 32 93.5t66 65.5q8 0 33.5 -18t56.5 -39t83.5 -39t107.5 -18q77 0 125.5 49.5t48.5 122.5q0 137 -141 137q-41 0 -78 -11t-58 -25t-40.5 -25t-30.5 -11q-30 0 -90 33t-60 61v467q0 31 31 31h606q66 0 66 -180
q0 -51 -27 -51q-3 0 -40 4.5t-99.5 9t-126.5 4.5h-180v-141q6 4 18.5 10t59 16.5t102.5 10.5q66 0 127.5 -21t112 -61.5t80.5 -106.5t30 -149q0 -175 -115.5 -282t-308.5 -107z" />
    <glyph glyph-name="sixsuperior" unicode="&#x2076;" horiz-adv-x="1089" 
d="M567 319q-213 0 -335.5 120.5t-122.5 332.5q0 152 40.5 270.5t111 191t161 109.5t196.5 37q78 0 144.5 -15.5t104 -38t58.5 -44.5t21 -37q0 -25 -43 -79t-69 -54q-11 0 -30.5 11t-41.5 25t-63 25t-89 11t-90 -21t-68 -50.5t-45.5 -59.5t-27.5 -51l-8 -21l9 9t28.5 21
t47.5 26t67 20.5t87 9.5q171 0 274 -94t103 -256q0 -173 -111 -285.5t-309 -112.5zM362 694q0 -88 54 -141t147 -53q85 0 131.5 56.5t46.5 148.5q0 91 -42.5 141.5t-129.5 50.5t-147 -57t-60 -146z" />
    <glyph glyph-name="sevensuperior" unicode="&#x2077;" horiz-adv-x="909" 
d="M231 342q-76 0 -104.5 8.5t-28.5 28.5q0 21 72 163t170 304q63 104 113.5 181.5t70.5 103.5l19 26h-170q-64 0 -127.5 -4.5t-102 -9t-41.5 -4.5q-26 0 -26 51q0 180 65 180h652q28 0 28 -31l-2 -143q0 -40 -33 -90q-6 -9 -31.5 -46.5t-44 -65.5t-46.5 -71.5t-58 -92.5
t-59 -101q-66 -114 -111 -213.5t-55 -134.5q-16 -39 -150 -39z" />
    <glyph glyph-name="eightsuperior" unicode="&#x2078;" horiz-adv-x="1052" 
d="M520 319q-194 0 -314 79t-120 239q0 26 4.5 51t11.5 45t17 38.5t21 32.5t23 26.5t23 21.5t21.5 16.5t17.5 12t13 7.5l6 3q-4 1 -15 8.5t-29.5 25t-34.5 40t-28 57t-12 72.5q0 90 56.5 156.5t144.5 98t194 31.5q105 0 193 -32.5t144 -98.5t56 -155q0 -45 -16.5 -85
t-40 -64.5t-39 -36.5t-24.5 -17q5 -2 19 -9.5t39.5 -28.5t47 -48t37.5 -72t16 -96q0 -108 -59 -181.5t-153.5 -105t-219.5 -31.5zM520 500q80 0 124 37t44 98q0 63 -49.5 103t-118.5 40q-71 0 -120.5 -39.5t-49.5 -101.5q0 -63 44 -100t126 -37zM520 944q57 0 101.5 39
t44.5 96q0 62 -41 95.5t-105 33.5q-65 0 -106 -34.5t-41 -92.5q0 -59 42.5 -98t104.5 -39z" />
    <glyph glyph-name="ninesuperior" unicode="&#x2079;" horiz-adv-x="1089" 
d="M469 319q-130 0 -215.5 41.5t-91.5 79.5q-7 28 21 89t57 61q13 0 43 -19t80 -38t110 -19q57 0 102.5 18t70.5 42t42.5 56t22.5 51t8 36q-3 -3 -9.5 -9t-29 -21t-48 -26t-67 -20.5t-86.5 -9.5q-172 0 -275.5 92t-103.5 252q0 178 112 291.5t312 113.5q209 0 331 -118
t122 -336q0 -152 -40.5 -270.5t-111 -190.5t-161 -109t-195.5 -37zM719 1008q0 90 -49.5 142t-141.5 52q-86 0 -135 -58t-49 -151q0 -90 44 -140t134 -50q89 0 143 57t54 148z" />
    <glyph glyph-name="zeroinferior" unicode="&#x2080;" horiz-adv-x="1163" 
d="M586 -8q-236 0 -360 134t-124 398q0 258 132.5 393.5t351.5 135.5q220 0 350.5 -135t130.5 -394q0 -262 -126 -397t-355 -135zM586 188q213 0 213 334q0 332 -213 332q-102 0 -157.5 -78t-55.5 -254q0 -180 54 -257t159 -77z" />
    <glyph glyph-name="oneinferior" unicode="&#x2081;" horiz-adv-x="579" 
d="M309 0q-133 0 -133 41v672h-88q-39 0 -39 43q0 8 10 27.5t28.5 48.5t34.5 52.5t39.5 57.5t31.5 45q19 23 43.5 32t85.5 9q118 0 118 -31v-956q0 -41 -131 -41z" />
    <glyph glyph-name="twoinferior" unicode="&#x2082;" horiz-adv-x="950" 
d="M127 0q-13 0 -21 8t-8 23v129q0 35 37 63q173 131 258 218q172 176 172 313q0 42 -24.5 66t-69.5 24q-43 0 -66.5 -23t-52.5 -82q-18 -37 -59 -37q-61 0 -109.5 34t-48.5 67q0 36 23 76t65 78t113.5 62.5t157.5 24.5q165 0 250 -78.5t83 -209.5q0 -67 -28 -136.5
t-72 -126t-92.5 -106t-96 -85.5t-75.5 -55t-37 -24h98q64 0 125 4.5t96.5 9.5t38.5 5q36 0 46 -27t6 -72q-3 -143 -64 -143h-645z" />
    <glyph glyph-name="threeinferior" unicode="&#x2083;" horiz-adv-x="919" 
d="M455 -8q-85 0 -158.5 20.5t-116.5 50.5t-67.5 59t-24.5 50q0 27 36 88.5t60 61.5q8 0 29 -18t46 -39.5t73.5 -39.5t105.5 -18q65 0 103.5 35t38.5 90q0 65 -59.5 99t-164.5 34q-35 0 -51 22.5t-16 75.5q0 45 12 62.5t45 25.5q39 8 77.5 26t70.5 51.5t32 72.5q0 27 -18 42
t-49 15q-78 0 -154 -72q-4 -4 -12.5 -11.5t-12.5 -11t-10.5 -8t-13 -6t-14.5 -1.5q-25 0 -78 40t-53 64q0 14 13.5 37.5t43.5 52t69.5 53t99 41.5t124.5 17q143 0 222 -63.5t79 -164.5q0 -46 -16.5 -87.5t-39.5 -67.5t-46 -45t-40 -27l-16 -8q8 -2 22 -6.5t49 -24
t61.5 -45.5t48.5 -75t22 -109q0 -141 -97.5 -239.5t-254.5 -98.5z" />
    <glyph glyph-name="fourinferior" unicode="&#x2084;" horiz-adv-x="1013" 
d="M739 0q-51 0 -80 6t-38 14t-9 21v156h-518q-12 0 -21.5 31t-9.5 73q0 86 19 113l455 583q22 31 129 31q52 0 84.5 -6t41.5 -13t9 -14q0 -9 -8 -20l-426 -567h245v167q0 26 19 48l164 223q23 26 45 26q13 0 19 -5t6.5 -10.5t0.5 -20.5v-795q0 -41 -127 -41z" />
    <glyph glyph-name="fiveinferior" unicode="&#x2085;" horiz-adv-x="1017" 
d="M481 -10q-86 0 -162.5 20t-123.5 49t-75 56t-30 45q-6 28 32 93.5t66 65.5q8 0 33.5 -18t56.5 -39t83.5 -39t107.5 -18q77 0 125.5 49.5t48.5 122.5q0 137 -141 137q-41 0 -78 -11t-58 -25t-40.5 -25t-30.5 -11q-30 0 -90 33.5t-60 61.5v467q0 30 31 30h606q66 0 66 -180
q0 -51 -27 -51q-3 0 -40 4.5t-99.5 9t-126.5 4.5h-180v-141q6 4 18.5 10t59 16.5t102.5 10.5q66 0 127.5 -21t112 -61.5t80.5 -106.5t30 -149q0 -175 -115.5 -282t-308.5 -107z" />
    <glyph glyph-name="sixinferior" unicode="&#x2086;" horiz-adv-x="1089" 
d="M567 -8q-213 0 -335.5 120t-122.5 332q0 152 40.5 270.5t111 191.5t161 110t196.5 37q78 0 144.5 -15.5t104 -38t58.5 -44.5t21 -37q0 -25 -43 -79.5t-69 -54.5q-11 0 -30.5 11t-41.5 25t-63 25t-89 11t-90 -21t-68 -51t-45.5 -59.5t-27.5 -50.5l-8 -21l9 9t28.5 21
t47.5 26t67 20.5t87 9.5q171 0 274 -94t103 -256q0 -112 -47 -201t-143.5 -142.5t-229.5 -53.5zM362 367q0 -89 54 -142t147 -53q85 0 131.5 56.5t46.5 148.5q0 91 -42.5 141.5t-129.5 50.5t-147 -56.5t-60 -145.5z" />
    <glyph glyph-name="seveninferior" unicode="&#x2087;" horiz-adv-x="909" 
d="M231 0q-76 0 -104.5 8.5t-28.5 28.5q0 21 72 163t170 304q63 104 113.5 181.5t70.5 103.5l19 26h-170q-64 0 -127.5 -4.5t-102 -9t-41.5 -4.5q-26 0 -26 51q0 180 65 180h652q28 0 28 -31l-2 -143q0 -40 -33 -90q-6 -9 -31.5 -46.5t-44 -65.5t-46.5 -71.5t-58 -92.5
t-59 -101q-66 -114 -111 -213.5t-55 -134.5q-16 -39 -150 -39z" />
    <glyph glyph-name="eightinferior" unicode="&#x2088;" horiz-adv-x="1052" 
d="M520 -8q-194 0 -314 78.5t-120 238.5q0 26 4.5 51t11.5 45t17 38.5t21 32.5t23 26.5t23 21.5t21.5 16.5t17.5 12t13 7.5l6 3q-4 1 -15 8.5t-29.5 25t-34.5 40t-28 57t-12 72.5q0 90 56.5 157t144.5 98.5t194 31.5q162 0 277.5 -77.5t115.5 -209.5q0 -45 -16.5 -85
t-40 -64.5t-39 -36.5t-24.5 -17q5 -2 19 -9.5t39.5 -28.5t47 -48t37.5 -72t16 -96q0 -82 -33.5 -144t-93 -99t-136.5 -55.5t-169 -18.5zM520 172q80 0 124 37t44 98q0 63 -49.5 103.5t-118.5 40.5q-71 0 -120.5 -40t-49.5 -102q0 -63 44 -100t126 -37zM520 616
q57 0 101.5 39.5t44.5 96.5q0 62 -41 95.5t-105 33.5q-65 0 -106 -34.5t-41 -92.5q0 -59 42.5 -98.5t104.5 -39.5z" />
    <glyph glyph-name="nineinferior" unicode="&#x2089;" horiz-adv-x="1089" 
d="M469 -8q-130 0 -215.5 41.5t-91.5 79.5q-7 28 21 88.5t57 60.5q13 0 43 -19t80 -38t110 -19q57 0 102.5 18t70.5 42t42.5 56t22.5 51t8 36q-3 -3 -9.5 -9t-29 -21t-48 -26t-67 -20.5t-86.5 -9.5q-172 0 -275.5 92t-103.5 252q0 178 112.5 292t311.5 114q209 0 331 -118.5
t122 -336.5q0 -152 -40.5 -270t-111 -190.5t-161 -109t-195.5 -36.5zM719 680q0 90 -49.5 142t-141.5 52q-86 0 -135 -57.5t-49 -150.5q0 -91 44 -141t134 -50q89 0 143 57t54 148z" />
    <glyph glyph-name="Euro" unicode="&#x20ac;" horiz-adv-x="1462" 
d="M123 721q-27 0 -43 11.5t-10 33.5l32 131q9 43 41 43h76q52 144 158 248t240.5 154.5t285.5 50.5q84 0 156.5 -14.5t119.5 -35.5t80.5 -46t48.5 -46t15 -34q0 -32 -44 -96t-69 -64q-14 0 -47.5 16.5t-97.5 33.5t-154 17q-112 0 -202 -46t-142 -138h342q29 0 46.5 -19.5
t5.5 -46.5l-52 -116q-10 -24 -21.5 -30.5t-41.5 -6.5h-340v-51v-33h366q31 0 47.5 -17.5t2.5 -50.5l-50 -112q-10 -24 -21.5 -30.5t-41.5 -6.5h-242q108 -176 383 -176q86 0 163 19.5t120 43t78.5 43t46.5 19.5q28 0 28 -33q0 -89 -43 -189q-11 -29 -69 -66.5t-160.5 -69
t-208.5 -31.5q-155 0 -290 45t-244.5 146.5t-157.5 248.5h-90q-26 0 -41.5 12.5t-11.5 34.5l28 123q11 47 45 47h33v31q0 35 2 53h-55z" />
    <glyph glyph-name="trademark" unicode="&#x2122;" horiz-adv-x="1247" 
d="M741 651h-100q-18 0 -29.5 11t-11.5 26v651q0 17 11 28t30 11h90q39 0 53 -28l103 -234l106 234q14 28 54 28h90q19 0 30 -11t11 -28v-651q0 -15 -11.5 -26t-29.5 -11h-101q-19 0 -30 10t-11 27v254l-53 -86q-13 -20 -35 -20h-35q-25 0 -41 26l-49 82v-256q0 -17 -11 -27
t-30 -10zM319 649h-71q-27 0 -43.5 15.5t-16.5 40.5v497h-96q-26 0 -41.5 15t-15.5 40v64q0 26 15.5 41.5t41.5 15.5h397q23 0 39.5 -13.5t16.5 -43.5v-64q0 -25 -15.5 -40t-40.5 -15h-112v-497q0 -25 -16 -40.5t-42 -15.5z" />
    <glyph glyph-name="Omega" unicode="&#x2126;" horiz-adv-x="1320" 
d="M444 0h-338q-71 0 -71 66v127q0 65 71 65h179q-37 38 -72.5 85t-79.5 120.5t-71 168t-27 191.5q0 156 89 288.5t233 207t305 74.5q158 0 297.5 -74.5t224 -206.5t84.5 -289q0 -95 -25.5 -188.5t-67 -167.5t-75.5 -121.5t-70 -87.5h187q71 0 71 -65v-127q0 -66 -71 -66
h-338q-129 0 -129 197q0 34 35 98.5t76.5 131.5t76.5 171.5t35 208.5q0 166 -87.5 258t-223.5 92q-140 0 -236 -93t-96 -257q0 -85 25 -169.5t60.5 -148t71.5 -118t61 -100t25 -74.5q0 -197 -129 -197z" />
    <glyph glyph-name="onethird" unicode="&#x2153;" horiz-adv-x="1957" 
d="M1305 1300l-629 -1259q-12 -24 -45.5 -35.5t-112.5 -11.5q-143 0 -143 49q0 16 8 29l629 1259q13 24 45.5 35.5t111.5 11.5q146 0 146 -51q0 -10 -10 -27zM309 342q-133 0 -133 41v672h-88q-39 0 -39 43q0 8 10 27.5t28.5 48.5t34.5 52.5t39.5 57.5t31.5 45
q19 23 43.5 32t85.5 9q118 0 118 -31v-956q0 -41 -131 -41zM1518 -8q-85 0 -158.5 20.5t-116.5 50.5t-67.5 59t-24.5 50q0 27 36 88.5t60 61.5q8 0 29 -18t46 -39.5t73.5 -39.5t105.5 -18q65 0 103 35t38 90q0 65 -59 99t-164 34q-35 0 -51 22.5t-16 75.5q0 45 12 62.5
t45 25.5q39 8 77.5 26t70.5 51.5t32 72.5q0 27 -18 42t-49 15q-78 0 -154 -72q-4 -4 -12.5 -11.5t-12.5 -11t-10.5 -8t-13 -6t-14.5 -1.5q-25 0 -78 40t-53 64q0 14 13.5 37.5t43.5 52t69.5 53t99 41.5t124.5 17q143 0 222 -63.5t79 -164.5q0 -46 -16.5 -87.5t-39.5 -67.5
t-46 -45t-39 -27l-17 -8q8 -2 22 -6.5t49 -24t61.5 -45.5t48.5 -75t22 -109q0 -141 -97.5 -239.5t-254.5 -98.5z" />
    <glyph glyph-name="twothirds" unicode="&#x2154;" horiz-adv-x="2271" 
d="M86 340q-12 0 -20.5 8t-8.5 23v129q0 35 37 63q173 131 258 218q172 176 172 313q0 42 -24.5 66t-69.5 24q-43 0 -66.5 -23t-52.5 -82q-18 -37 -59 -37q-61 0 -109.5 34t-48.5 67q0 36 23 76t65 78t113.5 62.5t157.5 24.5q165 0 250 -78.5t83 -209.5q0 -67 -28 -136.5
t-72 -126t-92.5 -106t-96 -85.5t-75.5 -55t-37 -24h98q64 0 125 4.5t96.5 9.5t38.5 5q36 0 46 -27t6 -72q-3 -143 -64 -143h-645zM1845 -8q-85 0 -158.5 20.5t-116.5 50.5t-67 59t-24 50q0 27 36 88.5t60 61.5q8 0 29 -18t46 -39.5t73.5 -39.5t105.5 -18q65 0 103 35t38 90
q0 65 -59 99t-164 34q-35 0 -51.5 22.5t-16.5 75.5q0 45 12.5 62.5t45.5 25.5q39 8 77.5 26t70.5 51.5t32 72.5q0 27 -18.5 42t-49.5 15q-77 0 -153 -72q-4 -3 -12.5 -11t-12.5 -11t-11 -8t-13.5 -6.5t-14.5 -1.5q-25 0 -78 40t-53 64q0 14 13.5 37.5t43.5 52t69.5 53
t99 41.5t124.5 17q143 0 222 -63.5t79 -164.5q0 -46 -16 -87.5t-39 -67.5t-46.5 -45t-39.5 -27l-16 -8q8 -2 22 -6.5t49 -24t61.5 -45.5t48.5 -75t22 -109q0 -141 -98 -239.5t-255 -98.5zM1632 1300l-628 -1259q-12 -24 -45.5 -35.5t-112.5 -11.5q-144 0 -144 49q0 14 9 29
l628 1259q13 24 46 35.5t112 11.5q145 0 145 -51q0 -10 -10 -27z" />
    <glyph glyph-name="Delta" unicode="&#x2206;" horiz-adv-x="1187" 
d="M190 0q-56 0 -101.5 41t-45.5 100q0 38 56.5 201t141 378t142 357.5t100.5 245.5q15 42 42 65t77 23q47 0 70 -22t45 -76q52 -107 241 -605t189 -567q0 -52 -25.5 -91.5t-70.5 -49.5h-861zM326 225q-4 -14 16 -14h522q8 4 8 14q-10 57 -115.5 354.5t-162.5 430.5
q-49 -117 -152 -418t-116 -367z" />
    <glyph glyph-name="minus" unicode="&#x2212;" horiz-adv-x="1024" 
d="M133 793h754q43 0 43 -131q0 -134 -43 -134h-754q-43 0 -43 134q0 131 43 131z" />
    <glyph glyph-name="infinity" unicode="&#x221e;" horiz-adv-x="1667" 
d="M1198 279q-209 0 -412 167q-172 -131 -360 -131q-148 0 -247 87.5t-99 222.5t99 223t247 88q187 0 360 -133q195 170 412 170q172 0 280.5 -91t108.5 -257q0 -165 -108 -255.5t-281 -90.5zM422 528q131 0 235 97q-105 98 -235 98q-81 0 -119.5 -29.5t-38.5 -68.5
q0 -38 39 -67.5t119 -29.5zM1200 506q82 0 140.5 29t58.5 90t-58.5 90.5t-140.5 29.5t-156.5 -33.5t-123.5 -86.5q40 -42 112.5 -80.5t167.5 -38.5z" />
    <glyph glyph-name="integral" unicode="&#x222b;" horiz-adv-x="815" 
d="M260 -164q-88 0 -141 38.5t-53 86.5q0 39 41.5 89t74.5 50q22 0 55 -17t50 -17q86 0 86 165q0 91 -20 183.5t-58 220.5q-33 104 -48 157t-31.5 143.5t-16.5 166.5q0 172 93 283.5t255 111.5q89 0 140.5 -38t51.5 -87q0 -39 -40 -89t-74 -50q-19 0 -50 16.5t-49 16.5
q-31 0 -50.5 -27t-25.5 -61t-6 -74q0 -23 2.5 -49t4.5 -46t9 -52.5t10 -47t13.5 -53t13.5 -48.5t16 -55t15 -51q29 -99 44.5 -157.5t30.5 -147t15 -164.5q0 -170 -97 -283.5t-261 -113.5z" />
    <glyph glyph-name="approxequal" unicode="&#x2248;" horiz-adv-x="1329" 
d="M1071 569q26 37 55 37t88 -59q41 -38 41 -70q0 -26 -24.5 -65.5t-65 -78.5t-104 -67t-131.5 -28q-66 0 -138 23.5t-124.5 52t-119.5 52t-124 23.5q-91 0 -156 -94q-22 -39 -57 -39q-23 0 -82 47q-51 48 -51 86q0 25 26.5 64t70 77.5t110.5 66.5t137 28q69 0 167 -38
t186 -76t134 -38q37 0 83.5 24.5t78.5 71.5zM1067 975q26 37 55 37q33 0 80 -51q49 -43 49 -82q0 -24 -24.5 -62.5t-65 -78t-104 -67.5t-131.5 -28q-66 0 -138 23.5t-124.5 52.5t-119.5 52.5t-124 23.5q-34 0 -77 -21t-79 -74q-21 -38 -57 -38q-23 0 -82 47q-51 48 -51 86
q0 25 26.5 63.5t70 77.5t110.5 66.5t137 27.5q69 0 167 -38t186 -75.5t134 -37.5q37 0 83.5 24.5t78.5 71.5z" />
    <glyph glyph-name="notequal" unicode="&#x2260;" horiz-adv-x="1107" 
d="M283 2q-27 0 -69 13.5t-77 39t-35 51.5q0 11 9 29l163 348h-122q-25 0 -41.5 15.5t-16.5 40.5v98q0 26 16 41.5t42 15.5h227l63 129h-290q-25 0 -41.5 15.5t-16.5 40.5v98q0 26 16 41.5t42 15.5h395l256 504q15 31 47 31q49 0 113.5 -33.5t64.5 -73.5q0 -16 -6 -28
l-197 -400h115q24 0 39.5 -14t15.5 -43v-98q0 -26 -14.5 -41t-40.5 -15h-219l-64 -129h283q55 0 55 -57v-98q0 -25 -14.5 -40.5t-40.5 -15.5h-389l-221 -448q-16 -33 -47 -33z" />
    <glyph glyph-name="lessequal" unicode="&#x2264;" horiz-adv-x="1107" 
d="M133 0q-29 0 -47 20t-18 54v59q0 34 18 55t47 21h793q29 0 47 -19.5t18 -56.5v-59q0 -35 -17 -54.5t-48 -19.5h-793zM410 739l464 -262q29 -15 29 -43q0 -30 -34.5 -88.5t-67.5 -58.5q-29 0 -43 14l-602 344q-56 33 -56 103q0 66 56 104l602 358q30 17 45 17q32 0 69 -59
t37 -91q0 -30 -24 -43l-477 -272l-4 -4q-3 -4 -3 -8q0 -11 9 -11z" />
    <glyph glyph-name="greaterequal" unicode="&#x2265;" horiz-adv-x="1112" 
d="M133 -4q-29 0 -47 20t-18 54v59q0 34 18 55t47 21h793q29 0 47 -19.5t18 -56.5v-59q0 -35 -17 -54.5t-48 -19.5h-793zM190 469l443 258q14 5 14 12q0 4 -6 8.5t-8 4.5l-443 264q-24 13 -24 47q0 33 37.5 89t70.5 56q15 0 43 -16l592 -352q56 -40 56 -105q0 -67 -56 -102
l-592 -338q-22 -16 -43 -16q-33 0 -70.5 57t-37.5 86q0 34 24 47z" />
    <glyph glyph-name="lozenge" unicode="&#x25ca;" horiz-adv-x="1085" 
d="M541 -23q-25 0 -46.5 9.5t-38.5 29t-25 31t-19 31.5l-342 508q-40 53 -43 102q0 56 41 117l157 237l131 193q10 14 27.5 39.5t24.5 35.5t20 28t19.5 24.5t17 18t17.5 15.5t17.5 9t20 6.5t21.5 1.5q47 0 76.5 -28.5t89.5 -117.5q15 -23 24 -36l129 -189l158 -237
q42 -67 39 -117q0 -52 -41 -102l-342 -508q-15 -26 -27.5 -43.5t-42 -37.5t-63.5 -20zM268 692q18 -39 122.5 -196t150.5 -213q49 55 153.5 212t120.5 197q-16 41 -121 202.5t-153 213.5q-45 -53 -149.5 -214t-123.5 -202z" />
    <glyph glyph-name="commaaccent" unicode="&#xf6c3;" horiz-adv-x="454" 
d="M109 -684q-23 0 -37.5 10.5t-14.5 30.5t34 70.5t34 93.5q0 18 -10 33t-22 26.5t-22 43t-10 79.5q0 154 172 154q166 0 166 -162q0 -75 -31.5 -147.5t-77 -121.5t-95 -79.5t-86.5 -30.5z" />
    <glyph glyph-name="apple" unicode="&#xf8ff;" horiz-adv-x="1413" 
d="M707 0q-134 0 -258.5 54.5t-215 145.5t-144.5 215.5t-54 258.5t54 258.5t144.5 215.5t215 145.5t258.5 54.5q135 0 259.5 -54.5t215 -145.5t144.5 -215.5t54 -258.5t-54 -258.5t-144.5 -215.5t-215 -145.5t-259.5 -54.5zM819 764q132 -29 240 -29q87 0 144 41t57 105
q0 48 -39 76t-97 28q-60 0 -92.5 -31.5t-32.5 -64.5q0 -13 16.5 -25t16.5 -24q0 -15 -11 -25t-28 -10q-20 0 -33.5 17.5t-13.5 43.5q0 51 52 98.5t130 47.5q75 0 121 -37q-75 128 -186 203q8 -11 8 -31q0 -90 -113.5 -155.5t-269.5 -65.5h-53q-33 -38 -76 -78l55 -23
q40 54 91 54q41 0 74.5 -30t39.5 -85zM844 459q66 -58 106.5 -118t40.5 -130q0 -57 -30 -102q161 74 258 219q-42 -27 -84 -27q-57 0 -95.5 36.5t-38.5 90.5q0 34 14.5 52t33.5 18q36 0 36 -33q0 -17 -20 -37q-16 -16 -16 -25q0 -31 22 -53t57 -22q47 0 77 42.5t30 96.5
q0 70 -46 114t-118 44q-71 0 -130.5 -43.5t-96.5 -122.5zM195 330q103 -149 260 -219q-31 39 -31 100q0 69 39 128t106 120q-36 79 -95 122.5t-132 43.5q-71 0 -115.5 -44t-44.5 -114q0 -53 28.5 -93t74.5 -40q39 0 60.5 20t21.5 49q0 8 -17 25q-20 20 -20 37q0 15 11 24
t26 9q19 0 34 -18t15 -52q0 -54 -38.5 -88.5t-96.5 -34.5q-44 0 -86 25zM512 1231q-59 0 -95 -31.5t-36 -85.5q0 -60 56.5 -102.5t156.5 -55.5q38 46 61 73.5t66.5 71t79 68t82 43.5t90.5 19q-123 63 -266 63q-102 0 -205 -39q69 0 116.5 -32.5t47.5 -92.5q0 -33 -15 -52
t-37 -19q-15 0 -25.5 9.5t-10.5 23.5q0 16 20 33t20 28q0 33 -26 55.5t-80 22.5zM98 778q-10 -69 -10 -104q0 -105 35 -201q3 74 67.5 126t153.5 52q80 0 148.5 -41t113.5 -118l80 71q-94 97 -94 180q0 28 6 43l-72 31q-137 -131 -280 -131q-59 0 -103.5 32t-44.5 60z
M1071 651q88 0 154 -47t67 -129q35 96 35 199q0 84 -29 182q-5 -70 -67 -120t-168 -50q-117 0 -246 29q-12 -71 -90 -152l80 -71q45 78 113.5 118.5t150.5 40.5zM567 72q67 -17 144 -17q71 0 135 15q-43 15 -73 66t-30 128q0 111 48 203l-84 78l-84 -82q49 -85 49 -199
q0 -77 -30.5 -127t-74.5 -65zM657 950h31q82 0 161 32.5t126 79.5t47 91q0 25 -15.5 39t-43.5 14q-44 0 -92.5 -31.5t-79.5 -65.5t-75.5 -89t-58.5 -70zM240 928q103 0 268 -62q23 20 63 66q-117 14 -183 59.5t-66 112.5q0 37 20 67q-158 -116 -215 -288q42 45 113 45z
M244 899q-38 0 -64 -23t-26 -57q0 -35 28 -58.5t68 -23.5q104 0 223 101q-153 61 -229 61zM829 422q-28 -76 -28 -162q0 -77 20.5 -122.5t55.5 -45.5q27 0 42 33t15 78q0 102 -105 219zM586 420q-107 -115 -107 -217q0 -50 17 -80.5t45 -30.5q34 0 52.5 44t18.5 124
q0 84 -26 160zM705 856q-22 0 -41 -28t-19 -83q0 -82 60 -161q61 70 61 147q0 125 -61 125z" />
    <glyph glyph-name="AE.smcp" horiz-adv-x="1525" 
d="M651 1096h697q69 0 69 -201q0 -55 -28 -55q-3 0 -30 4.5t-81 9t-123 4.5h-205q-6 0 -10 -6t-4 -12v-158q0 -8 4 -14t10 -6h310q43 0 43 -119t-43 -119h-310q-14 0 -14 -21v-147q0 -18 14 -18h219q69 0 126 4.5t87 9t33 4.5q29 0 29 -55q0 -201 -70 -201h-686
q-14 0 -22.5 9t-8.5 24v164h-247q-20 0 -31 -23l-70 -141q-18 -33 -159 -33q-67 0 -98.5 13t-31.5 32q1 8 15 39l471 958q15 31 45.5 42.5t99.5 11.5zM483 430q-3 -20 21 -20h153v436z" />
    <glyph glyph-name="Aacute.smcp" 
d="M479 377h201q22 0 22 22l-102 314q-10 24 -20 24q-11 0 -21 -24l-102 -314q0 -22 22 -22zM748 170h-336q-20 0 -29 -23l-45 -114q-13 -33 -150 -33q-145 0 -145 27q0 11 10 41l369 979q10 29 47 40t111 11t110.5 -11t46.5 -40l371 -979q10 -30 10 -41q0 -27 -145 -27
q-139 0 -152 33l-43 114q-9 23 -30 23zM444 1157q-17 0 -50.5 36.5t-33.5 53.5t23 43q35 43 229 256q21 21 41 21q30 0 87 -56.5t57 -89.5q0 -25 -23 -45q-25 -24 -127.5 -95.5t-154.5 -104.5q-28 -19 -48 -19z" />
    <glyph glyph-name="Abreve.smcp" 
d="M479 377h201q22 0 22 22l-102 314q-10 24 -20 24q-11 0 -21 -24l-102 -314q0 -22 22 -22zM748 170h-336q-20 0 -29 -23l-45 -114q-13 -33 -150 -33q-145 0 -145 27q0 11 10 41l369 979q10 29 47 40t111 11t110.5 -11t46.5 -40l371 -979q10 -30 10 -41q0 -27 -145 -27
q-139 0 -152 33l-43 114q-9 23 -30 23zM580 1188q-61 0 -120 30.5t-98 74t-62.5 87t-23.5 72.5q0 33 46 60.5t84 27.5q17 0 28.5 -11.5t28.5 -41.5q44 -74 71 -96q24 -19 48 -19q22 0 46 23t35 40.5t31 51.5q18 30 31 41.5t29 11.5q37 0 83 -27.5t46 -60.5q0 -26 -23.5 -69
t-61.5 -87.5t-97 -76t-121 -31.5z" />
    <glyph glyph-name="Acircumflex.smcp" 
d="M748 170h-336q-20 0 -29 -23l-45 -114q-13 -33 -150 -33q-145 0 -145 27q0 11 10 41l369 979q10 29 47 40t111 11t110.5 -11t46.5 -40l371 -979q10 -30 10 -41q0 -27 -145 -27q-139 0 -152 33l-43 114q-9 23 -30 23zM780 1167q-19 0 -47 21l-153 133q-146 -131 -152 -131
q-25 -21 -47 -21q-20 0 -41 17l-76 74q-22 22 -22 45q0 13 24 41l219 190q24 20 41.5 25.5t53.5 5.5q39 0 56 -5.5t40 -25.5l217 -190q25 -25 25 -43q0 -25 -21 -43l-74 -72q-17 -21 -43 -21zM479 377h201q22 0 22 22l-102 314q-10 24 -20 24q-11 0 -21 -24l-102 -314
q0 -22 22 -22z" />
    <glyph glyph-name="Adieresis.smcp" 
d="M479 377h201q22 0 22 22l-102 314q-10 24 -20 24q-11 0 -21 -24l-102 -314q0 -22 22 -22zM748 170h-336q-20 0 -29 -23l-45 -114q-13 -33 -150 -33q-145 0 -145 27q0 11 10 41l369 979q10 29 47 40t111 11t110.5 -11t46.5 -40l371 -979q10 -30 10 -41q0 -27 -145 -27
q-139 0 -152 33l-43 114q-9 23 -30 23zM387 1182q-78 0 -114.5 39.5t-36.5 121.5q0 162 151 162q77 0 116.5 -41.5t39.5 -120.5q0 -82 -38.5 -121.5t-117.5 -39.5zM768 1182q-78 0 -115 39.5t-37 121.5q0 162 152 162q77 0 116.5 -41.5t39.5 -120.5q0 -82 -38.5 -121.5
t-117.5 -39.5z" />
    <glyph glyph-name="Agrave.smcp" 
d="M479 377h201q22 0 22 22l-102 314q-10 24 -20 24q-11 0 -21 -24l-102 -314q0 -22 22 -22zM748 170h-336q-20 0 -29 -23l-45 -114q-13 -33 -150 -33q-145 0 -145 27q0 11 10 41l369 979q10 29 47 40t111 11t110.5 -11t46.5 -40l371 -979q10 -30 10 -41q0 -27 -145 -27
q-139 0 -152 33l-43 114q-9 23 -30 23zM707 1182q-18 0 -50 20q-56 35 -148 98.5t-116 85.5q-24 21 -24 44q0 29 56.5 86t84.5 57q20 0 43 -23q154 -169 213 -239q25 -29 25 -45q0 -15 -33.5 -49.5t-50.5 -34.5z" />
    <glyph glyph-name="Amacron.smcp" 
d="M479 377h201q22 0 22 22l-102 314q-10 24 -20 24q-11 0 -21 -24l-102 -314q0 -22 22 -22zM748 170h-336q-20 0 -29 -23l-45 -114q-13 -33 -150 -33q-145 0 -145 27q0 11 10 41l369 979q10 29 47 40t111 11t110.5 -11t46.5 -40l371 -979q10 -30 10 -41q0 -27 -145 -27
q-139 0 -152 33l-43 114q-9 23 -30 23zM233 1401h693q43 0 43 -111q0 -108 -43 -108h-693q-43 0 -43 108q0 111 43 111z" />
    <glyph glyph-name="Aogonek.smcp" 
d="M1038 -393q-101 0 -168 53.5t-67 153.5t96 188q-70 6 -78 31l-43 114q-9 23 -30 23h-336q-20 0 -29 -23l-45 -114q-13 -33 -150 -33q-145 0 -145 27q0 11 10 41l369 979q10 29 47 40t111 11t110.5 -11t46.5 -40l371 -979q10 -30 10 -41v-4l-2 -3q-2 -3 -4 -4
q-2 -3 -5.5 -6t-9.5 -8.5t-12 -11.5q-86 -92 -86 -160q0 -51 43 -51q17 0 37 11t35 11q29 0 53.5 -38.5t24.5 -73.5t-47.5 -58.5t-106.5 -23.5zM479 377h201q22 0 22 22l-102 314q-10 24 -20 24q-11 0 -21 -24l-102 -314q0 -22 22 -22z" />
    <glyph glyph-name="Aring.smcp" 
d="M479 377h201q22 0 22 22l-102 314q-10 24 -20 24q-11 0 -21 -24l-102 -314q0 -22 22 -22zM748 170h-336q-20 0 -29 -23l-45 -114q-13 -33 -150 -33q-145 0 -145 27q0 11 10 41l369 979q10 29 47 40t111 11t110.5 -11t46.5 -40l371 -979q10 -30 10 -41q0 -27 -145 -27
q-139 0 -152 33l-43 114q-9 23 -30 23zM578 1188q-94 0 -160 62.5t-66 150.5q0 89 66.5 152t159.5 63t160 -63t67 -152q0 -87 -67 -150t-160 -63zM578 1489q-34 0 -57 -25.5t-23 -62.5q0 -35 23 -60.5t57 -25.5q33 0 55 25t22 61q0 37 -22.5 62.5t-54.5 25.5z" />
    <glyph glyph-name="Atilde.smcp" 
d="M479 377h201q22 0 22 22l-102 314q-10 24 -20 24q-11 0 -21 -24l-102 -314q0 -22 22 -22zM748 170h-336q-20 0 -29 -23l-45 -114q-13 -33 -150 -33q-145 0 -145 27q0 11 10 41l369 979q10 29 47 40t111 11t110.5 -11t46.5 -40l371 -979q10 -30 10 -41q0 -27 -145 -27
q-139 0 -152 33l-43 114q-9 23 -30 23zM342 1188q-18 -12 -33 -12q-21 0 -64.5 54t-43.5 70q0 22 22 50q37 43 95 72.5t122 29.5q48 0 104.5 -22.5t104 -45t72.5 -22.5q37 0 94 63q15 15 25 15q21 0 68.5 -53.5t47.5 -73.5q0 -40 -65.5 -94t-151.5 -54q-51 0 -107 22.5
t-105 45t-83 22.5q-9 0 -18 -3.5t-20.5 -11.5t-19 -13.5t-22.5 -19t-22 -19.5z" />
    <glyph glyph-name="B.smcp" horiz-adv-x="1105" 
d="M821 582q4 -1 11.5 -3t29.5 -11t41.5 -20t44 -31.5t41.5 -44.5t29 -59.5t12 -76.5q0 -174 -126 -264t-347 -90q-170 0 -283.5 26.5t-113.5 63.5v948q0 37 111 63.5t270 26.5q121 0 219 -30.5t159.5 -95t61.5 -153.5q0 -48 -16.5 -91.5t-40 -71t-47 -48t-39.5 -29.5z
M440 414v-176q0 -29 23.5 -45.5t93.5 -16.5q97 0 146 38.5t49 125.5q0 66 -45.5 94.5t-114.5 28.5h-90q-62 0 -62 -49zM440 713q0 -49 62 -49h55q78 0 111.5 33t33.5 106q0 69 -40.5 96t-120.5 27q-101 0 -101 -56v-157z" />
    <glyph glyph-name="C.smcp" horiz-adv-x="1148" 
d="M674 -18q-94 0 -179.5 20t-161 63.5t-130.5 107t-87 156.5t-32 206q0 137 48 248.5t130.5 182t188 108.5t223.5 38q69 0 128 -11.5t97 -28.5t65.5 -37t39.5 -36.5t12 -27.5q0 -26 -37.5 -85t-58.5 -59q-11 0 -39 13.5t-80 27t-121 13.5q-137 0 -220 -86t-83 -263
q0 -163 91.5 -244t244.5 -81q68 0 129 16t94.5 35t61 35t36.5 16q27 0 27 -28q0 -29 -9 -77t-26 -87q-15 -40 -118.5 -87.5t-233.5 -47.5z" />
    <glyph glyph-name="A.smcp" 
d="M479 377h201q22 0 22 22l-102 314q-10 24 -20 24q-11 0 -21 -24l-102 -314q0 -22 22 -22zM748 170h-336q-20 0 -29 -23l-45 -114q-13 -33 -150 -33q-145 0 -145 27q0 11 10 41l369 979q10 29 47 40t111 11t110.5 -11t46.5 -40l371 -979q10 -30 10 -41q0 -27 -145 -27
q-139 0 -152 33l-43 114q-9 23 -30 23z" />
    <glyph glyph-name="Cacute.smcp" horiz-adv-x="1148" 
d="M674 -18q-94 0 -179.5 20t-161 63.5t-130.5 107t-87 156.5t-32 206q0 137 48 248.5t130.5 182t188 108.5t223.5 38q69 0 128 -11.5t97 -28.5t65.5 -37t39.5 -36.5t12 -27.5q0 -26 -37.5 -85t-58.5 -59q-11 0 -39 13.5t-80 27t-121 13.5q-137 0 -220 -86t-83 -263
q0 -163 91.5 -244t244.5 -81q68 0 129 16t94.5 35t61 35t36.5 16q27 0 27 -28q0 -29 -9 -77t-26 -87q-15 -40 -118.5 -87.5t-233.5 -47.5zM547 1190q-17 0 -50.5 36.5t-33.5 53.5q0 18 22 43q26 33 230 256q20 20 41 20q30 0 86.5 -56t56.5 -89q0 -26 -22 -45
q-25 -24 -128 -96t-155 -105q-27 -18 -47 -18z" />
    <glyph glyph-name="Ccaron.smcp" horiz-adv-x="1148" 
d="M674 -18q-94 0 -179.5 20t-161 63.5t-130.5 107t-87 156.5t-32 206q0 137 48 248.5t130.5 182t188 108.5t223.5 38q69 0 128 -11.5t97 -28.5t65.5 -37t39.5 -36.5t12 -27.5q0 -26 -37.5 -85t-58.5 -59q-11 0 -39 13.5t-80 27t-121 13.5q-137 0 -220 -86t-83 -263
q0 -163 91.5 -244t244.5 -81q68 0 129 16t94.5 35t61 35t36.5 16q27 0 27 -28q0 -29 -9 -77t-26 -87q-15 -40 -118.5 -87.5t-233.5 -47.5zM651 1196q-20 0 -38 6.5t-29 15t-27 23.5l-201 201q-24 27 -24 43q0 20 18 35l72 65q21 17 41 17q28 0 45 -17l141 -143l148 143
q21 17 45 17q20 0 43 -19l69 -61q17 -17 17 -37q0 -16 -23 -43l-200 -201q-19 -16 -29 -23.5t-28.5 -14.5t-39.5 -7z" />
    <glyph glyph-name="Ccedilla.smcp" horiz-adv-x="1148" 
d="M631 -506q-48 0 -96 13.5t-74.5 29t-26.5 25.5q0 17 24.5 53.5t33.5 36.5q4 0 36 -15.5t64 -15.5q47 0 72.5 26.5t25.5 65.5q0 26 -18.5 48t-41 35t-41 27t-18.5 25v134v6q-103 13 -189 52t-154 104.5t-106 165.5t-38 225q0 137 48 248.5t130.5 182t188 108.5t223.5 38
q69 0 128 -11.5t97 -28.5t65.5 -37t39.5 -36.5t12 -27.5q0 -26 -37.5 -85t-58.5 -59q-11 0 -39 13.5t-80 27t-121 13.5q-137 0 -220 -86t-83 -263q0 -163 91.5 -244t244.5 -81q68 0 129 16t94.5 35t61 35t36.5 16q27 0 27 -28q0 -29 -9 -77t-26 -87q-12 -34 -93 -76.5
t-188 -54.5v-4v-99q140 -59 140 -174q0 -93 -80.5 -154t-173.5 -61z" />
    <glyph glyph-name="D.smcp" horiz-adv-x="1230" 
d="M1147 569q0 -123 -34 -222.5t-92.5 -166.5t-139 -112.5t-170.5 -65.5t-191 -20q-144 0 -252 27t-108 63v948q0 36 108 63t252 27q96 0 179 -13t168 -49.5t145 -95t97.5 -156.5t37.5 -227zM862 567q0 85 -17.5 147t-45 98t-70.5 57t-84 27.5t-94 6.5q-115 0 -115 -55v-596
q0 -62 115 -62q48 0 90.5 10.5t83.5 37t71 68t48 108.5t18 153z" />
    <glyph glyph-name="Dcaron.smcp" horiz-adv-x="1230" 
d="M1147 569q0 -123 -34 -222.5t-92.5 -166.5t-139 -112.5t-170.5 -65.5t-191 -20q-144 0 -252 27t-108 63v948q0 36 108 63t252 27q96 0 179 -13t168 -49.5t145 -95t97.5 -156.5t37.5 -227zM862 567q0 85 -17.5 147t-45 98t-70.5 57t-84 27.5t-94 6.5q-115 0 -115 -55v-596
q0 -62 115 -62q48 0 90.5 10.5t83.5 37t71 68t48 108.5t18 153zM578 1206q-29 0 -50 11t-45 34l-200 201q-25 29 -25 43q0 20 18 35l72 65q21 17 41 17q28 0 45 -17l141 -143l148 143q21 17 45 17q20 0 43 -19l70 -61q16 -16 16 -37q0 -16 -23 -43l-200 -201
q-19 -17 -28.5 -24t-28 -14t-39.5 -7z" />
    <glyph glyph-name="E.smcp" horiz-adv-x="1017" 
d="M205 0q-45 0 -45 45v1008q0 45 45 45h610q35 0 56.5 -33t28.5 -83.5t7 -125.5q0 -27 -24 -27q-6 0 -25.5 6t-47 12.5t-92 12.5t-149.5 6h-112q-25 0 -25 -24v-156q0 -24 25 -24h282q19 0 32 -28.5t13 -88.5q0 -61 -13 -90t-32 -29h-282q-25 0 -25 -25v-145q0 -25 25 -25
h147q85 0 149 6t91.5 12.5t47 12.5t26.5 6q24 0 24 -26q0 -56 -4 -97t-14 -75.5t-28.5 -52t-45.5 -17.5h-645z" />
    <glyph glyph-name="Eacute.smcp" horiz-adv-x="1017" 
d="M205 0q-45 0 -45 45v1008q0 45 45 45h610q35 0 56.5 -33t28.5 -83.5t7 -125.5q0 -27 -24 -27q-6 0 -25.5 6t-47 12.5t-92 12.5t-149.5 6h-112q-25 0 -25 -24v-156q0 -24 25 -24h282q19 0 32 -28.5t13 -88.5q0 -61 -13 -90t-32 -29h-282q-25 0 -25 -25v-145q0 -25 25 -25
h147q85 0 149 6t91.5 12.5t47 12.5t26.5 6q24 0 24 -26q0 -56 -4 -97t-14 -75.5t-28.5 -52t-45.5 -17.5h-645zM438 1174q-17 0 -50.5 36.5t-33.5 53.5t23 43q35 43 229 256q20 20 41 20q30 0 87 -56t57 -89q0 -25 -23 -45q-25 -24 -128 -96t-155 -105q-27 -18 -47 -18z" />
    <glyph glyph-name="Ebreve.smcp" horiz-adv-x="1017" 
d="M205 0q-45 0 -45 45v1008q0 45 45 45h610q35 0 56.5 -33t28.5 -83.5t7 -125.5q0 -27 -24 -27q-6 0 -25.5 6t-47 12.5t-92 12.5t-149.5 6h-112q-25 0 -25 -24v-156q0 -24 25 -24h282q19 0 32 -28.5t13 -88.5q0 -61 -13 -90t-32 -29h-282q-25 0 -25 -25v-145q0 -25 25 -25
h147q85 0 149 6t91.5 12.5t47 12.5t26.5 6q24 0 24 -26q0 -56 -4 -97t-14 -75.5t-28.5 -52t-45.5 -17.5h-645zM541 1188q-61 0 -120 30.5t-97.5 74t-62 87t-23.5 72.5q0 33 45.5 60.5t83.5 27.5q17 0 28.5 -11.5t28.5 -41.5q44 -74 71 -96q24 -19 48 -19q22 0 46 23t35 40.5
t31 51.5q18 30 31 41.5t29 11.5q37 0 83 -27.5t46 -60.5q0 -26 -23.5 -69t-61.5 -87.5t-97 -76t-121 -31.5z" />
    <glyph glyph-name="Ecircumflex.smcp" horiz-adv-x="1017" 
d="M205 0q-45 0 -45 45v1008q0 45 45 45h610q35 0 56.5 -33t28.5 -83.5t7 -125.5q0 -27 -24 -27q-6 0 -25.5 6t-47 12.5t-92 12.5t-149.5 6h-112q-25 0 -25 -24v-156q0 -24 25 -24h282q19 0 32 -28.5t13 -88.5q0 -61 -13 -90t-32 -29h-282q-25 0 -25 -25v-145q0 -25 25 -25
h147q85 0 149 6t91.5 12.5t47 12.5t26.5 6q24 0 24 -26q0 -56 -4 -97t-14 -75.5t-28.5 -52t-45.5 -17.5h-645zM707 1167q-20 0 -48 21l-153 133q-146 -131 -152 -131q-25 -21 -47 -21q-20 0 -41 17l-76 74q-22 22 -22 45q0 12 25 41l219 190q24 20 41 25.5t53 5.5
q39 0 56 -5.5t40 -25.5l217 -190q25 -25 25 -43q0 -25 -21 -43l-73 -72q-18 -21 -43 -21z" />
    <glyph glyph-name="Edieresis.smcp" horiz-adv-x="1017" 
d="M205 0q-45 0 -45 45v1008q0 45 45 45h610q35 0 56.5 -33t28.5 -83.5t7 -125.5q0 -27 -24 -27q-6 0 -25.5 6t-47 12.5t-92 12.5t-149.5 6h-112q-25 0 -25 -24v-156q0 -24 25 -24h282q19 0 32 -28.5t13 -88.5q0 -61 -13 -90t-32 -29h-282q-25 0 -25 -25v-145q0 -25 25 -25
h147q85 0 149 6t91.5 12.5t47 12.5t26.5 6q24 0 24 -26q0 -56 -4 -97t-14 -75.5t-28.5 -52t-45.5 -17.5h-645zM315 1188q-78 0 -114.5 40t-36.5 122q0 161 151 161q156 0 156 -161q0 -162 -156 -162zM696 1188q-78 0 -114.5 40t-36.5 122q0 161 151 161q156 0 156 -161
q0 -162 -156 -162z" />
    <glyph glyph-name="Egrave.smcp" horiz-adv-x="1017" 
d="M205 0q-45 0 -45 45v1008q0 45 45 45h610q35 0 56.5 -33t28.5 -83.5t7 -125.5q0 -27 -24 -27q-6 0 -25.5 6t-47 12.5t-92 12.5t-149.5 6h-112q-25 0 -25 -24v-156q0 -24 25 -24h282q19 0 32 -28.5t13 -88.5q0 -61 -13 -90t-32 -29h-282q-25 0 -25 -25v-145q0 -25 25 -25
h147q85 0 149 6t91.5 12.5t47 12.5t26.5 6q24 0 24 -26q0 -56 -4 -97t-14 -75.5t-28.5 -52t-45.5 -17.5h-645zM635 1169q-15 0 -49 21q-56 35 -148 98.5t-116 85.5q-25 21 -25 43q0 29 56.5 86.5t84.5 57.5q20 0 43 -23q143 -157 213 -240q25 -29 25 -45q0 -15 -33.5 -49.5
t-50.5 -34.5z" />
    <glyph glyph-name="Emacron.smcp" horiz-adv-x="1017" 
d="M205 0q-45 0 -45 45v1008q0 45 45 45h610q35 0 56.5 -33t28.5 -83.5t7 -125.5q0 -27 -24 -27q-6 0 -25.5 6t-47 12.5t-92 12.5t-149.5 6h-112q-25 0 -25 -24v-156q0 -24 25 -24h282q19 0 32 -28.5t13 -88.5q0 -61 -13 -90t-32 -29h-282q-25 0 -25 -25v-145q0 -25 25 -25
h147q85 0 149 6t91.5 12.5t47 12.5t26.5 6q24 0 24 -26q0 -56 -4 -97t-14 -75.5t-28.5 -52t-45.5 -17.5h-645zM209 1423h647q41 0 41 -112q0 -111 -41 -111h-647q-39 0 -39 111q0 112 39 112z" />
    <glyph glyph-name="Eogonek.smcp" horiz-adv-x="1017" 
d="M205 0q-45 0 -45 45v1008q0 45 45 45h610q35 0 56.5 -33t28.5 -83.5t7 -125.5q0 -27 -24 -27q-6 0 -25.5 6t-47 12.5t-92 12.5t-149.5 6h-112q-25 0 -25 -24v-156q0 -24 25 -24h282q19 0 32 -28.5t13 -88.5q0 -61 -13 -90t-32 -29h-282q-25 0 -25 -25v-145q0 -25 25 -25
h147q85 0 149 6t91.5 12.5t47 12.5t26.5 6q24 0 24 -26q0 -56 -4 -97t-14 -75.5t-28.5 -52t-45.5 -17.5h-223q-2 -3 -12 -12t-19 -19q-86 -92 -86 -159q0 -52 43 -52q17 0 37 11.5t35 11.5q29 0 53 -39t24 -74t-47 -58.5t-106 -23.5q-101 0 -168.5 53.5t-67.5 153.5
q0 111 117 207h-225z" />
    <glyph glyph-name="Eth.smcp" horiz-adv-x="1228" 
d="M1147 569q0 -123 -34 -222.5t-92.5 -166.5t-139 -112.5t-170.5 -65.5t-191 -20q-144 0 -252 27t-108 63v354h-68q-43 0 -43 109q0 110 43 110h68v375q0 36 108 63t252 27q96 0 179 -13t168 -49.5t145 -95t97.5 -156.5t37.5 -227zM862 567q0 85 -17.5 147t-45 98t-70.5 57
t-84 27.5t-94 6.5q-115 0 -115 -55v-203h164q43 0 43 -110q0 -109 -43 -109h-164v-174q0 -62 115 -62q48 0 90.5 10.5t83.5 37t71 68t48 108.5t18 153z" />
    <glyph glyph-name="F.smcp" horiz-adv-x="974" 
d="M297 0q-137 0 -137 45v1008q0 45 45 45h614q94 0 94 -242q0 -12 -6.5 -19.5t-17.5 -7.5q-7 0 -26.5 6t-47 12.5t-92 12.5t-150.5 6h-139v-209q0 -24 25 -24h280q45 0 45 -115q0 -117 -45 -117h-280q-25 0 -25 -24v-332q0 -45 -137 -45z" />
    <glyph glyph-name="G.smcp" horiz-adv-x="1179" 
d="M645 -18q-116 0 -214.5 32t-177.5 96.5t-124 173t-45 251.5q0 110 31 204t86 162t129.5 116t162 71.5t183.5 23.5q68 0 127.5 -11.5t98.5 -29t67 -38t40.5 -37t12.5 -27.5q0 -27 -36.5 -86.5t-57.5 -59.5q-12 0 -40.5 14.5t-82 29t-125.5 14.5q-141 0 -223 -85t-82 -266
q0 -90 24 -156t66.5 -102.5t91.5 -53.5t107 -17q72 0 108.5 28t36.5 60v217q0 21 87.5 48.5t133.5 27.5q39 0 39 -39v-336q0 -14 -15 -39.5t-49.5 -58t-81.5 -60.5t-120.5 -47.5t-157.5 -19.5z" />
    <glyph glyph-name="H.smcp" horiz-adv-x="1259" 
d="M291 0q-137 0 -137 45v1008q0 45 137 45t137 -45v-385q0 -25 25 -25h354q24 0 24 25v385q0 45 138 45q137 0 137 -45v-1008q0 -45 -137 -45q-138 0 -138 45v340q0 25 -24 25h-354q-25 0 -25 -25v-340q0 -45 -137 -45z" />
    <glyph glyph-name="I.smcp" horiz-adv-x="593" 
d="M297 0q-137 0 -137 45v1008q0 45 137 45t137 -45v-1008q0 -45 -137 -45z" />
    <glyph glyph-name="Iacute.smcp" horiz-adv-x="593" 
d="M297 0q-137 0 -137 45v1008q0 45 137 45t137 -45v-1008q0 -45 -137 -45zM162 1174q-17 0 -50.5 36.5t-33.5 53.5q0 18 22 43q26 33 230 256q20 20 41 20q30 0 86.5 -56t56.5 -89q0 -26 -22 -45q-25 -24 -128 -96t-155 -105q-27 -18 -47 -18z" />
    <glyph glyph-name="Ibreve.smcp" horiz-adv-x="593" 
d="M297 0q-137 0 -137 45v1008q0 45 137 45t137 -45v-1008q0 -45 -137 -45zM297 1192q-61 0 -120 30.5t-97.5 74t-62 87t-23.5 72.5q0 33 45.5 60.5t83.5 27.5q17 0 28.5 -11.5t28.5 -41.5q44 -74 71 -96q24 -19 48 -19q22 0 46 22.5t36 41t31 51.5q19 30 31 41.5t28 11.5
q37 0 83 -27.5t46 -60.5q0 -26 -23.5 -69t-61.5 -87.5t-97 -76t-121 -31.5z" />
    <glyph glyph-name="Icircumflex.smcp" horiz-adv-x="593" 
d="M297 0q-137 0 -137 45v1008q0 45 137 45t137 -45v-1008q0 -45 -137 -45zM498 1145q-20 0 -47 20l-154 133q-146 -131 -152 -131q-24 -20 -47 -20q-21 0 -41 16l-75 74q-23 23 -23 45q0 12 25 41l219 190q24 20 41 25.5t53 5.5q39 0 56 -5.5t40 -25.5l217 -190
q25 -25 25 -43q0 -25 -21 -43l-73 -72q-17 -20 -43 -20z" />
    <glyph glyph-name="Idieresis.smcp" horiz-adv-x="593" 
d="M297 0q-137 0 -137 45v1008q0 45 137 45t137 -45v-1008q0 -45 -137 -45zM104 1167q-78 0 -114.5 40t-36.5 122q0 162 151 162q77 0 116.5 -41.5t39.5 -120.5q0 -162 -156 -162zM485 1167q-78 0 -114.5 40t-36.5 122q0 162 151 162q77 0 116.5 -41.5t39.5 -120.5
q0 -162 -156 -162z" />
    <glyph glyph-name="Igrave.smcp" horiz-adv-x="593" 
d="M297 0q-137 0 -137 45v1008q0 45 137 45t137 -45v-1008q0 -45 -137 -45zM424 1171q-15 0 -49 21q-56 35 -148 98.5t-116 85.5q-25 21 -25 43q0 29 56.5 86.5t84.5 57.5q20 0 43 -23q143 -157 213 -240q25 -29 25 -45q0 -15 -33.5 -49.5t-50.5 -34.5z" />
    <glyph glyph-name="Imacron.smcp" horiz-adv-x="593" 
d="M297 0q-137 0 -137 45v1008q0 45 137 45t137 -45v-1008q0 -45 -137 -45zM-49 1395h692q43 0 43 -111q0 -108 -43 -108h-692q-43 0 -43 108q0 111 43 111z" />
    <glyph glyph-name="J.smcp" horiz-adv-x="886" 
d="M387 -25q-61 0 -118 16.5t-97 40.5t-70.5 51t-45.5 48.5t-15 32.5q0 25 51 84t74 59q15 0 35 -20q90 -72 164 -72q88 0 88 98v742q0 21 29 32t108 11q137 0 137 -43v-768q0 -137 -90 -224.5t-250 -87.5z" />
    <glyph glyph-name="K.smcp" horiz-adv-x="1161" 
d="M299 0q-139 0 -139 45v1008q0 45 139 45q137 0 137 -45v-408q0 -20 19 -14q64 26 116 77t83.5 113t49.5 123.5t23 120.5q2 14 41 23.5t106 9.5q127 0 127 -33q0 -50 -21.5 -122.5t-59 -151t-98.5 -153t-132 -118.5q49 -22 95 -69.5t79.5 -98.5t66 -99.5t69.5 -81.5
t75 -36h17q26 0 26 -24q0 -43 -80.5 -84t-165.5 -41q-62 0 -94 19t-61 63q-29 41 -71.5 107.5t-66.5 102t-52 67.5t-48 38q-14 5 -28.5 -3t-14.5 -20v-315q0 -45 -137 -45z" />
    <glyph glyph-name="L.smcp" horiz-adv-x="942" 
d="M190 0q-14 0 -22 9t-8 24v1020q0 45 137 45t137 -45v-795q0 -25 25 -25h100q86 0 150.5 6t91.5 12.5t46.5 12.5t26.5 6q10 0 17.5 -7.5t7.5 -18.5q0 -244 -94 -244h-615z" />
    <glyph glyph-name="Lacute.smcp" horiz-adv-x="942" 
d="M190 0q-14 0 -22 9t-8 24v1020q0 45 137 45t137 -45v-795q0 -25 25 -25h100q86 0 150.5 6t91.5 12.5t46.5 12.5t26.5 6q10 0 17.5 -7.5t7.5 -18.5q0 -244 -94 -244h-615zM209 1206q-17 0 -50.5 36.5t-33.5 53.5q0 18 22 43q26 33 230 256q21 21 41 21q30 0 86.5 -56.5
t56.5 -89.5q0 -26 -22 -45q-25 -24 -127.5 -95.5t-155.5 -104.5q-28 -19 -47 -19z" />
    <glyph glyph-name="Lcaron.smcp" horiz-adv-x="942" 
d="M190 0q-14 0 -22 9t-8 24v1020q0 45 137 45t137 -45v-795q0 -25 25 -25h100q86 0 150.5 6t91.5 12.5t46.5 12.5t26.5 6q10 0 17.5 -7.5t7.5 -18.5q0 -244 -94 -244h-615zM586 506q-23 0 -37 10.5t-14 30.5t33.5 70.5t33.5 93.5q0 18 -10 33t-21.5 26.5t-21.5 43t-10 79.5
q0 154 172 154q166 0 166 -162q0 -75 -31.5 -147.5t-77.5 -121.5t-95.5 -79.5t-86.5 -30.5z" />
    <glyph glyph-name="Lslash.smcp" horiz-adv-x="950" 
d="M190 0q-14 0 -22 9t-8 24v299l-78 -35q-11 -5 -23 0.5t-30.5 30t-38.5 69.5q-57 118 -17 138l187 86v432q0 45 137 45t137 -45v-305l148 69q11 4 23 -1.5t30.5 -30.5t38.5 -70q54 -116 16 -135l-256 -119v-203q0 -25 25 -25h100q86 0 150.5 6t91.5 12.5t46.5 12.5t26.5 6
q10 0 17.5 -7.5t7.5 -18.5q0 -244 -94 -244h-615z" />
    <glyph glyph-name="M.smcp" horiz-adv-x="1517" 
d="M285 0q-55 0 -83 5t-35 12.5t-7 21.5v1024q8 35 135 35q117 0 129 -33l334 -727l336 727q16 33 127 33q66 0 101.5 -9.5t35.5 -23.5v-1026q0 -13 -7.5 -20.5t-36 -13t-81.5 -5.5t-81.5 5.5t-36 13t-7.5 20.5v547l-244 -529q-9 -18 -27.5 -23t-76.5 -5q-59 0 -79.5 5
t-27.5 23l-245 529v-547q0 -13 -7.5 -20.5t-35.5 -13t-80 -5.5z" />
    <glyph glyph-name="N.smcp" horiz-adv-x="1277" 
d="M291 0q-54 0 -84 5.5t-38.5 13t-8.5 20.5v1026q0 14 26.5 23.5t75.5 9.5q105 0 119 -19l477 -628v612q0 13 8.5 20.5t38 13t82.5 5.5q54 0 84 -5.5t38.5 -13t8.5 -20.5v-1030q0 -14 -26.5 -23.5t-75.5 -9.5q-108 0 -119 20l-477 609v-590q0 -13 -8.5 -20.5t-38 -13
t-82.5 -5.5z" />
    <glyph glyph-name="Nacute.smcp" horiz-adv-x="1277" 
d="M291 0q-54 0 -84 5.5t-38.5 13t-8.5 20.5v1026q0 14 26.5 23.5t75.5 9.5q105 0 119 -19l477 -628v612q0 13 8.5 20.5t38 13t82.5 5.5q54 0 84 -5.5t38.5 -13t8.5 -20.5v-1030q0 -14 -26.5 -23.5t-75.5 -9.5q-108 0 -119 20l-477 609v-590q0 -13 -8.5 -20.5t-38 -13
t-82.5 -5.5zM590 1145q-17 0 -50.5 36.5t-33.5 53.5q0 18 22 43q26 33 230 256q20 20 41 20q30 0 86.5 -56t56.5 -89q0 -26 -22 -45q-25 -24 -128 -96t-155 -105q-27 -18 -47 -18z" />
    <glyph glyph-name="Ncaron.smcp" horiz-adv-x="1277" 
d="M291 0q-54 0 -84 5.5t-38.5 13t-8.5 20.5v1026q0 14 26.5 23.5t75.5 9.5q105 0 119 -19l477 -628v612q0 13 8.5 20.5t38 13t82.5 5.5q54 0 84 -5.5t38.5 -13t8.5 -20.5v-1030q0 -14 -26.5 -23.5t-75.5 -9.5q-108 0 -119 20l-477 609v-590q0 -13 -8.5 -20.5t-38 -13
t-82.5 -5.5zM639 1163q-20 0 -38 6.5t-29 15t-27 23.5l-201 201q-25 29 -25 43q0 19 19 35l72 65q21 17 41 17q28 0 45 -17l141 -143l147 143q21 17 45 17q20 0 43 -19l70 -61q16 -16 16 -37q0 -17 -22 -43l-201 -201q-19 -17 -28.5 -24t-28 -14t-39.5 -7z" />
    <glyph glyph-name="Ntilde.smcp" horiz-adv-x="1277" 
d="M291 0q-54 0 -84 5.5t-38.5 13t-8.5 20.5v1026q0 14 26.5 23.5t75.5 9.5q105 0 119 -19l477 -628v612q0 13 8.5 20.5t38 13t82.5 5.5q54 0 84 -5.5t38.5 -13t8.5 -20.5v-1030q0 -14 -26.5 -23.5t-75.5 -9.5q-108 0 -119 20l-477 609v-590q0 -13 -8.5 -20.5t-38 -13
t-82.5 -5.5zM401 1198q-18 -12 -32 -12q-21 0 -65 54.5t-44 70.5q0 20 23 49q37 43 95 72.5t122 29.5q48 0 104.5 -22.5t103.5 -45t72 -22.5q36 0 94 64q14 14 25 14q21 0 69 -53.5t48 -73.5q0 -40 -65.5 -93.5t-151.5 -53.5q-51 0 -107 22.5t-105 45t-83 22.5
q-9 0 -18.5 -3.5t-21 -11.5t-19 -14t-22.5 -19.5t-22 -19.5z" />
    <glyph glyph-name="O.smcp" horiz-adv-x="1251" 
d="M627 -18q-257 0 -403 145t-146 424q0 138 43 247t119 176.5t174 102.5t213 35q114 0 212 -35t173.5 -102.5t118.5 -176.5t43 -247q0 -186 -71.5 -316t-193 -191.5t-282.5 -61.5zM627 190q110 0 178.5 85.5t68.5 271.5q0 183 -69 268.5t-178 85.5q-54 0 -98 -19t-79.5 -59
t-55 -110.5t-19.5 -165.5q0 -357 252 -357z" />
    <glyph glyph-name="OE.smcp" horiz-adv-x="1716" 
d="M938 0q-42 0 -45 37q-116 -55 -266 -55q-257 0 -403 145t-146 424q0 138 43 247t119 176.5t174 102.5t213 35q143 0 266 -57q0 43 45 43h610q35 0 56.5 -33t28.5 -83.5t7 -125.5q0 -27 -24 -27q-6 0 -25.5 6t-47 12.5t-91.5 12.5t-149 6h-113q-25 0 -25 -24v-156
q0 -24 25 -24h283q19 0 32 -28.5t13 -88.5q0 -61 -13 -90t-32 -29h-283q-25 0 -25 -25v-145q0 -25 25 -25h147q85 0 149 6t91.5 12.5t47 12.5t26.5 6q24 0 24 -26q0 -56 -4 -97t-14 -75.5t-28.5 -52t-45.5 -17.5h-645zM627 190q110 0 178.5 85.5t68.5 271.5q0 183 -69 268.5
t-178 85.5q-54 0 -98 -19t-79.5 -59t-55 -110.5t-19.5 -165.5q0 -357 252 -357z" />
    <glyph glyph-name="Oacute.smcp" horiz-adv-x="1251" 
d="M627 -18q-257 0 -403 145t-146 424q0 138 43 247t119 176.5t174 102.5t213 35q114 0 212 -35t173.5 -102.5t118.5 -176.5t43 -247q0 -186 -71.5 -316t-193 -191.5t-282.5 -61.5zM627 190q110 0 178.5 85.5t68.5 271.5q0 183 -69 268.5t-178 85.5q-54 0 -98 -19t-79.5 -59
t-55 -110.5t-19.5 -165.5q0 -357 252 -357zM492 1202q-17 0 -50.5 36.5t-33.5 53.5q0 18 22 43q35 43 229 256q21 21 41 21q30 0 87 -56.5t57 -89.5q0 -25 -23 -45q-25 -24 -127.5 -95.5t-154.5 -104.5q-29 -19 -47 -19z" />
    <glyph glyph-name="Obreve.smcp" horiz-adv-x="1251" 
d="M627 -18q-257 0 -403 145t-146 424q0 138 43 247t119 176.5t174 102.5t213 35q114 0 212 -35t173.5 -102.5t118.5 -176.5t43 -247q0 -186 -71.5 -316t-193 -191.5t-282.5 -61.5zM627 190q110 0 178.5 85.5t68.5 271.5q0 183 -69 268.5t-178 85.5q-54 0 -98 -19t-79.5 -59
t-55 -110.5t-19.5 -165.5q0 -357 252 -357zM625 1196q-61 0 -120 30.5t-97.5 74t-62 87t-23.5 72.5q0 33 45.5 60.5t83.5 27.5q17 0 28.5 -11.5t28.5 -41.5q44 -74 71 -96q24 -19 48 -19q22 0 46 23t35 40.5t31 51.5q18 30 31 41.5t29 11.5q37 0 83 -27.5t46 -60.5
q0 -26 -23.5 -69t-61.5 -87.5t-97 -76t-121 -31.5z" />
    <glyph glyph-name="Ocircumflex.smcp" horiz-adv-x="1251" 
d="M627 -18q-257 0 -403 145t-146 424q0 138 43 247t119 176.5t174 102.5t213 35q114 0 212 -35t173.5 -102.5t118.5 -176.5t43 -247q0 -186 -71.5 -316t-193 -191.5t-282.5 -61.5zM627 190q110 0 178.5 85.5t68.5 271.5q0 183 -69 268.5t-178 85.5q-54 0 -98 -19t-79.5 -59
t-55 -110.5t-19.5 -165.5q0 -357 252 -357zM825 1159q-19 0 -47 21l-153 133q-146 -131 -152 -131q-25 -21 -47 -21q-20 0 -41 17l-76 73q-22 22 -22 45q0 13 24 41l219 191q24 20 41.5 25.5t53.5 5.5q39 0 56 -5.5t40 -25.5l217 -191q25 -25 25 -43q0 -25 -21 -43l-74 -71
q-18 -21 -43 -21z" />
    <glyph glyph-name="Odieresis.smcp" horiz-adv-x="1251" 
d="M627 -18q-257 0 -403 145t-146 424q0 138 43 247t119 176.5t174 102.5t213 35q114 0 212 -35t173.5 -102.5t118.5 -176.5t43 -247q0 -186 -71.5 -316t-193 -191.5t-282.5 -61.5zM627 190q110 0 178.5 85.5t68.5 271.5q0 183 -69 268.5t-178 85.5q-54 0 -98 -19t-79.5 -59
t-55 -110.5t-19.5 -165.5q0 -357 252 -357zM432 1184q-78 0 -114.5 40t-36.5 122q0 161 151 161q156 0 156 -161q0 -162 -156 -162zM813 1184q-78 0 -114.5 40t-36.5 122q0 161 151 161q156 0 156 -161q0 -162 -156 -162z" />
    <glyph glyph-name="Ograve.smcp" horiz-adv-x="1251" 
d="M627 -18q-257 0 -403 145t-146 424q0 138 43 247t119 176.5t174 102.5t213 35q114 0 212 -35t173.5 -102.5t118.5 -176.5t43 -247q0 -186 -71.5 -316t-193 -191.5t-282.5 -61.5zM627 190q110 0 178.5 85.5t68.5 271.5q0 183 -69 268.5t-178 85.5q-54 0 -98 -19t-79.5 -59
t-55 -110.5t-19.5 -165.5q0 -357 252 -357zM752 1176q-18 0 -50 20q-56 35 -148 98.5t-116 85.5q-24 21 -24 43q0 29 56.5 86.5t84.5 57.5q20 0 43 -23q154 -169 213 -239q25 -29 25 -45q0 -15 -33.5 -49.5t-50.5 -34.5z" />
    <glyph glyph-name="Ohungarumlaut.smcp" horiz-adv-x="1251" 
d="M627 -18q-257 0 -403 145t-146 424q0 138 43 247t119 176.5t174 102.5t213 35q114 0 212 -35t173.5 -102.5t118.5 -176.5t43 -247q0 -186 -71.5 -316t-193 -191.5t-282.5 -61.5zM627 190q110 0 178.5 85.5t68.5 271.5q0 183 -69 268.5t-178 85.5q-54 0 -98 -19t-79.5 -59
t-55 -110.5t-19.5 -165.5q0 -357 252 -357zM367 1204q-15 0 -49.5 33.5t-34.5 48.5q0 18 24 45q70 83 213 240q22 22 43 22q28 0 85 -57t57 -86q0 -22 -25 -43q-23 -22 -113.5 -83t-150.5 -99q-34 -21 -49 -21zM748 1204q-15 0 -49.5 33.5t-34.5 48.5q0 18 24 45
q70 83 213 240q22 22 43 22q28 0 84.5 -57t56.5 -86q0 -22 -24 -43q-23 -22 -113.5 -83t-150.5 -99q-34 -21 -49 -21z" />
    <glyph glyph-name="Omacron.smcp" horiz-adv-x="1251" 
d="M627 -18q-257 0 -403 145t-146 424q0 138 43 247t119 176.5t174 102.5t213 35q114 0 212 -35t173.5 -102.5t118.5 -176.5t43 -247q0 -186 -71.5 -316t-193 -191.5t-282.5 -61.5zM627 190q110 0 178.5 85.5t68.5 271.5q0 183 -69 268.5t-178 85.5q-54 0 -98 -19t-79.5 -59
t-55 -110.5t-19.5 -165.5q0 -357 252 -357zM279 1413h692q43 0 43 -110q0 -109 -43 -109h-692q-43 0 -43 109q0 110 43 110z" />
    <glyph glyph-name="Oslash.smcp" horiz-adv-x="1251" 
d="M985 1114l-37 -90q106 -71 166 -190t60 -283q0 -186 -71.5 -316t-193 -191.5t-282.5 -61.5q-62 0 -109 8l-2 -8q-8 -22 -34 -32.5t-85 -10.5q-106 0 -106 45q0 12 6 24l18 47q-237 136 -237 496q0 138 43 247t119 176.5t174 102.5t213 35q56 0 121 -10l18 41q10 21 35 31
t84 10q108 0 108 -45q0 -5 -8 -25zM375 547q0 -155 45 -240l244 590q-24 4 -37 4q-54 0 -98 -19t-79.5 -59t-55 -110.5t-19.5 -165.5zM627 190q110 0 178.5 85.5t68.5 271.5q0 128 -36 211l-236 -568h25z" />
    <glyph glyph-name="Otilde.smcp" horiz-adv-x="1251" 
d="M627 -18q-257 0 -403 145t-146 424q0 138 43 247t119 176.5t174 102.5t213 35q114 0 212 -35t173.5 -102.5t118.5 -176.5t43 -247q0 -186 -71.5 -316t-193 -191.5t-282.5 -61.5zM627 190q110 0 178.5 85.5t68.5 271.5q0 183 -69 268.5t-178 85.5q-54 0 -98 -19t-79.5 -59
t-55 -110.5t-19.5 -165.5q0 -357 252 -357zM389 1200q-18 -12 -33 -12q-21 0 -64.5 54.5t-43.5 70.5q0 21 22 49q37 43 95 72.5t122 29.5q48 0 104.5 -22.5t104 -45t72.5 -22.5q36 0 94 64q14 14 25 14q21 0 69 -53.5t48 -73.5q0 -40 -66 -93.5t-152 -53.5q-51 0 -107 22.5
t-104.5 45t-82.5 22.5q-9 0 -18.5 -3.5t-21 -11.5t-19 -14t-22.5 -19.5t-22 -19.5z" />
    <glyph glyph-name="P.smcp" horiz-adv-x="1087" 
d="M299 0q-139 0 -139 45v967q0 38 105 70t255 32q220 0 352 -106t132 -293q0 -108 -35.5 -193.5t-97.5 -139.5t-144 -82t-178 -28q-23 0 -51 3t-45 7l-17 3v-240q0 -45 -137 -45zM436 549q0 -60 96 -60q181 0 181 220q0 107 -47.5 152.5t-143.5 45.5q-42 0 -64 -18t-22 -45
v-295z" />
    <glyph glyph-name="Q.smcp" horiz-adv-x="1261" 
d="M500 0q-199 29 -306.5 173.5t-107.5 379.5q0 139 44.5 248t121.5 177t176.5 103t214.5 35t214.5 -35t176.5 -103t121.5 -177t44.5 -248q0 -183 -93 -331t-257 -199q46 -2 98.5 -25t110 -45.5t119.5 -22.5q13 0 21.5 -6.5t8.5 -17.5q0 -17 -17.5 -44t-46.5 -53t-72 -44.5
t-87 -18.5q-61 0 -112.5 23t-91 57.5t-78 69.5t-91 65t-112.5 39zM643 197q120 0 191 83t71 273q0 98 -21 168.5t-59 109.5t-83 56.5t-99 17.5t-98.5 -17.5t-82 -56.5t-58.5 -110.5t-21 -169.5q0 -191 68 -272.5t192 -81.5z" />
    <glyph glyph-name="R.smcp" horiz-adv-x="1155" 
d="M297 0q-137 0 -137 45v969q0 37 110 68.5t250 31.5q220 0 352 -92.5t132 -257.5q0 -70 -24.5 -132t-59.5 -100t-70 -66t-60 -40l-24 -12q20 -9 46 -40.5t51.5 -69.5t53.5 -75t62 -61.5t68 -24.5h38q12 0 19.5 -6.5t7.5 -17.5q0 -38 -76 -85.5t-164 -47.5q-57 0 -102.5 19
t-74.5 49.5t-52 67.5t-40.5 74.5t-34.5 68.5t-40 50.5t-51 20.5h-26q-17 0 -17 -14v-277q0 -45 -137 -45zM434 594q0 -25 16 -37t54 -12q93 0 151 45.5t58 150.5q0 92 -43.5 130t-130.5 38q-60 0 -82.5 -14.5t-22.5 -42.5v-258z" />
    <glyph glyph-name="Racute.smcp" horiz-adv-x="1155" 
d="M297 0q-137 0 -137 45v969q0 37 110 68.5t250 31.5q220 0 352 -92.5t132 -257.5q0 -70 -24.5 -132t-59.5 -100t-70 -66t-60 -40l-24 -12q20 -9 46 -40.5t51.5 -69.5t53.5 -75t62 -61.5t68 -24.5h38q12 0 19.5 -6.5t7.5 -17.5q0 -38 -76 -85.5t-164 -47.5q-57 0 -102.5 19
t-74.5 49.5t-52 67.5t-40.5 74.5t-34.5 68.5t-40 50.5t-51 20.5h-26q-17 0 -17 -14v-277q0 -45 -137 -45zM442 1182q-17 0 -50.5 36.5t-33.5 53.5t23 43q35 43 229 256q20 20 41 20q30 0 87 -56t57 -89q0 -25 -23 -45q-25 -24 -128 -96t-155 -105q-27 -18 -47 -18zM434 594
q0 -25 16 -37t54 -12q93 0 151 45.5t58 150.5q0 92 -43.5 130t-130.5 38q-60 0 -82.5 -14.5t-22.5 -42.5v-258z" />
    <glyph glyph-name="Rcaron.smcp" horiz-adv-x="1155" 
d="M297 0q-137 0 -137 45v969q0 37 110 68.5t250 31.5q220 0 352 -92.5t132 -257.5q0 -70 -24.5 -132t-59.5 -100t-70 -66t-60 -40l-24 -12q20 -9 46 -40.5t51.5 -69.5t53.5 -75t62 -61.5t68 -24.5h38q12 0 19.5 -6.5t7.5 -17.5q0 -38 -76 -85.5t-164 -47.5q-57 0 -102.5 19
t-74.5 49.5t-52 67.5t-40.5 74.5t-34.5 68.5t-40 50.5t-51 20.5h-26q-17 0 -17 -14v-277q0 -45 -137 -45zM524 1198q-20 0 -38 6.5t-29 15t-27 23.5l-201 201q-24 27 -24 43q0 20 18 35l72 65q21 17 41 17q28 0 45 -17l141 -143l148 143q21 17 45 17q20 0 43 -19l69 -61
q17 -17 17 -37q0 -16 -23 -43l-200 -201q-19 -16 -29 -23.5t-28.5 -14.5t-39.5 -7zM434 594q0 -25 16 -37t54 -12q93 0 151 45.5t58 150.5q0 92 -43.5 130t-130.5 38q-60 0 -82.5 -14.5t-22.5 -42.5v-258z" />
    <glyph glyph-name="S.smcp" horiz-adv-x="993" 
d="M508 -18q-119 0 -234 48.5t-129 86.5q-26 59 -26 182q0 29 26 29q10 0 42.5 -19.5t72 -43t105 -43t133.5 -19.5q70 0 112.5 31.5t42.5 84.5q0 34 -31 61t-59 38.5t-101 34.5q-7 3 -11 4q-40 13 -65 22t-63 25.5t-62.5 32.5t-52.5 40.5t-44.5 52t-27.5 65.5t-11 81
q0 153 120.5 244.5t303.5 91.5q65 0 122 -11.5t93.5 -28.5t63.5 -36t39 -34.5t12 -24.5q0 -26 -36 -83.5t-57 -57.5q-10 0 -31.5 10t-45.5 21.5t-65.5 21.5t-86.5 10q-78 0 -122 -28.5t-44 -82.5q0 -24 12 -42t37 -31t50.5 -22.5t65.5 -21.5q11 -3 17 -5q43 -12 68.5 -20
t67 -24t67 -32t56.5 -42t48.5 -55.5t29.5 -71.5t12 -91q0 -151 -112 -249.5t-302 -98.5z" />
    <glyph glyph-name="Sacute.smcp" horiz-adv-x="993" 
d="M508 -18q-119 0 -234 48.5t-129 86.5q-26 59 -26 182q0 29 26 29q10 0 42.5 -19.5t72 -43t105 -43t133.5 -19.5q70 0 112.5 31.5t42.5 84.5q0 34 -31 61t-59 38.5t-101 34.5q-7 3 -11 4q-40 13 -65 22t-63 25.5t-62.5 32.5t-52.5 40.5t-44.5 52t-27.5 65.5t-11 81
q0 153 120.5 244.5t303.5 91.5q65 0 122 -11.5t93.5 -28.5t63.5 -36t39 -34.5t12 -24.5q0 -26 -36 -83.5t-57 -57.5q-10 0 -31.5 10t-45.5 21.5t-65.5 21.5t-86.5 10q-78 0 -122 -28.5t-44 -82.5q0 -24 12 -42t37 -31t50.5 -22.5t65.5 -21.5q11 -3 17 -5q43 -12 68.5 -20
t67 -24t67 -32t56.5 -42t48.5 -55.5t29.5 -71.5t12 -91q0 -151 -112 -249.5t-302 -98.5zM420 1171q-17 0 -50.5 36.5t-33.5 54.5t22 43q26 33 230 256q20 20 41 20q30 0 86.5 -56t56.5 -89q0 -26 -22 -45q-25 -24 -128 -96t-155 -105q-29 -19 -47 -19z" />
    <glyph glyph-name="Scaron.smcp" horiz-adv-x="993" 
d="M508 -18q-119 0 -234 48.5t-129 86.5q-26 59 -26 182q0 29 26 29q10 0 42.5 -19.5t72 -43t105 -43t133.5 -19.5q70 0 112.5 31.5t42.5 84.5q0 34 -31 61t-59 38.5t-101 34.5q-7 3 -11 4q-40 13 -65 22t-63 25.5t-62.5 32.5t-52.5 40.5t-44.5 52t-27.5 65.5t-11 81
q0 153 120.5 244.5t303.5 91.5q65 0 122 -11.5t93.5 -28.5t63.5 -36t39 -34.5t12 -24.5q0 -26 -36 -83.5t-57 -57.5q-10 0 -31.5 10t-45.5 21.5t-65.5 21.5t-86.5 10q-78 0 -122 -28.5t-44 -82.5q0 -24 12 -42t37 -31t50.5 -22.5t65.5 -21.5q11 -3 17 -5q43 -12 68.5 -20
t67 -24t67 -32t56.5 -42t48.5 -55.5t29.5 -71.5t12 -91q0 -151 -112 -249.5t-302 -98.5zM545 1204q-20 0 -38 6.5t-29 15t-27 23.5l-201 201q-25 29 -25 43q0 19 19 35l71 65q21 17 41 17q28 0 45 -17l142 -143l147 143q21 17 45 17q20 0 43 -19l70 -61q16 -16 16 -37
q0 -17 -22 -43l-201 -201q-19 -17 -28.5 -24t-28 -14t-39.5 -7z" />
    <glyph glyph-name="Scommaaccent.smcp" horiz-adv-x="993" 
d="M508 -18q-119 0 -234 48.5t-129 86.5q-26 59 -26 182q0 29 26 29q10 0 42.5 -19.5t72 -43t105 -43t133.5 -19.5q70 0 112.5 31.5t42.5 84.5q0 34 -31 61t-59 38.5t-101 34.5q-7 3 -11 4q-40 13 -65 22t-63 25.5t-62.5 32.5t-52.5 40.5t-44.5 52t-27.5 65.5t-11 81
q0 153 120.5 244.5t303.5 91.5q65 0 122 -11.5t93.5 -28.5t63.5 -36t39 -34.5t12 -24.5q0 -26 -36 -83.5t-57 -57.5q-10 0 -31.5 10t-45.5 21.5t-65.5 21.5t-86.5 10q-78 0 -122 -28.5t-44 -82.5q0 -24 12 -42t37 -31t50.5 -22.5t65.5 -21.5q11 -3 17 -5q43 -12 68.5 -20
t67 -24t67 -32t56.5 -42t48.5 -55.5t29.5 -71.5t12 -91q0 -151 -112 -249.5t-302 -98.5zM377 -684q-23 0 -37 10.5t-14 30.5t33.5 70.5t33.5 93.5q0 18 -10 33t-21.5 26.5t-21.5 43t-10 79.5q0 154 172 154q166 0 166 -162q0 -75 -31.5 -147.5t-77.5 -121.5t-95.5 -79.5
t-86.5 -30.5z" />
    <glyph glyph-name="T.smcp" horiz-adv-x="897" 
d="M451 -2q-138 0 -138 45v795q0 24 -24 24h-201q-45 0 -45 117t45 117h725q41 0 41 -117t-41 -117h-203q-24 0 -24 -24v-795q0 -45 -135 -45z" />
    <glyph glyph-name="Tcaron.smcp" horiz-adv-x="897" 
d="M451 -2q-138 0 -138 45v795q0 24 -24 24h-201q-45 0 -45 117t45 117h725q41 0 41 -117t-41 -117h-203q-24 0 -24 -24v-795q0 -45 -135 -45zM449 1180q-29 0 -50 11t-45 34l-200 200q-25 29 -25 43q0 20 18 35l72 66q20 16 41 16q29 0 45 -16l141 -144l148 144
q20 16 45 16q21 0 43 -18l70 -62q16 -16 16 -37q0 -16 -23 -43l-200 -200q-19 -17 -28.5 -24t-28 -14t-39.5 -7z" />
    <glyph glyph-name="Tcommaaccent.smcp" horiz-adv-x="897" 
d="M451 -2q-138 0 -138 45v795q0 24 -24 24h-201q-45 0 -45 117t45 117h725q41 0 41 -117t-41 -117h-203q-24 0 -24 -24v-795q0 -45 -135 -45zM328 -684q-23 0 -37.5 10.5t-14.5 30.5t34 70.5t34 93.5q0 18 -10 33t-21.5 26.5t-21.5 43t-10 79.5q0 154 172 154
q165 0 165 -162q0 -75 -31.5 -147.5t-77 -121.5t-95 -79.5t-86.5 -30.5z" />
    <glyph glyph-name="U.smcp" horiz-adv-x="1216" 
d="M610 -25q-239 0 -355 117t-116 314v649q0 43 137 43q140 0 140 -43v-604q0 -125 46.5 -185.5t147.5 -60.5t148 60.5t47 185.5v604q0 43 137 43q79 0 108 -11t29 -32v-649q0 -197 -115.5 -314t-353.5 -117z" />
    <glyph glyph-name="Uacute.smcp" horiz-adv-x="1216" 
d="M610 -25q-239 0 -355 117t-116 314v649q0 43 137 43q140 0 140 -43v-604q0 -125 46.5 -185.5t147.5 -60.5t148 60.5t47 185.5v604q0 43 137 43q79 0 108 -11t29 -32v-649q0 -197 -115.5 -314t-353.5 -117zM522 1178q-17 0 -50.5 36.5t-33.5 53.5t23 43q35 43 229 256
q20 20 41 20q30 0 86.5 -56t56.5 -89q0 -26 -22 -45q-25 -24 -128 -96t-155 -105q-27 -18 -47 -18z" />
    <glyph glyph-name="Ubreve.smcp" horiz-adv-x="1216" 
d="M610 -25q-239 0 -355 117t-116 314v649q0 43 137 43q140 0 140 -43v-604q0 -125 46.5 -185.5t147.5 -60.5t148 60.5t47 185.5v604q0 43 137 43q79 0 108 -11t29 -32v-649q0 -197 -115.5 -314t-353.5 -117zM608 1174q-61 0 -120 30.5t-97.5 74t-62 87t-23.5 72.5
q0 33 45.5 60.5t83.5 27.5q18 0 29.5 -12t28.5 -41q43 -71 67 -93q25 -22 51 -22q22 0 46 22.5t36 41t31 51.5q19 30 31 41.5t28 11.5q37 0 83 -27.5t46 -60.5q0 -26 -23.5 -69t-61.5 -87.5t-97 -76t-121 -31.5z" />
    <glyph glyph-name="Ucircumflex.smcp" horiz-adv-x="1216" 
d="M610 -25q-239 0 -355 117t-116 314v649q0 43 137 43q140 0 140 -43v-604q0 -125 46.5 -185.5t147.5 -60.5t148 60.5t47 185.5v604q0 43 137 43q79 0 108 -11t29 -32v-649q0 -197 -115.5 -314t-353.5 -117zM809 1180q-20 0 -47 20l-154 133q-146 -131 -151 -131
q-24 -20 -47 -20q-21 0 -41 16l-76 74q-23 23 -23 45q0 12 25 41l219 190q24 20 41 25.5t53 5.5q39 0 56.5 -5.5t40.5 -25.5l217 -190q24 -24 24 -43q0 -25 -20 -43l-74 -72q-17 -20 -43 -20z" />
    <glyph glyph-name="Udieresis.smcp" horiz-adv-x="1216" 
d="M610 -25q-239 0 -355 117t-116 314v649q0 43 137 43q140 0 140 -43v-604q0 -125 46.5 -185.5t147.5 -60.5t148 60.5t47 185.5v604q0 43 137 43q79 0 108 -11t29 -32v-649q0 -197 -115.5 -314t-353.5 -117zM416 1192q-78 0 -115 40t-37 122q0 162 152 162q155 0 155 -162
q0 -82 -38 -122t-117 -40zM797 1192q-78 0 -115 40t-37 122q0 162 152 162q155 0 155 -162q0 -82 -38 -122t-117 -40z" />
    <glyph glyph-name="Ugrave.smcp" horiz-adv-x="1216" 
d="M610 -25q-239 0 -355 117t-116 314v649q0 43 137 43q140 0 140 -43v-604q0 -125 46.5 -185.5t147.5 -60.5t148 60.5t47 185.5v604q0 43 137 43q79 0 108 -11t29 -32v-649q0 -197 -115.5 -314t-353.5 -117zM735 1190q-17 0 -49 20q-54 34 -147 98.5t-117 86.5
q-25 21 -25 43q0 29 57 86t85 57q21 0 43 -22q143 -157 213 -240q24 -27 24 -45q0 -15 -33.5 -49.5t-50.5 -34.5z" />
    <glyph glyph-name="Uhungarumlaut.smcp" horiz-adv-x="1216" 
d="M610 -25q-239 0 -355 117t-116 314v649q0 43 137 43q140 0 140 -43v-604q0 -125 46.5 -185.5t147.5 -60.5t148 60.5t47 185.5v604q0 43 137 43q79 0 108 -11t29 -32v-649q0 -197 -115.5 -314t-353.5 -117zM369 1188q-15 0 -49.5 33.5t-34.5 48.5q0 18 24 45
q59 70 213 239q23 23 43 23q28 0 85 -57t57 -86q0 -22 -25 -43q-23 -22 -114.5 -84.5t-149.5 -98.5q-32 -20 -49 -20zM750 1188q-15 0 -49.5 33.5t-34.5 48.5q0 18 24 45q59 70 213 239q23 23 43 23q28 0 84.5 -57t56.5 -86q0 -22 -24 -43q-23 -22 -114.5 -84.5
t-149.5 -98.5q-32 -20 -49 -20z" />
    <glyph glyph-name="Umacron.smcp" horiz-adv-x="1216" 
d="M610 -25q-239 0 -355 117t-116 314v649q0 43 137 43q140 0 140 -43v-604q0 -125 46.5 -185.5t147.5 -60.5t148 60.5t47 185.5v604q0 43 137 43q79 0 108 -11t29 -32v-649q0 -197 -115.5 -314t-353.5 -117zM262 1434h692q43 0 43 -111q0 -109 -43 -109h-692q-43 0 -43 109
q0 111 43 111z" />
    <glyph glyph-name="Uring.smcp" horiz-adv-x="1216" 
d="M610 -25q-239 0 -355 117t-116 314v649q0 43 137 43q140 0 140 -43v-604q0 -125 46.5 -185.5t147.5 -60.5t148 60.5t47 185.5v604q0 43 137 43q79 0 108 -11t29 -32v-649q0 -197 -115.5 -314t-353.5 -117zM606 1190q-94 0 -159.5 62.5t-65.5 150.5q0 89 66 152t159 63
t160.5 -63t67.5 -152q0 -87 -67.5 -150t-160.5 -63zM606 1491q-34 0 -57 -25.5t-23 -62.5q0 -35 23 -60.5t57 -25.5q33 0 55.5 25t22.5 61q0 37 -23 62.5t-55 25.5z" />
    <glyph glyph-name="V.smcp" horiz-adv-x="1077" 
d="M539 0q-71 0 -95.5 9.5t-33.5 29.5l-377 997q-10 20 -10 27q-1 12 9.5 19.5t40 11.5t81.5 4q87 0 122 -9t41 -30l222 -686l221 686q8 21 43 30t121 9q52 0 81.5 -4t40 -11.5t9.5 -19.5q0 -9 -13 -35l-372 -989q-9 -20 -34.5 -29.5t-96.5 -9.5z" />
    <glyph glyph-name="W.smcp" horiz-adv-x="1585" 
d="M444 0q-72 0 -99 9.5t-34 29.5l-276 997q-8 24 -8 27q0 18 27.5 26.5t103.5 8.5q85 0 113.5 -8.5t33.5 -30.5l172 -658l189 617q8 29 30.5 40t96.5 11q73 0 96.5 -11t30.5 -40l190 -617l170 658q6 22 35 30.5t112 8.5q76 0 104 -8.5t28 -26.5q0 -2 -2 -8t-4 -14t-3 -11
l-276 -991q-5 -20 -33 -29.5t-100 -9.5q-78 0 -110 9.5t-38 29.5l-200 637l-201 -637q-6 -20 -37.5 -29.5t-110.5 -9.5z" />
    <glyph glyph-name="X.smcp" horiz-adv-x="1069" 
d="M881 -2q-80 0 -112 9.5t-44 29.5l-207 313q-127 -170 -160 -309q-8 -43 -163 -43q-160 0 -160 43q0 41 24.5 93.5t77 122.5t96.5 122.5t121 140.5q19 22 29 33l-315 481q-11 15 -11 25q0 37 138 37q143 0 170 -39l192 -293q91 127 133 289q8 43 164 43q160 0 160 -43
q0 -85 -78.5 -197.5t-243.5 -298.5l328 -498q10 -13 10 -24q0 -37 -149 -37z" />
    <glyph glyph-name="Y.smcp" horiz-adv-x="1030" 
d="M516 0q-137 0 -137 45v391l-4 27l-336 573q-10 13 -10 25q0 37 139 37q82 0 114 -9t44 -30l190 -338l191 338q10 20 42 29.5t115 9.5q140 0 140 -37q0 -10 -11 -25l-338 -573q-2 -21 -2 -27v-391q0 -45 -137 -45z" />
    <glyph glyph-name="Yacute.smcp" horiz-adv-x="1030" 
d="M516 0q-137 0 -137 45v391l-4 27l-336 573q-10 13 -10 25q0 37 139 37q82 0 114 -9t44 -30l190 -338l191 338q10 20 42 29.5t115 9.5q140 0 140 -37q0 -10 -11 -25l-338 -573q-2 -21 -2 -27v-391q0 -45 -137 -45zM440 1169q-17 0 -50.5 36.5t-33.5 54.5q0 17 23 43
q35 43 229 256q20 20 41 20q30 0 87 -56t57 -89q0 -25 -23 -45q-25 -24 -128 -96t-155 -105q-29 -19 -47 -19z" />
    <glyph glyph-name="Ydieresis.smcp" horiz-adv-x="1030" 
d="M516 0q-137 0 -137 45v391l-4 27l-336 573q-10 13 -10 25q0 37 139 37q82 0 114 -9t44 -30l190 -338l191 338q10 20 42 29.5t115 9.5q140 0 140 -37q0 -10 -11 -25l-338 -573q-2 -21 -2 -27v-391q0 -45 -137 -45zM322 1194q-78 0 -115 40t-37 122q0 162 152 162
q155 0 155 -162q0 -82 -38 -122t-117 -40zM702 1194q-78 0 -114.5 40t-36.5 122q0 162 151 162q77 0 116.5 -41.5t39.5 -120.5q0 -162 -156 -162z" />
    <glyph glyph-name="Z.smcp" horiz-adv-x="1062" 
d="M426 233h231q103 0 170 9t94 18.5t33 9.5q11 0 18 -7t7 -19q0 -56 -4 -97.5t-14 -76t-28.5 -52.5t-45.5 -18h-770q-33 0 -33 106q0 92 25 127l491 631h-174q-104 0 -172 -9t-96 -18.5t-33 -9.5q-9 0 -17 7.5t-8 19.5q0 244 95 244h716q33 0 33 -107q0 -88 -31 -129z" />
    <glyph glyph-name="Zacute.smcp" horiz-adv-x="1062" 
d="M426 233h231q103 0 170 9t94 18.5t33 9.5q11 0 18 -7t7 -19q0 -56 -4 -97.5t-14 -76t-28.5 -52.5t-45.5 -18h-770q-33 0 -33 106q0 92 25 127l491 631h-174q-104 0 -172 -9t-96 -18.5t-33 -9.5q-9 0 -17 7.5t-8 19.5q0 244 95 244h716q33 0 33 -107q0 -88 -31 -129z
M436 1178q-17 0 -50.5 36.5t-33.5 53.5t23 43q35 43 229 256q20 20 41 20q30 0 86.5 -56t56.5 -89q0 -26 -22 -45q-25 -24 -128 -96t-155 -105q-27 -18 -47 -18z" />
    <glyph glyph-name="Zcaron.smcp" horiz-adv-x="1062" 
d="M426 233h231q103 0 170 9t94 18.5t33 9.5q11 0 18 -7t7 -19q0 -56 -4 -97.5t-14 -76t-28.5 -52.5t-45.5 -18h-770q-33 0 -33 106q0 92 25 127l491 631h-174q-104 0 -172 -9t-96 -18.5t-33 -9.5q-9 0 -17 7.5t-8 19.5q0 244 95 244h716q33 0 33 -107q0 -88 -31 -129z
M520 1192q-20 0 -38 6.5t-29 15t-27 23.5l-201 201q-24 27 -24 43q0 20 18 35l72 65q20 16 41 16q29 0 45 -16l141 -143l148 143q20 16 45 16q21 0 43 -18l69 -61q17 -17 17 -37q0 -16 -23 -43l-201 -201q-19 -17 -28.5 -24t-28 -14t-39.5 -7z" />
    <glyph glyph-name="Zdotaccent.smcp" horiz-adv-x="1062" 
d="M426 233h231q103 0 170 9t94 18.5t33 9.5q11 0 18 -7t7 -19q0 -56 -4 -97.5t-14 -76t-28.5 -52.5t-45.5 -18h-770q-33 0 -33 106q0 92 25 127l491 631h-174q-104 0 -172 -9t-96 -18.5t-33 -9.5q-9 0 -17 7.5t-8 19.5q0 244 95 244h716q33 0 33 -107q0 -88 -31 -129z
M528 1192q-78 0 -114.5 40t-36.5 122q0 162 151 162q77 0 116.5 -41.5t39.5 -120.5q0 -162 -156 -162z" />
    </font>
</defs>
</svg>
