<?xml version="1.0" standalone="no"?>
<!DOCTYPE svg PUBLIC "-//W3C//DTD SVG 1.1//EN" "http://www.w3.org/Graphics/SVG/1.1/DTD/svg11.dtd" >
<svg xmlns="http://www.w3.org/2000/svg" xmlns:xlink="http://www.w3.org/1999/xlink" version="1.1">
<metadata>
Created by FontForge 20201107 at Fri Nov  7 10:03:03 2025
 By 
Copyright (c) 2015 by Laura Worthington. All rights reserved.
</metadata>
<defs>
<font id="Congenial-Medium" horiz-adv-x="1153" >
  <font-face 
    font-family="Congenial"
    font-weight="500"
    font-stretch="normal"
    units-per-em="2048"
    panose-1="2 0 6 3 0 0 0 2 0 4"
    ascent="1536"
    descent="-512"
    x-height="1044"
    cap-height="1372"
    bbox="-82 -684 2918 1921"
    underline-thickness="102"
    underline-position="-204"
    unicode-range="U+000D-F8FF"
  />
<missing-glyph horiz-adv-x="456" 
 />
    <glyph glyph-name=".notdef" horiz-adv-x="456" 
 />
    <glyph glyph-name=".null" horiz-adv-x="0" 
 />
    <glyph glyph-name="nonmarkingreturn" horiz-adv-x="682" 
 />
    <glyph glyph-name="NULL" horiz-adv-x="0" 
 />
    <glyph glyph-name="NULL" horiz-adv-x="0" 
 />
    <glyph glyph-name="CR" unicode="&#xd;" horiz-adv-x="491" 
 />
    <glyph glyph-name="space" unicode=" " horiz-adv-x="491" 
 />
    <glyph glyph-name="exclam" unicode="!" horiz-adv-x="643" 
d="M385 449h-119q-25 0 -40 14t-15 37v921q0 25 15 39.5t40 14.5h119q26 0 40.5 -14.5t14.5 -39.5v-921q0 -24 -14.5 -37.5t-40.5 -13.5zM317 -18q-153 0 -153 170q0 174 153 174q77 0 119.5 -44t42.5 -130q0 -88 -40.5 -129t-121.5 -41z" />
    <glyph glyph-name="quotedbl" unicode="&#x22;" horiz-adv-x="950" 
d="M291 1393q85 0 111 -16t26 -50q0 -36 -25.5 -173t-48.5 -218q-9 -29 -22 -38t-41 -9t-41.5 9t-22.5 38q-23 81 -48 217.5t-25 173.5q0 34 26 50t111 16zM659 1393q85 0 111.5 -16t26.5 -50q0 -36 -25.5 -173t-48.5 -218q-9 -29 -22.5 -38t-41.5 -9t-41 9t-22 38
q-23 81 -48.5 218t-25.5 173q0 34 26 50t111 16z" />
    <glyph glyph-name="numbersign" unicode="#" horiz-adv-x="1339" 
d="M659 -2q-30 0 -44.5 17t-8.5 44l74 277h-205l-76 -287q-12 -51 -69 -51h-113q-29 0 -44.5 17.5t-8.5 43.5l74 277h-132q-65 0 -65 47q0 48 24.5 100t63.5 52h162l65 249h-157q-66 0 -66 47q0 53 26.5 102.5t61.5 49.5h189l86 315q18 50 69 50h113q32 0 46.5 -19t6.5 -47
l-82 -299h203l86 315q18 50 70 50h110q33 0 47 -18.5t6 -47.5l-81 -299h122q34 0 50 -11.5t16 -41.5q0 -39 -25 -92.5t-65 -53.5h-152l-67 -249h149q64 0 64 -58q0 -41 -24 -91t-62 -50h-181l-75 -287q-12 -51 -70 -51h-111zM596 784l-68 -249h205l66 249h-203z" />
    <glyph glyph-name="dollar" unicode="$" horiz-adv-x="1007" 
d="M430 -29q-23 0 -41 17t-18 41v71q-84 16 -150 55t-104 85q-16 19 -13 43q3 21 29 39l72 40q12 9 33 9q25 0 43 -21q22 -27 90 -55v369q-130 49 -197.5 118t-67.5 174q0 121 76.5 203.5t188.5 114.5v86q0 25 18 42t41 17h92q26 0 42 -16.5t16 -42.5v-76q196 -34 294 -213
q1 -2 2.5 -6t3 -7.5t1.5 -6.5q0 -35 -33 -52q-83 -41 -103 -41q-37 0 -51 29q-44 83 -114 105v-279q165 -51 245 -133t80 -213q0 -126 -91 -230.5t-234 -136.5v-71q0 -25 -16 -41.5t-42 -16.5h-92zM705 467q0 60 -31.5 89t-93.5 46v-301q125 50 125 166zM307 961
q0 -51 64 -84v188q-64 -43 -64 -104z" />
    <glyph glyph-name="percent" unicode="%" horiz-adv-x="2156" 
d="M498 606q-171 0 -283.5 102t-112.5 285q0 180 112.5 279.5t283.5 99.5q170 0 281.5 -99.5t111.5 -279.5q0 -183 -112 -285t-281 -102zM498 786q186 0 186 207q0 205 -186 205q-189 0 -189 -205q0 -207 189 -207zM1509 1300l-628 -1259q-7 -12 -17.5 -20t-43 -14.5
t-85.5 -6.5q-133 0 -133 45q0 10 10 27l629 1259q7 12 17.5 20t42.5 14.5t85 6.5q134 0 134 -45q0 -9 -11 -27zM1645 -8q-171 0 -283.5 102t-112.5 285q0 180 112.5 279.5t283.5 99.5q170 0 281.5 -99.5t111.5 -279.5q0 -183 -112 -285t-281 -102zM1645 172q186 0 186 207
q0 205 -186 205q-189 0 -189 -205q0 -207 189 -207z" />
    <glyph glyph-name="ampersand" unicode="&#x26;" horiz-adv-x="1196" 
d="M1092 602h-101q29 -58 29 -141q0 -100 -31.5 -186t-92 -152.5t-158 -104.5t-220.5 -38q-210 0 -338.5 116t-128.5 285q0 63 14 118.5t36 93t48.5 68t53 48.5t48.5 30t36 17l14 4q-7 3 -18.5 10t-40.5 32.5t-51.5 56t-41 83t-18.5 111.5q0 147 123.5 243.5t312.5 96.5
q100 0 177.5 -26.5t122.5 -71.5t67 -99t22 -113q0 -30 -68 -64t-108 -34q-25 0 -36.5 13.5t-20.5 41.5q-27 79 -57 109.5t-95 30.5q-76 0 -122 -41.5t-46 -110.5q0 -83 53.5 -131.5t147.5 -48.5h488q43 0 43 -123q0 -50 -6.5 -78.5t-15 -36.5t-21.5 -8zM784 469
q0 64 -24 133h-156q-55 0 -104 -10.5t-92.5 -33t-69 -64.5t-25.5 -99q0 -96 56 -143t157 -47q122 0 190 77.5t68 186.5z" />
    <glyph glyph-name="quotesingle" unicode="'" horiz-adv-x="581" 
d="M291 1393q85 0 111 -16t26 -50q0 -36 -25.5 -173t-48.5 -218q-9 -29 -22 -38t-41 -9t-41.5 9t-22.5 38q-23 81 -48 217.5t-25 173.5q0 34 26 50t111 16z" />
    <glyph glyph-name="parenleft" unicode="(" horiz-adv-x="770" 
d="M102 602q0 93 17 187.5t40 166.5t60.5 149t63.5 122t66.5 99.5t51 67.5t33.5 40q36 41 144 41q110 0 110 -37q0 -14 -22 -39q-26 -31 -53 -65.5t-83.5 -123t-96.5 -174t-72.5 -204.5t-32.5 -230t32.5 -230t72.5 -204.5t96.5 -174t83.5 -123t53 -65.5q22 -25 22 -38
q0 -37 -110 -37q-108 0 -144 41q-23 28 -33.5 40t-51 67.5t-66 99.5t-64 121.5t-61 149t-39.5 166t-17 187.5z" />
    <glyph glyph-name="parenright" unicode=")" horiz-adv-x="770" 
d="M668 602q0 -93 -17 -187.5t-39.5 -166t-61 -149t-64 -121.5t-66 -99.5t-51 -67.5t-33.5 -40q-36 -41 -143 -41q-111 0 -111 37q0 13 22 38q26 31 53 65.5t83.5 123t96.5 174t72.5 204.5t32.5 230t-32.5 230t-72.5 204.5t-96.5 174t-83.5 123t-53 65.5q-22 25 -22 39
q0 37 111 37q107 0 143 -41q23 -27 33.5 -40t51 -67.5t66.5 -99.5t63.5 -122t60.5 -149t40 -166.5t17 -187.5z" />
    <glyph glyph-name="asterisk" unicode="*" horiz-adv-x="792" 
d="M391 774q-31 0 -50 18.5t-19 47.5q0 32 10 170q-20 -16 -50 -41t-48.5 -40t-22.5 -18q-28 -14 -43 -14q-27 0 -56.5 36.5t-29.5 61.5q0 34 35 58q7 5 30 18.5t54.5 31.5t50.5 30q-80 49 -135 90q-31 19 -31 53q0 10 6 22q10 26 37 50q26 22 47 22q25 0 53 -22
q7 -6 43 -41.5t54 -53.5q-2 21 -8.5 80.5t-6.5 73.5q0 33 19.5 51.5t54.5 18.5h29q71 0 71 -74q0 -9 -2 -32t-5.5 -56t-4.5 -51l92 92q24 24 53 24q28 0 52 -24l18 -21q23 -23 23 -45q0 -30 -33 -53q-99 -69 -139 -100q122 -77 133 -86q30 -24 30 -54q0 -24 -31.5 -58
t-60.5 -34q-23 0 -51 23q-13 9 -78 78q1 -22 4 -63t5 -67.5t2 -35.5q0 -31 -19 -48.5t-53 -17.5h-29zM266 1143l-2 -2zM340 1241h-2h2z" />
    <glyph glyph-name="plus" unicode="+" horiz-adv-x="1220" 
d="M659 219h-120q-26 0 -42 14t-16 39v326h-321q-25 0 -41.5 15.5t-16.5 39.5v119q0 26 16 41.5t42 15.5h321v316q0 24 16.5 39.5t41.5 15.5h120q28 0 44 -15t16 -40v-316h344q26 0 40.5 -15.5t14.5 -41.5v-119q0 -25 -14.5 -40t-40.5 -15h-344v-326q0 -25 -16 -39t-44 -14z
" />
    <glyph glyph-name="comma" unicode="," horiz-adv-x="645" 
d="M205 -193q-18 0 -29.5 9t-11.5 26q0 20 33.5 73.5t33.5 96.5q0 18 -9 32.5t-19.5 26t-19.5 45t-9 85.5q0 74 39 107.5t117 33.5q77 0 114 -35.5t37 -118.5q0 -72 -32 -144.5t-76.5 -123t-90.5 -82t-77 -31.5z" />
    <glyph glyph-name="hyphen" unicode="-" horiz-adv-x="983" 
d="M145 793h693q43 0 43 -123q0 -50 -6.5 -78.5t-15 -36.5t-21.5 -8h-693q-43 0 -43 123t43 123z" />
    <glyph glyph-name="period" unicode="." horiz-adv-x="643" 
d="M317 -18q-153 0 -153 170q0 174 153 174q77 0 119.5 -44t42.5 -130q0 -88 -40.5 -129t-121.5 -41z" />
    <glyph glyph-name="slash" unicode="/" horiz-adv-x="999" 
d="M948 1300l-629 -1259q-7 -12 -17.5 -20t-42.5 -14.5t-85 -6.5q-133 0 -133 45q0 10 10 27l629 1259q7 12 17.5 20t42.5 14.5t85 6.5q133 0 133 -45q0 -10 -10 -27z" />
    <glyph glyph-name="zero" unicode="0" horiz-adv-x="1404" 
d="M702 -20q-296 0 -453 178.5t-157 531.5q0 174 46 309.5t128 221t192.5 129t243.5 43.5t243.5 -43.5t193 -129t128.5 -221t46 -309.5q0 -349 -162.5 -529.5t-448.5 -180.5zM702 215q163 0 249.5 110t86.5 361q0 129 -24.5 221t-70.5 145t-105 77t-136 24t-136 -24
t-105 -77t-70 -145t-24 -221q0 -253 83 -362t252 -109z" />
    <glyph glyph-name="one" unicode="1" horiz-adv-x="714" 
d="M387 0q-143 0 -143 41v922h-144q-25 0 -37 10t-12 35q0 36 189 309q23 31 34 38q26 17 113 17q143 0 143 -41v-1290q0 -41 -143 -41z" />
    <glyph glyph-name="two" unicode="2" horiz-adv-x="1075" 
d="M90 0q-39 0 -39 41v145q0 20 5.5 34.5t12.5 21.5t21 18q17 15 78 65t107 90t113.5 101.5t117 117.5t96 117.5t71.5 122t25 113.5q0 74 -51 115t-143 41q-100 0 -197 -43q-13 -7 -29 -16.5t-25 -15t-19.5 -9.5t-18.5 -4q-26 0 -66 54.5t-40 86.5q0 16 31 47.5t82.5 65.5
t133 59t168.5 25q210 0 329.5 -107.5t119.5 -286.5q0 -77 -30.5 -160t-79.5 -154.5t-108 -140t-117.5 -121.5t-107.5 -93.5t-80 -61.5l-30 -22h510q13 0 21 -8.5t14 -36.5t6 -78t-6 -78t-14 -36.5t-21 -8.5h-840z" />
    <glyph glyph-name="three" unicode="3" horiz-adv-x="1046" 
d="M514 -20q-165 0 -288 58t-142 109q-33 77 -33 193q0 31 27 31q11 0 46 -24.5t78 -53.5t118.5 -53.5t156.5 -24.5q107 0 166 53t59 144q0 106 -75.5 152t-220.5 46q-84 0 -84 133q0 51 16 68t59 29q39 11 77 29t75.5 44t60.5 62t23 76q0 51 -37.5 79.5t-99.5 28.5
q-105 0 -205 -51q-13 -8 -31.5 -19.5t-28.5 -17.5t-21.5 -11t-19.5 -5q-26 0 -66 54.5t-40 86.5q0 16 31 47.5t82.5 65.5t133.5 59t169 25q198 0 303.5 -85.5t103.5 -217.5q-1 -57 -22 -112t-50.5 -92t-59 -66t-49.5 -42l-21 -14q11 -2 28.5 -8t62 -32t79 -61t62.5 -101.5
t28 -147.5q0 -183 -131 -308.5t-320 -125.5z" />
    <glyph glyph-name="four" unicode="4" horiz-adv-x="1216" 
d="M909 0q-143 0 -143 41v246h-653q-18 0 -29.5 30t-11.5 86q0 119 24 150l613 778q32 41 141 41q168 0 168 -45q0 -15 -10 -27l-596 -768h354v275q0 31 25 63l188 240q21 27 43 27q31 0 31 -39v-1057q0 -41 -144 -41z" />
    <glyph glyph-name="five" unicode="5" horiz-adv-x="1212" 
d="M575 -20q-87 0 -167.5 18.5t-134 45.5t-88 54.5t-42.5 48.5q-32 74 -32 193q0 31 26 31q11 0 52.5 -24.5t92.5 -53.5t133 -53.5t163 -24.5q123 0 198.5 75t75.5 197q0 133 -59.5 193.5t-182.5 60.5q-74 0 -136.5 -16.5t-94.5 -36.5t-59.5 -36.5t-40.5 -16.5q-38 0 -91 36
t-53 74v586q0 41 39 41h819q13 0 21 -8.5t14 -36.5t6 -78t-6 -78t-14 -36.5t-21 -8.5h-594v-215q11 6 32 14.5t90.5 23t144.5 14.5q87 0 167.5 -30t145 -86.5t103 -146.5t38.5 -200q0 -233 -151.5 -376.5t-393.5 -143.5z" />
    <glyph glyph-name="six" unicode="6" horiz-adv-x="1302" 
d="M678 -20q-169 0 -301.5 71.5t-208.5 209.5t-76 323q0 194 49 349t135 255t200.5 152.5t248.5 52.5q83 0 154.5 -14.5t118 -35.5t80 -46t48.5 -46t15 -34q0 -32 -40.5 -87t-66.5 -55q-13 0 -38 14t-53.5 31t-87 31t-130.5 14q-74 0 -137.5 -33.5t-100.5 -80.5t-63.5 -94.5
t-36.5 -80.5l-10 -34l14.5 14.5t42.5 32.5t70.5 41t97 32.5t123.5 14.5q210 0 347.5 -134.5t137.5 -348.5q0 -98 -36.5 -189.5t-102 -164t-168.5 -116.5t-225 -44zM354 487q0 -124 90 -209t228 -85q133 0 212 86.5t79 222.5q0 122 -72.5 197t-196.5 75q-83 0 -160.5 -36.5
t-128.5 -103.5t-51 -147z" />
    <glyph glyph-name="seven" unicode="7" horiz-adv-x="1144" 
d="M266 0q-151 0 -151 41q0 19 36 105t110 231t161 289q84 138 162.5 253t115.5 161l37 46h-624q-13 0 -21 8.5t-14 36.5t-6 78t6 78t14 36.5t21 8.5h901q39 0 39 -41l-2 -139q0 -61 -45 -119q-65 -85 -170 -238.5t-201 -316.5q-25 -43 -48.5 -87t-41 -80t-35 -75.5
t-28.5 -66.5t-22.5 -59t-17 -47.5t-12.5 -37.5t-8 -24q-16 -41 -156 -41z" />
    <glyph glyph-name="eight" unicode="8" horiz-adv-x="1282" 
d="M631 -20q-117 0 -214 26t-170.5 77t-114 132.5t-40.5 187.5q0 69 20.5 129.5t50 97t59.5 63t50 37.5l21 11q-6 4 -16 12t-36 35t-46 57t-36 78.5t-16 100.5q0 100 67 185.5t179.5 134.5t241.5 49t241.5 -49t179 -134.5t66.5 -185.5q0 -52 -15.5 -100t-37 -79.5t-43.5 -56
t-38 -36.5l-15 -11q8 -4 21.5 -11.5t48 -36.5t61 -64t48 -96t21.5 -130q0 -140 -71.5 -237t-190.5 -141.5t-276 -44.5zM631 795q77 0 152 67.5t75 151.5q0 96 -60.5 143t-166.5 47q-101 0 -164.5 -51.5t-63.5 -134.5q0 -92 66 -157.5t162 -65.5zM631 201q123 0 192.5 54
t69.5 144q0 91 -77.5 147t-184.5 56q-106 0 -184 -55t-78 -144q0 -93 69.5 -147.5t192.5 -54.5z" />
    <glyph glyph-name="nine" unicode="9" horiz-adv-x="1273" 
d="M555 -20q-127 0 -224 39t-114 83q-37 86 -37 177q0 30 27 30q11 0 41.5 -16t66 -35t97 -35t127.5 -16q91 0 161.5 30t111.5 80t63.5 103t29.5 110l-14.5 -14.5t-42 -32.5t-69.5 -41t-95.5 -32.5t-120.5 -14.5q-211 0 -351 125.5t-140 331.5q0 107 39 205t108.5 172.5
t174 119t227.5 44.5q92 0 174.5 -22.5t153.5 -70.5t122.5 -118.5t81 -171.5t29.5 -224q0 -193 -48 -347.5t-133 -254t-198.5 -152t-247.5 -52.5zM911 893q0 127 -74.5 207t-209.5 80t-221.5 -89.5t-86.5 -228.5q0 -122 75 -193t210 -71q137 0 222 84t85 211z" />
    <glyph glyph-name="colon" unicode=":" horiz-adv-x="643" 
d="M317 125q-153 0 -153 170q0 174 153 174q77 0 119.5 -44t42.5 -130q0 -88 -40.5 -129t-121.5 -41zM317 657q-153 0 -153 170q0 174 153 174q77 0 119.5 -44t42.5 -130q0 -88 -40.5 -129t-121.5 -41z" />
    <glyph glyph-name="semicolon" unicode=";" horiz-adv-x="645" 
d="M317 657q-153 0 -153 170q0 174 153 174q77 0 119.5 -44t42.5 -130q0 -88 -40.5 -129t-121.5 -41zM205 -8q-18 0 -29.5 9t-11.5 26q0 20 33.5 73.5t33.5 96.5q0 18 -9 32.5t-19.5 25.5t-19.5 44.5t-9 85.5q0 74 39 107.5t117 33.5q77 0 114 -35t37 -118q0 -72 -32 -144.5
t-76.5 -123t-90.5 -82t-77 -31.5z" />
    <glyph glyph-name="less" unicode="&#x3c;" horiz-adv-x="944" 
d="M348 606l494 -317q20 -14 20 -41q0 -25 -34.5 -72t-65.5 -47q-23 0 -37 14l-592 381q-51 34 -51 88q0 52 51 88l592 383q19 15 37 15q30 0 65 -45.5t35 -73.5q0 -27 -20 -41l-494 -315q-6 -5 -6 -9z" />
    <glyph glyph-name="equal" unicode="=" horiz-adv-x="1077" 
d="M920 399h-760q-25 0 -41.5 15.5t-16.5 40.5v61q0 26 16 41.5t42 15.5h760q55 0 55 -57v-61q0 -25 -14.5 -40.5t-40.5 -15.5zM920 715h-760q-25 0 -41.5 15.5t-16.5 39.5v61q0 26 16 42t42 16h760q24 0 39.5 -14.5t15.5 -43.5v-61q0 -55 -55 -55z" />
    <glyph glyph-name="greater" unicode="&#x3e;" horiz-adv-x="944" 
d="M182 129q-31 0 -65.5 47t-34.5 72q0 27 20 41l494 317q6 4 6 8l-6 9l-494 315q-20 14 -20 41q0 28 35 73.5t65 45.5q18 0 37 -15l592 -383q51 -36 51 -88q0 -54 -51 -88l-592 -381q-14 -14 -37 -14z" />
    <glyph glyph-name="question" unicode="?" horiz-adv-x="913" 
d="M883 1020q0 -64 -31.5 -129t-77 -114.5t-91 -91.5t-77 -73.5t-31.5 -46.5v-114q0 -41 -143 -41t-143 41v170q0 22 50 68t109.5 93t109.5 110t50 116q0 82 -45 119.5t-112 37.5q-75 0 -113 -55.5t-62 -173.5q-5 -25 -12.5 -32t-30.5 -7q-60 0 -127 35t-67 67q0 57 15 112
t48.5 106.5t81.5 90t120 62t159 23.5q194 0 307 -101t113 -272zM426 -18q-154 0 -154 170q0 174 154 174q77 0 119.5 -44t42.5 -130q0 -88 -40.5 -129t-121.5 -41z" />
    <glyph glyph-name="at" unicode="@" horiz-adv-x="1562" 
d="M750 -229q-144 0 -271 47.5t-221.5 134t-149.5 216t-55 284.5q0 158 56 302.5t154.5 253.5t244 173.5t313.5 64.5q142 0 258.5 -35.5t195 -96t131.5 -144t77 -175.5t24 -194q0 -237 -106.5 -378.5t-253.5 -141.5q-43 0 -81 9.5t-61 23.5t-40 28t-24 23l-7 10
q-15 -11 -40 -26.5t-85.5 -41.5t-101.5 -26q-59 0 -114.5 26t-100 73t-71 120t-26.5 160q0 108 41 200.5t106.5 152.5t145 94t158.5 34q114 0 195 -38t81 -77v-499q0 -70 58 -70q42 0 81 96t39 248q0 212 -116 335.5t-359 123.5q-249 0 -400 -168.5t-151 -429.5
q0 -224 135.5 -360t340.5 -136q73 0 164 26.5t94 26.5q20 0 62 -64t42 -81q0 -7 -9.5 -18t-35.5 -26.5t-64 -28.5t-104.5 -22t-148.5 -9zM911 330v420q0 23 -16 33t-64 10q-85 0 -134.5 -82t-49.5 -240q0 -215 141 -215q53 0 88 25t35 49z" />
    <glyph glyph-name="A" unicode="A" horiz-adv-x="1384" 
d="M526 461h332q29 0 29 26l-170 478q-9 28 -25 28q-15 0 -24 -28l-170 -478q0 -26 28 -26zM944 246h-504q-26 0 -37 -27l-65 -178q-9 -24 -37.5 -32.5t-112.5 -8.5q-59 0 -90 4t-39 10t-8 17q0 8 15 55l464 1221q14 39 45 52t117 13t117 -13t45 -52l465 -1221
q14 -44 14 -55t-8 -17t-39 -10t-90 -4q-83 0 -111.5 8.5t-37.5 32.5l-66 178q-11 27 -37 27z" />
    <glyph glyph-name="B" unicode="B" horiz-adv-x="1280" 
d="M942 733q10 -2 27.5 -7.5t61.5 -29t78 -55t61.5 -89t27.5 -126.5q0 -221 -145.5 -332.5t-417.5 -111.5q-207 0 -329 32t-122 80v1186q0 47 118.5 80t311.5 33q229 0 369.5 -90.5t140.5 -258.5q0 -60 -18.5 -114.5t-45.5 -88.5t-54 -60t-46 -37zM451 547v-279
q0 -35 39.5 -55t146.5 -20q293 0 293 237q0 178 -250 178h-164q-37 0 -51 -14.5t-14 -46.5zM451 870q0 -32 14 -46.5t51 -14.5h119q125 0 179 52.5t54 152.5q0 93 -63.5 130.5t-183.5 37.5q-96 0 -133 -18t-37 -52v-242z" />
    <glyph glyph-name="C" unicode="C" horiz-adv-x="1372" 
d="M815 -20q-111 0 -214 24.5t-196 79t-162 133t-110 194t-41 255.5q0 139 39.5 258t107.5 204.5t158.5 145.5t194 89.5t213.5 29.5q83 0 154.5 -14.5t118 -35.5t80 -46t48.5 -46t15 -34q0 -32 -40.5 -87t-66.5 -55q-13 0 -36 10.5t-49.5 23.5t-83 23.5t-128.5 10.5
q-68 0 -129.5 -17t-117 -53.5t-96 -90.5t-64 -133.5t-23.5 -176.5q0 -101 26 -179.5t69 -128t104.5 -81t127 -44t142.5 -12.5q86 0 163 19t120.5 42.5t78.5 42.5t46 19q26 0 26 -31q0 -72 -43 -172q-11 -28 -70.5 -66.5t-160 -69.5t-201.5 -31z" />
    <glyph glyph-name="D" unicode="D" horiz-adv-x="1445" 
d="M1354 717q0 -154 -39 -278t-106.5 -208.5t-162.5 -141t-204 -82t-234 -25.5q-177 0 -300.5 33t-123.5 79v1186q0 46 123.5 79.5t300.5 33.5q84 0 158 -8t151 -28.5t140 -53.5t119.5 -85.5t94.5 -121.5t60.5 -165.5t22.5 -213.5zM1087 715q0 92 -15.5 165t-39.5 122
t-63 84t-77 54t-90.5 30t-94 13.5t-97.5 2.5q-77 0 -118 -19t-41 -51v-848q0 -75 157 -75q51 0 97.5 6.5t95.5 23t90 42.5t78 67t62.5 94t40.5 127t15 162z" />
    <glyph glyph-name="E" unicode="E" horiz-adv-x="1210" 
d="M242 0q-58 0 -58 57v1258q0 57 58 57h698q67 0 92 -59t25 -195q0 -28 -25 -28q-6 0 -43 14t-128 28.5t-228 14.5h-160q-31 0 -31 -31v-280q0 -31 31 -31h385q20 0 30.5 -25t10.5 -94t-10.5 -94t-30.5 -25h-385q-31 0 -31 -30v-281q0 -31 31 -31h221q107 0 188.5 9t117 20
t61 20t33.5 9q24 0 24 -29q0 -136 -25 -195t-92 -59h-759z" />
    <glyph glyph-name="F" unicode="F" horiz-adv-x="1110" 
d="M451 1116v-307q0 -31 30 -31h377q13 0 21 -6.5t14 -32.5t6 -73t-6 -73t-14 -33t-21 -7h-377q-30 0 -30 -31v-481q0 -13 -9.5 -21t-40 -14t-84.5 -6q-55 0 -85.5 6t-39 14t-8.5 21v1274q0 57 58 57h680q67 0 91.5 -59t24.5 -195q0 -28 -24 -28q-12 0 -55.5 14t-132.5 28.5
t-212 14.5h-133q-30 0 -30 -31z" />
    <glyph glyph-name="G" unicode="G" horiz-adv-x="1398" 
d="M770 -20q-111 0 -209.5 24t-185.5 77.5t-149 133t-98 196.5t-36 261q0 172 57.5 310.5t156 227t226.5 136t273 47.5q83 0 156.5 -15.5t123 -38.5t86 -50t53.5 -49t17 -36q0 -32 -40 -86.5t-66 -54.5q-14 0 -38.5 12.5t-53 27.5t-89 27.5t-137.5 12.5q-93 0 -168.5 -25
t-137 -79t-96 -149t-34.5 -224q0 -124 31 -213.5t88 -139.5t127 -73t157 -23q113 0 171.5 41.5t58.5 83.5v293q0 26 91 54t134 28q25 0 36 -11.5t11 -37.5v-406q0 -18 -18 -50.5t-60 -72.5t-99.5 -75.5t-147 -59.5t-191.5 -24z" />
    <glyph glyph-name="H" unicode="H" horiz-adv-x="1495" 
d="M317 0q-55 0 -85.5 6t-39 14t-8.5 21v1290q0 13 8.5 21t39 14t85.5 6q54 0 84.5 -6t40 -14t9.5 -21v-528q0 -31 30 -31h533q30 0 30 31v528q0 13 9 21t39.5 14t85.5 6q54 0 84.5 -6t39.5 -14t9 -21v-1290q0 -13 -9 -21t-39.5 -14t-84.5 -6q-55 0 -85.5 6t-39.5 14t-9 21
v465q0 31 -30 31h-533q-30 0 -30 -31v-465q0 -13 -9.5 -21t-40 -14t-84.5 -6z" />
    <glyph glyph-name="I" unicode="I" horiz-adv-x="634" 
d="M317 0q-55 0 -85.5 6t-39 14t-8.5 21v1290q0 13 8.5 21t39 14t85.5 6q54 0 84.5 -6t40 -14t9.5 -21v-1290q0 -13 -9.5 -21t-40 -14t-84.5 -6z" />
    <glyph glyph-name="J" unicode="J" horiz-adv-x="995" 
d="M422 -20q-78 0 -151 25.5t-119 60.5t-73.5 66t-27.5 46q0 24 53 86t76 62q14 0 39 -19q48 -36 91.5 -55t99.5 -19q62 0 98.5 42t36.5 126v930q0 13 8.5 21t39 14t85.5 6q54 0 84.5 -6t39.5 -14t9 -21v-971q0 -163 -106 -271.5t-283 -108.5z" />
    <glyph glyph-name="K" unicode="K" horiz-adv-x="1376" 
d="M317 0q-55 0 -85.5 6t-39 14t-8.5 21v1290q0 13 8.5 21t39 14t85.5 6q54 0 84.5 -6t40 -14t9.5 -21v-573q0 -23 22 -23q93 58 172 139.5t131 165t85 156t50 135.5q5 21 30 31t103 10q54 0 84.5 -6t40 -14t9.5 -21q0 -36 -28.5 -114.5t-77.5 -175.5t-130.5 -203
t-173.5 -179q59 -19 117 -77t103 -126.5t88 -135t88 -110.5t87 -44q7 0 24.5 1t24.5 1q25 0 25 -23q0 -28 -33.5 -66t-93.5 -67.5t-121 -29.5q-110 0 -180 102q-29 42 -81 121t-82.5 124t-69.5 96t-68.5 75t-52.5 24q-31 0 -61.5 -12.5t-30.5 -30.5v-440q0 -13 -9.5 -21
t-40 -14t-84.5 -6z" />
    <glyph glyph-name="L" unicode="L" horiz-adv-x="1136" 
d="M223 0q-39 0 -39 41v1290q0 13 8.5 21t39 14t85.5 6q54 0 84.5 -6t40 -14t9.5 -21v-1067q0 -31 30 -31h181q107 0 188 9t116.5 20t61 20t33.5 9q24 0 24 -29q0 -138 -25 -200t-91 -62h-746z" />
    <glyph glyph-name="M" unicode="M" horiz-adv-x="1787" 
d="M307 0q-55 0 -83 5.5t-34 13t-6 22.5v1288q2 14 9.5 22t37.5 14.5t84 6.5q138 0 154 -41l424 -936l426 936q21 41 154 41q55 0 85 -6t38 -14t8 -21v-1290q0 -14 -6 -21.5t-34.5 -13.5t-82.5 -6q-53 0 -81 6t-35 14t-7 21v780l-344 -743q-13 -23 -32.5 -30t-86.5 -7
t-87.5 7t-33.5 30l-344 743v-780q0 -13 -7 -21t-35 -14t-81 -6z" />
    <glyph glyph-name="N" unicode="N" horiz-adv-x="1474" 
d="M309 0q-54 0 -83 6t-35.5 13.5t-6.5 21.5v1290q0 41 88 41q70 0 92 -5t33 -19l647 -875v858q0 14 6.5 21.5t34 13.5t80.5 6q54 0 83 -6t35.5 -13.5t6.5 -21.5v-1290q0 -41 -88 -41q-68 0 -91.5 5.5t-33.5 19.5l-647 852v-836q0 -14 -6.5 -21.5t-34 -13.5t-80.5 -6z" />
    <glyph glyph-name="O" unicode="O" horiz-adv-x="1486" 
d="M743 -20q-148 0 -267 44.5t-205 131.5t-132.5 223t-46.5 311q0 139 34 255t94 198t142.5 139t178.5 84t202 27q134 0 250 -44t206.5 -128.5t143 -221t52.5 -309.5q0 -174 -49 -310.5t-137 -223t-206.5 -131.5t-259.5 -45zM743 215q81 0 147 25.5t118.5 79t82 147
t29.5 219.5q0 127 -30.5 220.5t-84.5 145.5t-119 76.5t-143 24.5q-62 0 -115 -14.5t-102 -49t-83.5 -87t-55 -133t-20.5 -183.5q0 -127 27.5 -220t79.5 -147t118.5 -79t150.5 -25z" />
    <glyph glyph-name="P" unicode="P" horiz-adv-x="1280" 
d="M317 0q-133 0 -133 39v1239q0 46 124 80.5t300 34.5q270 0 425 -130.5t155 -359.5q0 -111 -30 -202.5t-82 -155.5t-123 -108t-151.5 -64.5t-168.5 -20.5q-44 0 -89.5 6t-69.5 12l-23 5v-336q0 -39 -134 -39zM451 647q0 -74 172 -74q130 0 203 80t73 240
q0 146 -72.5 213.5t-216.5 67.5q-75 0 -117 -23.5t-42 -56.5v-447z" />
    <glyph glyph-name="Q" unicode="Q" horiz-adv-x="1480" 
d="M608 4q-84 15 -153.5 41t-139 77.5t-117 123.5t-77 183.5t-29.5 252.5q0 176 52 314t142.5 223.5t206.5 129.5t250 44q106 0 202 -27t178.5 -84.5t142.5 -140t94.5 -199.5t34.5 -258q0 -502 -428 -657q44 0 94 -20.5t91 -45t114 -45t159 -20.5q25 0 25 -23
q0 -48 -79 -115t-169 -67q-53 0 -98 14.5t-79.5 38t-66.5 53t-67 61.5t-73 60t-92 51.5t-118 34.5zM743 215q81 0 147 25.5t118.5 79t82 147t29.5 219.5q0 127 -30.5 220.5t-84.5 145.5t-119 76.5t-143 24.5q-62 0 -115 -14.5t-102 -49t-83.5 -87t-55 -133t-20.5 -183.5
q0 -127 27.5 -220t79.5 -147t118.5 -79t150.5 -25z" />
    <glyph glyph-name="R" unicode="R" horiz-adv-x="1374" 
d="M317 0q-133 0 -133 39v1241q0 46 123.5 79.5t300.5 33.5q272 0 426 -115.5t154 -323.5q0 -87 -31.5 -164t-76 -125t-89.5 -83.5t-77 -50.5l-31 -15q25 -10 69.5 -68t86.5 -119.5t100 -112t110 -50.5q7 0 24.5 1t24.5 1q25 0 25 -23q0 -28 -33.5 -66t-93.5 -67.5
t-121 -29.5q-67 0 -122 25t-92 64.5t-67.5 87.5t-55 96t-48 87.5t-53 64.5t-64.5 25h-92q-30 0 -30 -31v-362q0 -39 -134 -39zM451 715q0 -62 120 -62q52 0 97 8t89 28.5t74.5 52.5t49 83.5t18.5 118.5q0 64 -22 111t-61 72.5t-84.5 37t-100.5 11.5q-83 0 -131.5 -15
t-48.5 -45v-401z" />
    <glyph glyph-name="S" unicode="S" horiz-adv-x="1140" 
d="M586 -20q-101 0 -201 31t-159 69.5t-70 66.5q-33 77 -33 193q0 31 27 31q11 0 50 -24.5t87.5 -53.5t130 -53.5t166.5 -24.5q103 0 158 49t55 119q0 43 -23 77.5t-61.5 58.5t-88.5 44.5t-105 41t-110 42.5t-105 53.5t-88.5 70t-61.5 95.5t-23 127q0 170 142 285t354 115
q74 0 139.5 -14.5t108.5 -35.5t74.5 -45t46 -43.5t14.5 -31.5q0 -31 -38.5 -82t-64.5 -51q-13 0 -38 12.5t-52.5 27t-77 27t-106.5 12.5q-115 0 -174.5 -42t-59.5 -115q0 -43 23 -77t61.5 -57t89 -43t106 -38.5t111 -39.5t106 -51t89 -68.5t61.5 -95.5t23 -128
q0 -194 -129.5 -314t-353.5 -120z" />
    <glyph glyph-name="T" unicode="T" horiz-adv-x="1089" 
d="M545 0q-55 0 -85.5 6t-39 14t-8.5 21v1065q0 31 -31 31h-289q-41 0 -41 123q0 67 10.5 89.5t30.5 22.5h905q20 0 30.5 -22.5t10.5 -89.5q0 -123 -41 -123h-288q-31 0 -31 -31v-1065q0 -13 -9 -21t-39.5 -14t-84.5 -6z" />
    <glyph glyph-name="U" unicode="U" horiz-adv-x="1429" 
d="M715 -20q-142 0 -251.5 42t-176 116t-100 170t-33.5 210v813q0 13 8.5 21t39 14t85.5 6q54 0 84.5 -6t39.5 -14t9 -21v-756q0 -360 295 -360t295 360v756q0 13 9 21t39.5 14t84.5 6q55 0 85.5 -6t39 -14t8.5 -21v-813q0 -114 -33.5 -210t-100 -170t-176 -116t-251.5 -42z
" />
    <glyph glyph-name="V" unicode="V" horiz-adv-x="1298" 
d="M649 0q-54 0 -84 7t-37 14t-12 20l-481 1257l-12 33q-5 11 2 19.5t37.5 15t84.5 6.5q158 0 172 -41l330 -985l330 985q14 41 172 41q54 0 84.5 -6.5t38 -15t2.5 -19.5l-25 -63l-469 -1227q-5 -13 -12 -20t-37 -14t-84 -7z" />
    <glyph glyph-name="W" unicode="W" horiz-adv-x="1916" 
d="M524 0q-79 0 -105.5 10t-31.5 31l-344 1255l-10 35q-3 13 4 21t36.5 14t84.5 6q140 0 151 -41l248 -944l268 883q10 36 33.5 48.5t99.5 12.5q70 0 97.5 -13.5t36.5 -47.5l268 -883l248 944q11 41 151 41q55 0 84.5 -6t36.5 -14t4 -21l-12 -49l-342 -1241
q-5 -21 -31.5 -31t-105.5 -10t-107 10.5t-33 30.5l-295 895l-294 -895q-5 -20 -33 -30.5t-107 -10.5z" />
    <glyph glyph-name="X" unicode="X" horiz-adv-x="1245" 
d="M1067 0q-127 0 -152 41l-319 481q-214 -264 -262 -469q-6 -30 -36 -41.5t-118 -11.5q-84 0 -116.5 10.5t-32.5 42.5q0 52 30 118t102.5 161t121 152.5t156.5 181.5q23 26 34 39l-393 595q-10 17 -10 27t12 19.5t47 17.5t88 8q127 0 152 -41l276 -420q90 119 134.5 212.5
t68.5 195.5q6 30 36 41.5t118 11.5q84 0 116.5 -10.5t32.5 -42.5q0 -56 -26.5 -120.5t-85 -146.5t-115.5 -151t-154 -178l432 -651q10 -17 10 -27t-12 -19.5t-47 -17.5t-88 -8z" />
    <glyph glyph-name="Y" unicode="Y" horiz-adv-x="1196" 
d="M598 0q-55 0 -85.5 6t-39 14t-8.5 21v512q0 10 -2.5 19.5t-4.5 13.5l-3 4l-414 710q-10 17 -10 27t12 19.5t47 17.5t88 8q127 0 152 -41l268 -493l268 493q25 41 152 41q53 0 88 -8t47 -17.5t12 -19.5t-10 -27l-416 -710q-8 -14 -8 -37v-512q0 -13 -9 -21t-39.5 -14
t-84.5 -6z" />
    <glyph glyph-name="Z" unicode="Z" horiz-adv-x="1290" 
d="M440 236h377q115 0 193 14t112 27.5t41 13.5q25 0 25 -29q0 -137 -25.5 -199.5t-91.5 -62.5h-928q-41 0 -41 133q0 90 31 131l686 873h-313q-89 0 -158.5 -8.5t-100.5 -19.5t-54.5 -19.5t-32.5 -8.5q-25 0 -25 29q0 137 25.5 199.5t91.5 62.5h858q41 0 41 -133
q0 -90 -37 -143z" />
    <glyph glyph-name="bracketleft" unicode="[" horiz-adv-x="870" 
d="M184 -442v1773q0 22 8.5 31.5t28.5 9.5h537q10 0 15.5 -5.5t10 -30t4.5 -70.5q0 -111 -30 -111h-328v-1421h328q10 0 15.5 -4.5t10 -29t4.5 -73.5q0 -110 -30 -110h-537q-20 0 -28.5 9.5t-8.5 31.5z" />
    <glyph glyph-name="backslash" unicode="\" horiz-adv-x="999" 
d="M680 41l-629 1259q-10 17 -10 27q0 45 133 45q53 0 85 -6.5t42.5 -14.5t17.5 -20l629 -1259q10 -17 10 -27q0 -45 -133 -45q-53 0 -85 6.5t-42.5 14.5t-17.5 20z" />
    <glyph glyph-name="bracketright" unicode="]" horiz-adv-x="870" 
d="M686 1331v-1773q0 -22 -8.5 -31.5t-28.5 -9.5h-536q-10 0 -15.5 5.5t-10.5 30t-5 70.5q0 111 31 111h327v1421h-327q-10 0 -15.5 4.5t-10.5 29t-5 73.5q0 110 31 110h536q20 0 28.5 -9.5t8.5 -31.5z" />
    <glyph glyph-name="asciicircum" unicode="^" 
d="M569 1114l-317 -493q-15 -21 -41 -21q-25 0 -72 34.5t-47 65.5q0 23 14 37l381 592q34 51 88 51q53 0 89 -51l383 -592q14 -18 14 -37q0 -30 -45.5 -65t-73.5 -35q-26 0 -41 21l-315 493q-4 6 -8 6z" />
    <glyph glyph-name="underscore" unicode="_" horiz-adv-x="1331" 
d="M94 -150h1143q13 0 21.5 -8t15 -36.5t6.5 -77.5q0 -50 -6.5 -78.5t-15 -36.5t-21.5 -8h-1143q-43 0 -43 123q0 49 6.5 77.5t15 36.5t21.5 8z" />
    <glyph glyph-name="grave" unicode="`" horiz-adv-x="614" 
d="M446 1167q-15 0 -49 21q-230 144 -270 182q-25 21 -25 43q0 29 50.5 80t78.5 51q21 0 43 -22q143 -157 213 -240q25 -29 25 -45q0 -15 -25.5 -42.5t-40.5 -27.5z" />
    <glyph glyph-name="a" unicode="a" horiz-adv-x="1167" 
d="M346 315q0 -68 47.5 -103.5t124.5 -35.5q71 0 122.5 35t51.5 72v227q0 25 -24 25q-23 0 -97 -23q-46 -15 -80 -29.5t-70 -38t-55.5 -56.5t-19.5 -73zM922 -20q-39 0 -74.5 11.5t-57.5 27.5t-38.5 32t-23.5 27l-7 12q-151 -110 -315 -110q-148 0 -241 79t-93 224
q0 85 27.5 147t87 106t138.5 74t197 56q89 21 126.5 36.5t37.5 38.5q0 55 -47.5 86t-138.5 31q-71 0 -140 -23t-113 -46t-54 -23q-25 0 -25 29q0 53 37 151q15 38 118 78.5t216 40.5q228 0 323.5 -100t95.5 -312v-383q0 -88 80 -88h58q20 0 20 -20q0 -40 -66 -111t-128 -71z
" />
    <glyph glyph-name="b" unicode="b" horiz-adv-x="1189" 
d="M133 236v1196q0 13 8.5 21.5t39.5 15t85 6.5t85 -6.5t39.5 -15t8.5 -21.5v-480q5 5 14 12.5t40 27t64 34.5t84.5 27t103.5 12q167 0 280 -137.5t113 -368.5q0 -122 -31 -221t-82.5 -164.5t-121.5 -110t-145.5 -64t-156.5 -19.5q-181 0 -304.5 79t-123.5 177zM584 856
q-71 0 -128 -47t-57 -98v-404q0 -57 51.5 -97t129.5 -40q223 0 223 377q0 90 -17 153t-48.5 96t-68.5 46.5t-85 13.5z" />
    <glyph glyph-name="c" unicode="c" horiz-adv-x="1064" 
d="M635 -20q-86 0 -163.5 17.5t-148 57.5t-121 99t-80.5 147.5t-30 198.5q0 137 43.5 246t119.5 178t176.5 105t217.5 36q134 0 218.5 -36.5t84.5 -74.5q0 -35 -48.5 -104.5t-78.5 -69.5q-9 0 -35 18.5t-70.5 37t-96.5 18.5q-44 0 -83 -17.5t-73.5 -54.5t-55 -104.5
t-20.5 -157.5q0 -161 79.5 -244t211.5 -83q71 0 133.5 21.5t100.5 43t49 21.5q10 0 19 -7.5t9 -21.5q0 -51 -39 -146q-14 -38 -108.5 -81t-210.5 -43z" />
    <glyph glyph-name="d" unicode="d" horiz-adv-x="1265" 
d="M788 297v483q0 34 -35 59t-89 25q-41 0 -78 -10.5t-74 -37.5t-64 -69t-44 -111t-17 -157q0 -83 21 -145.5t56.5 -96t74.5 -49.5t82 -16q68 0 117.5 41.5t49.5 83.5zM520 -20q-63 0 -122.5 16.5t-115.5 54t-98 92t-67 136t-25 180.5q0 134 36 242t91 174t126 110.5t136 62
t127 17.5q45 0 91 -10.5t69 -20.5l23 -10v408q0 13 8.5 21.5t39.5 15t85 6.5t85 -6.5t39.5 -15t8.5 -21.5v-1162q0 -88 78 -88h57q22 0 22 -20q0 -40 -68 -111t-128 -71q-40 0 -76 11.5t-58.5 27.5t-39.5 32t-24 27l-7 12q-5 -4 -13.5 -11.5t-37.5 -26.5t-61 -33.5
t-81.5 -26.5t-99.5 -12z" />
    <glyph glyph-name="e" unicode="e" horiz-adv-x="1075" 
d="M641 -20q-118 0 -216 31t-173.5 92t-117.5 161t-42 230q0 118 29 215t78 162t115 109.5t138 64.5t150 20q195 0 298.5 -84.5t103.5 -216.5q0 -78 -39.5 -144t-102.5 -109t-144 -74t-161.5 -45t-157.5 -15q49 -184 281 -184q55 0 107 13.5t82.5 29.5t56 29.5t35.5 13.5
q12 0 20 -7.5t8 -21.5q0 -48 -37 -146q-14 -38 -107 -81t-204 -43zM731 780q0 49 -34.5 82t-82.5 33q-98 0 -161.5 -92.5t-67.5 -282.5q142 6 244 77t102 183z" />
    <glyph glyph-name="f" unicode="f" horiz-adv-x="827" 
d="M307 0q-54 0 -85 6.5t-39.5 15t-8.5 21.5v803h-59q-18 0 -30.5 23t-12.5 75q0 100 43 100h59v9q0 191 113.5 306.5t318.5 115.5q80 0 150.5 -30.5t70.5 -58.5t-50.5 -91.5t-74.5 -63.5q-17 0 -55.5 22.5t-75.5 22.5q-51 0 -91 -42.5t-40 -105.5v-84h250q14 0 23.5 -9.5
t9.5 -22.5q0 -41 -43.5 -103.5t-79.5 -62.5h-160v-803q0 -13 -8.5 -21.5t-39.5 -15t-85 -6.5z" />
    <glyph glyph-name="g" unicode="g" horiz-adv-x="1208" 
d="M788 -39v111q-4 -4 -12.5 -10t-36 -22t-56.5 -28t-72.5 -22t-86.5 -10q-57 0 -115.5 18t-116 57t-101.5 94.5t-71.5 137.5t-27.5 178q0 128 35.5 231t95 170.5t140.5 113.5t168 65.5t182 19.5q92 0 173 -20.5t125 -50t44 -58.5v-985q0 -86 -31.5 -165.5t-89.5 -141.5
t-147 -99t-195 -37q-115 0 -217 35.5t-117 71.5q-37 90 -37 145q0 27 25 27q10 0 49.5 -17t104 -34t135.5 -17q121 0 187 61t66 181zM788 297v506q0 29 -28 50t-80 21q-49 0 -90.5 -11.5t-79.5 -40.5t-65 -73t-42.5 -113t-15.5 -157q0 -307 234 -307q65 0 116 42t51 83z" />
    <glyph glyph-name="h" unicode="h" horiz-adv-x="1284" 
d="M1036 -20q-106 0 -166.5 64.5t-60.5 178.5v469q0 79 -43.5 119.5t-118.5 40.5q-51 0 -106 -29t-88 -64.5t-33 -56.5v-659q0 -13 -8.5 -21.5t-39.5 -15t-85 -6.5t-85 6.5t-39.5 15t-8.5 21.5v1389q0 13 8.5 21.5t39.5 15t85 6.5t85 -6.5t39.5 -15t8.5 -21.5v-500
q148 133 356 133q125 0 212 -78t87 -196v-519q0 -88 78 -88h57q23 0 23 -20q0 -40 -67.5 -112t-129.5 -72z" />
    <glyph glyph-name="i" unicode="i" horiz-adv-x="589" 
d="M248 1475q72 0 108.5 -37.5t36.5 -118.5q0 -82 -36 -118t-109 -36t-109.5 36t-36.5 118q0 81 37 118.5t109 37.5zM381 1001v-729q0 -88 78 -88h57q23 0 23 -20q0 -40 -67 -112t-128 -72q-106 0 -167.5 64.5t-61.5 178.5v778q0 13 8.5 21.5t39.5 15t85 6.5t85 -6.5
t39.5 -15t8.5 -21.5z" />
    <glyph glyph-name="j" unicode="j" horiz-adv-x="583" 
d="M295 1475q72 0 108.5 -37.5t36.5 -118.5q0 -82 -36 -118t-109 -36t-109 36t-36 118q0 81 36.5 118.5t108.5 37.5zM295 1044q54 0 85 -6.5t39.5 -15t8.5 -21.5v-991q0 -129 -30.5 -229.5t-80.5 -157.5t-108 -86t-119 -29q-38 0 -89.5 40t-51.5 65t35 39q43 18 73 43
t55 68.5t37.5 114t12.5 169.5v954q0 13 8.5 21.5t39.5 15t85 6.5z" />
    <glyph glyph-name="k" unicode="k" horiz-adv-x="1136" 
d="M266 0q-54 0 -85 6.5t-39.5 15t-8.5 21.5v1389q0 13 8.5 21.5t39.5 15t85 6.5t85 -6.5t39.5 -15t8.5 -21.5v-793q92 31 170 96t125 134t78 145q13 30 37 30h176q35 0 35 -28q0 -17 -14 -49q-53 -117 -141 -235.5t-181 -172.5q58 -22 107 -89t120 -206q25 -49 50.5 -65.5
t66.5 -16.5h57q21 0 21 -20q0 -39 -72 -110.5t-133 -71.5q-120 0 -168 83q-149 267 -186 319q-39 56 -62 56q-7 0 -28.5 -6t-39.5 -12l-18 -6v-371q0 -13 -8.5 -21.5t-39.5 -15t-85 -6.5z" />
    <glyph glyph-name="l" unicode="l" horiz-adv-x="608" 
d="M362 -20q-106 0 -167.5 64.5t-61.5 178.5v1209q0 13 8.5 21.5t39.5 15t85 6.5t85 -6.5t39.5 -15t8.5 -21.5v-1160q0 -88 78 -88h58q22 0 22 -20q0 -40 -67 -112t-128 -72z" />
    <glyph glyph-name="m" unicode="m" horiz-adv-x="1863" 
d="M1616 -20q-106 0 -166.5 64.5t-60.5 178.5v484q0 71 -38.5 108t-107.5 37q-67 0 -135 -49.5t-68 -91.5v-668q0 -13 -8.5 -21.5t-39.5 -15t-85 -6.5t-85 6.5t-39.5 15t-8.5 21.5v659q0 73 -43 111.5t-110 38.5q-70 0 -132.5 -49t-62.5 -101v-659q0 -13 -8.5 -21.5
t-39.5 -15t-85 -6.5t-85 6.5t-39.5 15t-8.5 21.5v743q0 40 -14.5 71t-29 50.5t-14.5 30.5q0 28 84 77.5t125 49.5q29 0 50.5 -18t30 -35t26.5 -62q4 -9 6 -14q83 63 136 88q90 41 190 41q85 0 139 -38t104 -114q64 63 170 107.5t195 44.5q126 0 211.5 -69t85.5 -189v-535
q0 -88 78 -88h57q22 0 22 -20q0 -40 -67 -112t-129 -72z" />
    <glyph glyph-name="n" unicode="n" horiz-adv-x="1290" 
d="M1042 -20q-106 0 -166.5 64.5t-60.5 178.5v463q0 166 -162 166q-76 0 -151.5 -57t-75.5 -93v-659q0 -13 -8.5 -21.5t-39.5 -15t-85 -6.5t-85 6.5t-39.5 15t-8.5 21.5v743q0 40 -14.5 71t-29 50.5t-14.5 30.5q0 28 84 77.5t125 49.5q21 0 37 -7.5t28.5 -25t20 -32.5
t19.5 -44q1 -2 4 -8.5t4 -11.5q58 48 156.5 88.5t195.5 40.5q135 0 220 -77.5t85 -201.5v-514q0 -88 78 -88h58q22 0 22 -20q0 -40 -67.5 -112t-129.5 -72z" />
    <glyph glyph-name="o" unicode="o" horiz-adv-x="1226" 
d="M614 -18q-105 0 -198 34t-166 99.5t-115.5 171.5t-42.5 239t42.5 237.5t115.5 169.5t165.5 98.5t198.5 33.5q105 0 197.5 -33.5t165.5 -98.5t115.5 -169.5t42.5 -237.5t-42.5 -239t-115.5 -171.5t-165.5 -99.5t-197.5 -34zM614 172q103 0 165.5 89t62.5 269t-62.5 269.5
t-165.5 89.5t-166 -89.5t-63 -269.5t63 -269t166 -89z" />
    <glyph glyph-name="p" unicode="p" horiz-adv-x="1204" 
d="M283 -506q-54 0 -85 6.5t-39.5 15t-8.5 21.5v1249q0 40 -14.5 71t-29 50.5t-14.5 30.5q0 28 84 77.5t125 49.5q29 0 50.5 -18t30 -35t26.5 -62q4 -9 6 -14q5 5 15 14t40.5 31t62 39t76.5 31t88 14q89 0 163.5 -30.5t131.5 -91t89 -157.5t32 -223q0 -143 -36.5 -256
t-101.5 -183.5t-149 -107t-182 -36.5q-41 0 -97.5 14t-93 27.5t-36.5 15.5v-500q0 -13 -8.5 -21.5t-39.5 -15t-85 -6.5zM580 158q106 0 172.5 100t66.5 289q0 90 -16.5 153t-47.5 96t-67.5 46.5t-83.5 13.5q-70 0 -129 -47.5t-59 -77.5v-465q0 -33 51.5 -70.5t112.5 -37.5z
" />
    <glyph glyph-name="q" unicode="q" horiz-adv-x="1206" 
d="M920 -506q-54 0 -85 6.5t-40 15t-9 21.5v535q-4 -4 -12.5 -10t-36 -22t-56.5 -28t-72.5 -22t-86.5 -10q-72 0 -145.5 30t-138 86.5t-105.5 153t-41 215.5q0 128 35.5 231t94.5 170.5t139.5 113.5t167.5 65.5t182 19.5q92 0 173 -20.5t125 -50t44 -58.5v-1399
q0 -13 -8.5 -21.5t-39.5 -15t-85 -6.5zM786 297v506q0 29 -28 50t-80 21q-49 0 -90.5 -11.5t-79.5 -40.5t-65 -73t-42.5 -113t-15.5 -157q0 -91 20.5 -154.5t56 -95t73.5 -44.5t83 -13q65 0 116.5 42t51.5 83z" />
    <glyph glyph-name="r" unicode="r" horiz-adv-x="878" 
d="M293 0q-54 0 -85 6.5t-39.5 15t-8.5 21.5v743q0 40 -14.5 71t-29 50.5t-14.5 30.5q0 28 84 77.5t125 49.5q29 0 50.5 -18t30 -35t26.5 -62q4 -9 6 -14q5 5 13 14t35 31t54.5 39t67 31t76.5 14q63 0 120.5 -22t57.5 -54q0 -26 -39 -88t-76 -100q-21 -21 -39 -21
q-12 0 -54 28t-77 28q-50 0 -93.5 -46t-43.5 -96v-651q0 -13 -8.5 -21.5t-39.5 -15t-85 -6.5z" />
    <glyph glyph-name="s" unicode="s" horiz-adv-x="958" 
d="M492 -20q-84 0 -165.5 21.5t-135 51.5t-86.5 59.5t-33 47.5q0 33 52.5 92t76.5 59q13 0 43 -21.5t62.5 -47t85 -47t104.5 -21.5q61 0 93 30.5t32 82.5q0 37 -28 65.5t-72.5 48t-98.5 38.5t-108 43.5t-98.5 55t-72.5 80t-28 113.5q0 151 113.5 242.5t303.5 91.5
q79 0 145 -16t103.5 -39t57.5 -46.5t20 -41.5q0 -34 -50.5 -94t-80.5 -60q-8 0 -26.5 17.5t-40.5 39t-63 39t-89 17.5q-57 0 -94 -31.5t-37 -77.5q0 -36 22 -63.5t58 -44t81.5 -33.5t93.5 -31.5t93.5 -38t81.5 -52.5t58 -76t22 -107q0 -155 -111 -250.5t-284 -95.5z" />
    <glyph glyph-name="t" unicode="t" horiz-adv-x="745" 
d="M115 1044h61v197q0 31 91 77t141 46q34 0 34 -39v-281h203q14 0 23.5 -9.5t9.5 -22.5q0 -42 -42.5 -104t-80.5 -62h-113v-459q0 -103 47 -154t125 -51h60q20 0 20 -22t-31 -64.5t-79.5 -79t-89.5 -36.5q-148 0 -233 85.5t-85 221.5v559h-61q-43 0 -43 98q0 100 43 100z
" />
    <glyph glyph-name="u" unicode="u" horiz-adv-x="1220" 
d="M449 -20q-145 0 -246 90.5t-101 240.5v690q0 13 9 21.5t40 15t85 6.5t85 -6.5t39.5 -15t8.5 -21.5v-628q0 -84 49 -128t133 -44q80 0 142.5 44t62.5 91v665q0 13 8.5 21.5t39.5 15t85 6.5t85 -6.5t39.5 -15t8.5 -21.5v-731q0 -88 78 -88h57q23 0 23 -20q0 -40 -66.5 -111
t-128.5 -71q-99 0 -180 114l-19 27q-44 -34 -66.5 -50t-68.5 -42t-95.5 -37.5t-106.5 -11.5z" />
    <glyph glyph-name="v" unicode="v" horiz-adv-x="1091" 
d="M530 -20q-106 0 -203 44t-161 129.5t-64 192.5v655q0 13 9 21.5t40 15t85 6.5t85 -6.5t39.5 -15t8.5 -21.5v-624q0 -87 55.5 -134.5t134.5 -47.5q93 0 146 104.5t53 294.5q0 80 -14 155.5t-30 120t-30 81t-14 46.5q0 22 27.5 34.5t78.5 12.5q154 0 195 -102
q59 -153 59 -324q0 -178 -63.5 -323.5t-178 -230t-258.5 -84.5z" />
    <glyph glyph-name="w" unicode="w" horiz-adv-x="1710" 
d="M473 -20q-176 0 -273.5 103t-97.5 292v626q0 13 9 21.5t40 15t85 6.5t85 -6.5t39.5 -15t8.5 -21.5v-557q0 -130 47 -186.5t137 -56.5q77 0 129.5 48t52.5 124v628q0 13 8.5 21.5t39.5 15t85 6.5t85 -6.5t39.5 -15t8.5 -21.5v-628q0 -79 43 -125.5t117 -46.5
q109 0 162 104.5t53 288.5q0 80 -14 155.5t-30 120t-30 81t-14 46.5q0 22 28 34.5t79 12.5q153 0 194 -102q60 -155 60 -324q0 -136 -32.5 -251t-96 -202t-163.5 -136t-227 -49q-62 0 -118.5 13.5t-93 33t-64.5 39.5t-40 34l-13 13q-5 -5 -14.5 -14t-42 -32t-68 -40.5
t-91 -32t-112.5 -14.5z" />
    <glyph glyph-name="x" unicode="x" horiz-adv-x="1122" 
d="M891 1044q81 0 105 -9t24 -42q0 -94 -64 -184q-19 -27 -42 -52.5t-56 -55.5t-49.5 -44.5t-59.5 -49.5t-49 -40l357 -483q14 -25 14 -43q0 -41 -131 -41q-139 0 -162 31l-262 354q-153 -212 -182 -332q-6 -30 -36 -41.5t-118 -11.5q-80 0 -104.5 10t-24.5 43q0 74 82 189
q42 58 104.5 123t102.5 101t72 62l-320 435q-16 23 -16 43q0 38 133 38q85 0 118.5 -7.5t45.5 -22.5l215 -295q121 158 149 274q6 29 36 40t118 11z" />
    <glyph glyph-name="y" unicode="y" horiz-adv-x="1165" 
d="M569 -492q-115 0 -216.5 35.5t-116.5 71.5q-37 90 -37 145q0 27 24 27q10 0 49.5 -17t104 -34t135.5 -17q121 0 187.5 61.5t66.5 180.5v137q-145 -118 -307 -118q-143 0 -234.5 89.5t-91.5 241.5v690q0 13 8.5 21.5t39.5 15t85 6.5t85 -6.5t39.5 -15t8.5 -21.5v-628
q0 -172 162 -172q80 0 142.5 44t62.5 91v665q0 13 8.5 21.5t39.5 15t85 6.5t85 -6.5t39.5 -15t8.5 -21.5v-1050q0 -86 -31.5 -165.5t-89.5 -141.5t-147 -99t-195 -37z" />
    <glyph glyph-name="z" unicode="z" horiz-adv-x="1030" 
d="M102 0q-12 0 -21 9t-9 26q0 117 12.5 158.5t67.5 109.5l434 490q14 18 14 24q0 14 -27 14q-137 0 -233 -14.5t-138 -28.5t-48 -14q-25 0 -25 29q0 134 24.5 187.5t92.5 53.5h655q35 0 35 -34q0 -115 -11.5 -154.5t-58.5 -99.5l-430 -486q-20 -22 -20 -32q0 -15 28 -15
q121 0 218.5 9.5t145 20.5t82 20.5t44.5 9.5q24 0 24 -29q0 -133 -31.5 -193.5t-103.5 -60.5h-721z" />
    <glyph glyph-name="braceleft" unicode="{" horiz-adv-x="811" 
d="M600 -563q-18 0 -53 18q-28 16 -44.5 26t-49 31t-53.5 37.5t-51 43t-50.5 51t-42.5 57.5t-35.5 65.5t-22 73t-8.5 82.5q0 85 20.5 179.5t20.5 125.5q0 44 -14 74.5t-57 58.5q-48 31 -63 52t-15 73t15 73t63 52q43 28 57 58.5t14 74.5q0 31 -20.5 126t-20.5 180
q0 42 8.5 82.5t22 73t35.5 65.5t42.5 57.5t50.5 51t51 43t53.5 37.5t49 31t44.5 26q34 18 53 18t32.5 -10t35.5 -43q41 -62 41 -76q0 -4 -1 -7.5t-3 -7.5t-4 -6t-6.5 -5.5t-6.5 -5l-8 -6t-8 -5.5q-10 -7 -43 -30t-46.5 -32.5t-42 -32.5t-42.5 -38t-34 -40t-29.5 -46.5
t-17 -50t-7.5 -58.5q0 -55 23.5 -137.5t23.5 -169.5q0 -122 -109 -242q109 -120 109 -241q0 -87 -23.5 -169.5t-23.5 -137.5q0 -30 7.5 -58.5t17 -50t29.5 -46.5t34 -40t42.5 -38t42 -32.5t46.5 -32.5t43 -30q2 -1 8 -5.5l8 -6t6.5 -5t6.5 -5.5t4 -6t3 -7.5t1 -7.5
q0 -14 -41 -76q-22 -33 -35.5 -43t-32.5 -10z" />
    <glyph glyph-name="bar" unicode="|" horiz-adv-x="552" 
d="M276 -369q-54 0 -82 6t-34 13.5t-6 21.5v1762q0 14 6 21.5t34 13.5t82 6t82 -6t34.5 -13.5t6.5 -21.5v-1762q0 -14 -6.5 -21.5t-34.5 -13.5t-82 -6z" />
    <glyph glyph-name="braceright" unicode="}" horiz-adv-x="811" 
d="M211 -563q-19 0 -32.5 10t-35.5 43q-41 62 -41 76q0 4 1 7.5t3 7.5t4 6t6.5 5.5t6.5 5l8 6t8 5.5q10 7 43 30t46.5 32.5t42 32.5t42.5 38t34 40t29.5 46.5t17 50t7.5 58.5q0 55 -23.5 137.5t-23.5 169.5q0 121 109 241q-109 120 -109 242q0 87 23.5 169.5t23.5 137.5
q0 30 -7.5 58.5t-17 50t-29.5 46.5t-34 40t-42.5 38t-42 32.5t-46.5 32.5t-43 30q-2 1 -8 5.5l-8 6t-6.5 5t-6.5 5.5t-4 6t-3 7.5t-1 7.5q0 14 41 76q22 33 35.5 43t32.5 10q18 0 53 -18q28 -16 44.5 -26t49 -31t53.5 -37.5t51 -43t50.5 -51t42.5 -57.5t35.5 -65.5t22 -73
t8.5 -82.5q0 -85 -20.5 -180t-20.5 -126q0 -44 14 -74.5t57 -58.5q48 -31 63 -52t15 -73t-15 -73t-63 -52q-43 -28 -57 -58.5t-14 -74.5q0 -31 20.5 -125.5t20.5 -179.5q0 -42 -8.5 -82.5t-22 -73t-35.5 -65.5t-42.5 -57.5t-50.5 -51t-51 -43t-53.5 -37.5t-49 -31t-44.5 -26
q-34 -18 -53 -18z" />
    <glyph glyph-name="asciitilde" unicode="~" horiz-adv-x="1267" 
d="M1042 905q23 29 52 29q30 0 75 -45q48 -45 48 -70q0 -23 -24.5 -58.5t-64.5 -71.5t-102.5 -61.5t-128.5 -25.5q-69 0 -142 24t-125.5 52t-118 52t-120.5 24q-35 0 -78 -22.5t-82 -80.5q-17 -30 -53 -30q-23 0 -78 43q-49 46 -49 71q0 23 26 59t69 71.5t108.5 61
t134.5 25.5q68 0 168.5 -38t189.5 -75.5t130 -37.5q37 0 84 26.5t81 77.5z" />
    <glyph glyph-name="exclamdown" unicode="&#xa1;" horiz-adv-x="643" 
d="M258 578h119q25 0 40 -14.5t15 -37.5v-921q0 -25 -15 -39.5t-40 -14.5h-119q-26 0 -40.5 14.5t-14.5 39.5v921q0 24 14.5 38t40.5 14zM326 1044q153 0 153 -170q0 -174 -153 -174q-77 0 -119.5 44t-42.5 130q0 88 40.5 129t121.5 41z" />
    <glyph glyph-name="cent" unicode="&#xa2;" horiz-adv-x="1044" 
d="M553 -117q-44 0 -67 5t-28 11t-5 17v102q-89 21 -164 63.5t-133.5 105t-91.5 151t-33 192.5q0 117 33.5 213t92.5 161.5t133.5 107t162.5 59.5v103q0 11 5 17t28 10.5t67 4.5t67 -4.5t28 -10.5t5 -17v-93q146 -11 237 -67.5t91 -110.5q0 -107 -16 -162q-3 -14 -6 -19.5
t-12.5 -14.5t-31 -13t-55.5 -4q-87 0 -90 55q-3 63 -35.5 103t-81.5 57v-692q77 3 142 24.5t102 41.5t47 20q11 0 20 -7.5t9 -21.5q0 -42 -39 -145q-16 -36 -98 -77t-183 -48v-84q0 -11 -5 -17t-28.5 -11t-66.5 -5zM309 541q0 -214 144 -291v635q-144 -74 -144 -344z" />
    <glyph glyph-name="sterling" unicode="&#xa3;" horiz-adv-x="1091" 
d="M809 506h-274q0 -6 1 -15t1 -12q0 -104 -52 -213q62 15 123 15q31 0 98 -20.5t95 -20.5q32 0 83.5 29.5t61.5 29.5q19 0 56.5 -58.5t37.5 -80.5q0 -10 -30 -39t-73 -60t-97 -55t-95 -24t-138 36.5t-128 36.5q-35 0 -117.5 -39t-107.5 -39q-37 0 -86 68.5t-49 104.5
q0 14 28 38.5t61 50t61 65t28 79.5q0 51 -14 123h-158q-43 0 -43 102q0 103 43 103h102q-37 137 -37 229q0 134 66 238.5t176 159.5t242 55q71 0 133 -16t101.5 -40t68 -52.5t41 -52t12.5 -38.5q0 -37 -57 -101.5t-92 -64.5q-13 0 -36 21.5t-48 47t-67 47t-87 21.5
q-86 0 -140 -54t-54 -175q0 -85 36 -225h324q43 0 43 -103q0 -102 -43 -102z" />
    <glyph glyph-name="yen" unicode="&#xa5;" horiz-adv-x="1026" 
d="M745 252h-120v-201q0 -23 -16 -37t-42 -14h-110q-25 0 -40.5 14t-15.5 37v201h-112q-26 0 -42 15t-16 40v62q0 26 16 41.5t42 15.5h112v43h-112q-26 0 -42 15t-16 40v62q0 26 16 41.5t42 15.5h112v76q0 4 -360 579q-17 38 -2.5 56t41.5 18h131q16 0 28 -6.5t15.5 -11.5
t11.5 -17l244 -383l250 383q8 12 11.5 17t15.5 11.5t28 6.5h131q27 0 41.5 -18t-2.5 -56q-360 -575 -360 -579v-76h120q23 0 39.5 -13.5t16.5 -43.5v-62q0 -25 -15.5 -40t-40.5 -15h-120v-43h120q23 0 39.5 -13.5t16.5 -43.5v-62q0 -25 -15.5 -40t-40.5 -15z" />
    <glyph glyph-name="brokenbar" unicode="&#xa6;" horiz-adv-x="260" 
d="M162 -350h-64q-27 0 -43 14.5t-16 40.5v594q0 23 14.5 38t44.5 15h64q26 0 41.5 -14t15.5 -39v-594q0 -26 -15.5 -40.5t-41.5 -14.5zM162 580h-64q-27 0 -43 14.5t-16 40.5v594q0 23 14.5 38t44.5 15h64q26 0 41.5 -14t15.5 -39v-594q0 -25 -15.5 -40t-41.5 -15z" />
    <glyph glyph-name="section" unicode="&#xa7;" horiz-adv-x="843" 
d="M408 -12q-138 0 -231 80.5t-93 177.5q0 41 70 82q55 30 94 30q25 0 43 -18q12 -18 12 -47q0 -43 29.5 -70.5t81.5 -27.5q127 0 127 96q0 44 -42 74.5t-139 72.5q-40 18 -64.5 29t-63.5 32.5t-63 40.5t-53.5 49t-45.5 61.5t-27.5 74t-11.5 90.5q0 89 73 180
q-32 49 -32 113q0 145 105 234.5t259 89.5q139 0 231.5 -80.5t92.5 -177.5q0 -47 -68 -82q-57 -31 -96 -31q-23 0 -41 18q-14 21 -14 47q0 43 -29 71t-82 28q-127 0 -127 -97q0 -45 41 -74.5t141 -72.5q41 -18 64 -29t62.5 -32.5t63.5 -40.5t53.5 -49t45.5 -61.5t27.5 -74
t11.5 -90.5q0 -87 -65 -188q24 -52 24 -105q0 -145 -104 -234t-260 -89zM264 858q-14 -33 -14 -61q0 -43 38 -77t109 -69q20 -10 85.5 -40.5t99.5 -49.5q12 28 12 62q0 42 -39 77t-111 70q-22 11 -85 41t-95 47z" />
    <glyph glyph-name="dieresis" unicode="&#xa8;" horiz-adv-x="710" 
d="M168 1169q-137 0 -137 152q0 154 137 154q67 0 105 -39.5t38 -114.5q0 -152 -143 -152zM537 1169q-138 0 -138 152q0 154 138 154q67 0 105 -39.5t38 -114.5q0 -152 -143 -152z" />
    <glyph glyph-name="copyright" unicode="&#xa9;" horiz-adv-x="1400" 
d="M700 203q-163 0 -302.5 77t-222.5 212t-83 296q0 162 83 297.5t222.5 213t302.5 77.5q164 0 304 -77.5t222.5 -213t82.5 -297.5q0 -121 -49 -229.5t-131 -186.5t-194 -123.5t-235 -45.5zM700 1206q-179 0 -299 -113t-120 -305q0 -186 119 -299.5t300 -113.5
q178 0 300 115t122 298q0 128 -57.5 224.5t-152.5 145t-212 48.5zM971 926q0 -31 -41 -48.5t-76 -17.5q-50 0 -55 39q-3 15 -8.5 31t-19.5 33.5t-32 17.5q-123 0 -123 -199q0 -56 10.5 -94t29 -55t36.5 -23t41 -6q20 0 34 5.5t20 12t14 17.5q0 1 3 5t4 5t3.5 5t4.5 5.5t5 4
t6 3.5t7 2t8 1q40 0 82.5 -16.5t42.5 -47.5q0 -25 -13.5 -52.5t-40.5 -56t-79.5 -47t-120.5 -18.5q-131 0 -216 89.5t-85 254.5q0 176 78.5 277.5t238.5 101.5q115 0 177 -60.5t65 -168.5z" />
    <glyph glyph-name="ordfeminine" unicode="&#xaa;" horiz-adv-x="942" 
d="M322 821q0 -49 32.5 -74.5t87.5 -25.5q48 0 81.5 23t33.5 47v165q0 17 -16 17q-30 0 -84 -23q-62 -24 -98.5 -53t-36.5 -76zM739 565q-40 0 -76.5 19.5t-53.5 39.5l-17 19q-114 -78 -236 -78q-113 0 -184.5 60.5t-71.5 165.5q0 66 21.5 113.5t68 81t105.5 56t149 43.5
q111 24 111 54q0 35 -32 55t-95 20q-52 0 -106 -18t-90 -35.5t-44 -17.5q-18 0 -18 22q0 50 31 129q14 28 91 57t169 29q173 0 248 -75.5t75 -233.5v-280q0 -66 62 -66h31q20 0 20 -20q0 -32 -53.5 -86t-104.5 -54z" />
    <glyph glyph-name="guillemotleft" unicode="&#xab;" horiz-adv-x="1310" 
d="M692 784q-323 -226 -381 -284q-24 -21 -24 -47q0 -20 18 -33q135 -105 389 -260q23 -14 23 -41q0 -26 -49 -94q-18 -25 -47 -25q-23 0 -35 12q-288 180 -366 231t-114 85q-45 38 -45 121q0 55 41 112q33 41 126.5 112.5t351.5 256.5q18 14 36 14q31 0 48 -24
q36 -54 38 -60q11 -28 11 -35q0 -26 -21 -41zM1204 784q-323 -226 -381 -284q-24 -21 -24 -47q0 -20 18 -33q135 -105 389 -260q23 -14 23 -41q0 -26 -49 -94q-18 -25 -47 -25q-23 0 -35 12q-288 180 -366 231t-114 85q-45 38 -45 121q0 55 41 112q33 41 126.5 112.5
t351.5 256.5q18 14 36 14q31 0 48 -24q36 -54 38 -60q11 -28 11 -35q0 -26 -21 -41z" />
    <glyph glyph-name="registered" unicode="&#xae;" horiz-adv-x="1400" 
d="M700 203q-163 0 -302.5 77t-222.5 212t-83 296q0 162 83 297.5t222.5 213t302.5 77.5q164 0 304 -77.5t222.5 -213t82.5 -297.5q0 -121 -49 -229.5t-131 -186.5t-194 -123.5t-235 -45.5zM995 956q0 -69 -45.5 -130.5t-115.5 -108.5l188 -203q100 115 100 274
q0 128 -57.5 224.5t-152.5 145t-212 48.5q-124 0 -219 -53h187q75 0 132 -9.5t102.5 -31t69 -61t23.5 -95.5zM281 788q0 -105 40.5 -189.5t112.5 -139.5l-4 659q-70 -54 -109.5 -138.5t-39.5 -191.5zM700 375q152 0 265 84h-31q-41 0 -54.5 0.5t-28 5.5t-26.5 16
q-22 24 -78 89t-61 75q-7 -1 -72 -35v-112q0 -16 -11 -27.5t-34 -11.5h-135q110 -84 266 -84zM614 1026v-264q101 52 150 96t49 96q0 32 -35.5 52t-93.5 20h-70z" />
    <glyph glyph-name="macron" unicode="&#xaf;" horiz-adv-x="790" 
d="M633 1169h-473q-25 0 -41.5 15.5t-16.5 40.5v61q0 26 16 41.5t42 15.5h473q26 0 40.5 -15.5t14.5 -41.5v-61q0 -25 -14.5 -40.5t-40.5 -15.5z" />
    <glyph glyph-name="degree" unicode="&#xb0;" horiz-adv-x="993" 
d="M498 606q-171 0 -283.5 102t-112.5 285q0 180 112.5 279.5t283.5 99.5q170 0 281.5 -99.5t111.5 -279.5q0 -183 -112 -285t-281 -102zM498 786q186 0 186 207q0 205 -186 205q-189 0 -189 -205q0 -207 189 -207z" />
    <glyph glyph-name="plusminus" unicode="&#xb1;" horiz-adv-x="1028" 
d="M537 250h-80q-26 0 -42 15t-16 40v326h-321q-25 0 -41.5 15.5t-16.5 39.5v76q0 26 16 41.5t42 15.5h321v318q0 24 16.5 39.5t41.5 15.5h80q27 0 43 -15t16 -40v-318h344q55 0 55 -57v-76q0 -55 -55 -55h-344v-326q0 -23 -14 -39t-45 -16zM86 2q-25 0 -41 15t-16 40v62
q0 26 15.5 41.5t41.5 15.5h846q55 0 55 -57v-62q0 -25 -14.5 -40t-40.5 -15h-846z" />
    <glyph glyph-name="twosuperior" unicode="&#xb2;" horiz-adv-x="913" 
d="M121 348q-13 0 -21 8t-8 23v119q0 33 33 59q5 4 50.5 41t68 55.5t70.5 61t76 72t66 74t59 80t36.5 77t15.5 78.5q0 49 -31 75.5t-90 26.5q-44 0 -74 -16t-59 -49q-35 -35 -65 -35q-39 0 -78 36t-39 66q0 56 95.5 124.5t238.5 68.5q160 0 248 -80t88 -213
q0 -78 -41.5 -163t-96 -147.5t-120 -120.5t-101 -83.5t-51.5 -34.5h103q31 0 87 2t100 4t46 2q45 0 61.5 -20.5t16.5 -73.5q-3 -63 -14 -90t-33 -27h-637z" />
    <glyph glyph-name="threesuperior" unicode="&#xb3;" horiz-adv-x="874" 
d="M432 315q-98 0 -168 22.5t-133 70.5q-49 36 -49 84q0 47 14 88t45 41q8 0 30.5 -17.5t50 -38t78.5 -38t110 -17.5q74 0 114.5 37t40.5 100q0 141 -223 141q-33 0 -48 23.5t-15 75.5q0 43 11.5 58.5t43.5 21.5q66 17 122 57.5t56 95.5q0 34 -23 53t-63 19q-81 0 -152 -55
q-11 -6 -26 -17t-24.5 -16.5t-18.5 -5.5q-22 0 -63.5 41t-41.5 65q0 15 23.5 42t63 57t105.5 51.5t138 21.5q146 0 224.5 -63.5t78.5 -163.5q0 -45 -16 -86t-38.5 -68t-44.5 -47.5t-38 -29.5l-16 -9q8 -2 21 -6.5t47 -24t60 -46t47 -76t21 -109.5q0 -139 -97 -235.5
t-247 -96.5z" />
    <glyph glyph-name="acute" unicode="&#xb4;" horiz-adv-x="471" 
d="M96 1167q-15 0 -40 27.5t-25 42.5q0 18 24 45q70 83 213 240q22 22 43 22q28 0 78.5 -51t50.5 -80q0 -22 -24 -43q-38 -36 -271 -182q-34 -21 -49 -21z" />
    <glyph glyph-name="mu" unicode="&#xb5;" horiz-adv-x="940" 
d="M246 -352h-119q-25 0 -40 14t-15 39v1642q0 24 15 38t40 14h119q25 0 40 -14t15 -38v-1112q0 -29 42 -52t99 -23q68 0 132.5 57.5t64.5 99.5v1030q0 24 15 38t40 14h119q25 0 40 -14t15 -38v-1290q0 -25 -15 -39t-40 -14h-119q-25 0 -40 14t-15 39v19q-38 -43 -103 -66.5
t-120 -23.5q-64 0 -115 14v-295q0 -25 -15 -39t-40 -14z" />
    <glyph glyph-name="paragraph" unicode="&#xb6;" horiz-adv-x="1183" 
d="M934 -178h-105q-24 0 -38.5 13t-14.5 36v690h-76v-688q0 -24 -14.5 -37.5t-40.5 -13.5h-119q-25 0 -40 14t-15 37v684q-90 5 -167.5 30t-139.5 68.5t-97.5 112.5t-35.5 156q0 104 30 182.5t82 128.5t130.5 81t166.5 43.5t199 12.5h358q25 0 39.5 -14t14.5 -39v-115
q0 -25 -14.5 -39t-39.5 -14h-10v-1280q0 -23 -14 -36t-39 -13zM700 735h76v461h-76v-461z" />
    <glyph glyph-name="cedilla" unicode="&#xb8;" horiz-adv-x="505" 
d="M217 -496q-48 0 -93 13.5t-69 29t-24 25.5q0 16 23.5 44t33.5 28q2 0 30.5 -12.5t61.5 -12.5q51 0 79 30.5t28 74.5q0 29 -18.5 55.5t-41 42t-41 32t-18.5 27.5v121q0 19 10.5 28t24.5 9h98q33 0 33 -37v-92q53 -22 96 -70t43 -116q0 -93 -81.5 -156.5t-174.5 -63.5z" />
    <glyph glyph-name="onesuperior" unicode="&#xb9;" horiz-adv-x="585" 
d="M326 344q-121 0 -121 35v682h-99q-36 0 -36 39q0 6 5 18t15.5 30t20.5 34t26 40.5t25.5 38.5t27 39t21.5 31q19 24 40 32.5t81 8.5q112 0 112 -31v-962q0 -35 -118 -35z" />
    <glyph glyph-name="ordmasculine" unicode="&#xba;" horiz-adv-x="1013" 
d="M502 567q-173 0 -289.5 106.5t-116.5 303.5q0 131 57 224t147 136t202 43q82 0 154 -25t128.5 -73.5t89.5 -127t33 -177.5q0 -100 -33 -180t-89.5 -129t-128.5 -75t-154 -26zM502 723q72 0 117 61t45 193q0 134 -45 195t-117 61q-73 0 -118.5 -61t-45.5 -195
q0 -132 45.5 -193t118.5 -61z" />
    <glyph glyph-name="guillemotright" unicode="&#xbb;" horiz-adv-x="1310" 
d="M690 0q-29 0 -47 25q-49 68 -49 94q0 27 22 41q259 158 390 260q18 13 18 33q0 25 -25 47q-58 58 -381 284q-20 14 -20 41q0 10 10 35q1 3 39 60q17 24 47 24q20 0 37 -14q254 -182 349 -254.5t128 -114.5q41 -57 41 -112q0 -83 -45 -121q-36 -35 -115.5 -87t-363.5 -229
q-12 -12 -35 -12zM178 0q-29 0 -47 25q-49 68 -49 94q0 27 22 41q259 158 390 260q18 13 18 33q0 25 -25 47q-58 58 -381 284q-20 14 -20 41q0 10 10 35q1 3 39 60q17 24 47 24q20 0 37 -14q254 -182 349 -254.5t128 -114.5q41 -57 41 -112q0 -83 -45 -121
q-36 -35 -115.5 -87t-363.5 -229q-12 -12 -35 -12z" />
    <glyph glyph-name="onequarter" unicode="&#xbc;" horiz-adv-x="1861" 
d="M1620 0q-117 0 -117 35v170h-504q-12 0 -21 27t-9 69q0 88 18 113l457 583q22 31 119 31q49 0 80.5 -6t41 -13t9.5 -14q0 -9 -8 -20l-439 -572h256v187q0 20 19 49l153 201q14 20 37 20q25 0 25 -31v-794q0 -35 -117 -35zM1315 1300l-629 -1259q-7 -12 -17.5 -20
t-42.5 -14.5t-85 -6.5q-133 0 -133 45q0 10 10 27l629 1259q7 12 17.5 20t42.5 14.5t85 6.5q133 0 133 -45q0 -10 -10 -27zM326 344q-121 0 -121 35v682h-99q-36 0 -36 39q0 6 5 18t15.5 30t20.5 34t26 40.5t25.5 38.5t27 39t21.5 31q19 24 40 32.5t81 8.5q112 0 112 -31
v-962q0 -35 -118 -35z" />
    <glyph glyph-name="onehalf" unicode="&#xbd;" horiz-adv-x="1947" 
d="M1165 0q-28 0 -28 31v119q0 34 32 59q6 5 51 41t68 55t70.5 61.5t76 72t66.5 73.5t59 80t36.5 77.5t15.5 78.5q0 49 -31 75.5t-90 26.5q-44 0 -73.5 -16.5t-59.5 -49.5q-34 -34 -66 -34q-39 0 -77.5 36t-38.5 66q0 56 95 124t238 68q161 0 248.5 -80t87.5 -212
q0 -78 -41.5 -163t-96 -147.5t-120 -120.5t-100.5 -83.5t-51 -34.5h102q31 0 87.5 2t100.5 4t46 2q45 0 61 -20.5t16 -73.5q-3 -63 -14 -90t-33 -27h-637zM1315 1300l-629 -1259q-7 -12 -17.5 -20t-42.5 -14.5t-85 -6.5q-133 0 -133 45q0 10 10 27l629 1259q7 12 17.5 20
t42.5 14.5t85 6.5q133 0 133 -45q0 -10 -10 -27zM326 344q-121 0 -121 35v682h-99q-36 0 -36 39q0 6 5 18t15.5 30t20.5 34t26 40.5t25.5 38.5t27 39t21.5 31q19 24 40 32.5t81 8.5q112 0 112 -31v-962q0 -35 -118 -35z" />
    <glyph glyph-name="threequarters" unicode="&#xbe;" horiz-adv-x="2050" 
d="M1804 0q-116 0 -116 35v170h-504q-12 0 -21.5 27.5t-9.5 68.5q0 88 18 113l457 583q22 31 119 31q49 0 80.5 -6t41 -13t9.5 -14q0 -9 -8 -20l-438 -572h256v187q0 22 18 49l154 201q14 20 36 20q25 0 25 -31v-794q0 -35 -117 -35zM412 315q-98 0 -168 22.5t-133 70.5
q-50 37 -50 84q0 46 14.5 87.5t45.5 41.5q8 0 30.5 -17.5t49.5 -38t78 -38t110 -17.5q74 0 115 37t41 100q0 141 -223 141q-34 0 -49 24t-15 75q0 43 11.5 58.5t43.5 21.5q66 17 122.5 57.5t56.5 95.5q0 34 -23 53t-63 19q-81 0 -152 -55q-11 -6 -26 -17t-25 -16.5t-19 -5.5
q-22 0 -63 41t-41 65q0 15 23.5 42t63 57t105.5 51.5t138 21.5q146 0 224.5 -63.5t78.5 -163.5q0 -45 -16 -86t-38.5 -68t-45 -47.5t-38.5 -29.5l-16 -9q8 -2 21.5 -6.5t47.5 -24t59.5 -46t47 -76t21.5 -109.5q0 -139 -97 -235.5t-247 -96.5zM1499 1300l-629 -1259
q-7 -12 -17.5 -20t-42.5 -14.5t-85 -6.5q-133 0 -133 45q0 10 10 27l629 1259q7 12 17.5 20t42.5 14.5t85 6.5q133 0 133 -45q0 -10 -10 -27z" />
    <glyph glyph-name="questiondown" unicode="&#xbf;" horiz-adv-x="913" 
d="M39 6q0 64 31.5 129t77 114.5t90.5 91.5t76.5 73.5t31.5 46.5v114q0 41 143 41q144 0 144 -41v-169q0 -19 -33 -51.5t-80 -71t-94 -81t-80 -92t-33 -92.5q0 -81 45 -119t113 -38q75 0 112.5 55.5t61.5 173.5q5 25 12.5 32t30.5 7q60 0 127.5 -35t67.5 -67q0 -57 -15 -112
t-48.5 -106.5t-81.5 -90t-120 -62t-159 -23.5q-194 0 -307 101t-113 272zM496 1044q153 0 153 -170q0 -174 -153 -174q-77 0 -119.5 44t-42.5 130q0 88 40.5 129t121.5 41z" />
    <glyph glyph-name="Agrave" unicode="&#xc0;" horiz-adv-x="1384" 
d="M858 461h-332q-28 0 -28 26l170 478q9 28 24 28q16 0 25 -28l170 -478q0 -26 -29 -26zM440 246h504q26 0 37 -27l66 -178q9 -24 37.5 -32.5t111.5 -8.5q59 0 90 4t39 10t8 17t-14 55l-465 1221q-14 39 -45 52t-117 13t-117 -13t-45 -52l-464 -1221q-15 -47 -15 -55
q0 -11 8 -17t39 -10t90 -4q84 0 112.5 8.5t37.5 32.5l65 178q11 27 37 27zM831 1495q-15 0 -49 21q-230 144 -270 182q-25 21 -25 43q0 29 50.5 80t78.5 51q20 0 43 -23q154 -169 213 -239q25 -29 25 -45q0 -15 -25.5 -42.5t-40.5 -27.5z" />
    <glyph glyph-name="Aacute" unicode="&#xc1;" horiz-adv-x="1384" 
d="M858 461h-332q-28 0 -28 26l170 478q9 28 24 28q16 0 25 -28l170 -478q0 -26 -29 -26zM440 246h504q26 0 37 -27l66 -178q9 -24 37.5 -32.5t111.5 -8.5q59 0 90 4t39 10t8 17t-14 55l-465 1221q-14 39 -45 52t-117 13t-117 -13t-45 -52l-464 -1221q-15 -47 -15 -55
q0 -11 8 -17t39 -10t90 -4q84 0 112.5 8.5t37.5 32.5l65 178q11 27 37 27zM553 1479q-15 0 -40.5 27t-25.5 42q0 16 25 45q70 83 213 240q22 22 43 22q28 0 78.5 -51t50.5 -80q0 -22 -25 -43q-40 -38 -270 -182q-32 -20 -49 -20z" />
    <glyph glyph-name="Acircumflex" unicode="&#xc2;" horiz-adv-x="1384" 
d="M440 246h504q26 0 37 -27l66 -178q9 -24 37.5 -32.5t111.5 -8.5q59 0 90 4t39 10t8 17t-14 55l-465 1221q-14 39 -45 52t-117 13t-117 -13t-45 -52l-464 -1221q-15 -47 -15 -55q0 -11 8 -17t39 -10t90 -4q84 0 112.5 8.5t37.5 32.5l65 178q11 27 37 27zM905 1493
q-18 0 -43 18l-172 152l-166 -150q-22 -18 -43 -18q-18 0 -28 10l-68 66q-23 20 -23 45q0 18 17 35l219 190q23 20 39.5 25.5t54.5 5.5q40 0 56.5 -5.5t39.5 -25.5l218 -190q16 -16 16 -37q0 -22 -21 -43l-63 -64q-14 -14 -33 -14zM858 461h-332q-28 0 -28 26l170 478
q9 28 24 28q16 0 25 -28l170 -478q0 -26 -29 -26z" />
    <glyph glyph-name="Atilde" unicode="&#xc3;" horiz-adv-x="1384" 
d="M858 461h-332q-28 0 -28 26l170 478q9 28 24 28q16 0 25 -28l170 -478q0 -26 -29 -26zM440 246h504q26 0 37 -27l66 -178q9 -24 37.5 -32.5t111.5 -8.5q59 0 90 4t39 10t8 17t-14 55l-465 1221q-14 39 -45 52t-117 13t-117 -13t-45 -52l-464 -1221q-15 -47 -15 -55
q0 -11 8 -17t39 -10t90 -4q84 0 112.5 8.5t37.5 32.5l65 178q11 27 37 27zM461 1520q-16 -13 -25 -13q-19 0 -62.5 51t-43.5 66q0 18 22 43q34 41 90 68.5t115 27.5q48 0 103.5 -22.5t102.5 -45t73 -22.5q39 0 98 68q10 10 16 10q15 0 60 -50t45 -67q0 -38 -60 -88.5
t-139 -50.5q-51 0 -105.5 22.5t-103 45t-86.5 22.5q-10 0 -23.5 -7t-23 -14t-27.5 -22t-26 -22z" />
    <glyph glyph-name="Adieresis" unicode="&#xc4;" horiz-adv-x="1384" 
d="M858 461h-332q-28 0 -28 26l170 478q9 28 24 28q16 0 25 -28l170 -478q0 -26 -29 -26zM440 246h504q26 0 37 -27l66 -178q9 -24 37.5 -32.5t111.5 -8.5q59 0 90 4t39 10t8 17t-14 55l-465 1221q-14 39 -45 52t-117 13t-117 -13t-45 -52l-464 -1221q-15 -47 -15 -55
q0 -11 8 -17t39 -10t90 -4q84 0 112.5 8.5t37.5 32.5l65 178q11 27 37 27zM504 1497q-137 0 -137 152q0 153 137 153q67 0 105 -39t38 -114q0 -152 -143 -152zM872 1497q-137 0 -137 152q0 153 137 153q68 0 106 -39t38 -114q0 -152 -144 -152z" />
    <glyph glyph-name="Aring" unicode="&#xc5;" horiz-adv-x="1384" 
d="M858 461h-332q-28 0 -28 26l170 478q9 28 24 28q16 0 25 -28l170 -478q0 -26 -29 -26zM440 246h504q26 0 37 -27l66 -178q9 -24 37.5 -32.5t111.5 -8.5q59 0 90 4t39 10t8 17t-14 55l-465 1221q-14 39 -45 52t-117 13t-117 -13t-45 -52l-464 -1221q-15 -47 -15 -55
q0 -11 8 -17t39 -10t90 -4q84 0 112.5 8.5t37.5 32.5l65 178q11 27 37 27zM690 1499q-89 0 -150 59t-61 144t61.5 145t149.5 60t150.5 -60t62.5 -145q0 -84 -62.5 -143.5t-150.5 -59.5zM690 1794q-34 0 -58 -27.5t-24 -64.5t23.5 -63.5t58.5 -26.5t58.5 26.5t23.5 63.5
t-24 64.5t-58 27.5z" />
    <glyph glyph-name="AE" unicode="&#xc6;" horiz-adv-x="1863" 
d="M850 1372h840q13 0 21 -8.5t14 -36.5t6 -78t-6 -78t-14 -36.5t-21 -8.5h-592v-317h469q13 0 21 -8.5t14 -36.5t6 -78t-6 -78t-14 -36.5t-21 -8.5h-469v-317h633q13 0 21 -8.5t14 -36.5t6 -78t-6 -78t-14 -36.5t-21 -8.5h-861q-39 0 -39 41v205h-385q-15 0 -22.5 -6
t-15.5 -21l-89 -178q-13 -24 -41.5 -32.5t-111.5 -8.5q-59 0 -91.5 4t-42.5 10t-9 17q1 7 20 55l625 1221q19 38 56.5 51.5t125.5 13.5zM528 487q-3 -26 27 -26h276v663z" />
    <glyph glyph-name="Ccedilla" unicode="&#xc7;" horiz-adv-x="1372" 
d="M774 -512q-48 0 -93 13.5t-69 29t-24 25.5q0 16 23.5 43.5t33.5 27.5q2 0 30.5 -12t61.5 -12q51 0 79 30t28 74q0 29 -18.5 56t-41 42.5t-41 32t-18.5 27.5v119q-128 12 -239 58.5t-200.5 127.5t-141.5 208.5t-52 287.5q0 139 39.5 258t107.5 204.5t158.5 145.5t194 89.5
t213.5 29.5q83 0 154.5 -14.5t118 -35.5t80 -46t48.5 -46t15 -34q0 -32 -40.5 -87t-66.5 -55q-13 0 -36 10.5t-49.5 23.5t-83 23.5t-128.5 10.5q-68 0 -129.5 -17t-117 -53.5t-96 -90.5t-64 -133.5t-23.5 -176.5q0 -101 26 -179.5t69 -128t104.5 -81t127 -44t142.5 -12.5
q86 0 163 19t120.5 42.5t78.5 42.5t46 19q26 0 26 -31q0 -72 -43 -172q-16 -41 -122.5 -95t-233.5 -68v-90q53 -22 96 -70t43 -117q0 -93 -81.5 -156t-174.5 -63z" />
    <glyph glyph-name="Egrave" unicode="&#xc8;" horiz-adv-x="1210" 
d="M242 0q-58 0 -58 57v1258q0 57 58 57h698q67 0 92 -59t25 -195q0 -28 -25 -28q-6 0 -43 14t-128 28.5t-228 14.5h-160q-31 0 -31 -31v-280q0 -31 31 -31h385q20 0 30.5 -25t10.5 -94t-10.5 -94t-30.5 -25h-385q-31 0 -31 -30v-281q0 -31 31 -31h221q107 0 188.5 9t117 20
t61 20t33.5 9q24 0 24 -29q0 -136 -25 -195t-92 -59h-759zM743 1495q-15 0 -49 21q-230 144 -270 182q-25 21 -25 43q0 29 50.5 80t78.5 51q20 0 43 -23q154 -169 213 -239q25 -29 25 -45q0 -15 -25.5 -42.5t-40.5 -27.5z" />
    <glyph glyph-name="Eacute" unicode="&#xc9;" horiz-adv-x="1210" 
d="M242 0q-58 0 -58 57v1258q0 57 58 57h698q67 0 92 -59t25 -195q0 -28 -25 -28q-6 0 -43 14t-128 28.5t-228 14.5h-160q-31 0 -31 -31v-280q0 -31 31 -31h385q20 0 30.5 -25t10.5 -94t-10.5 -94t-30.5 -25h-385q-31 0 -31 -30v-281q0 -31 31 -31h221q107 0 188.5 9t117 20
t61 20t33.5 9q24 0 24 -29q0 -136 -25 -195t-92 -59h-759zM498 1446q-15 0 -40.5 27.5t-25.5 42.5q0 16 25 45q59 70 213 239q23 23 43 23q28 0 78.5 -51t50.5 -80q0 -22 -25 -43q-43 -41 -270 -183q-32 -20 -49 -20z" />
    <glyph glyph-name="Ecircumflex" unicode="&#xca;" horiz-adv-x="1210" 
d="M242 0q-58 0 -58 57v1258q0 57 58 57h698q67 0 92 -59t25 -195q0 -28 -25 -28q-6 0 -43 14t-128 28.5t-228 14.5h-160q-31 0 -31 -31v-280q0 -31 31 -31h385q20 0 30.5 -25t10.5 -94t-10.5 -94t-30.5 -25h-385q-31 0 -31 -30v-281q0 -31 31 -31h221q107 0 188.5 9t117 20
t61 20t33.5 9q24 0 24 -29q0 -136 -25 -195t-92 -59h-759zM817 1493q-18 0 -43 18l-172 152l-166 -150q-23 -18 -43 -18q-18 0 -28 10l-68 66q-23 20 -23 45q0 18 17 35l219 190q23 20 39.5 25.5t54.5 5.5q40 0 56.5 -5.5t39.5 -25.5l218 -190q16 -16 16 -37q0 -22 -21 -43
l-63 -64q-14 -14 -33 -14z" />
    <glyph glyph-name="Edieresis" unicode="&#xcb;" horiz-adv-x="1210" 
d="M242 0q-58 0 -58 57v1258q0 57 58 57h698q67 0 92 -59t25 -195q0 -28 -25 -28q-6 0 -43 14t-128 28.5t-228 14.5h-160q-31 0 -31 -31v-280q0 -31 31 -31h385q20 0 30.5 -25t10.5 -94t-10.5 -94t-30.5 -25h-385q-31 0 -31 -30v-281q0 -31 31 -31h221q107 0 188.5 9t117 20
t61 20t33.5 9q24 0 24 -29q0 -136 -25 -195t-92 -59h-759zM418 1497q-137 0 -137 152q0 153 137 153q67 0 105 -39t38 -114q0 -152 -143 -152zM786 1497q-137 0 -137 152q0 153 137 153q68 0 106 -39t38 -114q0 -152 -144 -152z" />
    <glyph glyph-name="Igrave" unicode="&#xcc;" horiz-adv-x="634" 
d="M317 0q-55 0 -85.5 6t-39 14t-8.5 21v1290q0 13 8.5 21t39 14t85.5 6q54 0 84.5 -6t40 -14t9.5 -21v-1290q0 -13 -9.5 -21t-40 -14t-84.5 -6zM457 1495q-15 0 -49 21q-233 146 -271 182q-24 21 -24 43q0 29 50.5 80t78.5 51q20 0 43 -23q154 -169 213 -239q24 -27 24 -45
q0 -15 -25 -42.5t-40 -27.5z" />
    <glyph glyph-name="Iacute" unicode="&#xcd;" horiz-adv-x="634" 
d="M317 0q-55 0 -85.5 6t-39 14t-8.5 21v1290q0 13 8.5 21t39 14t85.5 6q54 0 84.5 -6t40 -14t9.5 -21v-1290q0 -13 -9.5 -21t-40 -14t-84.5 -6zM178 1495q-15 0 -40 27.5t-25 42.5q0 18 24 45q59 70 213 239q23 23 43 23q28 0 78.5 -51t50.5 -80q0 -22 -24 -43
q-38 -36 -271 -182q-34 -21 -49 -21z" />
    <glyph glyph-name="Icircumflex" unicode="&#xce;" horiz-adv-x="634" 
d="M317 0q-55 0 -85.5 6t-39 14t-8.5 21v1290q0 13 8.5 21t39 14t85.5 6q54 0 84.5 -6t40 -14t9.5 -21v-1290q0 -13 -9.5 -21t-40 -14t-84.5 -6zM530 1493q-18 0 -43 18l-172 152l-165 -150q-22 -18 -44 -18q-18 0 -28 10l-68 66q-22 19 -22 45q0 19 16 35l219 190
q23 20 39.5 25.5t54.5 5.5q40 0 57 -6t40 -25l217 -190q16 -16 16 -37q0 -23 -20 -43l-64 -64q-14 -14 -33 -14z" />
    <glyph glyph-name="Idieresis" unicode="&#xcf;" horiz-adv-x="634" 
d="M317 0q-55 0 -85.5 6t-39 14t-8.5 21v1290q0 13 8.5 21t39 14t85.5 6q54 0 84.5 -6t40 -14t9.5 -21v-1290q0 -13 -9.5 -21t-40 -14t-84.5 -6zM131 1497q-137 0 -137 152q0 153 137 153q67 0 105 -39t38 -114q0 -152 -143 -152zM500 1497q-138 0 -138 152q0 153 138 153
q67 0 105 -39t38 -114q0 -152 -143 -152z" />
    <glyph glyph-name="Eth" unicode="&#xd0;" horiz-adv-x="1445" 
d="M131 788h53v492q0 46 123.5 79.5t300.5 33.5q84 0 158 -8t151 -28.5t140 -53.5t119.5 -85.5t94.5 -121.5t60.5 -165.5t22.5 -213.5q0 -154 -39 -278t-106.5 -208.5t-162.5 -141t-204 -82t-234 -25.5q-177 0 -300.5 33t-123.5 79v449h-53q-43 0 -43 123q0 49 6.5 77.5
t15 36.5t21.5 8zM1087 715q0 92 -15.5 165t-39.5 122t-63 84t-77 54t-90.5 30t-94 13.5t-97.5 2.5q-77 0 -118 -19t-41 -51v-328h249q13 0 21.5 -8t15 -36.5t6.5 -77.5q0 -50 -6.5 -78.5t-15 -36.5t-21.5 -8h-249v-275q0 -75 157 -75q51 0 97.5 6.5t95.5 23t90 42.5t78 67
t62.5 94t40.5 127t15 162z" />
    <glyph glyph-name="Ntilde" unicode="&#xd1;" horiz-adv-x="1474" 
d="M309 0q-54 0 -83 6t-35.5 13.5t-6.5 21.5v1290q0 41 88 41q70 0 92 -5t33 -19l647 -875v858q0 14 6.5 21.5t34 13.5t80.5 6q54 0 83 -6t35.5 -13.5t6.5 -21.5v-1290q0 -41 -88 -41q-68 0 -91.5 5.5t-33.5 19.5l-647 852v-836q0 -14 -6.5 -21.5t-34 -13.5t-80.5 -6z
M479 1462q-15 -12 -24 -12q-19 0 -63 51t-44 66q0 17 23 43q34 41 89.5 68.5t114.5 27.5q48 0 103.5 -22.5t102.5 -45t73 -22.5q40 0 98 67q11 11 17 11q15 0 59.5 -50t44.5 -67q0 -38 -60 -88.5t-139 -50.5q-51 0 -105 22.5t-102.5 45t-86.5 22.5q-10 0 -23.5 -7t-23 -14.5
t-27.5 -22.5t-27 -22z" />
    <glyph glyph-name="Ograve" unicode="&#xd2;" horiz-adv-x="1486" 
d="M743 -20q-148 0 -267 44.5t-205 131.5t-132.5 223t-46.5 311q0 139 34 255t94 198t142.5 139t178.5 84t202 27q134 0 250 -44t206.5 -128.5t143 -221t52.5 -309.5q0 -174 -49 -310.5t-137 -223t-206.5 -131.5t-259.5 -45zM743 215q81 0 147 25.5t118.5 79t82 147
t29.5 219.5q0 127 -30.5 220.5t-84.5 145.5t-119 76.5t-143 24.5q-62 0 -115 -14.5t-102 -49t-83.5 -87t-55 -133t-20.5 -183.5q0 -127 27.5 -220t79.5 -147t118.5 -79t150.5 -25zM883 1495q-15 0 -49 21q-233 146 -271 182q-24 21 -24 43q0 29 50.5 80t78.5 51q20 0 43 -23
q154 -169 213 -239q24 -27 24 -45q0 -15 -25 -42.5t-40 -27.5z" />
    <glyph glyph-name="Oacute" unicode="&#xd3;" horiz-adv-x="1486" 
d="M743 -20q-148 0 -267 44.5t-205 131.5t-132.5 223t-46.5 311q0 139 34 255t94 198t142.5 139t178.5 84t202 27q134 0 250 -44t206.5 -128.5t143 -221t52.5 -309.5q0 -174 -49 -310.5t-137 -223t-206.5 -131.5t-259.5 -45zM743 215q81 0 147 25.5t118.5 79t82 147
t29.5 219.5q0 127 -30.5 220.5t-84.5 145.5t-119 76.5t-143 24.5q-62 0 -115 -14.5t-102 -49t-83.5 -87t-55 -133t-20.5 -183.5q0 -127 27.5 -220t79.5 -147t118.5 -79t150.5 -25zM604 1495q-15 0 -40 27.5t-25 42.5q0 18 24 45q59 70 213 239q23 23 43 23q28 0 78.5 -51
t50.5 -80q0 -22 -24 -43q-38 -36 -271 -182q-34 -21 -49 -21z" />
    <glyph glyph-name="Ocircumflex" unicode="&#xd4;" horiz-adv-x="1486" 
d="M743 -20q-148 0 -267 44.5t-205 131.5t-132.5 223t-46.5 311q0 139 34 255t94 198t142.5 139t178.5 84t202 27q134 0 250 -44t206.5 -128.5t143 -221t52.5 -309.5q0 -174 -49 -310.5t-137 -223t-206.5 -131.5t-259.5 -45zM743 215q81 0 147 25.5t118.5 79t82 147
t29.5 219.5q0 127 -30.5 220.5t-84.5 145.5t-119 76.5t-143 24.5q-62 0 -115 -14.5t-102 -49t-83.5 -87t-55 -133t-20.5 -183.5q0 -127 27.5 -220t79.5 -147t118.5 -79t150.5 -25zM956 1493q-18 0 -43 18l-172 152l-166 -150q-23 -18 -43 -18q-18 0 -28 10l-68 66
q-22 19 -22 45q0 19 16 35l219 190q23 20 39.5 25.5t54.5 5.5q40 0 57 -6t40 -25l217 -190q16 -16 16 -37q0 -23 -20 -43l-64 -64q-14 -14 -33 -14z" />
    <glyph glyph-name="Otilde" unicode="&#xd5;" horiz-adv-x="1486" 
d="M743 -20q-148 0 -267 44.5t-205 131.5t-132.5 223t-46.5 311q0 139 34 255t94 198t142.5 139t178.5 84t202 27q134 0 250 -44t206.5 -128.5t143 -221t52.5 -309.5q0 -174 -49 -310.5t-137 -223t-206.5 -131.5t-259.5 -45zM743 215q81 0 147 25.5t118.5 79t82 147
t29.5 219.5q0 127 -30.5 220.5t-84.5 145.5t-119 76.5t-143 24.5q-62 0 -115 -14.5t-102 -49t-83.5 -87t-55 -133t-20.5 -183.5q0 -127 27.5 -220t79.5 -147t118.5 -79t150.5 -25zM512 1520q-16 -13 -25 -13q-19 0 -62.5 51t-43.5 66q0 18 22 43q34 41 90 68.5t115 27.5
q48 0 103.5 -22.5t102.5 -45t73 -22.5q39 0 98 68q10 10 16 10q15 0 60 -50t45 -67q0 -38 -60 -88.5t-139 -50.5q-51 0 -105.5 22.5t-103 45t-86.5 22.5q-10 0 -23.5 -7t-23 -14t-27.5 -22t-26 -22z" />
    <glyph glyph-name="Odieresis" unicode="&#xd6;" horiz-adv-x="1486" 
d="M743 -20q-148 0 -267 44.5t-205 131.5t-132.5 223t-46.5 311q0 139 34 255t94 198t142.5 139t178.5 84t202 27q134 0 250 -44t206.5 -128.5t143 -221t52.5 -309.5q0 -174 -49 -310.5t-137 -223t-206.5 -131.5t-259.5 -45zM743 215q81 0 147 25.5t118.5 79t82 147
t29.5 219.5q0 127 -30.5 220.5t-84.5 145.5t-119 76.5t-143 24.5q-62 0 -115 -14.5t-102 -49t-83.5 -87t-55 -133t-20.5 -183.5q0 -127 27.5 -220t79.5 -147t118.5 -79t150.5 -25zM555 1497q-137 0 -137 152q0 153 137 153q67 0 105 -39t38 -114q0 -152 -143 -152zM924 1497
q-138 0 -138 152q0 153 138 153q67 0 105 -39t38 -114q0 -152 -143 -152z" />
    <glyph glyph-name="multiply" unicode="&#xd7;" horiz-adv-x="1044" 
d="M799 293q-21 0 -39 18l-244 242l-229 -229q-17 -17 -37 -17q-22 0 -43 21l-86 86q-19 19 -19 41q0 20 17 37l229 229l-227 227q-19 19 -19 41q0 23 19 39l84 84q18 18 39 18q23 0 41 -18l227 -227l223 223q16 16 39 16t41 -18l86 -84q19 -22 19 -43q0 -22 -17 -39
l-223 -223l244 -244q18 -18 18 -37q0 -21 -20 -41l-84 -84q-18 -18 -39 -18z" />
    <glyph glyph-name="Oslash" unicode="&#xd8;" horiz-adv-x="1486" 
d="M260 29l47 94q-215 184 -215 567q0 139 34 255t94 198t142.5 139t178.5 84t202 27q90 0 193 -27l22 43q24 47 117 47q75 0 105 -15t30 -50q0 -21 -8 -37l-49 -94q114 -90 178 -234t64 -336q0 -174 -49 -310.5t-137 -223t-206.5 -131.5t-259.5 -45q-115 0 -221 28l-18 -35
q-21 -47 -117 -47q-74 0 -104.5 15t-30.5 51q0 21 8 37zM743 215q81 0 147 25.5t118.5 79t82 147t29.5 219.5q0 214 -88 332l-399 -791q53 -12 110 -12zM367 686q0 -198 67 -313l391 772q-36 8 -82 8q-62 0 -115 -14.5t-102 -49t-83.5 -87t-55 -133t-20.5 -183.5z" />
    <glyph glyph-name="Ugrave" unicode="&#xd9;" horiz-adv-x="1429" 
d="M715 -20q-142 0 -251.5 42t-176 116t-100 170t-33.5 210v813q0 13 8.5 21t39 14t85.5 6q54 0 84.5 -6t39.5 -14t9 -21v-756q0 -360 295 -360t295 360v756q0 13 9 21t39.5 14t84.5 6q55 0 85.5 -6t39 -14t8.5 -21v-813q0 -114 -33.5 -210t-100 -170t-176 -116t-251.5 -42z
M854 1495q-15 0 -49 21q-230 144 -270 182q-25 21 -25 43q0 29 50.5 80t78.5 51q20 0 43 -23q154 -169 213 -239q25 -29 25 -45q0 -15 -25.5 -42.5t-40.5 -27.5z" />
    <glyph glyph-name="Uacute" unicode="&#xda;" horiz-adv-x="1429" 
d="M715 -20q-142 0 -251.5 42t-176 116t-100 170t-33.5 210v813q0 13 8.5 21t39 14t85.5 6q54 0 84.5 -6t39.5 -14t9 -21v-756q0 -360 295 -360t295 360v756q0 13 9 21t39.5 14t84.5 6q55 0 85.5 -6t39 -14t8.5 -21v-813q0 -114 -33.5 -210t-100 -170t-176 -116t-251.5 -42z
M575 1495q-15 0 -40 27.5t-25 42.5q0 16 25 45q59 70 213 239q23 23 43 23q28 0 78.5 -51t50.5 -80q0 -22 -25 -43q-40 -38 -270 -182q-34 -21 -50 -21z" />
    <glyph glyph-name="Ucircumflex" unicode="&#xdb;" horiz-adv-x="1429" 
d="M715 -20q-142 0 -251.5 42t-176 116t-100 170t-33.5 210v813q0 13 8.5 21t39 14t85.5 6q54 0 84.5 -6t39.5 -14t9 -21v-756q0 -360 295 -360t295 360v756q0 13 9 21t39.5 14t84.5 6q55 0 85.5 -6t39 -14t8.5 -21v-813q0 -114 -33.5 -210t-100 -170t-176 -116t-251.5 -42z
M928 1493q-18 0 -43 18l-172 152l-166 -150q-23 -18 -43 -18q-19 0 -29 10l-67 66q-23 20 -23 45q0 19 16 35l220 190q23 20 39.5 25.5t54.5 5.5q40 0 56.5 -5.5t39.5 -25.5l217 -190q16 -16 16 -37q0 -23 -20 -43l-63 -64q-14 -14 -33 -14z" />
    <glyph glyph-name="Udieresis" unicode="&#xdc;" horiz-adv-x="1429" 
d="M715 -20q-142 0 -251.5 42t-176 116t-100 170t-33.5 210v813q0 13 8.5 21t39 14t85.5 6q54 0 84.5 -6t39.5 -14t9 -21v-756q0 -360 295 -360t295 360v756q0 13 9 21t39.5 14t84.5 6q55 0 85.5 -6t39 -14t8.5 -21v-813q0 -114 -33.5 -210t-100 -170t-176 -116t-251.5 -42z
M526 1460q-137 0 -137 152q0 153 137 153q68 0 106 -39t38 -114q0 -152 -144 -152zM895 1460q-137 0 -137 152q0 153 137 153q67 0 105 -39t38 -114q0 -152 -143 -152z" />
    <glyph glyph-name="Yacute" unicode="&#xdd;" horiz-adv-x="1196" 
d="M598 0q-55 0 -85.5 6t-39 14t-8.5 21v512q0 10 -2.5 19.5t-4.5 13.5l-3 4l-414 710q-10 17 -10 27t12 19.5t47 17.5t88 8q127 0 152 -41l268 -493l268 493q25 41 152 41q53 0 88 -8t47 -17.5t12 -19.5t-10 -27l-416 -710q-8 -14 -8 -37v-512q0 -13 -9 -21t-39.5 -14
t-84.5 -6zM489 1403q-15 0 -40 27.5t-25 42.5q0 16 25 45q59 70 213 239q23 23 43 23q28 0 78.5 -51t50.5 -80q0 -22 -25 -43q-43 -41 -270 -183q-32 -20 -50 -20z" />
    <glyph glyph-name="Thorn" unicode="&#xde;" horiz-adv-x="1017" 
d="M242 0q-26 0 -42 14t-16 39v1284q0 25 16 40.5t42 15.5h120q27 0 43.5 -15.5t16.5 -40.5v-219q72 35 137 35q182 0 289.5 -110t107.5 -295q0 -194 -116 -314.5t-281 -120.5q-71 0 -137 27v-287q0 -21 -15 -37t-45 -16h-120zM559 944q-56 0 -95.5 -23t-39.5 -59v-284
q0 -21 26.5 -34t54 -16.5t54.5 -3.5q85 0 131.5 64t46.5 160q0 94 -46.5 145t-131.5 51z" />
    <glyph glyph-name="germandbls" unicode="&#xdf;" horiz-adv-x="1261" 
d="M430 899v-856q0 -13 -8.5 -21.5t-39.5 -15t-85 -6.5t-85 6.5t-39.5 15t-8.5 21.5v877q0 206 126.5 339.5t317.5 133.5q184 0 293 -100.5t109 -248.5q0 -53 -13 -102.5t-28 -78t-28 -55t-13 -38.5q0 -9 18 -22t55 -37.5t64 -46.5q135 -113 135 -283q0 -187 -106.5 -293
t-262.5 -106q-55 0 -113.5 18.5t-100 43.5t-68.5 50t-27 39q0 28 58 91t84 63q13 0 39 -19.5t59.5 -39t66.5 -19.5q52 0 89.5 41.5t37.5 109.5q0 71 -40 120.5t-107 92.5q-15 9 -43.5 25t-43 24.5t-31.5 21t-24.5 23.5t-7.5 23q0 10 3 20.5t6 16.5t11 20.5t11 20.5
q2 4 13 23.5t14 25.5t12.5 24t13 27t10 25.5t9 29t4.5 28t2 30.5q0 74 -45 122t-125 48q-83 0 -125.5 -65t-42.5 -187z" />
    <glyph glyph-name="agrave" unicode="&#xe0;" horiz-adv-x="1167" 
d="M346 315q0 -68 47.5 -103.5t124.5 -35.5q71 0 122.5 35t51.5 72v227q0 25 -24 25q-23 0 -97 -23q-46 -15 -80 -29.5t-70 -38t-55.5 -56.5t-19.5 -73zM922 -20q-39 0 -74.5 11.5t-57.5 27.5t-38.5 32t-23.5 27l-7 12q-151 -110 -315 -110q-148 0 -241 79t-93 224
q0 85 27.5 147t87 106t138.5 74t197 56q89 21 126.5 36.5t37.5 38.5q0 55 -47.5 86t-138.5 31q-71 0 -140 -23t-113 -46t-54 -23q-25 0 -25 29q0 53 37 151q15 38 118 78.5t216 40.5q228 0 323.5 -100t95.5 -312v-383q0 -88 80 -88h58q20 0 20 -20q0 -40 -66 -111t-128 -71z
M649 1139q-17 0 -49 20q-230 144 -270 182q-25 21 -25 43q0 29 50.5 80.5t78.5 51.5q20 0 43 -23q143 -157 213 -240q25 -29 25 -45q0 -15 -25.5 -42t-40.5 -27z" />
    <glyph glyph-name="aacute" unicode="&#xe1;" horiz-adv-x="1167" 
d="M346 315q0 -68 47.5 -103.5t124.5 -35.5q71 0 122.5 35t51.5 72v227q0 25 -24 25q-23 0 -97 -23q-46 -15 -80 -29.5t-70 -38t-55.5 -56.5t-19.5 -73zM922 -20q-39 0 -74.5 11.5t-57.5 27.5t-38.5 32t-23.5 27l-7 12q-151 -110 -315 -110q-148 0 -241 79t-93 224
q0 85 27.5 147t87 106t138.5 74t197 56q89 21 126.5 36.5t37.5 38.5q0 55 -47.5 86t-138.5 31q-71 0 -140 -23t-113 -46t-54 -23q-25 0 -25 29q0 53 37 151q15 38 118 78.5t216 40.5q228 0 323.5 -100t95.5 -312v-383q0 -88 80 -88h58q20 0 20 -20q0 -40 -66 -111t-128 -71z
M451 1141q-15 0 -40.5 27t-25.5 42q0 16 25 45q70 83 213 240q23 23 43 23q28 0 78.5 -51.5t50.5 -80.5q0 -22 -25 -43q-40 -38 -270 -182q-32 -20 -49 -20z" />
    <glyph glyph-name="acircumflex" unicode="&#xe2;" horiz-adv-x="1167" 
d="M922 -20q-39 0 -74.5 11.5t-57.5 27.5t-38.5 32t-23.5 27l-7 12q-151 -110 -315 -110q-148 0 -241 79t-93 224q0 85 27.5 147t87 106t138.5 74t197 56q89 21 126.5 36.5t37.5 38.5q0 55 -47.5 86t-138.5 31q-71 0 -140 -23t-113 -46t-54 -23q-25 0 -25 29q0 53 37 151
q15 38 118 78.5t216 40.5q228 0 323.5 -100t95.5 -312v-383q0 -88 80 -88h58q20 0 20 -20q0 -40 -66 -111t-128 -71zM739 1124q-16 0 -43 19l-172 151l-166 -149q-24 -19 -43 -19q-17 0 -28 11l-68 65q-22 19 -22 45q0 19 16 35l219 191q23 20 39 25t55 5q41 0 58 -5.5
t39 -24.5l217 -191q16 -16 16 -37q0 -23 -20 -43l-64 -63q-15 -15 -33 -15zM346 315q0 -68 47.5 -103.5t124.5 -35.5q71 0 122.5 35t51.5 72v227q0 25 -24 25q-23 0 -97 -23q-46 -15 -80 -29.5t-70 -38t-55.5 -56.5t-19.5 -73z" />
    <glyph glyph-name="atilde" unicode="&#xe3;" horiz-adv-x="1126" 
d="M346 315q0 -68 47.5 -103.5t124.5 -35.5q71 0 122.5 35t51.5 72v227q0 25 -24 25q-23 0 -97 -23q-46 -15 -80 -29.5t-70 -38t-55.5 -56.5t-19.5 -73zM922 -20q-39 0 -74.5 11.5t-57.5 27.5t-38.5 32t-23.5 27l-7 12q-151 -110 -315 -110q-148 0 -241 79t-93 224
q0 85 27.5 147t87 106t138.5 74t197 56q89 21 126.5 36.5t37.5 38.5q0 55 -47.5 86t-138.5 31q-71 0 -140 -23t-113 -46t-54 -23q-25 0 -25 29q0 53 37 151q15 38 118 78.5t216 40.5q228 0 323.5 -100t95.5 -312v-383q0 -88 80 -88h58q20 0 20 -20q0 -40 -66 -111t-128 -71z
M352 1192q-15 -12 -24 -12q-19 0 -63 50.5t-44 65.5q0 17 23 43q34 42 90 69.5t115 27.5q48 0 103 -22.5t102 -45t73 -22.5q40 0 98 67q10 10 17 10q15 0 59.5 -49.5t44.5 -66.5q0 -38 -59.5 -89t-138.5 -51q-51 0 -105.5 22.5t-103 45t-86.5 22.5q-10 0 -23.5 -7t-23 -14
t-28 -22.5t-26.5 -21.5z" />
    <glyph glyph-name="adieresis" unicode="&#xe4;" horiz-adv-x="1167" 
d="M346 315q0 -68 47.5 -103.5t124.5 -35.5q71 0 122.5 35t51.5 72v227q0 25 -24 25q-23 0 -97 -23q-46 -15 -80 -29.5t-70 -38t-55.5 -56.5t-19.5 -73zM922 -20q-39 0 -74.5 11.5t-57.5 27.5t-38.5 32t-23.5 27l-7 12q-151 -110 -315 -110q-148 0 -241 79t-93 224
q0 85 27.5 147t87 106t138.5 74t197 56q89 21 126.5 36.5t37.5 38.5q0 55 -47.5 86t-138.5 31q-71 0 -140 -23t-113 -46t-54 -23q-25 0 -25 29q0 53 37 151q15 38 118 78.5t216 40.5q228 0 323.5 -100t95.5 -312v-383q0 -88 80 -88h58q20 0 20 -20q0 -40 -66 -111t-128 -71z
M356 1135q-69 0 -103 36.5t-34 114.5q0 154 137 154q67 0 105.5 -39.5t38.5 -114.5q0 -151 -144 -151zM725 1135q-69 0 -103 36.5t-34 114.5q0 154 137 154q67 0 105 -39.5t38 -114.5q0 -78 -35.5 -114.5t-107.5 -36.5z" />
    <glyph glyph-name="aring" unicode="&#xe5;" horiz-adv-x="1167" 
d="M346 315q0 -68 47.5 -103.5t124.5 -35.5q71 0 122.5 35t51.5 72v227q0 25 -24 25q-23 0 -97 -23q-46 -15 -80 -29.5t-70 -38t-55.5 -56.5t-19.5 -73zM922 -20q-39 0 -74.5 11.5t-57.5 27.5t-38.5 32t-23.5 27l-7 12q-151 -110 -315 -110q-148 0 -241 79t-93 224
q0 85 27.5 147t87 106t138.5 74t197 56q89 21 126.5 36.5t37.5 38.5q0 55 -47.5 86t-138.5 31q-71 0 -140 -23t-113 -46t-54 -23q-25 0 -25 29q0 53 37 151q15 38 118 78.5t216 40.5q228 0 323.5 -100t95.5 -312v-383q0 -88 80 -88h58q20 0 20 -20q0 -40 -66 -111t-128 -71z
M528 1137q-89 0 -150 58.5t-61 143.5t61.5 145t149.5 60t150.5 -60t62.5 -145q0 -84 -62.5 -143t-150.5 -59zM528 1432q-33 0 -57.5 -28t-24.5 -65t23.5 -63.5t58.5 -26.5t58.5 26.5t23.5 63.5t-24.5 65t-57.5 28z" />
    <glyph glyph-name="ae" unicode="&#xe6;" horiz-adv-x="1624" 
d="M838 117q-71 -52 -189 -94.5t-241 -42.5q-143 0 -239.5 87t-96.5 232q0 82 24.5 140.5t80 101t132 71t193.5 54.5q89 21 126.5 36.5t37.5 38.5q0 55 -48 86t-139 31q-55 0 -108 -14.5t-84 -31.5t-57.5 -31.5t-36.5 -14.5q-25 0 -25 29q0 53 37 151q15 39 108 79t205 40
q232 0 332 -109q126 109 315 109q200 0 292.5 -81.5t92.5 -221.5q0 -83 -35.5 -150t-91 -109t-132.5 -71.5t-150.5 -43.5t-153.5 -19q47 -176 256 -176q55 0 107 13.5t82.5 29.5t56 29.5t35.5 13.5q12 0 20 -7.5t8 -21.5q0 -51 -36 -146q-14 -38 -107.5 -81t-204.5 -43
q-224 0 -366 137zM356 326q0 -142 158 -142q65 0 111.5 30t46.5 58v228q0 24 -25 24q-29 0 -96 -18q-93 -24 -144 -63t-51 -117zM1169 891q-94 0 -142.5 -87.5t-51.5 -283.5q74 13 122.5 29t90.5 44.5t62 75.5t20 115q0 50 -27 78.5t-74 28.5z" />
    <glyph glyph-name="ccedilla" unicode="&#xe7;" horiz-adv-x="1064" 
d="M596 -520q-48 0 -93 13t-69 28.5t-24 25.5q0 16 23.5 44t33.5 28q2 0 30.5 -12.5t61.5 -12.5q51 0 79 30.5t28 74.5q0 29 -18.5 56t-41 42.5t-41 32t-18.5 27.5v120v9q-95 11 -174.5 45t-144 94.5t-100.5 156t-36 218.5q0 137 43.5 246t119.5 178t176.5 105t217.5 36
q134 0 218.5 -36.5t84.5 -74.5q0 -35 -48.5 -104.5t-78.5 -69.5q-9 0 -35 18.5t-70.5 37t-96.5 18.5q-44 0 -83 -17.5t-73.5 -54.5t-55 -104.5t-20.5 -157.5q0 -161 79.5 -244t211.5 -83q71 0 133.5 21.5t100.5 43t49 21.5q10 0 19 -7.5t9 -21.5q0 -51 -39 -146
q-12 -31 -81 -68t-160 -50v-9v-92q53 -22 96 -70t43 -116q0 -93 -81.5 -156t-174.5 -63z" />
    <glyph glyph-name="egrave" unicode="&#xe8;" horiz-adv-x="1075" 
d="M641 -20q111 0 204 43t107 81q37 98 37 146q0 14 -8 21.5t-20 7.5q-10 0 -47.5 -21.5t-100 -43t-133.5 -21.5q-232 0 -281 184q77 1 157.5 15t161.5 45t144 74t102.5 109t39.5 144q0 132 -103.5 216.5t-298.5 84.5q-78 0 -150 -20t-138 -64.5t-115 -109.5t-78 -162
t-29 -215q0 -130 42 -230t117.5 -161t173.5 -92t216 -31zM731 780q0 -112 -102 -183t-244 -77q4 190 67.5 282.5t161.5 92.5q48 0 82.5 -33t34.5 -82zM676 1167q-15 0 -49 21q-233 146 -271 182q-24 21 -24 43q0 29 50.5 80t78.5 51q21 0 43 -22q143 -157 213 -240
q24 -27 24 -45q0 -15 -25 -42.5t-40 -27.5z" />
    <glyph glyph-name="eacute" unicode="&#xe9;" horiz-adv-x="1075" 
d="M641 -20q111 0 204 43t107 81q37 98 37 146q0 14 -8 21.5t-20 7.5q-10 0 -47.5 -21.5t-100 -43t-133.5 -21.5q-232 0 -281 184q77 1 157.5 15t161.5 45t144 74t102.5 109t39.5 144q0 132 -103.5 216.5t-298.5 84.5q-78 0 -150 -20t-138 -64.5t-115 -109.5t-78 -162
t-29 -215q0 -130 42 -230t117.5 -161t173.5 -92t216 -31zM731 780q0 -112 -102 -183t-244 -77q4 190 67.5 282.5t161.5 92.5q48 0 82.5 -33t34.5 -82zM487 1122q-15 0 -40 27.5t-25 42.5q0 18 24 45q70 83 213 240q22 22 43 22q28 0 78.5 -51t50.5 -80q0 -22 -24 -43
q-40 -38 -270 -182q-34 -21 -50 -21z" />
    <glyph glyph-name="ecircumflex" unicode="&#xea;" horiz-adv-x="1075" 
d="M641 -20q111 0 204 43t107 81q37 98 37 146q0 14 -8 21.5t-20 7.5q-10 0 -47.5 -21.5t-100 -43t-133.5 -21.5q-232 0 -281 184q77 1 157.5 15t161.5 45t144 74t102.5 109t39.5 144q0 132 -103.5 216.5t-298.5 84.5q-78 0 -150 -20t-138 -64.5t-115 -109.5t-78 -162
t-29 -215q0 -130 42 -230t117.5 -161t173.5 -92t216 -31zM831 1114q-16 0 -43 19l-172 151l-165 -149q-24 -19 -43 -19t-29 10l-68 66q-22 19 -22 45q0 19 16 35l219 190q23 20 39.5 25.5t54.5 5.5q40 0 57 -6t40 -25l217 -190q16 -16 16 -37q0 -23 -20 -43l-64 -64
q-14 -14 -33 -14zM731 780q0 -112 -102 -183t-244 -77q4 190 67.5 282.5t161.5 92.5q48 0 82.5 -33t34.5 -82z" />
    <glyph glyph-name="edieresis" unicode="&#xeb;" horiz-adv-x="1075" 
d="M641 -20q111 0 204 43t107 81q37 98 37 146q0 14 -8 21.5t-20 7.5q-10 0 -47.5 -21.5t-100 -43t-133.5 -21.5q-232 0 -281 184q77 1 157.5 15t161.5 45t144 74t102.5 109t39.5 144q0 132 -103.5 216.5t-298.5 84.5q-78 0 -150 -20t-138 -64.5t-115 -109.5t-78 -162
t-29 -215q0 -130 42 -230t117.5 -161t173.5 -92t216 -31zM731 780q0 -112 -102 -183t-244 -77q4 190 67.5 282.5t161.5 92.5q48 0 82.5 -33t34.5 -82zM410 1135q-138 0 -138 151q0 154 138 154q67 0 105 -39.5t38 -114.5q0 -78 -35.5 -114.5t-107.5 -36.5zM778 1135
q-69 0 -103 36.5t-34 114.5q0 154 137 154q67 0 105.5 -39.5t38.5 -114.5q0 -151 -144 -151z" />
    <glyph glyph-name="igrave" unicode="&#xec;" horiz-adv-x="589" 
d="M381 1001v-729q0 -88 78 -88h57q23 0 23 -20q0 -40 -67 -112t-128 -72q-106 0 -167.5 64.5t-61.5 178.5v778q0 13 8.5 21.5t39.5 15t85 6.5t85 -6.5t39.5 -15t8.5 -21.5zM371 1153q-15 0 -49 21q-233 146 -271 182q-24 21 -24 43q0 29 50.5 80t78.5 51q20 0 43 -23
q154 -169 213 -239q24 -27 24 -45q0 -15 -25 -42.5t-40 -27.5z" />
    <glyph glyph-name="iacute" unicode="&#xed;" horiz-adv-x="589" 
d="M381 1001v-729q0 -88 78 -88h57q23 0 23 -20q0 -40 -67 -112t-128 -72q-106 0 -167.5 64.5t-61.5 178.5v778q0 13 8.5 21.5t39.5 15t85 6.5t85 -6.5t39.5 -15t8.5 -21.5zM94 1135q-15 0 -40 27t-25 42q0 18 24 45q70 83 213 240q22 22 43 22q28 0 78.5 -51t50.5 -80
q0 -22 -24 -43q-38 -36 -271 -182q-32 -20 -49 -20z" />
    <glyph glyph-name="icircumflex" unicode="&#xee;" horiz-adv-x="589" 
d="M381 1001v-729q0 -88 78 -88h57q23 0 23 -20q0 -40 -67 -112t-128 -72q-106 0 -167.5 64.5t-61.5 178.5v778q0 13 8.5 21.5t39.5 15t85 6.5t85 -6.5t39.5 -15t8.5 -21.5zM461 1147q-18 0 -43 18l-172 152l-166 -150q-22 -18 -43 -18q-19 0 -29 10l-67 66q-23 20 -23 45
q0 19 16 35l220 190q23 20 39.5 25.5t54.5 5.5q40 0 56.5 -5.5t39.5 -25.5l217 -190q17 -17 17 -37q0 -22 -21 -43l-63 -64q-14 -14 -33 -14z" />
    <glyph glyph-name="idieresis" unicode="&#xef;" horiz-adv-x="589" 
d="M381 1001v-729q0 -88 78 -88h57q23 0 23 -20q0 -40 -67 -112t-128 -72q-106 0 -167.5 64.5t-61.5 178.5v778q0 13 8.5 21.5t39.5 15t85 6.5t85 -6.5t39.5 -15t8.5 -21.5zM55 1155q-137 0 -137 152q0 153 137 153q67 0 105.5 -39t38.5 -114q0 -152 -144 -152zM424 1155
q-137 0 -137 152q0 153 137 153q67 0 105 -39t38 -114q0 -152 -143 -152z" />
    <glyph glyph-name="eth" unicode="&#xf0;" horiz-adv-x="1128" 
d="M223 1055l154 96l-160 170q-10 17 -10 27q0 45 133 45q119 0 160 -41q4 -5 75 -76l177 110q30 21 82 -67q55 -86 24 -105l-143 -90q321 -377 321 -632q0 -233 -135 -371.5t-356 -138.5q-204 0 -328.5 113.5t-124.5 271.5q0 65 24 127.5t60.5 110.5t87 93t96.5 76t97 58.5
t80 40.5t53 22q-26 37 -78 100l-180 -112q-31 -20 -84 67q-55 86 -25 105zM774 504q0 90 -69 215q-31 -13 -64.5 -30t-87.5 -52t-94.5 -72t-70.5 -89t-30 -105q0 -75 52.5 -122.5t138.5 -47.5q90 0 157.5 84.5t67.5 218.5z" />
    <glyph glyph-name="ntilde" unicode="&#xf1;" horiz-adv-x="1290" 
d="M1042 -20q-106 0 -166.5 64.5t-60.5 178.5v463q0 166 -162 166q-76 0 -151.5 -57t-75.5 -93v-659q0 -13 -8.5 -21.5t-39.5 -15t-85 -6.5t-85 6.5t-39.5 15t-8.5 21.5v743q0 40 -14.5 71t-29 50.5t-14.5 30.5q0 28 84 77.5t125 49.5q21 0 37 -7.5t28.5 -25t20 -32.5
t19.5 -44q1 -2 4 -8.5t4 -11.5q58 48 156.5 88.5t195.5 40.5q135 0 220 -77.5t85 -201.5v-514q0 -88 78 -88h58q22 0 22 -20q0 -40 -67.5 -112t-129.5 -72zM481 1174q-16 -13 -24 -13q-19 0 -63 51t-44 66q0 17 23 43q34 41 90 68.5t115 27.5q48 0 103 -22.5t102 -45
t73 -22.5q39 0 98 68q10 10 17 10q15 0 59.5 -50t44.5 -67q0 -38 -59.5 -88.5t-138.5 -50.5q-51 0 -105.5 22.5t-103 45t-86.5 22.5q-10 0 -23.5 -7t-23 -14t-28 -22.5t-26.5 -21.5z" />
    <glyph glyph-name="ograve" unicode="&#xf2;" horiz-adv-x="1226" 
d="M614 -18q105 0 197.5 34t165.5 99.5t115.5 171.5t42.5 239t-42.5 237.5t-115.5 169.5t-165.5 98.5t-197.5 33.5q-106 0 -198.5 -33.5t-165.5 -98.5t-115.5 -169.5t-42.5 -237.5t42.5 -239t115.5 -171.5t166 -99.5t198 -34zM614 172q-103 0 -166 89t-63 269t63 269.5
t166 89.5t165.5 -89.5t62.5 -269.5t-62.5 -269t-165.5 -89zM752 1167q-16 0 -50 21q-230 144 -270 182q-24 21 -24 43q0 29 50.5 80t78.5 51q21 0 43 -22q143 -157 213 -240q24 -27 24 -45q0 -15 -25 -42.5t-40 -27.5z" />
    <glyph glyph-name="oacute" unicode="&#xf3;" horiz-adv-x="1226" 
d="M614 -18q105 0 197.5 34t165.5 99.5t115.5 171.5t42.5 239t-42.5 237.5t-115.5 169.5t-165.5 98.5t-197.5 33.5q-106 0 -198.5 -33.5t-165.5 -98.5t-115.5 -169.5t-42.5 -237.5t42.5 -239t115.5 -171.5t166 -99.5t198 -34zM614 172q-103 0 -166 89t-63 269t63 269.5
t166 89.5t165.5 -89.5t62.5 -269.5t-62.5 -269t-165.5 -89zM473 1167q-15 0 -40 27.5t-25 42.5q0 18 24 45q70 83 213 240q22 22 43 22q28 0 78.5 -51t50.5 -80q0 -22 -24 -43q-38 -36 -271 -182q-34 -21 -49 -21z" />
    <glyph glyph-name="ocircumflex" unicode="&#xf4;" horiz-adv-x="1226" 
d="M614 -18q105 0 197.5 34t165.5 99.5t115.5 171.5t42.5 239t-42.5 237.5t-115.5 169.5t-165.5 98.5t-197.5 33.5q-106 0 -198.5 -33.5t-165.5 -98.5t-115.5 -169.5t-42.5 -237.5t42.5 -239t115.5 -171.5t166 -99.5t198 -34zM614 172q-103 0 -166 89t-63 269t63 269.5
t166 89.5t165.5 -89.5t62.5 -269.5t-62.5 -269t-165.5 -89zM825 1165q-16 0 -43 19l-172 151l-166 -149q-24 -19 -43 -19q-17 0 -28 11l-68 65q-22 19 -22 45q0 19 16 35l219 190q23 20 39.5 25.5t54.5 5.5q40 0 57 -6t40 -25l217 -190q16 -16 16 -37q0 -23 -20 -43l-64 -63
q-15 -15 -33 -15z" />
    <glyph glyph-name="otilde" unicode="&#xf5;" horiz-adv-x="1226" 
d="M614 -18q105 0 197.5 34t165.5 99.5t115.5 171.5t42.5 239t-42.5 237.5t-115.5 169.5t-165.5 98.5t-197.5 33.5q-106 0 -198.5 -33.5t-165.5 -98.5t-115.5 -169.5t-42.5 -237.5t42.5 -239t115.5 -171.5t166 -99.5t198 -34zM614 172q-103 0 -166 89t-63 269t63 269.5
t166 89.5t165.5 -89.5t62.5 -269.5t-62.5 -269t-165.5 -89zM381 1192q-15 -12 -25 -12q-19 0 -62.5 50.5t-43.5 65.5q0 18 22 43q34 42 90 69.5t115 27.5q48 0 103.5 -22.5t102.5 -45t73 -22.5q40 0 98 67q10 10 16 10q15 0 60 -49.5t45 -66.5q0 -38 -60 -89t-139 -51
q-51 0 -105.5 22.5t-103 45t-86.5 22.5q-10 0 -23.5 -7t-23 -14t-27.5 -22t-26 -22z" />
    <glyph glyph-name="odieresis" unicode="&#xf6;" horiz-adv-x="1226" 
d="M614 -18q105 0 197.5 34t165.5 99.5t115.5 171.5t42.5 239t-42.5 237.5t-115.5 169.5t-165.5 98.5t-197.5 33.5q-106 0 -198.5 -33.5t-165.5 -98.5t-115.5 -169.5t-42.5 -237.5t42.5 -239t115.5 -171.5t166 -99.5t198 -34zM614 172q-103 0 -166 89t-63 269t63 269.5
t166 89.5t165.5 -89.5t62.5 -269.5t-62.5 -269t-165.5 -89zM426 1169q-137 0 -137 152q0 154 137 154q67 0 105 -39.5t38 -114.5q0 -152 -143 -152zM795 1169q-138 0 -138 152q0 154 138 154q67 0 105 -39.5t38 -114.5q0 -152 -143 -152z" />
    <glyph glyph-name="divide" unicode="&#xf7;" horiz-adv-x="1118" 
d="M553 846q-56 0 -97.5 39.5t-41.5 95.5t41.5 95.5t97.5 39.5q57 0 98 -39t41 -96q0 -55 -41 -95t-98 -40zM961 586h-801q-25 0 -41.5 15.5t-16.5 39.5v61q0 26 16 42t42 16h801q55 0 55 -58v-61q0 -25 -14.5 -40t-40.5 -15zM553 229q-56 0 -97.5 40t-41.5 96q0 55 41.5 94
t97.5 39q57 0 98 -39t41 -94q0 -57 -41 -96.5t-98 -39.5z" />
    <glyph glyph-name="oslash" unicode="&#xf8;" horiz-adv-x="1226" 
d="M995 1073l-55 -110q195 -147 195 -437q0 -133 -42.5 -239t-115.5 -171.5t-165.5 -99.5t-197.5 -34q-80 0 -153 18l-4 -6q-22 -35 -125 -35q-115 0 -115 39q0 6 8 22l41 82q-174 148 -174 424q0 133 42.5 237.5t115.5 169.5t165.5 98.5t198.5 33.5q70 0 127 -14l25 49
q6 10 14.5 16.5t36 12.5t72.5 6q115 0 115 -39q0 -5 -9 -23zM614 172q103 0 165.5 89t62.5 269q0 107 -25 187l-266 -537q24 -8 63 -8zM385 530q0 -100 16 -157l256 512q-28 4 -43 4q-103 0 -166 -89.5t-63 -269.5z" />
    <glyph glyph-name="ugrave" unicode="&#xf9;" horiz-adv-x="1220" 
d="M449 -20q-145 0 -246 90.5t-101 240.5v690q0 13 9 21.5t40 15t85 6.5t85 -6.5t39.5 -15t8.5 -21.5v-628q0 -84 49 -128t133 -44q80 0 142.5 44t62.5 91v665q0 13 8.5 21.5t39.5 15t85 6.5t85 -6.5t39.5 -15t8.5 -21.5v-731q0 -88 78 -88h57q23 0 23 -20q0 -40 -66.5 -111
t-128.5 -71q-99 0 -180 114l-19 27q-44 -34 -66.5 -50t-68.5 -42t-95.5 -37.5t-106.5 -11.5zM641 1145q-17 0 -49 20q-227 142 -270 183q-25 21 -25 43q0 29 50.5 80t78.5 51q20 0 43 -23q154 -169 213 -239q25 -29 25 -46q0 -15 -25.5 -42t-40.5 -27z" />
    <glyph glyph-name="uacute" unicode="&#xfa;" horiz-adv-x="1220" 
d="M449 -20q-145 0 -246 90.5t-101 240.5v690q0 13 9 21.5t40 15t85 6.5t85 -6.5t39.5 -15t8.5 -21.5v-628q0 -84 49 -128t133 -44q80 0 142.5 44t62.5 91v665q0 13 8.5 21.5t39.5 15t85 6.5t85 -6.5t39.5 -15t8.5 -21.5v-731q0 -88 78 -88h57q23 0 23 -20q0 -40 -66.5 -111
t-128.5 -71q-99 0 -180 114l-19 27q-44 -34 -66.5 -50t-68.5 -42t-95.5 -37.5t-106.5 -11.5zM518 1153q-15 0 -40 27.5t-25 42.5q0 18 24 45q59 70 213 239q23 23 43 23q28 0 78.5 -51t50.5 -80q0 -22 -24 -43q-38 -36 -271 -182q-34 -21 -49 -21z" />
    <glyph glyph-name="ucircumflex" unicode="&#xfb;" horiz-adv-x="1220" 
d="M449 -20q-145 0 -246 90.5t-101 240.5v690q0 13 9 21.5t40 15t85 6.5t85 -6.5t39.5 -15t8.5 -21.5v-628q0 -84 49 -128t133 -44q80 0 142.5 44t62.5 91v665q0 13 8.5 21.5t39.5 15t85 6.5t85 -6.5t39.5 -15t8.5 -21.5v-731q0 -88 78 -88h57q23 0 23 -20q0 -40 -66.5 -111
t-128.5 -71q-99 0 -180 114l-19 27q-44 -34 -66.5 -50t-68.5 -42t-95.5 -37.5t-106.5 -11.5zM823 1165q-16 0 -43 19l-172 151l-166 -149q-24 -19 -43 -19q-17 0 -28 11l-68 65q-22 19 -22 45q0 19 16 35l219 190q23 20 39.5 25.5t54.5 5.5q40 0 57 -6t40 -25l217 -190
q16 -16 16 -37q0 -23 -20 -43l-64 -63q-15 -15 -33 -15z" />
    <glyph glyph-name="udieresis" unicode="&#xfc;" horiz-adv-x="1220" 
d="M449 -20q-145 0 -246 90.5t-101 240.5v690q0 13 9 21.5t40 15t85 6.5t85 -6.5t39.5 -15t8.5 -21.5v-628q0 -84 49 -128t133 -44q80 0 142.5 44t62.5 91v665q0 13 8.5 21.5t39.5 15t85 6.5t85 -6.5t39.5 -15t8.5 -21.5v-731q0 -88 78 -88h57q23 0 23 -20q0 -40 -66.5 -111
t-128.5 -71q-99 0 -180 114l-19 27q-44 -34 -66.5 -50t-68.5 -42t-95.5 -37.5t-106.5 -11.5zM422 1169q-137 0 -137 152q0 154 137 154q67 0 105 -39.5t38 -114.5q0 -152 -143 -152zM791 1169q-138 0 -138 152q0 154 138 154q67 0 105 -39.5t38 -114.5q0 -152 -143 -152z
" />
    <glyph glyph-name="yacute" unicode="&#xfd;" horiz-adv-x="1165" 
d="M569 -492q-115 0 -216.5 35.5t-116.5 71.5q-37 90 -37 145q0 27 24 27q10 0 49.5 -17t104 -34t135.5 -17q121 0 187.5 61.5t66.5 180.5v137q-145 -118 -307 -118q-143 0 -234.5 89.5t-91.5 241.5v690q0 13 8.5 21.5t39.5 15t85 6.5t85 -6.5t39.5 -15t8.5 -21.5v-628
q0 -172 162 -172q80 0 142.5 44t62.5 91v665q0 13 8.5 21.5t39.5 15t85 6.5t85 -6.5t39.5 -15t8.5 -21.5v-1050q0 -86 -31.5 -165.5t-89.5 -141.5t-147 -99t-195 -37zM516 1128q-15 0 -40 27.5t-25 42.5q0 18 24 45q70 83 213 240q22 22 43 22q28 0 78.5 -51t50.5 -80
q0 -22 -24 -43q-38 -36 -271 -182q-34 -21 -49 -21z" />
    <glyph glyph-name="thorn" unicode="&#xfe;" horiz-adv-x="1060" 
d="M342 -377h-121q-26 0 -41.5 14t-15.5 39v1670q0 25 15.5 40t41.5 15h121q27 0 43 -15t16 -40v-416q73 31 158 31q128 0 223 -68.5t141 -175t46 -232.5q0 -138 -45 -249.5t-140 -181.5t-225 -70q-95 0 -158 20v-328q0 -23 -14.5 -38t-44.5 -15zM403 670v-414
q23 -32 55 -42.5t87 -10.5q63 0 106.5 44t61.5 105.5t18 132.5q0 65 -16 120.5t-56.5 95.5t-99.5 40q-117 0 -156 -71z" />
    <glyph glyph-name="ydieresis" unicode="&#xff;" horiz-adv-x="1165" 
d="M569 -492q-115 0 -216.5 35.5t-116.5 71.5q-37 90 -37 145q0 27 24 27q10 0 49.5 -17t104 -34t135.5 -17q121 0 187.5 61.5t66.5 180.5v137q-145 -118 -307 -118q-143 0 -234.5 89.5t-91.5 241.5v690q0 13 8.5 21.5t39.5 15t85 6.5t85 -6.5t39.5 -15t8.5 -21.5v-628
q0 -172 162 -172q80 0 142.5 44t62.5 91v665q0 13 8.5 21.5t39.5 15t85 6.5t85 -6.5t39.5 -15t8.5 -21.5v-1050q0 -86 -31.5 -165.5t-89.5 -141.5t-147 -99t-195 -37zM395 1169q-137 0 -137 152q0 154 137 154q67 0 105.5 -39.5t38.5 -114.5q0 -152 -144 -152zM764 1169
q-137 0 -137 152q0 154 137 154q67 0 105 -39.5t38 -114.5q0 -152 -143 -152z" />
    <glyph glyph-name="Amacron" unicode="&#x100;" horiz-adv-x="1384" 
d="M858 461h-332q-28 0 -28 26l170 478q9 28 24 28q16 0 25 -28l170 -478q0 -26 -29 -26zM440 246h504q26 0 37 -27l66 -178q9 -24 37.5 -32.5t111.5 -8.5q59 0 90 4t39 10t8 17t-14 55l-465 1221q-14 39 -45 52t-117 13t-117 -13t-45 -52l-464 -1221q-15 -47 -15 -55
q0 -11 8 -17t39 -10t90 -4q84 0 112.5 8.5t37.5 32.5l65 178q11 27 37 27zM930 1497h-473q-25 0 -41.5 15.5t-16.5 39.5v62q0 26 16 41.5t42 15.5h473q26 0 40.5 -15.5t14.5 -41.5v-62q0 -25 -14.5 -40t-40.5 -15z" />
    <glyph glyph-name="amacron" unicode="&#x101;" horiz-adv-x="1167" 
d="M346 315q0 -68 47.5 -103.5t124.5 -35.5q71 0 122.5 35t51.5 72v227q0 25 -24 25q-23 0 -97 -23q-46 -15 -80 -29.5t-70 -38t-55.5 -56.5t-19.5 -73zM922 -20q-39 0 -74.5 11.5t-57.5 27.5t-38.5 32t-23.5 27l-7 12q-151 -110 -315 -110q-148 0 -241 79t-93 224
q0 85 27.5 147t87 106t138.5 74t197 56q89 21 126.5 36.5t37.5 38.5q0 55 -47.5 86t-138.5 31q-71 0 -140 -23t-113 -46t-54 -23q-25 0 -25 29q0 53 37 151q15 38 118 78.5t216 40.5q228 0 323.5 -100t95.5 -312v-383q0 -88 80 -88h58q20 0 20 -20q0 -40 -66 -111t-128 -71z
M776 1167h-473q-25 0 -41 15.5t-16 40.5v61q0 26 15.5 41.5t41.5 15.5h473q26 0 40.5 -15.5t14.5 -41.5v-61q0 -25 -14.5 -40.5t-40.5 -15.5z" />
    <glyph glyph-name="Abreve" unicode="&#x102;" horiz-adv-x="1384" 
d="M858 461h-332q-28 0 -28 26l170 478q9 28 24 28q16 0 25 -28l170 -478q0 -26 -29 -26zM440 246h504q26 0 37 -27l66 -178q9 -24 37.5 -32.5t111.5 -8.5q59 0 90 4t39 10t8 17t-14 55l-465 1221q-14 39 -45 52t-117 13t-117 -13t-45 -52l-464 -1221q-15 -47 -15 -55
q0 -11 8 -17t39 -10t90 -4q84 0 112.5 8.5t37.5 32.5l65 178q11 27 37 27zM692 1499q-61 0 -119 30.5t-95.5 72t-60 80t-22.5 57.5q0 33 39.5 63.5t71.5 30.5q17 0 29.5 -12.5t29.5 -42.5q16 -25 25.5 -38t27.5 -34t37 -31t39 -10q19 0 36.5 9.5t36.5 31.5t26.5 32.5
t25.5 37.5q20 32 32 44.5t28 12.5q32 0 71 -30.5t39 -63.5q0 -19 -22.5 -57t-59.5 -79.5t-95.5 -72.5t-119.5 -31z" />
    <glyph glyph-name="abreve" unicode="&#x103;" horiz-adv-x="1167" 
d="M346 315q0 -68 47.5 -103.5t124.5 -35.5q71 0 122.5 35t51.5 72v227q0 25 -24 25q-23 0 -97 -23q-46 -15 -80 -29.5t-70 -38t-55.5 -56.5t-19.5 -73zM922 -20q-39 0 -74.5 11.5t-57.5 27.5t-38.5 32t-23.5 27l-7 12q-151 -110 -315 -110q-148 0 -241 79t-93 224
q0 85 27.5 147t87 106t138.5 74t197 56q89 21 126.5 36.5t37.5 38.5q0 55 -47.5 86t-138.5 31q-71 0 -140 -23t-113 -46t-54 -23q-25 0 -25 29q0 53 37 151q15 38 118 78.5t216 40.5q228 0 323.5 -100t95.5 -312v-383q0 -88 80 -88h58q20 0 20 -20q0 -40 -66 -111t-128 -71z
M549 1167q-61 0 -119 30.5t-95.5 72t-60 80t-22.5 57.5q0 33 39 63.5t71 30.5q18 0 30.5 -13t29.5 -42q16 -25 25.5 -38t27.5 -34t37 -31t39 -10q19 0 36.5 9.5t36.5 31.5t26.5 32.5t25.5 37.5q20 32 31.5 44.5t27.5 12.5q32 0 71.5 -30.5t39.5 -63.5q0 -19 -22.5 -57
t-59.5 -79.5t-95.5 -72.5t-119.5 -31z" />
    <glyph glyph-name="Aogonek" unicode="&#x104;" horiz-adv-x="1384" 
d="M944 246h-504q-26 0 -37 -27l-65 -178q-9 -24 -37.5 -32.5t-112.5 -8.5q-59 0 -90 4t-39 10t-8 17q0 8 15 55l464 1221q14 39 45 52t117 13t117 -13t45 -52l465 -1221q14 -44 14 -55v-2q-5 11 -39.5 30t-52.5 19q-14 0 -47 -23q-14 -10 -68 -53q-40 3 -56.5 11.5
t-22.5 27.5l-66 178q-11 27 -37 27zM526 461h332q29 0 29 26l-170 478q-9 28 -25 28q-15 0 -24 -28l-170 -478q0 -26 28 -26zM1253 -381q-91 0 -154 56.5t-63 150.5t90 176q18 -2 70 -2q123 0 135 18l-26 -26q-93 -93 -93 -160q0 -53 45 -53q17 0 37 11t35 11q29 0 53.5 -34
t24.5 -66q0 -36 -47.5 -59t-106.5 -23zM1331 18q0 1 1 4.5t1 4.5q0 -7 -2 -9z" />
    <glyph glyph-name="aogonek" unicode="&#x105;" horiz-adv-x="1167" 
d="M911 -385q-91 0 -154 56.5t-63 150.5q0 101 107 188q-24 15 -44 35t-28 33l-8 12q-151 -110 -315 -110q-148 0 -241 79t-93 224q0 85 27.5 147t87 106t138.5 74t197 56q89 21 126.5 36.5t37.5 38.5q0 55 -47.5 86t-138.5 31q-71 0 -140 -23t-113 -46t-54 -23
q-25 0 -25 29q0 53 37 151q15 38 118 78.5t216 40.5q228 0 323.5 -100t95.5 -312v-383q0 -88 80 -88h58q20 0 20 -20q0 -32 -49 -92t-104 -82q-93 -93 -93 -160q0 -53 45 -53q17 0 37 11t35 11q29 0 53.5 -34t24.5 -66q0 -36 -47.5 -59t-106.5 -23zM346 315
q0 -68 47.5 -103.5t124.5 -35.5q71 0 122.5 35t51.5 72v227q0 25 -24 25q-23 0 -97 -23q-46 -15 -80 -29.5t-70 -38t-55.5 -56.5t-19.5 -73z" />
    <glyph glyph-name="Cacute" unicode="&#x106;" horiz-adv-x="1372" 
d="M815 -20q-111 0 -214 24.5t-196 79t-162 133t-110 194t-41 255.5q0 139 39.5 258t107.5 204.5t158.5 145.5t194 89.5t213.5 29.5q83 0 154.5 -14.5t118 -35.5t80 -46t48.5 -46t15 -34q0 -32 -40.5 -87t-66.5 -55q-13 0 -36 10.5t-49.5 23.5t-83 23.5t-128.5 10.5
q-68 0 -129.5 -17t-117 -53.5t-96 -90.5t-64 -133.5t-23.5 -176.5q0 -101 26 -179.5t69 -128t104.5 -81t127 -44t142.5 -12.5q86 0 163 19t120.5 42.5t78.5 42.5t46 19q26 0 26 -31q0 -72 -43 -172q-11 -28 -70.5 -66.5t-160 -69.5t-201.5 -31zM610 1485q-15 0 -40 27
t-25 42q0 18 24 45q70 83 213 240q23 23 43 23q28 0 78.5 -51t50.5 -80q0 -22 -24 -43q-41 -39 -271 -183q-32 -20 -49 -20z" />
    <glyph glyph-name="cacute" unicode="&#x107;" horiz-adv-x="1064" 
d="M635 -20q-86 0 -163.5 17.5t-148 57.5t-121 99t-80.5 147.5t-30 198.5q0 137 43.5 246t119.5 178t176.5 105t217.5 36q134 0 218.5 -36.5t84.5 -74.5q0 -35 -48.5 -104.5t-78.5 -69.5q-9 0 -35 18.5t-70.5 37t-96.5 18.5q-44 0 -83 -17.5t-73.5 -54.5t-55 -104.5
t-20.5 -157.5q0 -161 79.5 -244t211.5 -83q71 0 133.5 21.5t100.5 43t49 21.5q10 0 19 -7.5t9 -21.5q0 -51 -39 -146q-14 -38 -108.5 -81t-210.5 -43zM543 1155q-15 0 -40.5 27.5t-25.5 42.5q0 16 25 45q59 70 213 239q23 23 43 23q28 0 78.5 -51t50.5 -80q0 -22 -25 -43
q-40 -38 -270 -182q-34 -21 -49 -21z" />
    <glyph glyph-name="Ccaron" unicode="&#x10c;" horiz-adv-x="1372" 
d="M815 -20q-111 0 -214 24.5t-196 79t-162 133t-110 194t-41 255.5q0 139 39.5 258t107.5 204.5t158.5 145.5t194 89.5t213.5 29.5q83 0 154.5 -14.5t118 -35.5t80 -46t48.5 -46t15 -34q0 -32 -40.5 -87t-66.5 -55q-13 0 -36 10.5t-49.5 23.5t-83 23.5t-128.5 10.5
q-68 0 -129.5 -17t-117 -53.5t-96 -90.5t-64 -133.5t-23.5 -176.5q0 -101 26 -179.5t69 -128t104.5 -81t127 -44t142.5 -12.5q86 0 163 19t120.5 42.5t78.5 42.5t46 19q26 0 26 -31q0 -72 -43 -172q-11 -28 -70.5 -66.5t-160 -69.5t-201.5 -31zM793 1487q-9 0 -17.5 1
t-17 5.5t-13.5 6t-14 9t-11 9t-12 10.5l-10 10l-194 205q-15 18 -15 37q0 16 17 30l61 54q10 10 29 10q28 0 39 -14l156 -168l161 168q10 14 37 14q21 0 33 -10l59 -52q15 -12 15 -32q0 -18 -13 -37l-194 -205q-2 -2 -10.5 -10t-11.5 -10.5t-11 -9t-13.5 -9t-14 -6t-17 -5
t-18.5 -1.5z" />
    <glyph glyph-name="ccaron" unicode="&#x10d;" horiz-adv-x="1064" 
d="M635 -20q-86 0 -163.5 17.5t-148 57.5t-121 99t-80.5 147.5t-30 198.5q0 137 43.5 246t119.5 178t176.5 105t217.5 36q134 0 218.5 -36.5t84.5 -74.5q0 -35 -48.5 -104.5t-78.5 -69.5q-9 0 -35 18.5t-70.5 37t-96.5 18.5q-44 0 -83 -17.5t-73.5 -54.5t-55 -104.5
t-20.5 -157.5q0 -161 79.5 -244t211.5 -83q71 0 133.5 21.5t100.5 43t49 21.5q10 0 19 -7.5t9 -21.5q0 -51 -39 -146q-14 -38 -108.5 -81t-210.5 -43zM645 1169q-11 0 -21.5 2.5t-17 5.5t-16.5 10t-13.5 10t-13.5 12.5t-12 11.5l-195 204q-14 17 -14 37q0 18 16 31l62 53
q10 10 29 10q27 0 38 -14l156 -168l162 168q11 14 37 14q20 0 32 -10l60 -51q14 -12 14 -33q0 -19 -12 -37l-195 -204q-2 -1 -12.5 -11t-13.5 -13t-13 -10t-17 -10t-18 -5.5t-22 -2.5z" />
    <glyph glyph-name="Dcaron" unicode="&#x10e;" horiz-adv-x="1445" 
d="M1354 717q0 -154 -39 -278t-106.5 -208.5t-162.5 -141t-204 -82t-234 -25.5q-177 0 -300.5 33t-123.5 79v1186q0 46 123.5 79.5t300.5 33.5q84 0 158 -8t151 -28.5t140 -53.5t119.5 -85.5t94.5 -121.5t60.5 -165.5t22.5 -213.5zM1087 715q0 92 -15.5 165t-39.5 122
t-63 84t-77 54t-90.5 30t-94 13.5t-97.5 2.5q-77 0 -118 -19t-41 -51v-848q0 -75 157 -75q51 0 97.5 6.5t95.5 23t90 42.5t78 67t62.5 94t40.5 127t15 162zM684 1493q-9 0 -17.5 1.5t-16.5 5t-13.5 6t-13.5 9t-11 9t-11.5 10.5t-10.5 10l-195 205q-14 17 -14 37q0 18 16 31
l62 53q10 10 28 10q29 0 39 -14l156 -168l162 168q10 14 37 14q20 0 32 -10l60 -51q14 -12 14 -33q0 -19 -12 -37l-195 -205q-2 -2 -10.5 -10t-11.5 -10.5t-11 -9t-13.5 -9t-14 -6t-17 -5t-18.5 -1.5z" />
    <glyph glyph-name="dcaron" unicode="&#x10f;" horiz-adv-x="1265" 
d="M788 297v483q0 34 -35 59t-89 25q-41 0 -78 -10.5t-74 -37.5t-64 -69t-44 -111t-17 -157q0 -83 21 -145.5t56.5 -96t74.5 -49.5t82 -16q68 0 117.5 41.5t49.5 83.5zM520 -20q-63 0 -122.5 16.5t-115.5 54t-98 92t-67 136t-25 180.5q0 134 36 242t91 174t126 110.5t136 62
t127 17.5q45 0 91 -10.5t69 -20.5l23 -10v408q0 13 8.5 21.5t39.5 15t85 6.5t85 -6.5t39.5 -15t8.5 -21.5v-1162q0 -88 78 -88h57q22 0 22 -20q0 -40 -68 -111t-128 -71q-40 0 -76 11.5t-58.5 27.5t-39.5 32t-24 27l-7 12q-5 -4 -13.5 -11.5t-37.5 -26.5t-61 -33.5
t-81.5 -26.5t-99.5 -12zM1186 836q-41 0 -41 34q0 20 33.5 73.5t33.5 96.5q0 18 -9 32.5t-19.5 26t-19.5 45t-9 85.5q0 74 39 107.5t117 33.5q77 0 114 -35t37 -118q0 -72 -32 -144.5t-76.5 -123t-90.5 -82t-77 -31.5z" />
    <glyph glyph-name="Emacron" unicode="&#x112;" horiz-adv-x="1210" 
d="M242 0q-58 0 -58 57v1258q0 57 58 57h698q67 0 92 -59t25 -195q0 -28 -25 -28q-6 0 -43 14t-128 28.5t-228 14.5h-160q-31 0 -31 -31v-280q0 -31 31 -31h385q20 0 30.5 -25t10.5 -94t-10.5 -94t-30.5 -25h-385q-31 0 -31 -30v-281q0 -31 31 -31h221q107 0 188.5 9t117 20
t61 20t33.5 9q24 0 24 -29q0 -136 -25 -195t-92 -59h-759zM842 1497h-473q-25 0 -41.5 15.5t-16.5 39.5v62q0 26 16 41.5t42 15.5h473q26 0 40.5 -15.5t14.5 -41.5v-62q0 -25 -14.5 -40t-40.5 -15z" />
    <glyph glyph-name="emacron" unicode="&#x113;" horiz-adv-x="1075" 
d="M641 -20q111 0 204 43t107 81q37 98 37 146q0 14 -8 21.5t-20 7.5q-10 0 -47.5 -21.5t-100 -43t-133.5 -21.5q-232 0 -281 184q77 1 157.5 15t161.5 45t144 74t102.5 109t39.5 144q0 132 -103.5 216.5t-298.5 84.5q-78 0 -150 -20t-138 -64.5t-115 -109.5t-78 -162
t-29 -215q0 -130 42 -230t117.5 -161t173.5 -92t216 -31zM860 1174h-473q-25 0 -41 15t-16 40v61q0 26 15.5 42t41.5 16h473q26 0 40.5 -15.5t14.5 -42.5v-61q0 -25 -14.5 -40t-40.5 -15zM731 780q0 -112 -102 -183t-244 -77q4 190 67.5 282.5t161.5 92.5q48 0 82.5 -33
t34.5 -82z" />
    <glyph glyph-name="Ebreve" unicode="&#x114;" horiz-adv-x="1210" 
d="M242 0q-58 0 -58 57v1258q0 57 58 57h698q67 0 92 -59t25 -195q0 -28 -25 -28q-6 0 -43 14t-128 28.5t-228 14.5h-160q-31 0 -31 -31v-280q0 -31 31 -31h385q20 0 30.5 -25t10.5 -94t-10.5 -94t-30.5 -25h-385q-31 0 -31 -30v-281q0 -31 31 -31h221q107 0 188.5 9t117 20
t61 20t33.5 9q24 0 24 -29q0 -136 -25 -195t-92 -59h-759zM598 1475q-61 0 -119 30.5t-95.5 71.5t-60 79.5t-22.5 57.5q0 33 39.5 63.5t71.5 30.5q17 0 29.5 -12.5t29.5 -42.5q16 -25 25.5 -38t27.5 -34t37 -31t39 -10q19 0 36.5 9.5t36.5 31.5t26.5 32.5t25.5 37.5
q20 32 31.5 44.5t27.5 12.5q32 0 71.5 -30.5t39.5 -63.5q0 -19 -22.5 -57t-59.5 -79.5t-95.5 -72t-119.5 -30.5z" />
    <glyph glyph-name="ebreve" unicode="&#x115;" horiz-adv-x="1075" 
d="M641 -20q111 0 204 43t107 81q37 98 37 146q0 14 -8 21.5t-20 7.5q-10 0 -47.5 -21.5t-100 -43t-133.5 -21.5q-232 0 -281 184q77 1 157.5 15t161.5 45t144 74t102.5 109t39.5 144q0 132 -103.5 216.5t-298.5 84.5q-78 0 -150 -20t-138 -64.5t-115 -109.5t-78 -162
t-29 -215q0 -130 42 -230t117.5 -161t173.5 -92t216 -31zM600 1159q-61 0 -119 30.5t-95.5 72t-60 80t-22.5 57.5q0 33 39.5 63.5t71.5 30.5q17 0 29.5 -12.5t29.5 -42.5q16 -25 25.5 -38t27.5 -34t37 -31t39 -10q19 0 36.5 9.5t36.5 31.5t26.5 32.5t25.5 37.5
q20 32 31.5 44.5t27.5 12.5q32 0 71.5 -30.5t39.5 -63.5q0 -19 -22.5 -57t-59.5 -79.5t-95.5 -72.5t-119.5 -31zM731 780q0 -112 -102 -183t-244 -77q4 190 67.5 282.5t161.5 92.5q48 0 82.5 -33t34.5 -82z" />
    <glyph glyph-name="Eogonek" unicode="&#x118;" horiz-adv-x="1210" 
d="M242 0q-58 0 -58 57v1258q0 57 58 57h698q67 0 92 -59t25 -195q0 -28 -25 -28q-6 0 -43 14t-128 28.5t-228 14.5h-160q-31 0 -31 -31v-280q0 -31 31 -31h385q20 0 30.5 -25t10.5 -94t-10.5 -94t-30.5 -25h-385q-31 0 -31 -30v-281q0 -31 31 -31h221q107 0 188.5 9t117 20
t61 20t33.5 9q24 0 24 -29q0 -136 -25 -195t-92 -59h-270l-24 -25q-93 -93 -93 -159q0 -54 45 -54q17 0 37 11.5t35 11.5q29 0 53.5 -34t24.5 -66q0 -36 -47.5 -59t-106.5 -23q-91 0 -154 56.5t-63 150.5q0 100 107 190h-303z" />
    <glyph glyph-name="eogonek" unicode="&#x119;" horiz-adv-x="1075" 
d="M92 494q0 118 29 215t78 162t115 109.5t138 64.5t150 20q195 0 298.5 -84.5t103.5 -216.5q0 -78 -39.5 -144t-102.5 -109t-144 -74t-161.5 -45t-157.5 -15q49 -184 281 -184q55 0 107 13.5t82.5 29.5t56 29.5t35.5 13.5q12 0 20 -7.5t8 -21.5q0 -48 -37 -146
q-12 -30 -77.5 -67t-149.5 -49q16 16 16 22q0 11 -36 31t-56 20q-15 0 -47 -22q-21 -15 -65 -53q-203 26 -324 154t-121 354zM731 780q0 49 -34.5 82t-82.5 33q-98 0 -161.5 -92.5t-67.5 -282.5q142 6 244 77t102 183zM662 -397q-91 0 -154.5 56.5t-63.5 150.5q0 91 93 176
q49 -6 104 -6q30 0 84 8q-10 -10 -12 -13q-92 -92 -92 -159q0 -54 45 -54q17 0 36.5 11.5t34.5 11.5q29 0 53.5 -34t24.5 -66q0 -36 -47 -59t-106 -23z" />
    <glyph glyph-name="Imacron" unicode="&#x12a;" horiz-adv-x="634" 
d="M317 0q-55 0 -85.5 6t-39 14t-8.5 21v1290q0 13 8.5 21t39 14t85.5 6q54 0 84.5 -6t40 -14t9.5 -21v-1290q0 -13 -9.5 -21t-40 -14t-84.5 -6zM555 1497h-473q-25 0 -41 15t-16 40v62q0 26 15.5 41.5t41.5 15.5h473q26 0 40.5 -15.5t14.5 -41.5v-62q0 -25 -14.5 -40
t-40.5 -15z" />
    <glyph glyph-name="imacron" unicode="&#x12b;" horiz-adv-x="589" 
d="M381 1001v-729q0 -88 78 -88h57q23 0 23 -20q0 -40 -67 -112t-128 -72q-106 0 -167.5 64.5t-61.5 178.5v778q0 13 8.5 21.5t39.5 15t85 6.5t85 -6.5t39.5 -15t8.5 -21.5zM481 1163h-473q-25 0 -41 15.5t-16 40.5v61q0 26 15.5 41.5t41.5 15.5h473q26 0 41 -15.5t15 -41.5
v-61q0 -25 -15 -40.5t-41 -15.5z" />
    <glyph glyph-name="Ibreve" unicode="&#x12c;" horiz-adv-x="634" 
d="M317 0q-55 0 -85.5 6t-39 14t-8.5 21v1290q0 13 8.5 21t39 14t85.5 6q54 0 84.5 -6t40 -14t9.5 -21v-1290q0 -13 -9.5 -21t-40 -14t-84.5 -6zM317 1499q-61 0 -119 30.5t-95.5 72t-60 80t-22.5 57.5q0 33 39.5 63.5t71.5 30.5q17 0 29.5 -12.5t29.5 -42.5
q16 -25 25.5 -38t27.5 -34t37 -31t39 -10q19 0 36.5 9.5t36.5 31.5t26.5 32.5t25.5 37.5q20 32 32 44.5t28 12.5q32 0 71 -30.5t39 -63.5q0 -19 -22.5 -57t-59.5 -79.5t-95.5 -72.5t-119.5 -31z" />
    <glyph glyph-name="ibreve" unicode="&#x12d;" horiz-adv-x="589" 
d="M381 1001v-729q0 -88 78 -88h57q23 0 23 -20q0 -40 -67 -112t-128 -72q-106 0 -167.5 64.5t-61.5 178.5v778q0 13 8.5 21.5t39.5 15t85 6.5t85 -6.5t39.5 -15t8.5 -21.5zM238 1161q-61 0 -119 30.5t-95.5 72t-60 80t-22.5 57.5q0 33 39 63.5t71 30.5q17 0 30 -13t30 -42
q16 -25 25.5 -38t27.5 -34t37 -31t39 -10q19 0 36.5 9.5t36.5 31.5t26.5 32.5t25.5 37.5q20 32 31.5 44.5t27.5 12.5q32 0 71.5 -30.5t39.5 -63.5q0 -19 -22.5 -57t-59.5 -79.5t-95.5 -72.5t-119.5 -31z" />
    <glyph glyph-name="dotlessi" unicode="&#x131;" horiz-adv-x="589" 
d="M381 1001v-729q0 -88 78 -88h57q23 0 23 -20q0 -40 -67 -112t-128 -72q-106 0 -167.5 64.5t-61.5 178.5v778q0 13 8.5 21.5t39.5 15t85 6.5t85 -6.5t39.5 -15t8.5 -21.5z" />
    <glyph glyph-name="Lacute" unicode="&#x139;" horiz-adv-x="1136" 
d="M223 0q-39 0 -39 41v1290q0 13 8.5 21t39 14t85.5 6q54 0 84.5 -6t40 -14t9.5 -21v-1067q0 -31 30 -31h181q107 0 188 9t116.5 20t61 20t33.5 9q24 0 24 -29q0 -138 -25 -200t-91 -62h-746zM227 1489q-15 0 -40 27.5t-25 42.5q0 18 24 45q59 70 213 239q23 23 43 23
q28 0 78.5 -51t50.5 -80q0 -22 -24 -43q-41 -39 -271 -183q-32 -20 -49 -20z" />
    <glyph glyph-name="lacute" unicode="&#x13a;" horiz-adv-x="608" 
d="M362 -20q-106 0 -167.5 64.5t-61.5 178.5v1209q0 13 8.5 21.5t39.5 15t85 6.5t85 -6.5t39.5 -15t8.5 -21.5v-1160q0 -88 78 -88h58q22 0 22 -20q0 -40 -67 -112t-128 -72zM141 1544q-15 0 -40 27.5t-25 42.5q0 18 24 45q59 70 213 239q23 23 43 23q28 0 78.5 -51
t50.5 -80q0 -22 -24 -43q-38 -36 -271 -182q-34 -21 -49 -21z" />
    <glyph glyph-name="Lcaron" unicode="&#x13d;" horiz-adv-x="1136" 
d="M223 0q-39 0 -39 41v1290q0 13 8.5 21t39 14t85.5 6q54 0 84.5 -6t40 -14t9.5 -21v-1067q0 -31 30 -31h181q107 0 188 9t116.5 20t61 20t33.5 9q24 0 24 -29q0 -138 -25 -200t-91 -62h-746zM670 836q-41 0 -41 34q0 20 33.5 73.5t33.5 96.5q0 18 -9 32.5t-19.5 26
t-19.5 45t-9 85.5q0 74 39 107.5t117 33.5q77 0 114 -35t37 -118q0 -72 -32 -144.5t-76.5 -123t-90.5 -82t-77 -31.5z" />
    <glyph glyph-name="lcaron" unicode="&#x13e;" horiz-adv-x="608" 
d="M362 -20q-106 0 -167.5 64.5t-61.5 178.5v1209q0 13 8.5 21.5t39.5 15t85 6.5t85 -6.5t39.5 -15t8.5 -21.5v-1160q0 -88 78 -88h58q22 0 22 -20q0 -40 -67 -112t-128 -72zM541 836q-41 0 -41 34q0 20 33.5 73.5t33.5 96.5q0 18 -9 32.5t-19.5 26t-19.5 45t-9 85.5
q0 74 39 107.5t117 33.5q77 0 114 -35t37 -118q0 -72 -32 -144.5t-76.5 -123t-90.5 -82t-77 -31.5z" />
    <glyph glyph-name="Lslash" unicode="&#x141;" horiz-adv-x="1136" 
d="M25 590l159 92v649q0 13 8.5 21t39 14t85.5 6q54 0 84.5 -6t40 -14t9.5 -21v-493l65 39q38 19 100 -86q62 -108 23 -127l-188 -111v-289q0 -31 30 -31h181q107 0 188 9t116.5 20t61 20t33.5 9q24 0 24 -29q0 -138 -25 -200t-91 -62h-746q-39 0 -39 41v356l-37 -20
q-38 -19 -100 86q-61 108 -22 127z" />
    <glyph glyph-name="lslash" unicode="&#x142;" horiz-adv-x="608" 
d="M-37 651l170 99v682q0 13 8.5 21.5t39.5 15t85 6.5t85 -6.5t39.5 -15t8.5 -21.5v-527l56 33q38 19 100 -86q62 -108 23 -127l-179 -104v-349q0 -88 78 -88h58q22 0 22 -20q0 -40 -67 -112t-128 -72q-106 0 -167.5 64.5t-61.5 178.5v242l-47 -27q-38 -19 -100 86
q-61 108 -23 127z" />
    <glyph glyph-name="Nacute" unicode="&#x143;" horiz-adv-x="1474" 
d="M309 0q-54 0 -83 6t-35.5 13.5t-6.5 21.5v1290q0 41 88 41q70 0 92 -5t33 -19l647 -875v858q0 14 6.5 21.5t34 13.5t80.5 6q54 0 83 -6t35.5 -13.5t6.5 -21.5v-1290q0 -41 -88 -41q-68 0 -91.5 5.5t-33.5 19.5l-647 852v-836q0 -14 -6.5 -21.5t-34 -13.5t-80.5 -6z
M657 1442q-15 0 -40 27t-25 42q0 18 24 45q70 83 213 240q23 23 43 23q28 0 78.5 -51t50.5 -80q0 -22 -24 -43q-43 -41 -270 -183q-32 -20 -50 -20z" />
    <glyph glyph-name="nacute" unicode="&#x144;" horiz-adv-x="1290" 
d="M1042 -20q-106 0 -166.5 64.5t-60.5 178.5v463q0 166 -162 166q-76 0 -151.5 -57t-75.5 -93v-659q0 -13 -8.5 -21.5t-39.5 -15t-85 -6.5t-85 6.5t-39.5 15t-8.5 21.5v743q0 40 -14.5 71t-29 50.5t-14.5 30.5q0 28 84 77.5t125 49.5q21 0 37 -7.5t28.5 -25t20 -32.5
t19.5 -44q1 -2 4 -8.5t4 -11.5q58 48 156.5 88.5t195.5 40.5q135 0 220 -77.5t85 -201.5v-514q0 -88 78 -88h58q22 0 22 -20q0 -40 -67.5 -112t-129.5 -72zM621 1137q-15 0 -40.5 27t-25.5 42q0 16 25 45q70 83 213 240q22 22 43 22q28 0 78.5 -51t50.5 -80q0 -22 -25 -43
q-40 -38 -270 -182q-32 -20 -49 -20z" />
    <glyph glyph-name="Ncaron" unicode="&#x147;" horiz-adv-x="1474" 
d="M309 0q-54 0 -83 6t-35.5 13.5t-6.5 21.5v1290q0 41 88 41q70 0 92 -5t33 -19l647 -875v858q0 14 6.5 21.5t34 13.5t80.5 6q54 0 83 -6t35.5 -13.5t6.5 -21.5v-1290q0 -41 -88 -41q-68 0 -91.5 5.5t-33.5 19.5l-647 852v-836q0 -14 -6.5 -21.5t-34 -13.5t-80.5 -6z
M745 1450q-9 0 -17.5 1.5t-16.5 5t-13.5 6t-13.5 9t-11 9t-11.5 10.5t-10.5 10l-194 205q-15 18 -15 37q0 17 17 31l61 53q10 10 29 10q29 0 39 -14l155 -168l162 168q10 14 37 14q20 0 33 -10l59 -51q15 -12 15 -33q0 -17 -13 -37l-194 -205q-2 -1 -9.5 -8.5t-10 -9.5
t-9.5 -8t-11 -8.5t-12 -6.5t-14 -5.5t-14 -3t-17 -1.5z" />
    <glyph glyph-name="ncaron" unicode="&#x148;" horiz-adv-x="1290" 
d="M1042 -20q-106 0 -166.5 64.5t-60.5 178.5v463q0 166 -162 166q-76 0 -151.5 -57t-75.5 -93v-659q0 -13 -8.5 -21.5t-39.5 -15t-85 -6.5t-85 6.5t-39.5 15t-8.5 21.5v743q0 40 -14.5 71t-29 50.5t-14.5 30.5q0 28 84 77.5t125 49.5q21 0 37 -7.5t28.5 -25t20 -32.5
t19.5 -44q1 -2 4 -8.5t4 -11.5q58 48 156.5 88.5t195.5 40.5q135 0 220 -77.5t85 -201.5v-514q0 -88 78 -88h58q22 0 22 -20q0 -40 -67.5 -112t-129.5 -72zM743 1182q-9 0 -17.5 1.5t-16.5 5t-13.5 6t-13.5 9t-11 9t-11.5 10.5t-10.5 10l-194 205q-15 18 -15 37q0 16 17 30
l61 54q10 10 29 10q28 0 39 -15l155 -168l162 168q11 15 37 15q21 0 33 -10l59 -52q15 -13 15 -32q0 -17 -13 -37l-194 -205q-2 -1 -9.5 -8.5t-10 -9.5t-9.5 -8t-11 -8.5t-12 -6.5t-14 -5.5t-14 -3t-17 -1.5z" />
    <glyph glyph-name="Omacron" unicode="&#x14c;" horiz-adv-x="1486" 
d="M743 -20q-148 0 -267 44.5t-205 131.5t-132.5 223t-46.5 311q0 139 34 255t94 198t142.5 139t178.5 84t202 27q134 0 250 -44t206.5 -128.5t143 -221t52.5 -309.5q0 -174 -49 -310.5t-137 -223t-206.5 -131.5t-259.5 -45zM743 215q81 0 147 25.5t118.5 79t82 147
t29.5 219.5q0 127 -30.5 220.5t-84.5 145.5t-119 76.5t-143 24.5q-62 0 -115 -14.5t-102 -49t-83.5 -87t-55 -133t-20.5 -183.5q0 -127 27.5 -220t79.5 -147t118.5 -79t150.5 -25zM981 1497h-473q-25 0 -41 15t-16 40v62q0 26 15.5 41.5t41.5 15.5h473q26 0 40.5 -15.5
t14.5 -41.5v-62q0 -25 -14.5 -40t-40.5 -15z" />
    <glyph glyph-name="omacron" unicode="&#x14d;" horiz-adv-x="1226" 
d="M614 -18q105 0 197.5 34t165.5 99.5t115.5 171.5t42.5 239t-42.5 237.5t-115.5 169.5t-165.5 98.5t-197.5 33.5q-106 0 -198.5 -33.5t-165.5 -98.5t-115.5 -169.5t-42.5 -237.5t42.5 -239t115.5 -171.5t166 -99.5t198 -34zM614 172q-103 0 -166 89t-63 269t63 269.5
t166 89.5t165.5 -89.5t62.5 -269.5t-62.5 -269t-165.5 -89zM850 1169h-473q-25 0 -41.5 15.5t-16.5 40.5v61q0 26 16 41.5t42 15.5h473q26 0 40.5 -15.5t14.5 -41.5v-61q0 -25 -14.5 -40.5t-40.5 -15.5z" />
    <glyph glyph-name="Obreve" unicode="&#x14e;" horiz-adv-x="1486" 
d="M743 -20q-148 0 -267 44.5t-205 131.5t-132.5 223t-46.5 311q0 139 34 255t94 198t142.5 139t178.5 84t202 27q134 0 250 -44t206.5 -128.5t143 -221t52.5 -309.5q0 -174 -49 -310.5t-137 -223t-206.5 -131.5t-259.5 -45zM743 215q81 0 147 25.5t118.5 79t82 147
t29.5 219.5q0 127 -30.5 220.5t-84.5 145.5t-119 76.5t-143 24.5q-62 0 -115 -14.5t-102 -49t-83.5 -87t-55 -133t-20.5 -183.5q0 -127 27.5 -220t79.5 -147t118.5 -79t150.5 -25zM743 1499q-61 0 -119 30.5t-95.5 72t-60 80t-22.5 57.5q0 33 39.5 63.5t71.5 30.5
q17 0 29.5 -12.5t29.5 -42.5q16 -25 25.5 -38t27.5 -34t37 -31t39 -10q19 0 36.5 9.5t36.5 31.5t26.5 32.5t25.5 37.5q20 32 32 44.5t28 12.5q32 0 71 -30.5t39 -63.5q0 -19 -22.5 -57t-59.5 -79.5t-95.5 -72.5t-119.5 -31z" />
    <glyph glyph-name="obreve" unicode="&#x14f;" horiz-adv-x="1226" 
d="M614 -18q105 0 197.5 34t165.5 99.5t115.5 171.5t42.5 239t-42.5 237.5t-115.5 169.5t-165.5 98.5t-197.5 33.5q-106 0 -198.5 -33.5t-165.5 -98.5t-115.5 -169.5t-42.5 -237.5t42.5 -239t115.5 -171.5t166 -99.5t198 -34zM614 172q-103 0 -166 89t-63 269t63 269.5
t166 89.5t165.5 -89.5t62.5 -269.5t-62.5 -269t-165.5 -89zM612 1171q-61 0 -119 30.5t-95.5 72t-60 80t-22.5 57.5q0 33 39.5 63.5t71.5 30.5q17 0 29.5 -12.5t29.5 -42.5q16 -25 25.5 -38t27.5 -34t37 -31t39 -10q19 0 36.5 9.5t36.5 31.5t26.5 32.5t25.5 37.5
q20 32 32 44.5t28 12.5q32 0 71 -30.5t39 -63.5q0 -19 -22.5 -57t-59.5 -79.5t-95.5 -72.5t-119.5 -31z" />
    <glyph glyph-name="Ohungarumlaut" unicode="&#x150;" horiz-adv-x="1486" 
d="M743 -20q-148 0 -267 44.5t-205 131.5t-132.5 223t-46.5 311q0 139 34 255t94 198t142.5 139t178.5 84t202 27q134 0 250 -44t206.5 -128.5t143 -221t52.5 -309.5q0 -174 -49 -310.5t-137 -223t-206.5 -131.5t-259.5 -45zM743 215q81 0 147 25.5t118.5 79t82 147
t29.5 219.5q0 127 -30.5 220.5t-84.5 145.5t-119 76.5t-143 24.5q-62 0 -115 -14.5t-102 -49t-83.5 -87t-55 -133t-20.5 -183.5q0 -127 27.5 -220t79.5 -147t118.5 -79t150.5 -25zM420 1495q-15 0 -40.5 27.5t-25.5 42.5q0 16 25 45q59 70 213 239q23 23 43 23
q28 0 78.5 -51t50.5 -80q0 -22 -25 -43q-40 -38 -270 -182q-34 -21 -49 -21zM788 1495q-15 0 -40 27.5t-25 42.5q0 16 25 45q59 70 213 239q23 23 43 23q28 0 78.5 -51t50.5 -80q0 -22 -25 -43q-40 -38 -270 -182q-34 -21 -50 -21z" />
    <glyph glyph-name="ohungarumlaut" unicode="&#x151;" horiz-adv-x="1226" 
d="M614 -18q105 0 197.5 34t165.5 99.5t115.5 171.5t42.5 239t-42.5 237.5t-115.5 169.5t-165.5 98.5t-197.5 33.5q-106 0 -198.5 -33.5t-165.5 -98.5t-115.5 -169.5t-42.5 -237.5t42.5 -239t115.5 -171.5t166 -99.5t198 -34zM614 172q-103 0 -166 89t-63 269t63 269.5
t166 89.5t165.5 -89.5t62.5 -269.5t-62.5 -269t-165.5 -89zM328 1167q-15 0 -40.5 27.5t-25.5 42.5q0 16 25 45q70 83 213 240q22 22 43 22q28 0 78.5 -51t50.5 -80q0 -22 -25 -43q-40 -38 -270 -182q-34 -21 -49 -21zM696 1167q-15 0 -40 27.5t-25 42.5q0 18 24 45
q70 83 213 240q22 22 43 22q28 0 78.5 -51t50.5 -80q0 -22 -24 -43q-38 -36 -271 -182q-34 -21 -49 -21z" />
    <glyph glyph-name="OE" unicode="&#x152;" horiz-adv-x="2154" 
d="M1161 1372h819q13 0 21 -8.5t14 -36.5t6 -78t-6 -78t-14 -36.5t-21 -8.5h-591v-317h469q13 0 21 -8.5t13.5 -36.5t5.5 -78t-5.5 -78t-13.5 -36.5t-21 -8.5h-469v-317h632q13 0 21 -8.5t14 -36.5t6 -78t-6 -78t-14 -36.5t-21 -8.5h-860q-39 0 -39 41v43
q-157 -104 -379 -104q-148 0 -267 44.5t-205 131.5t-132.5 223t-46.5 311q0 139 34 255t94 198t142.5 139t178.5 84t202 27q215 0 379 -111v49q0 41 39 41zM743 215q81 0 147 25.5t118.5 79t82 147t29.5 219.5q0 127 -30.5 220.5t-84.5 145.5t-119 76.5t-143 24.5
q-62 0 -115 -14.5t-102 -49t-83.5 -87t-55 -133t-20.5 -183.5q0 -127 27.5 -220t79.5 -147t118.5 -79t150.5 -25z" />
    <glyph glyph-name="oe" unicode="&#x153;" horiz-adv-x="1744" 
d="M1364 193q55 0 107 13.5t82.5 29.5t56 29.5t35.5 13.5q12 0 20 -7.5t8 -21.5q0 -48 -37 -146q-14 -38 -107 -81t-204 -43q-248 0 -387 133q-127 -133 -352 -133q-229 0 -361.5 139t-132.5 407q0 266 132 402.5t362 136.5q229 0 356 -133q130 133 344 133
q200 0 292.5 -81.5t92.5 -221.5q0 -83 -35.5 -150t-91 -109t-132.5 -71.5t-150.5 -43.5t-153.5 -19q47 -176 256 -176zM586 166q207 0 207 360q0 359 -207 359q-209 0 -209 -359q0 -360 209 -360zM1391 784q0 50 -27 78.5t-74 28.5q-94 0 -142.5 -87.5t-51.5 -283.5
q74 13 122.5 29t90.5 44.5t62 75.5t20 115z" />
    <glyph glyph-name="Racute" unicode="&#x154;" horiz-adv-x="1374" 
d="M317 0q-133 0 -133 39v1241q0 46 123.5 79.5t300.5 33.5q272 0 426 -115.5t154 -323.5q0 -87 -31.5 -164t-76 -125t-89.5 -83.5t-77 -50.5l-31 -15q25 -10 69.5 -68t86.5 -119.5t100 -112t110 -50.5q7 0 24.5 1t24.5 1q25 0 25 -23q0 -28 -33.5 -66t-93.5 -67.5
t-121 -29.5q-67 0 -122 25t-92 64.5t-67.5 87.5t-55 96t-48 87.5t-53 64.5t-64.5 25h-92q-30 0 -30 -31v-362q0 -39 -134 -39zM451 715q0 -62 120 -62q52 0 97 8t89 28.5t74.5 52.5t49 83.5t18.5 118.5q0 64 -22 111t-61 72.5t-84.5 37t-100.5 11.5q-83 0 -131.5 -15
t-48.5 -45v-401zM547 1495q-15 0 -40.5 27.5t-25.5 42.5q0 16 25 45q59 70 213 239q23 23 43 23q28 0 78.5 -51t50.5 -80q0 -22 -25 -43q-40 -38 -270 -182q-34 -21 -49 -21z" />
    <glyph glyph-name="racute" unicode="&#x155;" horiz-adv-x="878" 
d="M293 0q-54 0 -85 6.5t-39.5 15t-8.5 21.5v743q0 40 -14.5 71t-29 50.5t-14.5 30.5q0 28 84 77.5t125 49.5q29 0 50.5 -18t30 -35t26.5 -62q4 -9 6 -14q5 5 13 14t35 31t54.5 39t67 31t76.5 14q63 0 120.5 -22t57.5 -54q0 -26 -39 -88t-76 -100q-21 -21 -39 -21
q-12 0 -54 28t-77 28q-50 0 -93.5 -46t-43.5 -96v-651q0 -13 -8.5 -21.5t-39.5 -15t-85 -6.5zM537 1139q-15 0 -40.5 27t-25.5 42q0 16 25 45q70 83 213 240q23 23 43 23q28 0 78.5 -51.5t50.5 -80.5q0 -22 -25 -43q-40 -38 -270 -182q-32 -20 -49 -20z" />
    <glyph glyph-name="Rcaron" unicode="&#x158;" horiz-adv-x="1374" 
d="M317 0q-133 0 -133 39v1241q0 46 123.5 79.5t300.5 33.5q272 0 426 -115.5t154 -323.5q0 -87 -31.5 -164t-76 -125t-89.5 -83.5t-77 -50.5l-31 -15q25 -10 69.5 -68t86.5 -119.5t100 -112t110 -50.5q7 0 24.5 1t24.5 1q25 0 25 -23q0 -28 -33.5 -66t-93.5 -67.5
t-121 -29.5q-67 0 -122 25t-92 64.5t-67.5 87.5t-55 96t-48 87.5t-53 64.5t-64.5 25h-92q-30 0 -30 -31v-362q0 -39 -134 -39zM451 715q0 -62 120 -62q52 0 97 8t89 28.5t74.5 52.5t49 83.5t18.5 118.5q0 64 -22 111t-61 72.5t-84.5 37t-100.5 11.5q-83 0 -131.5 -15
t-48.5 -45v-401zM649 1489q-9 0 -17.5 1.5t-16.5 5t-13.5 6t-13.5 9t-11 9t-11.5 10.5t-10.5 10l-195 205q-14 17 -14 37q0 17 16 30l62 54q10 10 29 10q29 0 39 -14l155 -168l162 168q10 14 37 14q20 0 33 -10l59 -51q14 -12 14 -33q0 -19 -12 -37l-195 -205
q-2 -2 -10.5 -10t-11.5 -10.5t-11 -9t-13.5 -9t-14 -6t-17 -5t-18.5 -1.5z" />
    <glyph glyph-name="rcaron" unicode="&#x159;" horiz-adv-x="878" 
d="M293 0q-54 0 -85 6.5t-39.5 15t-8.5 21.5v743q0 40 -14.5 71t-29 50.5t-14.5 30.5q0 28 84 77.5t125 49.5q29 0 50.5 -18t30 -35t26.5 -62q4 -9 6 -14q5 5 13 14t35 31t54.5 39t67 31t76.5 14q63 0 120.5 -22t57.5 -54q0 -26 -39 -88t-76 -100q-21 -21 -39 -21
q-12 0 -54 28t-77 28q-50 0 -93.5 -46t-43.5 -96v-651q0 -13 -8.5 -21.5t-39.5 -15t-85 -6.5zM635 1178q-9 0 -17.5 1.5t-16.5 5t-13.5 6t-13.5 9t-11 9t-11.5 10.5t-10.5 10l-195 205q-14 17 -14 36q0 18 16 31l62 53q11 11 28 11q28 0 39 -15l156 -168l162 168
q11 15 36 15q19 0 33 -11l60 -51q14 -12 14 -33q0 -18 -12 -36l-195 -205q-2 -2 -10.5 -10t-11.5 -10.5t-11 -9t-13.5 -9t-14 -6t-17 -5t-18.5 -1.5z" />
    <glyph glyph-name="Sacute" unicode="&#x15a;" horiz-adv-x="1140" 
d="M586 -20q-101 0 -201 31t-159 69.5t-70 66.5q-33 77 -33 193q0 31 27 31q11 0 50 -24.5t87.5 -53.5t130 -53.5t166.5 -24.5q103 0 158 49t55 119q0 43 -23 77.5t-61.5 58.5t-88.5 44.5t-105 41t-110 42.5t-105 53.5t-88.5 70t-61.5 95.5t-23 127q0 170 142 285t354 115
q74 0 139.5 -14.5t108.5 -35.5t74.5 -45t46 -43.5t14.5 -31.5q0 -31 -38.5 -82t-64.5 -51q-13 0 -38 12.5t-52.5 27t-77 27t-106.5 12.5q-115 0 -174.5 -42t-59.5 -115q0 -43 23 -77t61.5 -57t89 -43t106 -38.5t111 -39.5t106 -51t89 -68.5t61.5 -95.5t23 -128
q0 -194 -129.5 -314t-353.5 -120zM506 1468q-15 0 -40.5 27.5t-25.5 42.5q0 16 25 45q70 83 213 240q22 22 43 22q28 0 78.5 -51t50.5 -80q0 -22 -25 -43q-40 -38 -270 -182q-34 -21 -49 -21z" />
    <glyph glyph-name="sacute" unicode="&#x15b;" horiz-adv-x="958" 
d="M492 -20q-84 0 -165.5 21.5t-135 51.5t-86.5 59.5t-33 47.5q0 33 52.5 92t76.5 59q13 0 43 -21.5t62.5 -47t85 -47t104.5 -21.5q61 0 93 30.5t32 82.5q0 37 -28 65.5t-72.5 48t-98.5 38.5t-108 43.5t-98.5 55t-72.5 80t-28 113.5q0 151 113.5 242.5t303.5 91.5
q79 0 145 -16t103.5 -39t57.5 -46.5t20 -41.5q0 -34 -50.5 -94t-80.5 -60q-8 0 -26.5 17.5t-40.5 39t-63 39t-89 17.5q-57 0 -94 -31.5t-37 -77.5q0 -36 22 -63.5t58 -44t81.5 -33.5t93.5 -31.5t93.5 -38t81.5 -52.5t58 -76t22 -107q0 -155 -111 -250.5t-284 -95.5z
M379 1149q-15 0 -40.5 27.5t-25.5 42.5q0 16 25 45q59 70 213 239q23 23 43 23q28 0 78.5 -51t50.5 -80q0 -22 -25 -43q-43 -41 -270 -183q-32 -20 -49 -20z" />
    <glyph glyph-name="Scaron" unicode="&#x160;" horiz-adv-x="1140" 
d="M586 -20q-101 0 -201 31t-159 69.5t-70 66.5q-33 77 -33 193q0 31 27 31q11 0 50 -24.5t87.5 -53.5t130 -53.5t166.5 -24.5q103 0 158 49t55 119q0 43 -23 77.5t-61.5 58.5t-88.5 44.5t-105 41t-110 42.5t-105 53.5t-88.5 70t-61.5 95.5t-23 127q0 170 142 285t354 115
q74 0 139.5 -14.5t108.5 -35.5t74.5 -45t46 -43.5t14.5 -31.5q0 -31 -38.5 -82t-64.5 -51q-13 0 -38 12.5t-52.5 27t-77 27t-106.5 12.5q-115 0 -174.5 -42t-59.5 -115q0 -43 23 -77t61.5 -57t89 -43t106 -38.5t111 -39.5t106 -51t89 -68.5t61.5 -95.5t23 -128
q0 -194 -129.5 -314t-353.5 -120zM604 1477q-9 0 -17.5 1.5t-16.5 5t-13.5 6t-13.5 9t-11 9t-11.5 10.5t-10.5 10l-195 205q-14 17 -14 36q0 18 16 31l62 53q11 11 29 11q27 0 38 -15l156 -168l162 168q11 15 37 15q19 0 33 -11l59 -51q14 -12 14 -33q0 -18 -12 -36
l-195 -205q-2 -2 -10.5 -10t-11.5 -10.5t-11 -9t-13.5 -9t-14 -6t-17 -5t-18.5 -1.5z" />
    <glyph glyph-name="scaron" unicode="&#x161;" horiz-adv-x="958" 
d="M492 -20q-84 0 -165.5 21.5t-135 51.5t-86.5 59.5t-33 47.5q0 33 52.5 92t76.5 59q13 0 43 -21.5t62.5 -47t85 -47t104.5 -21.5q61 0 93 30.5t32 82.5q0 37 -28 65.5t-72.5 48t-98.5 38.5t-108 43.5t-98.5 55t-72.5 80t-28 113.5q0 151 113.5 242.5t303.5 91.5
q79 0 145 -16t103.5 -39t57.5 -46.5t20 -41.5q0 -34 -50.5 -94t-80.5 -60q-8 0 -26.5 17.5t-40.5 39t-63 39t-89 17.5q-57 0 -94 -31.5t-37 -77.5q0 -36 22 -63.5t58 -44t81.5 -33.5t93.5 -31.5t93.5 -38t81.5 -52.5t58 -76t22 -107q0 -155 -111 -250.5t-284 -95.5z
M520 1141q-9 0 -17.5 1.5t-16.5 5t-13.5 6t-13.5 9t-11 9t-11.5 10.5t-10.5 10l-195 205q-14 17 -14 37q0 17 16 30l62 54q10 10 29 10q27 0 38 -15l156 -167l162 167q11 15 37 15q21 0 33 -10l59 -52q14 -12 14 -32q0 -19 -12 -37l-195 -205q-2 -2 -10.5 -10t-11.5 -10.5
t-11 -9t-13.5 -9t-14 -6t-17 -5t-18.5 -1.5z" />
    <glyph glyph-name="Tcommaaccent" unicode="&#x162;" horiz-adv-x="1089" 
d="M545 0q-55 0 -85.5 6t-39 14t-8.5 21v1065q0 31 -31 31h-289q-41 0 -41 123q0 67 10.5 89.5t30.5 22.5h905q20 0 30.5 -22.5t10.5 -89.5q0 -123 -41 -123h-288q-31 0 -31 -31v-1065q0 -13 -9 -21t-39.5 -14t-84.5 -6zM426 -684q-18 0 -29.5 9t-11.5 26q0 20 34 73.5
t34 96.5q0 18 -9 32.5t-20 25.5t-20 44.5t-9 85.5q0 74 39 107.5t117 33.5q77 0 114 -35t37 -118q0 -72 -32 -144.5t-76.5 -123t-90.5 -82t-77 -31.5z" />
    <glyph glyph-name="tcommaaccent" unicode="&#x163;" horiz-adv-x="745" 
d="M115 1044h61v197q0 31 91 77t141 46q34 0 34 -39v-281h203q14 0 23.5 -9.5t9.5 -22.5q0 -42 -42.5 -104t-80.5 -62h-113v-459q0 -103 47 -154t125 -51h60q20 0 20 -22t-31 -64.5t-79.5 -79t-89.5 -36.5q-148 0 -233 85.5t-85 221.5v559h-61q-43 0 -43 98q0 100 43 100z
M297 -674q-18 0 -29.5 9t-11.5 26q0 20 34 73.5t34 96.5q0 18 -9 32.5t-20 25.5t-20 44.5t-9 85.5q0 74 39 108t117 34q77 0 114 -35.5t37 -118.5q0 -72 -32 -144.5t-76.5 -123t-90.5 -82t-77 -31.5z" />
    <glyph glyph-name="Tcaron" unicode="&#x164;" horiz-adv-x="1089" 
d="M545 0q-55 0 -85.5 6t-39 14t-8.5 21v1065q0 31 -31 31h-289q-41 0 -41 123q0 67 10.5 89.5t30.5 22.5h905q20 0 30.5 -22.5t10.5 -89.5q0 -123 -41 -123h-288q-31 0 -31 -31v-1065q0 -13 -9 -21t-39.5 -14t-84.5 -6zM545 1497q-9 0 -17.5 1.5t-16.5 5t-13.5 6t-13.5 9
t-11 9t-11.5 10.5t-10.5 10l-195 205q-14 17 -14 37q0 18 16 31l61 53q10 10 29 10q28 0 39 -14l156 -168l162 168q11 14 36 14q21 0 33 -10l60 -51q14 -12 14 -33q0 -19 -12 -37l-195 -205q-2 -2 -10.5 -10t-11.5 -10.5t-11 -9t-13.5 -9t-14 -6t-17 -5t-18.5 -1.5z" />
    <glyph glyph-name="tcaron" unicode="&#x165;" horiz-adv-x="745" 
d="M115 1044h61v197q0 31 91 77t141 46q34 0 34 -39v-281h203q14 0 23.5 -9.5t9.5 -22.5q0 -42 -42.5 -104t-80.5 -62h-113v-459q0 -103 47 -154t125 -51h60q20 0 20 -22t-31 -64.5t-79.5 -79t-89.5 -36.5q-148 0 -233 85.5t-85 221.5v559h-61q-43 0 -43 98q0 100 43 100z
M565 1190q-18 0 -29.5 9t-11.5 26q0 20 34 73.5t34 96.5q0 18 -9 32.5t-19.5 25.5t-19.5 44.5t-9 85.5q0 74 38.5 107.5t116.5 33.5q77 0 114.5 -35.5t37.5 -117.5q0 -72 -32 -144.5t-76.5 -123t-91 -82t-77.5 -31.5z" />
    <glyph glyph-name="Umacron" unicode="&#x16a;" horiz-adv-x="1429" 
d="M715 -20q-142 0 -251.5 42t-176 116t-100 170t-33.5 210v813q0 13 8.5 21t39 14t85.5 6q54 0 84.5 -6t39.5 -14t9 -21v-756q0 -360 295 -360t295 360v756q0 13 9 21t39.5 14t84.5 6q55 0 85.5 -6t39 -14t8.5 -21v-813q0 -114 -33.5 -210t-100 -170t-176 -116t-251.5 -42z
M952 1497h-473q-25 0 -41 15t-16 40v62q0 26 15.5 41.5t41.5 15.5h473q26 0 41 -15.5t15 -41.5v-62q0 -25 -15 -40t-41 -15z" />
    <glyph glyph-name="umacron" unicode="&#x16b;" horiz-adv-x="1220" 
d="M449 -20q-145 0 -246 90.5t-101 240.5v690q0 13 9 21.5t40 15t85 6.5t85 -6.5t39.5 -15t8.5 -21.5v-628q0 -84 49 -128t133 -44q80 0 142.5 44t62.5 91v665q0 13 8.5 21.5t39.5 15t85 6.5t85 -6.5t39.5 -15t8.5 -21.5v-731q0 -88 78 -88h57q23 0 23 -20q0 -40 -66.5 -111
t-128.5 -71q-99 0 -180 114l-19 27q-44 -34 -66.5 -50t-68.5 -42t-95.5 -37.5t-106.5 -11.5zM801 1171h-473q-25 0 -41.5 15.5t-16.5 40.5v61q0 26 16 42t42 16h473q26 0 40.5 -15.5t14.5 -42.5v-61q0 -25 -14.5 -40.5t-40.5 -15.5z" />
    <glyph glyph-name="Ubreve" unicode="&#x16c;" horiz-adv-x="1429" 
d="M715 -20q-142 0 -251.5 42t-176 116t-100 170t-33.5 210v813q0 13 8.5 21t39 14t85.5 6q54 0 84.5 -6t39.5 -14t9 -21v-756q0 -360 295 -360t295 360v756q0 13 9 21t39.5 14t84.5 6q55 0 85.5 -6t39 -14t8.5 -21v-813q0 -114 -33.5 -210t-100 -170t-176 -116t-251.5 -42z
M715 1499q-61 0 -119 30.5t-95.5 72t-60 80t-22.5 57.5q0 33 39 63.5t71 30.5q18 0 30.5 -13t29.5 -42q16 -25 25.5 -38t27.5 -34t37 -31t39 -10q19 0 36.5 9.5t36.5 31.5t26.5 32.5t25.5 37.5q20 32 31.5 44.5t27.5 12.5q32 0 71.5 -30.5t39.5 -63.5q0 -19 -22.5 -57
t-59.5 -79.5t-95.5 -72.5t-119.5 -31z" />
    <glyph glyph-name="ubreve" unicode="&#x16d;" horiz-adv-x="1220" 
d="M449 -20q-145 0 -246 90.5t-101 240.5v690q0 13 9 21.5t40 15t85 6.5t85 -6.5t39.5 -15t8.5 -21.5v-628q0 -84 49 -128t133 -44q80 0 142.5 44t62.5 91v665q0 13 8.5 21.5t39.5 15t85 6.5t85 -6.5t39.5 -15t8.5 -21.5v-731q0 -88 78 -88h57q23 0 23 -20q0 -40 -66.5 -111
t-128.5 -71q-99 0 -180 114l-19 27q-44 -34 -66.5 -50t-68.5 -42t-95.5 -37.5t-106.5 -11.5zM569 1135q-61 0 -119 30.5t-95.5 71.5t-60 79.5t-22.5 57.5q0 33 39.5 63.5t71.5 30.5q17 0 29.5 -12.5t29.5 -42.5q16 -25 25.5 -38t27.5 -34t37 -31t39 -10q19 0 36.5 9.5
t36.5 31.5t26.5 32.5t25.5 37.5q20 32 32 44.5t28 12.5q32 0 71 -30.5t39 -63.5q0 -19 -22.5 -57t-59.5 -79.5t-95.5 -72t-119.5 -30.5z" />
    <glyph glyph-name="Uring" unicode="&#x16e;" horiz-adv-x="1429" 
d="M715 -20q-142 0 -251.5 42t-176 116t-100 170t-33.5 210v813q0 13 8.5 21t39 14t85.5 6q54 0 84.5 -6t39.5 -14t9 -21v-756q0 -360 295 -360t295 360v756q0 13 9 21t39.5 14t84.5 6q55 0 85.5 -6t39 -14t8.5 -21v-813q0 -114 -33.5 -210t-100 -170t-176 -116t-251.5 -42z
M713 1499q-89 0 -150 59t-61 144t61.5 145t149.5 60t150.5 -60t62.5 -145q0 -84 -62.5 -143.5t-150.5 -59.5zM713 1794q-34 0 -58 -27.5t-24 -64.5t23.5 -63.5t58.5 -26.5t58.5 26.5t23.5 63.5t-24 64.5t-58 27.5z" />
    <glyph glyph-name="uring" unicode="&#x16f;" horiz-adv-x="1220" 
d="M449 -20q-145 0 -246 90.5t-101 240.5v690q0 13 9 21.5t40 15t85 6.5t85 -6.5t39.5 -15t8.5 -21.5v-628q0 -84 49 -128t133 -44q80 0 142.5 44t62.5 91v665q0 13 8.5 21.5t39.5 15t85 6.5t85 -6.5t39.5 -15t8.5 -21.5v-731q0 -88 78 -88h57q23 0 23 -20q0 -40 -66.5 -111
t-128.5 -71q-99 0 -180 114l-19 27q-44 -34 -66.5 -50t-68.5 -42t-95.5 -37.5t-106.5 -11.5zM547 1163q-89 0 -150 59t-61 144t61.5 145t149.5 60t150.5 -60t62.5 -145q0 -84 -62.5 -143.5t-150.5 -59.5zM547 1458q-34 0 -58 -27.5t-24 -64.5t23.5 -63.5t58.5 -26.5
t58.5 26.5t23.5 63.5t-24 64.5t-58 27.5z" />
    <glyph glyph-name="Uhungarumlaut" unicode="&#x170;" horiz-adv-x="1429" 
d="M715 -20q-142 0 -251.5 42t-176 116t-100 170t-33.5 210v813q0 13 8.5 21t39 14t85.5 6q54 0 84.5 -6t39.5 -14t9 -21v-756q0 -360 295 -360t295 360v756q0 13 9 21t39.5 14t84.5 6q55 0 85.5 -6t39 -14t8.5 -21v-813q0 -114 -33.5 -210t-100 -170t-176 -116t-251.5 -42z
M477 1487q-15 0 -40 27t-25 42q0 19 24 46q59 70 213 239q23 23 43 23q28 0 78.5 -51t50.5 -80q0 -22 -24 -43q-41 -39 -271 -183q-32 -20 -49 -20zM846 1487q-15 0 -40.5 27t-25.5 42q0 17 25 46q59 70 213 239q23 23 43 23q28 0 78.5 -51t50.5 -80q0 -22 -25 -43
q-43 -41 -270 -183q-32 -20 -49 -20z" />
    <glyph glyph-name="uhungarumlaut" unicode="&#x171;" horiz-adv-x="1220" 
d="M449 -20q-145 0 -246 90.5t-101 240.5v690q0 13 9 21.5t40 15t85 6.5t85 -6.5t39.5 -15t8.5 -21.5v-628q0 -84 49 -128t133 -44q80 0 142.5 44t62.5 91v665q0 13 8.5 21.5t39.5 15t85 6.5t85 -6.5t39.5 -15t8.5 -21.5v-731q0 -88 78 -88h57q23 0 23 -20q0 -40 -66.5 -111
t-128.5 -71q-99 0 -180 114l-19 27q-44 -34 -66.5 -50t-68.5 -42t-95.5 -37.5t-106.5 -11.5zM287 1167q-15 0 -40.5 27.5t-25.5 42.5q0 16 25 45q70 83 213 240q22 22 43 22q28 0 78.5 -51t50.5 -80q0 -22 -25 -43q-40 -38 -270 -182q-34 -21 -49 -21zM655 1167
q-15 0 -40 27.5t-25 42.5q0 18 24 45q70 83 213 240q22 22 43 22q28 0 78.5 -51t50.5 -80q0 -22 -24 -43q-40 -38 -270 -182q-34 -21 -50 -21z" />
    <glyph glyph-name="Ydieresis" unicode="&#x178;" horiz-adv-x="1196" 
d="M598 0q-55 0 -85.5 6t-39 14t-8.5 21v512q0 10 -2.5 19.5t-4.5 13.5l-3 4l-414 710q-10 17 -10 27t12 19.5t47 17.5t88 8q127 0 152 -41l268 -493l268 493q25 41 152 41q53 0 88 -8t47 -17.5t12 -19.5t-10 -27l-416 -710q-8 -14 -8 -37v-512q0 -13 -9 -21t-39.5 -14
t-84.5 -6zM410 1462q-138 0 -138 152q0 153 138 153q67 0 105 -39t38 -114q0 -152 -143 -152zM778 1462q-137 0 -137 152q0 153 137 153q68 0 106 -39t38 -114q0 -152 -144 -152z" />
    <glyph glyph-name="Zacute" unicode="&#x179;" horiz-adv-x="1290" 
d="M440 236h377q115 0 193 14t112 27.5t41 13.5q25 0 25 -29q0 -137 -25.5 -199.5t-91.5 -62.5h-928q-41 0 -41 133q0 90 31 131l686 873h-313q-89 0 -158.5 -8.5t-100.5 -19.5t-54.5 -19.5t-32.5 -8.5q-25 0 -25 29q0 137 25.5 199.5t91.5 62.5h858q41 0 41 -133
q0 -90 -37 -143zM506 1495q-15 0 -40.5 27.5t-25.5 42.5q0 16 25 45q59 70 213 239q23 23 43 23q28 0 78.5 -51t50.5 -80q0 -22 -25 -43q-40 -38 -270 -182q-34 -21 -49 -21z" />
    <glyph glyph-name="zacute" unicode="&#x17a;" horiz-adv-x="1030" 
d="M102 0q-12 0 -21 9t-9 26q0 117 12.5 158.5t67.5 109.5l434 490q14 18 14 24q0 14 -27 14q-137 0 -233 -14.5t-138 -28.5t-48 -14q-25 0 -25 29q0 134 24.5 187.5t92.5 53.5h655q35 0 35 -34q0 -115 -11.5 -154.5t-58.5 -99.5l-430 -486q-20 -22 -20 -32q0 -15 28 -15
q121 0 218.5 9.5t145 20.5t82 20.5t44.5 9.5q24 0 24 -29q0 -133 -31.5 -193.5t-103.5 -60.5h-721zM467 1137q-15 0 -40.5 27t-25.5 42q0 16 25 45q70 83 213 240q22 22 43 22q28 0 78.5 -51t50.5 -80q0 -22 -25 -43q-40 -38 -270 -182q-32 -20 -49 -20z" />
    <glyph glyph-name="Zdotaccent" unicode="&#x17b;" horiz-adv-x="1290" 
d="M440 236h377q115 0 193 14t112 27.5t41 13.5q25 0 25 -29q0 -137 -25.5 -199.5t-91.5 -62.5h-928q-41 0 -41 133q0 90 31 131l686 873h-313q-89 0 -158.5 -8.5t-100.5 -19.5t-54.5 -19.5t-32.5 -8.5q-25 0 -25 29q0 137 25.5 199.5t91.5 62.5h858q41 0 41 -133
q0 -90 -37 -143zM641 1497q-137 0 -137 152q0 153 137 153q67 0 105 -39t38 -114q0 -152 -143 -152z" />
    <glyph glyph-name="zdotaccent" unicode="&#x17c;" horiz-adv-x="1030" 
d="M102 0q-12 0 -21 9t-9 26q0 117 12.5 158.5t67.5 109.5l434 490q14 18 14 24q0 14 -27 14q-137 0 -233 -14.5t-138 -28.5t-48 -14q-25 0 -25 29q0 134 24.5 187.5t92.5 53.5h655q35 0 35 -34q0 -115 -11.5 -154.5t-58.5 -99.5l-430 -486q-20 -22 -20 -32q0 -15 28 -15
q121 0 218.5 9.5t145 20.5t82 20.5t44.5 9.5q24 0 24 -29q0 -133 -31.5 -193.5t-103.5 -60.5h-721zM539 1163q-138 0 -138 152q0 153 138 153q67 0 105 -39t38 -114q0 -152 -143 -152z" />
    <glyph glyph-name="Zcaron" unicode="&#x17d;" horiz-adv-x="1290" 
d="M440 236h377q115 0 193 14t112 27.5t41 13.5q25 0 25 -29q0 -137 -25.5 -199.5t-91.5 -62.5h-928q-41 0 -41 133q0 90 31 131l686 873h-313q-89 0 -158.5 -8.5t-100.5 -19.5t-54.5 -19.5t-32.5 -8.5q-25 0 -25 29q0 137 25.5 199.5t91.5 62.5h858q41 0 41 -133
q0 -90 -37 -143zM645 1452q-9 0 -17.5 1.5t-16.5 5t-13.5 6t-13.5 9t-11 9t-11.5 10.5t-10.5 10l-195 205q-14 17 -14 37q0 18 16 31l62 53q10 10 29 10q27 0 38 -14l156 -168l162 168q11 14 37 14q20 0 32 -10l60 -51q14 -12 14 -33q0 -19 -12 -37l-195 -205
q-2 -2 -10.5 -10t-11.5 -10.5t-11 -9t-13.5 -9t-14 -6t-17 -5t-18.5 -1.5z" />
    <glyph glyph-name="zcaron" unicode="&#x17e;" horiz-adv-x="1030" 
d="M102 0q-12 0 -21 9t-9 26q0 117 12.5 158.5t67.5 109.5l434 490q14 18 14 24q0 14 -27 14q-137 0 -233 -14.5t-138 -28.5t-48 -14q-25 0 -25 29q0 134 24.5 187.5t92.5 53.5h655q35 0 35 -34q0 -115 -11.5 -154.5t-58.5 -99.5l-430 -486q-20 -22 -20 -32q0 -15 28 -15
q121 0 218.5 9.5t145 20.5t82 20.5t44.5 9.5q24 0 24 -29q0 -133 -31.5 -193.5t-103.5 -60.5h-721zM553 1135q-9 0 -17.5 1.5t-16.5 5t-13.5 6t-13.5 9t-11 9t-11.5 10.5t-10.5 10l-195 205q-14 17 -14 36q0 18 16 31l62 53q11 11 28 11q28 0 39 -15l156 -168l162 168
q11 15 37 15q18 0 32 -11l60 -51q14 -12 14 -33q0 -18 -12 -36l-195 -205q-2 -2 -10.5 -10t-11.5 -10.5t-11 -9t-13.5 -9t-14 -6t-17 -5t-18.5 -1.5z" />
    <glyph glyph-name="florin" unicode="&#x192;" horiz-adv-x="745" 
d="M283 737h-72q-22 0 -32.5 18t-10.5 70q0 49 11.5 67.5t33.5 18.5h70v283q0 155 80.5 260t230.5 105q75 0 116.5 -26.5t41.5 -57.5q0 -26 -30.5 -62.5t-49.5 -36.5q-8 0 -38.5 14.5t-66.5 14.5q-25 0 -42 -15.5t-25.5 -46.5t-11.5 -66.5t-3 -86.5v-279h152
q22 0 33.5 -18.5t11.5 -67.5q0 -52 -10.5 -70t-32.5 -18h-154v-506q0 -100 -37 -181t-118.5 -133t-196.5 -52q-75 0 -116.5 26.5t-41.5 57.5q0 26 30.5 62t49.5 36q8 0 38.5 -14.5t66.5 -14.5q62 0 92.5 60t30.5 158v501z" />
    <glyph glyph-name="Scommaaccent" unicode="&#x218;" horiz-adv-x="1140" 
d="M586 -20q-101 0 -201 31t-159 69.5t-70 66.5q-33 77 -33 193q0 31 27 31q11 0 50 -24.5t87.5 -53.5t130 -53.5t166.5 -24.5q103 0 158 49t55 119q0 43 -23 77.5t-61.5 58.5t-88.5 44.5t-105 41t-110 42.5t-105 53.5t-88.5 70t-61.5 95.5t-23 127q0 170 142 285t354 115
q74 0 139.5 -14.5t108.5 -35.5t74.5 -45t46 -43.5t14.5 -31.5q0 -31 -38.5 -82t-64.5 -51q-13 0 -38 12.5t-52.5 27t-77 27t-106.5 12.5q-115 0 -174.5 -42t-59.5 -115q0 -43 23 -77t61.5 -57t89 -43t106 -38.5t111 -39.5t106 -51t89 -68.5t61.5 -95.5t23 -128
q0 -194 -129.5 -314t-353.5 -120zM453 -684q-18 0 -29.5 9t-11.5 26q0 20 33.5 73.5t33.5 96.5q0 18 -9 32.5t-19.5 25.5t-19.5 44.5t-9 85.5q0 74 39 107.5t117 33.5q77 0 114 -35t37 -118q0 -72 -32 -144.5t-76.5 -123t-90.5 -82t-77 -31.5z" />
    <glyph glyph-name="scommaaccent" unicode="&#x219;" horiz-adv-x="958" 
d="M492 -20q-84 0 -165.5 21.5t-135 51.5t-86.5 59.5t-33 47.5q0 33 52.5 92t76.5 59q13 0 43 -21.5t62.5 -47t85 -47t104.5 -21.5q61 0 93 30.5t32 82.5q0 37 -28 65.5t-72.5 48t-98.5 38.5t-108 43.5t-98.5 55t-72.5 80t-28 113.5q0 151 113.5 242.5t303.5 91.5
q79 0 145 -16t103.5 -39t57.5 -46.5t20 -41.5q0 -34 -50.5 -94t-80.5 -60q-8 0 -26.5 17.5t-40.5 39t-63 39t-89 17.5q-57 0 -94 -31.5t-37 -77.5q0 -36 22 -63.5t58 -44t81.5 -33.5t93.5 -31.5t93.5 -38t81.5 -52.5t58 -76t22 -107q0 -155 -111 -250.5t-284 -95.5z
M360 -684q-18 0 -29.5 9t-11.5 26q0 20 34 73.5t34 96.5q0 18 -9 32.5t-19.5 25.5t-19.5 44.5t-9 85.5q0 74 38.5 107.5t116.5 33.5q77 0 114.5 -35.5t37.5 -117.5q0 -72 -32 -144.5t-76.5 -123t-91 -82t-77.5 -31.5z" />
    <glyph glyph-name="circumflex" unicode="&#x2c6;" horiz-adv-x="720" 
d="M573 1165q-16 0 -43 19l-172 151l-165 -149q-24 -19 -43 -19q-18 0 -29 11l-68 65q-22 19 -22 45q0 19 16 35l219 190q23 20 39.5 25.5t54.5 5.5q40 0 57 -6t40 -25l217 -190q16 -16 16 -37q0 -23 -20 -43l-64 -63q-15 -15 -33 -15z" />
    <glyph glyph-name="caron" unicode="&#x2c7;" horiz-adv-x="667" 
d="M334 1169q-11 0 -21.5 2.5t-17 5.5t-16.5 10t-13.5 10t-13.5 12.5t-12 11.5l-195 204q-14 17 -14 37q0 18 16 31l62 53q10 10 28 10q29 0 39 -14l156 -168l162 168q10 14 36 14q20 0 33 -10l60 -51q14 -12 14 -33q0 -19 -12 -37l-195 -204q-2 -1 -12.5 -11t-13.5 -13
t-13 -10t-17 -10t-18 -5.5t-22 -2.5z" />
    <glyph glyph-name="breve" unicode="&#x2d8;" horiz-adv-x="655" 
d="M328 1171q-61 0 -119 30.5t-95.5 72t-60 80t-22.5 57.5q0 33 39 63.5t71 30.5q17 0 30 -13t30 -42q16 -25 25.5 -38t27.5 -34t37 -31t39 -10q19 0 36.5 9.5t36.5 31.5t26.5 32.5t25.5 37.5q20 32 31.5 44.5t27.5 12.5q32 0 71.5 -30.5t39.5 -63.5q0 -19 -22.5 -57
t-59.5 -79.5t-95.5 -72.5t-119.5 -31z" />
    <glyph glyph-name="dotaccent" unicode="&#x2d9;" horiz-adv-x="342" 
d="M168 1169q-137 0 -137 152q0 154 137 154q67 0 105 -39.5t38 -114.5q0 -152 -143 -152z" />
    <glyph glyph-name="ring" unicode="&#x2da;" horiz-adv-x="485" 
d="M242 1171q-89 0 -150 59t-61 144t61.5 145t149.5 60t150.5 -60t62.5 -145q0 -84 -62.5 -143.5t-150.5 -59.5zM242 1466q-34 0 -58 -27.5t-24 -64.5t23.5 -63.5t58.5 -26.5t58.5 26.5t23.5 63.5t-24 64.5t-58 27.5z" />
    <glyph glyph-name="ogonek" unicode="&#x2db;" horiz-adv-x="432" 
d="M248 -410q-91 0 -154 56.5t-63 150.5q0 40 14.5 75.5t44 67t47 46.5t51.5 41q32 22 48 22q20 0 56 -20t36 -31q0 -2 -0.5 -3.5t-1.5 -3l-2 -3t-4 -4.5t-5 -5.5t-7 -7t-9 -8.5q-92 -92 -92 -160q0 -53 45 -53q17 0 37 11.5t35 11.5q29 0 53 -34.5t24 -66.5q0 -36 -47 -59
t-106 -23z" />
    <glyph glyph-name="tilde" unicode="&#x2dc;" horiz-adv-x="786" 
d="M162 1192q-15 -12 -25 -12q-19 0 -62.5 50.5t-43.5 65.5q0 18 22 43q34 42 90 69.5t115 27.5q48 0 103.5 -22.5t102.5 -45t73 -22.5q40 0 98 67q10 10 16 10q15 0 60 -49.5t45 -66.5q0 -38 -60 -89t-139 -51q-51 0 -105.5 22.5t-103 45t-86.5 22.5q-10 0 -23.5 -7
t-23 -14t-27.5 -22t-26 -22z" />
    <glyph glyph-name="hungarumlaut" unicode="&#x2dd;" horiz-adv-x="839" 
d="M96 1167q-15 0 -40 27.5t-25 42.5q0 18 24 45q70 83 213 240q22 22 43 22q28 0 78.5 -51t50.5 -80q0 -22 -24 -43q-38 -36 -271 -182q-34 -21 -49 -21zM465 1167q-15 0 -40.5 27.5t-25.5 42.5q0 16 25 45q70 83 213 240q22 22 43 22q28 0 78.5 -51t50.5 -80
q0 -22 -25 -43q-40 -38 -270 -182q-34 -21 -49 -21z" />
    <glyph glyph-name="endash" unicode="&#x2013;" horiz-adv-x="976" 
d="M115 793h753q43 0 43 -123q0 -50 -6.5 -78.5t-15 -36.5t-21.5 -8h-753q-43 0 -43 123t43 123z" />
    <glyph glyph-name="emdash" unicode="&#x2014;" horiz-adv-x="1329" 
d="M94 793h1143q43 0 43 -123q0 -50 -6.5 -78.5t-15 -36.5t-21.5 -8h-1143q-43 0 -43 123t43 123z" />
    <glyph glyph-name="quoteleft" unicode="&#x2018;" horiz-adv-x="677" 
d="M469 1391q45 0 45 -39q0 -6 -1.5 -13t-3.5 -12t-7 -13.5t-7.5 -13t-9 -15t-8.5 -13.5q-37 -60 -37 -107q0 -20 9.5 -36t21.5 -28.5t21.5 -49.5t9.5 -93q0 -82 -42 -118.5t-128 -36.5t-127 39t-41 129q0 79 35 159t84.5 135.5t100.5 90.5t85 35z" />
    <glyph glyph-name="quoteright" unicode="&#x2019;" horiz-adv-x="677" 
d="M209 803q-19 0 -32 10.5t-13 28.5q0 6 1 11t3.5 11.5t4 10.5t7 12t7 10.5t8.5 12.5t8 12q37 64 37 106q0 20 -10 36t-22 28.5t-22 49.5t-10 93q0 82 42.5 119t129.5 37q84 0 125 -39t41 -129q0 -79 -35 -159t-84.5 -135.5t-100.5 -90.5t-85 -35z" />
    <glyph glyph-name="quotesinglbase" unicode="&#x201a;" horiz-adv-x="645" 
d="M205 -193q-18 0 -29.5 9t-11.5 26q0 22 35 74q32 54 32 96q0 18 -9 32.5t-19.5 26t-19.5 45t-9 85.5q0 74 39 107.5t117 33.5q77 0 114 -35.5t37 -118.5q0 -72 -32 -144.5t-76.5 -123t-90.5 -82t-77 -31.5z" />
    <glyph glyph-name="quotedblleft" unicode="&#x201c;" horiz-adv-x="1124" 
d="M915 1391q20 0 33 -10t13 -29q0 -6 -1.5 -13t-3.5 -12t-7 -13.5t-7.5 -13t-9 -15t-8.5 -13.5q-37 -60 -37 -107q0 -20 9.5 -36t21 -28.5t21 -49.5t9.5 -93q0 -82 -42 -118.5t-128 -36.5t-127 39t-41 129q0 79 35 159t84.5 135.5t100.5 90.5t85 35zM469 1391q45 0 45 -39
q0 -6 -1.5 -13t-3.5 -12t-7 -13.5t-7.5 -13t-9 -15t-8.5 -13.5q-37 -60 -37 -107q0 -20 9.5 -36t21.5 -28.5t21.5 -49.5t9.5 -93q0 -82 -42 -118.5t-128 -36.5t-127 39t-41 129q0 79 35 159t84.5 135.5t100.5 90.5t85 35z" />
    <glyph glyph-name="quotedblright" unicode="&#x201d;" horiz-adv-x="1124" 
d="M209 803q-19 0 -32 10.5t-13 28.5q0 6 1 11t3.5 11.5t4 10.5t7 12t7 10.5t8.5 12.5t8 12q37 64 37 106q0 20 -10 36t-22 28.5t-22 49.5t-10 93q0 82 42.5 119t129.5 37q84 0 125 -39t41 -129q0 -79 -35 -159t-84.5 -135.5t-100.5 -90.5t-85 -35zM655 803q-19 0 -32 10.5
t-13 28.5q0 6 1 11t3.5 11.5t4 10.5t7 12t7 10.5t8.5 12.5t8 12q37 64 37 106q0 20 -10 36t-21.5 28.5t-21.5 49.5t-10 93q0 82 42.5 119t127.5 37q86 0 127 -39t41 -129q0 -79 -35.5 -159t-85 -135.5t-100.5 -90.5t-85 -35z" />
    <glyph glyph-name="quotedblbase" unicode="&#x201e;" horiz-adv-x="1054" 
d="M205 -193q-18 0 -29.5 9t-11.5 26q0 22 35 74q32 54 32 96q0 18 -9 32.5t-19.5 26t-19.5 45t-9 85.5q0 74 39 107.5t117 33.5q77 0 114 -35.5t37 -118.5q0 -72 -32 -144.5t-76.5 -123t-90.5 -82t-77 -31.5zM614 -193q-18 0 -29.5 9t-11.5 26q0 22 35 74q33 56 33 96
q0 18 -9 32.5t-19.5 26t-19.5 45t-9 85.5q0 74 38.5 107.5t116.5 33.5q77 0 114.5 -35.5t37.5 -118.5q0 -72 -32 -144.5t-76.5 -123t-91 -82t-77.5 -31.5z" />
    <glyph glyph-name="dagger" unicode="&#x2020;" horiz-adv-x="784" 
d="M639 813h-141v-926q0 -21 -15 -37t-45 -16h-100q-26 0 -41.5 14t-15.5 39v926h-131q-29 0 -43.5 21.5t-14.5 76.5q0 58 14 80.5t41 22.5h134v405q0 25 15.5 40.5t41.5 15.5h100q27 0 43.5 -15.5t16.5 -40.5v-405h139q55 0 55 -103q0 -98 -53 -98z" />
    <glyph glyph-name="daggerdbl" unicode="&#x2021;" horiz-adv-x="866" 
d="M709 201h-170v-353q0 -21 -15 -37t-45 -16h-100q-26 0 -41.5 14.5t-15.5 38.5v353h-172q-26 0 -42 15t-16 40q0 28 1.5 45.5t7 45t20.5 42t39 14.5h162v410h-172q-26 0 -42 16t-16 41q0 146 68 146h162v403q0 26 15.5 41t41.5 15h100q28 0 44 -15t16 -41v-403h180
q23 0 39 -14.5t16 -43.5q0 -30 -2 -50.5t-7.5 -44.5t-19.5 -37t-36 -13h-170v-410h180q23 0 39 -14t16 -43q0 -30 -2 -50.5t-7.5 -44.5t-19.5 -37t-36 -13z" />
    <glyph glyph-name="bullet" unicode="&#x2022;" horiz-adv-x="557" 
d="M102 664q0 194 172 194q85 0 133 -49t48 -145q0 -98 -45 -144.5t-136 -46.5q-86 0 -129 46.5t-43 144.5z" />
    <glyph glyph-name="ellipsis" unicode="&#x2026;" horiz-adv-x="1896" 
d="M317 -18q-153 0 -153 170q0 174 153 174q77 0 119.5 -44t42.5 -130q0 -88 -40.5 -129t-121.5 -41zM944 -18q-153 0 -153 170q0 174 153 174q77 0 119.5 -44t42.5 -130q0 -88 -40.5 -129t-121.5 -41zM1571 -18q-154 0 -154 170q0 174 154 174q77 0 119.5 -44t42.5 -130
q0 -88 -40.5 -129t-121.5 -41z" />
    <glyph glyph-name="perthousand" unicode="&#x2030;" horiz-adv-x="3016" 
d="M498 606q-171 0 -283.5 102t-112.5 285q0 180 112.5 279.5t283.5 99.5q170 0 281.5 -99.5t111.5 -279.5q0 -183 -112 -285t-281 -102zM498 786q186 0 186 207q0 205 -186 205q-189 0 -189 -205q0 -207 189 -207zM1509 1300l-628 -1259q-7 -12 -17.5 -20t-43 -14.5
t-85.5 -6.5q-133 0 -133 45q0 10 10 27l629 1259q7 12 17.5 20t42.5 14.5t85 6.5q134 0 134 -45q0 -9 -11 -27zM1645 -8q-171 0 -283.5 102t-112.5 285q0 180 112.5 279.5t283.5 99.5q170 0 281.5 -99.5t111.5 -279.5q0 -183 -112 -285t-281 -102zM1645 172q186 0 186 207
q0 205 -186 205q-189 0 -189 -205q0 -207 189 -207zM2525 -8q-171 0 -283 102t-112 285q0 180 112 279.5t283 99.5q170 0 281.5 -99.5t111.5 -279.5q0 -183 -112 -285t-281 -102zM2525 172q187 0 187 207q0 205 -187 205q-188 0 -188 -205q0 -207 188 -207z" />
    <glyph glyph-name="guilsinglleft" unicode="&#x2039;" horiz-adv-x="798" 
d="M713 784q-323 -226 -381 -284q-25 -22 -25 -47q0 -19 19 -33q135 -105 389 -260q22 -14 22 -41q0 -26 -49 -94q-18 -25 -47 -25q-23 0 -35 12q-284 177 -363.5 229t-115.5 87q-45 38 -45 121q0 55 41 112q33 42 128 114.5t349 254.5q18 14 37 14q30 0 47 -24
q38 -57 39 -60q10 -25 10 -35q0 -27 -20 -41z" />
    <glyph glyph-name="guilsinglright" unicode="&#x203a;" horiz-adv-x="798" 
d="M158 0q-29 0 -47 25q-50 69 -50 94q0 27 23 41q254 155 389 260q19 14 19 33q0 25 -25 47q-58 58 -381 284q-20 14 -20 41q0 10 10 35q1 3 39 60q17 24 47 24q20 0 37 -14q254 -182 349 -254.5t128 -114.5q41 -57 41 -112q0 -83 -45 -121q-36 -35 -115.5 -87t-363.5 -229
q-12 -12 -35 -12z" />
    <glyph glyph-name="fraction" unicode="&#x2044;" horiz-adv-x="999" 
d="M948 1300l-629 -1259q-7 -12 -17.5 -20t-42.5 -14.5t-85 -6.5q-133 0 -133 45q0 10 10 27l629 1259q7 12 17.5 20t42.5 14.5t85 6.5q133 0 133 -45q0 -10 -10 -27z" />
    <glyph glyph-name="zerosuperior" unicode="&#x2070;" horiz-adv-x="1150" 
d="M571 319q-229 0 -349 134t-120 399q0 258 128.5 393t340.5 135q213 0 342 -135t129 -393q0 -262 -124.5 -397.5t-346.5 -135.5zM571 506q112 0 173 80.5t61 263.5q0 340 -234 340q-233 0 -233 -340q0 -186 58 -265t175 -79z" />
    <glyph glyph-name="foursuperior" unicode="&#x2074;" horiz-adv-x="976" 
d="M739 348q-116 0 -116 35v170h-504q-12 0 -21.5 27.5t-9.5 68.5q0 88 18 113l457 584q21 30 119 30q49 0 80.5 -6t41 -13t9.5 -14q0 -9 -8 -20l-438 -571h256v186q0 22 18 49l154 201q14 20 36 20q25 0 25 -30v-795q0 -35 -117 -35z" />
    <glyph glyph-name="fivesuperior" unicode="&#x2075;" horiz-adv-x="1001" 
d="M467 328q-142 0 -244 53t-112 94q-20 55 16 139q9 25 27 25q9 0 37.5 -18.5t63 -40t91.5 -40t115 -18.5q85 0 137.5 53t52.5 136q0 86 -40.5 126t-121.5 40q-63 0 -112 -19t-77 -38t-40 -19q-29 0 -77 29.5t-48 58.5v452q0 15 8.5 23t20.5 8h610q47 0 47 -133
q0 -74 -28 -74q-2 0 -48.5 2.5t-106 4.5t-91.5 2h-201v-152q7 4 21.5 10.5t64 17.5t105.5 11q66 0 127 -22t110.5 -63.5t79 -108.5t29.5 -150q0 -175 -115 -282t-301 -107z" />
    <glyph glyph-name="sixsuperior" unicode="&#x2076;" horiz-adv-x="1087" 
d="M559 315q-204 0 -326 121.5t-122 331.5q0 149 38 266.5t105.5 191t155 112t190.5 38.5q77 0 142 -16t101.5 -38.5t56.5 -44t20 -36.5q0 -24 -36.5 -70.5t-58.5 -46.5q-10 0 -29.5 11t-41 24t-64 24t-94.5 11t-96.5 -23t-72 -56t-47.5 -65.5t-28 -55.5l-8 -23q4 4 10.5 10
t30.5 22t51 28t70.5 22t89.5 10q164 0 267.5 -97.5t103.5 -258.5q0 -78 -27.5 -148.5t-78 -125t-129 -86.5t-173.5 -32zM334 694q0 -92 60 -150.5t159 -58.5q93 0 147 61.5t54 158.5q0 91 -49 144.5t-140 53.5t-161 -60t-70 -149z" />
    <glyph glyph-name="sevensuperior" unicode="&#x2077;" horiz-adv-x="911" 
d="M236 342q-123 0 -123 33q0 15 27.5 79.5t84 173t121.5 216.5q63 104 118 185.5t79 111.5l24 30h-202q-31 0 -92.5 -2t-110 -4t-49.5 -2q-29 0 -29 74q0 70 11 101.5t36 31.5h664q30 0 30 -31l-2 -122q0 -42 -35 -91q-135 -182 -258 -397q-109 -184 -163 -352
q-14 -35 -131 -35z" />
    <glyph glyph-name="eightsuperior" unicode="&#x2078;" horiz-adv-x="1013" 
d="M504 319q-122 0 -213.5 32.5t-148 105.5t-56.5 180q0 52 16 97.5t39 73t46 47.5t39 28l16 8q-5 3 -13 8.5t-28 25t-35.5 41.5t-28 58t-12.5 74q0 125 111.5 203.5t267.5 78.5t267.5 -79t111.5 -203q0 -38 -12 -73.5t-29.5 -59t-34.5 -41t-29 -25.5l-12 -8q6 -3 16.5 -8.5
t37.5 -27.5t47.5 -48.5t37.5 -72t17 -97.5q0 -107 -56.5 -180t-148 -105.5t-213.5 -32.5zM504 938q58 0 108 44.5t50 104.5q0 67 -43 101.5t-115 34.5t-116 -35.5t-44 -95.5q0 -65 46.5 -109.5t113.5 -44.5zM504 494q86 0 134 38.5t48 102.5q0 65 -53.5 106t-128.5 41
t-128.5 -40.5t-53.5 -104.5q0 -66 47 -104.5t135 -38.5z" />
    <glyph glyph-name="ninesuperior" unicode="&#x2079;" horiz-adv-x="1052" 
d="M459 319q-111 0 -189.5 35.5t-89.5 71.5q-21 56 8 131q7 21 27 21q10 0 41.5 -19t84.5 -38t114 -19q70 0 122.5 24t80 61.5t40.5 71.5t17 66q-4 -4 -10.5 -10t-30 -22.5t-50 -29t-69.5 -22.5t-88 -10q-164 0 -268.5 93.5t-104.5 250.5q0 172 113 288.5t305 116.5
q196 0 316 -116.5t120 -337.5q0 -148 -38 -265.5t-105.5 -191t-155 -112t-190.5 -38.5zM719 1006q0 93 -52.5 148.5t-150.5 55.5q-94 0 -150.5 -62t-56.5 -161q0 -91 50 -142.5t145 -51.5q97 0 156 60t59 153z" />
    <glyph glyph-name="zeroinferior" unicode="&#x2080;" horiz-adv-x="1150" 
d="M571 -8q-229 0 -349 133.5t-120 398.5q0 258 128.5 393.5t340.5 135.5t341.5 -135.5t129.5 -393.5q0 -262 -124.5 -397t-346.5 -135zM571 178q112 0 173 80.5t61 263.5q0 340 -234 340q-233 0 -233 -340q0 -186 58 -265t175 -79z" />
    <glyph glyph-name="oneinferior" unicode="&#x2081;" horiz-adv-x="585" 
d="M326 0q-121 0 -121 35v682h-99q-36 0 -36 39q0 6 5 18t15.5 30t20.5 34t26 40.5t25.5 38.5t27 39t21.5 31q19 24 40 32.5t81 8.5q112 0 112 -31v-962q0 -35 -118 -35z" />
    <glyph glyph-name="twoinferior" unicode="&#x2082;" horiz-adv-x="913" 
d="M121 0q-13 0 -21 8t-8 23v119q0 33 33 59q5 4 50.5 41t68 55.5t70.5 61t76 72t66 74t59 80t36.5 77t15.5 78.5q0 49 -31 75.5t-90 26.5q-44 0 -73.5 -16.5t-59.5 -49.5q-34 -34 -65 -34q-39 0 -78 36t-39 66q0 56 95.5 124t238.5 68q161 0 248.5 -80t87.5 -212
q0 -78 -41.5 -163t-96 -147.5t-120 -120.5t-101 -83.5t-51.5 -34.5h103q31 0 87 2t100 4t46 2q45 0 61.5 -20.5t16.5 -73.5q-3 -63 -14 -90t-33 -27h-637z" />
    <glyph glyph-name="threeinferior" unicode="&#x2083;" horiz-adv-x="874" 
d="M432 -12q-98 0 -168 22t-133 70q-49 36 -49 84q0 47 14 88t45 41q8 0 30.5 -17.5t50 -38t78.5 -38t110 -17.5q74 0 114.5 37t40.5 100q0 142 -223 142q-34 0 -48.5 23.5t-14.5 74.5q0 43 11.5 58.5t43.5 21.5q66 17 122 58t56 96q0 34 -23 52.5t-63 18.5q-81 0 -152 -55
q-11 -6 -26 -17t-24.5 -16.5t-18.5 -5.5q-22 0 -63.5 41.5t-41.5 65.5q0 15 23.5 42t63 57t105.5 51.5t138 21.5q146 0 224.5 -64t78.5 -164q0 -45 -16 -86t-38.5 -67.5t-44.5 -47t-38 -29.5l-16 -9q8 -2 21 -6.5t47 -24.5t60 -46.5t47 -76t21 -109.5q0 -139 -97 -235
t-247 -96z" />
    <glyph glyph-name="fourinferior" unicode="&#x2084;" horiz-adv-x="976" 
d="M739 0q-116 0 -116 35v170h-504q-12 0 -21.5 27.5t-9.5 68.5q0 88 18 113l457 583q22 31 119 31q49 0 80.5 -6t41 -13t9.5 -14q0 -9 -8 -20l-438 -572h256v187q0 22 18 49l154 201q14 20 36 20q25 0 25 -31v-794q0 -35 -117 -35z" />
    <glyph glyph-name="fiveinferior" unicode="&#x2085;" horiz-adv-x="1001" 
d="M467 -12q-142 0 -244 53t-112 94q-20 55 16 139q9 25 27 25q9 0 51.5 -29t111.5 -58.5t144 -29.5q85 0 137.5 53t52.5 136q0 86 -40.5 126t-121.5 40q-63 0 -112 -19t-77 -38t-40 -19q-29 0 -77 29.5t-48 58.5v452q0 15 8.5 23t20.5 8h610q47 0 47 -133q0 -74 -28 -74
q-2 0 -48.5 2.5t-106 4.5t-91.5 2h-201v-152q7 4 21.5 10.5t64 17.5t105.5 11q66 0 127 -22t110.5 -63.5t79 -108.5t29.5 -150q0 -175 -115 -282t-301 -107z" />
    <glyph glyph-name="sixinferior" unicode="&#x2086;" horiz-adv-x="1087" 
d="M559 -12q-204 0 -326 121t-122 331q0 149 38 266.5t105.5 191.5t155 112.5t190.5 38.5q77 0 142 -16t101.5 -39t56.5 -44.5t20 -36.5q0 -24 -36.5 -70t-58.5 -46q-10 0 -29.5 11t-41 23.5t-64 23.5t-94.5 11t-96.5 -23t-72 -56t-47.5 -65.5t-28 -55.5l-8 -23q4 4 10.5 10
t30.5 22t51 28t70.5 22t89.5 10q164 0 267.5 -97.5t103.5 -258.5q0 -105 -46.5 -193t-141 -143t-220.5 -55zM334 367q0 -92 60 -150.5t159 -58.5q93 0 147 61t54 158q0 91 -49 144.5t-140 53.5t-161 -59.5t-70 -148.5z" />
    <glyph glyph-name="seveninferior" unicode="&#x2087;" horiz-adv-x="911" 
d="M236 0q-123 0 -123 33q0 15 27.5 79.5t84 173t121.5 216.5q63 104 118 185.5t79 111.5l24 30h-202q-31 0 -92.5 -2t-110 -4t-49.5 -2q-29 0 -29 74q0 70 11 101.5t36 31.5h664q30 0 30 -31l-2 -123q0 -41 -35 -90q-135 -182 -258 -397q-109 -184 -163 -352
q-14 -35 -131 -35z" />
    <glyph glyph-name="eightinferior" unicode="&#x2088;" horiz-adv-x="1013" 
d="M504 -8q-188 0 -303 79.5t-115 237.5q0 52 16 97.5t39 73t46 47.5t39 28l16 8q-5 3 -13 8.5t-28 25t-35.5 41.5t-28 58t-12.5 74q0 125 111.5 204t267.5 79t267.5 -79.5t111.5 -203.5q0 -38 -12 -73.5t-29.5 -59t-34.5 -41t-29 -25.5l-12 -8q6 -3 16.5 -8.5t37.5 -27.5
t47.5 -48.5t37.5 -72t17 -97.5q0 -158 -115 -237.5t-303 -79.5zM504 610q58 0 108 45t50 105q0 67 -43 101t-115 34t-116 -35.5t-44 -95.5q0 -65 46.5 -109.5t113.5 -44.5zM504 166q86 0 134 38.5t48 102.5q0 65 -53.5 106.5t-128.5 41.5q-74 0 -128 -41t-54 -105
q0 -66 47 -104.5t135 -38.5z" />
    <glyph glyph-name="nineinferior" unicode="&#x2089;" horiz-adv-x="1052" 
d="M459 -8q-111 0 -189.5 35t-89.5 71q-21 56 8 131q7 21 27 21q10 0 41.5 -19t84.5 -38t114 -19q70 0 122.5 24t80 61.5t40.5 71.5t17 66q-4 -4 -10.5 -10t-30 -22.5t-50 -29t-69.5 -22.5t-88 -10q-164 0 -268.5 93.5t-104.5 250.5q0 172 113 289t305 117q195 0 315.5 -117
t120.5 -338q0 -148 -38 -265t-105.5 -190.5t-155 -112t-190.5 -38.5zM719 678q0 93 -53 149t-150 56q-94 0 -150.5 -62.5t-56.5 -161.5q0 -91 50 -142.5t145 -51.5q97 0 156 60t59 153z" />
    <glyph glyph-name="Euro" unicode="&#x20ac;" horiz-adv-x="1456" 
d="M117 735q-45 0 -45 33q0 21 15 72.5t32 81.5q13 26 26 26h78q77 212 261 328.5t405 116.5q83 0 154.5 -14.5t118 -35.5t80 -46t48.5 -46t15 -34q0 -32 -40.5 -87t-66.5 -55q-13 0 -36 10.5t-49.5 23.5t-83 23.5t-128.5 10.5q-113 0 -209.5 -49.5t-154.5 -145.5h366
q45 0 45 -33q0 -28 -61 -147q-11 -21 -19 -27t-28 -6h-367q-2 -20 -2 -63v-31h432q45 0 45 -33q0 -28 -61 -147q-11 -21 -19 -27t-28 -6h-318q107 -201 418 -201q86 0 163 19t120.5 42.5t78.5 42.5t46 19q26 0 26 -31q0 -72 -43 -172q-11 -28 -70.5 -66.5t-160 -69.5
t-201.5 -31q-113 0 -218.5 27t-198.5 80t-164 140.5t-107 200.5h-94q-45 0 -45 33q0 19 12.5 64.5t28.5 76.5q17 39 32 39h31v25q0 46 2 69h-61z" />
    <glyph glyph-name="trademark" unicode="&#x2122;" horiz-adv-x="1261" 
d="M737 645h-94q-18 0 -29.5 11t-11.5 26v651q0 17 11 28t30 11h84q39 0 53 -29q1 -2 19.5 -40.5t46 -96t45.5 -96.5l110 233q15 29 54 29h84q19 0 30 -11t11 -28v-651q0 -15 -11.5 -26t-29.5 -11h-95q-40 0 -40 37v266l-60 -98q-14 -21 -35 -21h-35q-23 0 -40 27l-56 92
v-266q0 -17 -11 -27t-30 -10zM307 643h-59q-28 0 -44 15t-16 40v504h-100q-26 0 -41.5 15t-15.5 40v58q0 26 15.5 41.5t41.5 15.5h397q23 0 39.5 -13.5t16.5 -43.5v-58q0 -25 -15.5 -40t-40.5 -15h-120v-504q0 -25 -16 -40t-42 -15z" />
    <glyph glyph-name="Omega" unicode="&#x2126;" horiz-adv-x="1314" 
d="M440 0h-338q-71 0 -71 66v108q0 66 71 66h197q-25 24 -51 53.5t-68 88.5t-72.5 120.5t-53.5 148t-23 172.5q0 157 89 289t232.5 206.5t304.5 74.5q158 0 297.5 -74.5t224.5 -206.5t85 -289q0 -100 -28.5 -198.5t-74 -175.5t-80.5 -124t-71 -85h202q72 0 72 -66v-108
q0 -66 -72 -66h-338q-129 0 -129 197q0 29 27 74.5t65.5 100t76.5 118t65 148t27 169.5q0 176 -97.5 272.5t-251.5 96.5q-74 0 -140 -24t-117 -69t-81 -116.5t-30 -159.5q0 -85 29 -169.5t70 -148t82 -118t70 -100t29 -74.5q0 -197 -129 -197z" />
    <glyph glyph-name="Delta" unicode="&#x2206;" horiz-adv-x="1193" 
d="M193 0q-54 0 -98 35.5t-44 87.5q0 31 38.5 148.5t102.5 286t119 309.5t116 294t65 164q15 42 40 68t72 26q45 0 68 -25t43 -79q428 -1097 428 -1192q0 -46 -23.5 -80t-64.5 -43h-862zM293 195q0 -5 0.5 -7.5t5.5 -5t14 -2.5h592q6 6 6 15q-5 41 -130.5 391.5
t-182.5 470.5q-55 -122 -177.5 -472.5t-127.5 -389.5z" />
    <glyph glyph-name="minus" unicode="&#x2212;" horiz-adv-x="1044" 
d="M145 793h754q43 0 43 -123q0 -50 -6.5 -78.5t-15 -36.5t-21.5 -8h-754q-43 0 -43 123t43 123z" />
    <glyph glyph-name="infinity" unicode="&#x221e;" horiz-adv-x="1673" 
d="M1200 297q-208 0 -412 168q-168 -131 -360 -131q-143 0 -239.5 82t-96.5 209q0 128 96.5 210.5t239.5 82.5q192 0 360 -134q191 170 412 170q169 0 275 -85.5t106 -243.5q0 -157 -105.5 -242.5t-275.5 -85.5zM424 516q89 0 157 36t103 73q-20 21 -49.5 43t-89 44.5
t-121.5 22.5q-85 0 -125.5 -32.5t-40.5 -77.5q0 -44 40.5 -76.5t125.5 -32.5zM1202 494q89 0 149 30.5t60 100.5t-60.5 101.5t-148.5 31.5t-168 -37t-131 -96q15 -17 38.5 -36t61.5 -42t90.5 -38t108.5 -15z" />
    <glyph glyph-name="integral" unicode="&#x222b;" horiz-adv-x="839" 
d="M276 -145q-84 0 -134 32.5t-50 73.5q0 34 38 77.5t69 43.5q20 0 53 -14.5t51 -14.5q31 0 52 20t29.5 53t11.5 58.5t3 53.5q0 68 -13 148t-27 135t-42 151q-31 106 -46 163.5t-30.5 152t-15.5 175.5q0 164 90 270.5t248 106.5q85 0 135 -32t50 -74q0 -34 -37.5 -77.5
t-69.5 -43.5q-19 0 -52 13t-52 13q-28 0 -48 -16.5t-30 -44.5t-14.5 -57.5t-4.5 -61.5q0 -62 14.5 -142.5t26 -125.5t41.5 -152q31 -110 46 -170t30.5 -157t15.5 -179q0 -163 -89.5 -270.5t-248.5 -107.5z" />
    <glyph glyph-name="approxequal" unicode="&#x2248;" horiz-adv-x="1374" 
d="M1098 565q23 29 51 29q31 0 76 -45q47 -44 47 -70q0 -23 -24.5 -58.5t-64.5 -71.5t-102.5 -61.5t-128.5 -25.5q-69 0 -142 24t-125.5 52t-118 52t-120.5 24q-90 0 -159 -103q-17 -30 -54 -30q-22 0 -77 43q-50 47 -50 71q0 23 26 59t69 71.5t108.5 61t134.5 25.5
q68 0 168.5 -38t189.5 -75.5t130 -37.5q37 0 84.5 26.5t81.5 77.5zM1094 946q23 29 51 29q31 0 76 -45q47 -44 47 -70q0 -23 -24.5 -58.5t-64.5 -71.5t-102.5 -61.5t-128.5 -25.5q-57 0 -114.5 15.5t-105.5 38t-94 45t-96.5 38t-95.5 15.5q-90 0 -159 -103q-17 -30 -54 -30
q-22 0 -77 43q-50 47 -50 71q0 23 26 59t69 71.5t108.5 61t134.5 25.5q54 0 129 -23.5t136.5 -52t125.5 -52t97 -23.5q37 0 84.5 26.5t81.5 77.5z" />
    <glyph glyph-name="notequal" unicode="&#x2260;" horiz-adv-x="1142" 
d="M295 2q-45 0 -100.5 29.5t-55.5 68.5q0 13 8 29l172 371h-159q-25 0 -41.5 15.5t-16.5 39.5v61q0 26 16 42t42 16h246l67 141h-313q-25 0 -41.5 14.5t-16.5 40.5v62q0 26 16 41.5t42 15.5h399l281 549q16 31 47 31q47 0 100 -30t53 -71q0 -16 -6 -28l-221 -451h148
q24 0 39.5 -14t15.5 -43v-62q0 -55 -55 -55h-234l-70 -141h304q55 0 55 -58v-61q0 -25 -14.5 -40t-40.5 -15h-390l-229 -465q-16 -33 -47 -33z" />
    <glyph glyph-name="lessequal" unicode="&#x2264;" horiz-adv-x="1163" 
d="M150 0q-25 0 -41.5 14.5t-16.5 40.5v60q0 26 16 41.5t42 15.5h804q56 0 56 -57v-60q0 -26 -15 -40.5t-41 -14.5h-804zM395 729l494 -317q20 -14 20 -41q0 -25 -34.5 -72t-65.5 -47q-23 0 -37 14l-592 381q-51 34 -51 88q0 52 51 88l592 383q19 15 37 15q30 0 65 -45.5
t35 -73.5q0 -27 -20 -41l-494 -316q-6 -4 -6 -8z" />
    <glyph glyph-name="greaterequal" unicode="&#x2265;" horiz-adv-x="1163" 
d="M150 -6q-25 0 -41.5 14.5t-16.5 40.5v60q0 26 16 41.5t42 15.5h804q56 0 56 -57v-60q0 -26 -15 -40.5t-41 -14.5h-804zM211 412l494 317q6 4 6 8l-6 8l-494 316q-21 15 -21 41q0 28 35.5 73.5t65.5 45.5q18 0 37 -15l592 -383q51 -36 51 -88q0 -54 -51 -88l-592 -381
q-14 -14 -37 -14q-31 0 -66 47.5t-35 71.5q0 26 21 41z" />
    <glyph glyph-name="lozenge" unicode="&#x25ca;" horiz-adv-x="1097" 
d="M547 -12q-58 0 -115 94l-342 508q-36 49 -39 96q0 59 37 115l133 200l146 213q12 18 29 43l25.5 37.5t21.5 30t19.5 25.5t16.5 19.5t16.5 16t15.5 9.5t17.5 6.5t18.5 1.5q38 0 64 -27t89 -120q19 -27 29 -42l145 -213q19 -29 66.5 -99t67.5 -101q39 -59 36 -115
q-3 -53 -38 -96l-342 -508q-57 -94 -117 -94zM254 692q17 -41 129.5 -207.5t163.5 -226.5q52 59 164.5 225.5t130.5 208.5q-19 43 -132.5 214.5t-162.5 226.5q-49 -56 -162 -227.5t-131 -213.5z" />
    <glyph glyph-name="commaaccent" unicode="&#xf6c3;" horiz-adv-x="491" 
d="M121 -684q-18 0 -29.5 9t-11.5 26q0 20 33.5 73.5t33.5 96.5q0 18 -9 32.5t-19.5 25.5t-19.5 44.5t-9 85.5q0 74 39 107.5t117 33.5q77 0 114 -35t37 -118q0 -72 -32 -144.5t-76.5 -123t-90.5 -82t-77 -31.5z" />
    <glyph glyph-name="apple" unicode="&#xf8ff;" horiz-adv-x="1406" 
d="M702 0q-134 0 -258.5 54.5t-214.5 145.5t-144 215.5t-54 258.5t54 258.5t144 215.5t214.5 145.5t258.5 54.5q135 0 259.5 -54.5t215.5 -145.5t145 -215.5t54 -258.5t-54 -258.5t-145 -215.5t-215.5 -145.5t-259.5 -54.5zM815 764q132 -29 240 -29q87 0 143.5 41t56.5 105
q0 48 -38.5 76t-96.5 28q-60 0 -92.5 -31.5t-32.5 -64.5q0 -13 16.5 -25t16.5 -24q0 -15 -11 -25t-28 -10q-20 0 -33.5 17.5t-13.5 43.5q0 51 52 98.5t130 47.5q75 0 121 -37q-75 128 -186 203q8 -11 8 -31q0 -90 -113.5 -155.5t-269.5 -65.5h-53q-33 -38 -76 -78l55 -23
q40 54 90 54q41 0 75 -30t40 -85zM840 459q66 -58 106.5 -118t40.5 -130q0 -55 -31 -102q161 74 258 219q-42 -27 -84 -27q-57 0 -95 36.5t-38 90.5q0 34 14 52t33 18q17 0 27 -9t10 -24q0 -17 -20 -37q-17 -17 -17 -25q0 -31 22 -53t58 -22q47 0 77 42.5t30 96.5
q0 70 -46 114t-118 44q-71 0 -130.5 -43.5t-96.5 -122.5zM190 330q102 -149 261 -219q-31 39 -31 100q0 69 39 128t106 120q-36 79 -95 122.5t-132 43.5q-71 0 -115.5 -44t-44.5 -114q0 -53 28.5 -93t74.5 -40q39 0 60 19.5t21 49.5q0 9 -16 25q-20 20 -20 37q0 15 10.5 24
t25.5 9q20 0 35 -18t15 -52q0 -53 -39 -88t-97 -35q-44 0 -86 25zM508 1231q-59 0 -95 -31.5t-36 -85.5q0 -60 56.5 -102.5t156.5 -55.5q38 46 61 73.5t66.5 71t79 68t82 43.5t90.5 19q-123 63 -267 63q-101 0 -204 -39q69 0 116.5 -32.5t47.5 -92.5q0 -33 -15 -52t-37 -19
q-15 0 -26 10t-11 23q0 16 20.5 33t20.5 28q0 33 -26 55.5t-80 22.5zM94 778q-10 -69 -10 -104q0 -105 35 -201q3 74 67.5 126t153.5 52q80 0 148.5 -41t113.5 -118l80 71q-94 97 -94 180q0 28 6 43l-72 31q-137 -131 -280 -131q-59 0 -103.5 32t-44.5 60zM1067 651
q88 0 154 -47t67 -129q35 96 35 199q0 84 -29 182q-5 -70 -67 -120t-168 -50q-117 0 -246 29q-12 -71 -90 -152l80 -71q45 78 113.5 118.5t150.5 40.5zM563 72q67 -17 144 -17q71 0 135 15q-43 15 -73 66t-30 128q0 113 47 203l-84 78l-84 -82q50 -86 50 -199
q0 -77 -30.5 -127t-74.5 -65zM653 950h31q82 0 161 32.5t126 79.5t47 91q0 25 -16 39t-44 14q-35 0 -72 -18.5t-70.5 -51t-60 -62.5t-57 -69t-45.5 -55zM236 928q103 0 268 -62q23 20 63 66q-117 14 -183.5 59.5t-66.5 112.5q0 36 21 67q-158 -116 -215 -288q42 45 113 45z
M240 899q-38 0 -64 -23t-26 -57q0 -35 28 -58.5t68 -23.5q104 0 223 101q-153 61 -229 61zM825 422q-28 -76 -28 -162q0 -77 20 -122.5t55 -45.5q28 0 43 33t15 78q0 102 -105 219zM582 420q-107 -115 -107 -217q0 -50 17 -80.5t45 -30.5q34 0 52.5 44t18.5 124
q0 84 -26 160zM700 856q-22 0 -40.5 -28t-18.5 -83q0 -83 59 -161q62 71 62 147q0 125 -62 125z" />
    <glyph glyph-name="AE.smcp" horiz-adv-x="1531" 
d="M672 1102h686q51 0 51 -148q0 -80 -33 -80q-1 0 -27.5 3t-65.5 5.5t-73 2.5h-290q-9 0 -9 -11v-210q0 -7 9 -7h344q39 0 39 -108q0 -109 -39 -109h-344q-3 0 -6 -3.5t-3 -6.5v-203q0 -10 9 -10h299q34 0 79 2.5t77.5 5t33.5 2.5q31 0 31 -80q0 -147 -51 -147h-691
q-14 0 -22 9t-8 24v164h-283q-21 0 -31 -21l-71 -143q-9 -19 -40 -26t-100 -7q-46 0 -74 5t-37.5 12t-8.5 18q0 10 14 41l489 973q13 31 44 42t102 11zM457 412q-3 -23 20 -23h191v488z" />
    <glyph glyph-name="Aacute.smcp" 
d="M692 375h-233q-23 0 -23 20l119 348q10 25 20 25q11 0 21 -25l119 -348q0 -20 -23 -20zM391 186h369q23 0 31 -22l49 -131q7 -19 36 -26t97 -7q129 0 129 27q0 3 -12 43l-371 974q-12 31 -43 42.5t-101 11.5t-100.5 -11.5t-42.5 -42.5l-369 -974q-12 -30 -12 -43
q0 -27 127 -27q68 0 97 7t36 26l49 131q8 22 31 22zM459 1169q-15 0 -40.5 27.5t-25.5 42.5q0 16 25 45q70 83 213 240q22 22 43 22q28 0 78.5 -51t50.5 -80q0 -22 -25 -43q-40 -38 -270 -182q-34 -21 -49 -21z" />
    <glyph glyph-name="Abreve.smcp" 
d="M692 375h-233q-23 0 -23 20l119 348q10 25 20 25q11 0 21 -25l119 -348q0 -20 -23 -20zM391 186h369q23 0 31 -22l49 -131q7 -19 36 -26t97 -7q129 0 129 27q0 3 -12 43l-371 974q-12 31 -43 42.5t-101 11.5t-100.5 -11.5t-42.5 -42.5l-369 -974q-12 -30 -12 -43
q0 -27 127 -27q68 0 97 7t36 26l49 131q8 22 31 22zM575 1204q-61 0 -119 30.5t-95 72t-59.5 80t-22.5 57.5q0 33 39 63.5t71 30.5q17 0 30 -13t30 -42q16 -25 25.5 -38t27.5 -34t37 -31t39 -10q50 0 118 103q4 5 6 8q20 32 32 44.5t28 12.5q32 0 71 -30.5t39 -63.5
q0 -19 -22.5 -57t-59.5 -79.5t-95.5 -72.5t-119.5 -31z" />
    <glyph glyph-name="Acircumflex.smcp" 
d="M391 186h369q23 0 31 -22l49 -131q7 -19 36 -26t97 -7q129 0 129 27q0 3 -12 43l-371 974q-12 31 -43 42.5t-101 11.5t-100.5 -11.5t-42.5 -42.5l-369 -974q-12 -30 -12 -43q0 -27 127 -27q68 0 97 7t36 26l49 131q8 22 31 22zM788 1178q-18 0 -43 18l-172 152l-165 -150
q-22 -18 -43 -18q-19 0 -29 10l-68 65q-22 19 -22 45q0 19 16 35l219 191q23 20 39 25t55 5q41 0 58 -5.5t39 -24.5l217 -191q16 -16 16 -37q0 -23 -20 -43l-64 -63q-14 -14 -33 -14zM692 375h-233q-23 0 -23 20l119 348q10 25 20 25q11 0 21 -25l119 -348q0 -20 -23 -20z
" />
    <glyph glyph-name="Adieresis.smcp" 
d="M692 375h-233q-23 0 -23 20l119 348q10 25 20 25q11 0 21 -25l119 -348q0 -20 -23 -20zM391 186h369q23 0 31 -22l49 -131q7 -19 36 -26t97 -7q129 0 129 27q0 3 -12 43l-371 974q-12 31 -43 42.5t-101 11.5t-100.5 -11.5t-42.5 -42.5l-369 -974q-12 -30 -12 -43
q0 -27 127 -27q68 0 97 7t36 26l49 131q8 22 31 22zM389 1196q-137 0 -137 152q0 153 137 153q67 0 105 -39t38 -114q0 -152 -143 -152zM758 1196q-137 0 -137 152q0 153 137 153q67 0 105 -39t38 -114q0 -152 -143 -152z" />
    <glyph glyph-name="Agrave.smcp" 
d="M692 375h-233q-23 0 -23 20l119 348q10 25 20 25q11 0 21 -25l119 -348q0 -20 -23 -20zM391 186h369q23 0 31 -22l49 -131q7 -19 36 -26t97 -7q129 0 129 27q0 3 -12 43l-371 974q-12 31 -43 42.5t-101 11.5t-100.5 -11.5t-42.5 -42.5l-369 -974q-12 -30 -12 -43
q0 -27 127 -27q68 0 97 7t36 26l49 131q8 22 31 22zM715 1180q-17 0 -49 20q-233 146 -271 182q-24 21 -24 43q0 29 50.5 80t78.5 51q21 0 43 -22q143 -157 213 -240q24 -27 24 -45q0 -15 -25 -42t-40 -27z" />
    <glyph glyph-name="Amacron.smcp" 
d="M692 375h-233q-23 0 -23 20l119 348q10 25 20 25q11 0 21 -25l119 -348q0 -20 -23 -20zM391 186h369q23 0 31 -22l49 -131q7 -19 36 -26t97 -7q129 0 129 27q0 3 -12 43l-371 974q-12 31 -43 42.5t-101 11.5t-100.5 -11.5t-42.5 -42.5l-369 -974q-12 -30 -12 -43
q0 -27 127 -27q68 0 97 7t36 26l49 131q8 22 31 22zM807 1204h-473q-25 0 -41.5 15.5t-16.5 40.5v61q0 26 16 41.5t42 15.5h473q26 0 40.5 -15.5t14.5 -41.5v-61q0 -25 -14.5 -40.5t-40.5 -15.5z" />
    <glyph glyph-name="Aogonek.smcp" 
d="M760 186h-369q-23 0 -31 -22l-49 -131q-7 -19 -36 -26t-97 -7q-127 0 -127 27q0 13 12 43l369 974q12 31 42.5 42.5t100.5 11.5t101 -11.5t43 -42.5l371 -974l12 -41q-5 11 -39.5 30t-52.5 19q-14 0 -47 -23q-26 -18 -66 -53q-47 5 -57 31l-49 131q-8 22 -31 22z
M1022 -381q-91 0 -154 56.5t-63 150.5q0 96 92 176q18 -2 76 -2q109 0 125 16q-2 -3 -5.5 -6t-9 -8t-10.5 -10q-92 -92 -92 -160q0 -53 45 -53q17 0 37 11t35 11q29 0 53.5 -34t24.5 -66q0 -36 -47.5 -59t-106.5 -23zM459 375h233q23 0 23 20l-119 348q-10 25 -21 25
q-10 0 -20 -25l-119 -348q0 -20 23 -20zM1098 16q4 4 4 7z" />
    <glyph glyph-name="Aring.smcp" 
d="M692 375h-233q-23 0 -23 20l119 348q10 25 20 25q11 0 21 -25l119 -348q0 -20 -23 -20zM391 186h369q23 0 31 -22l49 -131q7 -19 36 -26t97 -7q129 0 129 27q0 3 -12 43l-371 974q-12 31 -43 42.5t-101 11.5t-100.5 -11.5t-42.5 -42.5l-369 -974q-12 -30 -12 -43
q0 -27 127 -27q68 0 97 7t36 26l49 131q8 22 31 22zM608 1208q-89 0 -150 59t-61 144t61.5 145t149.5 60t150.5 -60t62.5 -145q0 -84 -62.5 -143.5t-150.5 -59.5zM608 1503q-34 0 -58 -27.5t-24 -64.5t23.5 -63.5t58.5 -26.5t58.5 26.5t23.5 63.5t-24 64.5t-58 27.5z" />
    <glyph glyph-name="Atilde.smcp" 
d="M692 375h-233q-23 0 -23 20l119 348q10 25 20 25q11 0 21 -25l119 -348q0 -20 -23 -20zM391 186h369q23 0 31 -22l49 -131q7 -19 36 -26t97 -7q129 0 129 27q0 3 -12 43l-371 974q-12 31 -43 42.5t-101 11.5t-100.5 -11.5t-42.5 -42.5l-369 -974q-12 -30 -12 -43
q0 -27 127 -27q68 0 97 7t36 26l49 131q8 22 31 22zM344 1206q-15 -12 -25 -12q-19 0 -62.5 51t-43.5 66q0 17 23 43q34 41 89.5 68.5t114.5 27.5q48 0 103.5 -22.5t102.5 -45t73 -22.5q40 0 98 67q11 11 17 11q15 0 59.5 -50t44.5 -67q0 -38 -60 -88.5t-139 -50.5
q-51 0 -105.5 22.5t-103 45t-86.5 22.5q-10 0 -23.5 -7t-23 -14.5t-27 -22.5t-26.5 -22z" />
    <glyph glyph-name="B.smcp" horiz-adv-x="1105" 
d="M819 586q4 -1 11.5 -3t29 -11t40.5 -20t43 -31.5t41 -44.5t28.5 -59.5t11.5 -76.5q0 -175 -120.5 -264.5t-340.5 -89.5q-167 0 -273 26t-106 64v948q0 37 103.5 63.5t259.5 26.5q185 0 303.5 -72.5t118.5 -205.5q0 -48 -15.5 -91.5t-37.5 -71t-44 -48.5t-38 -30zM430 428
v-201q0 -28 28.5 -43.5t106.5 -15.5q215 0 215 176q0 133 -180 133h-113q-57 0 -57 -49zM430 707q0 -50 57 -50h76q91 0 129.5 37.5t38.5 114.5q0 72 -46.5 100.5t-135.5 28.5q-119 0 -119 -55v-176z" />
    <glyph glyph-name="C.smcp" horiz-adv-x="1142" 
d="M676 -12q-91 0 -175 20t-159 63.5t-130 107t-87.5 156t-32.5 204.5q0 138 48.5 250t130 182.5t184.5 108.5t217 38q67 0 126 -11.5t96.5 -28.5t64.5 -37t39 -36.5t12 -27.5q0 -26 -34.5 -76.5t-55.5 -50.5q-12 0 -38.5 13t-78.5 26.5t-125 13.5q-140 0 -232 -90.5
t-92 -271.5q0 -92 28 -160t78.5 -107t112.5 -57t138 -18q68 0 129.5 15.5t96 34.5t62.5 34.5t37 15.5q25 0 25 -27q0 -69 -35 -149q-15 -39 -120.5 -87t-229.5 -48z" />
    <glyph glyph-name="Cacute.smcp" horiz-adv-x="1142" 
d="M676 -12q-91 0 -175 20t-159 63.5t-130 107t-87.5 156t-32.5 204.5q0 138 48.5 250t130 182.5t184.5 108.5t217 38q67 0 126 -11.5t96.5 -28.5t64.5 -37t39 -36.5t12 -27.5q0 -26 -34.5 -76.5t-55.5 -50.5q-12 0 -38.5 13t-78.5 26.5t-125 13.5q-140 0 -232 -90.5
t-92 -271.5q0 -92 28 -160t78.5 -107t112.5 -57t138 -18q68 0 129.5 15.5t96 34.5t62.5 34.5t37 15.5q25 0 25 -27q0 -69 -35 -149q-15 -39 -120.5 -87t-229.5 -48zM563 1196q-15 0 -40 27.5t-25 42.5q0 18 24 45q59 70 213 239q23 23 43 23q28 0 78.5 -51t50.5 -80
q0 -22 -24 -43q-38 -36 -271 -182q-34 -21 -49 -21z" />
    <glyph glyph-name="Ccaron.smcp" horiz-adv-x="1142" 
d="M676 -12q-91 0 -175 20t-159 63.5t-130 107t-87.5 156t-32.5 204.5q0 138 48.5 250t130 182.5t184.5 108.5t217 38q67 0 126 -11.5t96.5 -28.5t64.5 -37t39 -36.5t12 -27.5q0 -26 -34.5 -76.5t-55.5 -50.5q-12 0 -38.5 13t-78.5 26.5t-125 13.5q-140 0 -232 -90.5
t-92 -271.5q0 -92 28 -160t78.5 -107t112.5 -57t138 -18q68 0 129.5 15.5t96 34.5t62.5 34.5t37 15.5q25 0 25 -27q0 -69 -35 -149q-15 -39 -120.5 -87t-229.5 -48zM668 1212q-9 0 -17.5 1.5t-17 5t-14 6.5t-13 9.5t-11 9t-12 10.5t-10.5 10l-194 204q-14 17 -14 37
q0 18 16 31l61 53q10 10 29 10q29 0 39 -14l156 -168l161 168q10 14 37 14q20 0 33 -10l59 -51q15 -12 15 -33q0 -17 -13 -37l-194 -204q-2 -1 -12.5 -11t-13.5 -13t-13 -10t-17 -10t-18 -5.5t-22 -2.5z" />
    <glyph glyph-name="Ccedilla.smcp" horiz-adv-x="1142" 
d="M631 -506q-48 0 -93.5 13.5t-69.5 29t-24 25.5q0 16 24 43.5t34 27.5q2 0 30.5 -12t61.5 -12q51 0 78.5 30t27.5 74q0 29 -18.5 56t-40.5 42.5t-40.5 32t-18.5 27.5v121v2q-100 12 -186.5 50.5t-155.5 103.5t-108.5 165.5t-39.5 225.5q0 138 48.5 250t130 182.5
t184.5 108.5t217 38q67 0 126 -11.5t96.5 -28.5t64.5 -37t39 -36.5t12 -27.5q0 -26 -34.5 -76.5t-55.5 -50.5q-12 0 -38.5 13t-78.5 26.5t-125 13.5q-140 0 -232 -90.5t-92 -271.5q0 -92 28 -160t78.5 -107t112.5 -57t138 -18q68 0 129.5 15.5t96 34.5t62.5 34.5t37 15.5
q25 0 25 -27q0 -69 -35 -149q-12 -32 -94.5 -74.5t-183.5 -54.5v-2v-92q53 -22 96 -70t43 -117q0 -93 -81.5 -156t-174.5 -63z" />
    <glyph glyph-name="D.smcp" horiz-adv-x="1234" 
d="M1143 573q0 -123 -32.5 -222.5t-89 -166.5t-134.5 -112.5t-166.5 -65.5t-188.5 -20q-142 0 -245 26.5t-103 63.5v948q0 37 103 63.5t245 26.5q611 0 611 -541zM897 571q0 68 -11 122.5t-28.5 91.5t-45 64t-55.5 42.5t-66 24.5t-69.5 11.5t-72.5 2.5q-62 0 -92.5 -16
t-30.5 -42v-639q0 -59 121 -59q53 0 100.5 10.5t94.5 38t80 70.5t54 114.5t21 163.5z" />
    <glyph glyph-name="Dcaron.smcp" horiz-adv-x="1234" 
d="M1143 573q0 -123 -32.5 -222.5t-89 -166.5t-134.5 -112.5t-166.5 -65.5t-188.5 -20q-142 0 -245 26.5t-103 63.5v948q0 37 103 63.5t245 26.5q611 0 611 -541zM897 571q0 68 -11 122.5t-28.5 91.5t-45 64t-55.5 42.5t-66 24.5t-69.5 11.5t-72.5 2.5q-62 0 -92.5 -16
t-30.5 -42v-639q0 -59 121 -59q53 0 100.5 10.5t94.5 38t80 70.5t54 114.5t21 163.5zM604 1212q-11 0 -21.5 2.5t-17 5.5t-16.5 10t-13.5 10t-13.5 12.5t-12 11.5l-195 204q-14 17 -14 37q0 18 16 31l62 53q10 10 29 10q28 0 38 -14l156 -168l162 168q10 14 37 14
q21 0 33 -10l59 -51q14 -12 14 -33q0 -19 -12 -37l-195 -204q-2 -1 -12.5 -11t-13.5 -13t-13 -10t-17 -10t-18 -5.5t-22 -2.5z" />
    <glyph glyph-name="E.smcp" horiz-adv-x="1040" 
d="M229 0q-45 0 -45 45v1008q0 45 45 45h584q53 0 72.5 -54.5t19.5 -166.5q0 -25 -20 -25q-5 0 -34.5 10t-102 20.5t-181.5 10.5h-121q-24 0 -24 -25v-192q0 -25 24 -25h295q39 0 39 -104q0 -107 -39 -107h-295q-24 0 -24 -24v-187q0 -24 24 -24h164q109 0 181 10.5
t101 20.5t34 10q22 0 22 -25q0 -112 -19.5 -166.5t-72.5 -54.5h-627z" />
    <glyph glyph-name="Eacute.smcp" horiz-adv-x="1040" 
d="M229 0q-45 0 -45 45v1008q0 45 45 45h584q53 0 72.5 -54.5t19.5 -166.5q0 -25 -20 -25q-5 0 -34.5 10t-102 20.5t-181.5 10.5h-121q-24 0 -24 -25v-192q0 -25 24 -25h295q39 0 39 -104q0 -107 -39 -107h-295q-24 0 -24 -24v-187q0 -24 24 -24h164q109 0 181 10.5
t101 20.5t34 10q22 0 22 -25q0 -112 -19.5 -166.5t-72.5 -54.5h-627zM451 1167q-15 0 -40.5 27.5t-25.5 42.5q0 16 25 45q70 83 213 240q22 22 43 22q28 0 78.5 -51t50.5 -80q0 -22 -25 -43q-40 -38 -270 -182q-34 -21 -49 -21z" />
    <glyph glyph-name="Ebreve.smcp" horiz-adv-x="1040" 
d="M229 0q-45 0 -45 45v1008q0 45 45 45h584q53 0 72.5 -54.5t19.5 -166.5q0 -25 -20 -25q-5 0 -34.5 10t-102 20.5t-181.5 10.5h-121q-24 0 -24 -25v-192q0 -25 24 -25h295q39 0 39 -104q0 -107 -39 -107h-295q-24 0 -24 -24v-187q0 -24 24 -24h164q109 0 181 10.5
t101 20.5t34 10q22 0 22 -25q0 -112 -19.5 -166.5t-72.5 -54.5h-627zM520 1190q-61 0 -119 30.5t-95.5 72t-60 80t-22.5 57.5q0 33 39.5 63.5t71.5 30.5q17 0 29.5 -13t29.5 -43q21 -33 34.5 -51.5t41 -39.5t53.5 -21q19 0 36.5 9.5t36 31t27 32.5t25.5 37q20 32 32 45
t28 13q32 0 71 -30.5t39 -63.5q0 -19 -22.5 -57t-59.5 -79.5t-95.5 -72.5t-119.5 -31z" />
    <glyph glyph-name="Ecircumflex.smcp" horiz-adv-x="1040" 
d="M229 0q-45 0 -45 45v1008q0 45 45 45h584q53 0 72.5 -54.5t19.5 -166.5q0 -25 -20 -25q-5 0 -34.5 10t-102 20.5t-181.5 10.5h-121q-24 0 -24 -25v-192q0 -25 24 -25h295q39 0 39 -104q0 -107 -39 -107h-295q-24 0 -24 -24v-187q0 -24 24 -24h164q109 0 181 10.5
t101 20.5t34 10q22 0 22 -25q0 -112 -19.5 -166.5t-72.5 -54.5h-627zM762 1174q-18 0 -43 18l-172 151l-166 -149q-23 -18 -43 -18q-19 0 -29 10l-67 65q-23 20 -23 45q0 18 17 35l219 191q23 20 39 25t55 5q40 0 57 -5.5t39 -24.5l217 -191q17 -17 17 -37q0 -22 -21 -43
l-63 -63q-14 -14 -33 -14z" />
    <glyph glyph-name="Edieresis.smcp" horiz-adv-x="1040" 
d="M229 0q-45 0 -45 45v1008q0 45 45 45h584q53 0 72.5 -54.5t19.5 -166.5q0 -25 -20 -25q-5 0 -34.5 10t-102 20.5t-181.5 10.5h-121q-24 0 -24 -25v-192q0 -25 24 -25h295q39 0 39 -104q0 -107 -39 -107h-295q-24 0 -24 -24v-187q0 -24 24 -24h164q109 0 181 10.5
t101 20.5t34 10q22 0 22 -25q0 -112 -19.5 -166.5t-72.5 -54.5h-627zM332 1178q-69 0 -103 36.5t-34 114.5q0 154 137 154q67 0 105 -39.5t38 -114.5q0 -78 -35.5 -114.5t-107.5 -36.5zM700 1178q-69 0 -103 36.5t-34 114.5q0 154 137 154q67 0 105.5 -39.5t38.5 -114.5
q0 -151 -144 -151z" />
    <glyph glyph-name="Egrave.smcp" horiz-adv-x="1040" 
d="M229 0q-45 0 -45 45v1008q0 45 45 45h584q53 0 72.5 -54.5t19.5 -166.5q0 -25 -20 -25q-5 0 -34.5 10t-102 20.5t-181.5 10.5h-121q-24 0 -24 -25v-192q0 -25 24 -25h295q39 0 39 -104q0 -107 -39 -107h-295q-24 0 -24 -24v-187q0 -24 24 -24h164q109 0 181 10.5
t101 20.5t34 10q22 0 22 -25q0 -112 -19.5 -166.5t-72.5 -54.5h-627zM659 1192q-17 0 -49 20q-227 142 -270 183q-25 21 -25 43q0 29 50.5 80t78.5 51q20 0 43 -23q154 -169 213 -239q25 -29 25 -45q0 -15 -25.5 -42.5t-40.5 -27.5z" />
    <glyph glyph-name="Emacron.smcp" horiz-adv-x="1040" 
d="M229 0q-45 0 -45 45v1008q0 45 45 45h584q53 0 72.5 -54.5t19.5 -166.5q0 -25 -20 -25q-5 0 -34.5 10t-102 20.5t-181.5 10.5h-121q-24 0 -24 -25v-192q0 -25 24 -25h295q39 0 39 -104q0 -107 -39 -107h-295q-24 0 -24 -24v-187q0 -24 24 -24h164q109 0 181 10.5
t101 20.5t34 10q22 0 22 -25q0 -112 -19.5 -166.5t-72.5 -54.5h-627zM758 1186h-473q-25 0 -41.5 15.5t-16.5 39.5v62q0 26 16 41.5t42 15.5h473q26 0 40.5 -15.5t14.5 -41.5v-62q0 -25 -14.5 -40t-40.5 -15z" />
    <glyph glyph-name="Eogonek.smcp" horiz-adv-x="1040" 
d="M229 0q-45 0 -45 45v1008q0 45 45 45h584q53 0 72.5 -54.5t19.5 -166.5q0 -25 -20 -25q-5 0 -34.5 10t-102 20.5t-181.5 10.5h-121q-24 0 -24 -25v-192q0 -25 24 -25h295q39 0 39 -104q0 -107 -39 -107h-295q-24 0 -24 -24v-187q0 -24 24 -24h164q109 0 181 10.5
t101 20.5t34 10q22 0 22 -25q0 -112 -19.5 -166.5t-72.5 -54.5h-225v-2q0 -2 -0.5 -3.5t-1.5 -3l-2 -3t-4 -4.5t-5 -5.5t-7 -7t-9 -8.5q-92 -92 -92 -160q0 -53 45 -53q17 0 37 11.5t35 11.5q29 0 53.5 -34.5t24.5 -66.5q0 -36 -47.5 -59t-106.5 -23q-91 0 -154 56.5
t-63 150.5q0 106 123 203h-228z" />
    <glyph glyph-name="Eth.smcp" horiz-adv-x="1234" 
d="M1143 573q0 -123 -32.5 -222.5t-89 -166.5t-134.5 -112.5t-166.5 -65.5t-188.5 -20q-142 0 -245 26.5t-103 63.5v344h-53q-43 0 -43 102q0 103 43 103h53v399q0 37 103 63.5t245 26.5q611 0 611 -541zM897 571q0 68 -11 122.5t-28.5 91.5t-45 64t-55.5 42.5t-66 24.5
t-69.5 11.5t-72.5 2.5q-62 0 -92.5 -16t-30.5 -42v-247h213q43 0 43 -103q0 -102 -43 -102h-213v-187q0 -59 121 -59q53 0 100.5 10.5t94.5 38t80 70.5t54 114.5t21 163.5z" />
    <glyph glyph-name="F.smcp" horiz-adv-x="972" 
d="M305 0q-121 0 -121 37v1016q0 45 45 45h580q53 0 72.5 -54.5t19.5 -166.5q0 -25 -22 -25q-5 0 -34 10t-101 20.5t-181 10.5h-137v-242q0 -24 25 -24h292q37 0 37 -101q0 -104 -37 -104h-292q-25 0 -25 -25v-360q0 -37 -121 -37z" />
    <glyph glyph-name="G.smcp" horiz-adv-x="1175" 
d="M645 -16q-114 0 -211.5 32t-175 96.5t-122 173t-44.5 251.5q0 137 46.5 248.5t127 182t184.5 108.5t222 38q68 0 127.5 -12t99 -29.5t68.5 -38.5t42 -38.5t13 -28.5q0 -25 -35 -76t-55 -51q-12 0 -32.5 9t-43.5 20.5t-70 20.5t-106 9q-148 0 -238 -88t-90 -279
q0 -95 24.5 -164t68 -107t96 -55.5t116.5 -17.5q82 0 125 31t43 64v225q0 21 80 45.5t119 24.5q21 0 30 -9t9 -30v-330q0 -14 -15 -39.5t-49 -58t-80.5 -60.5t-119 -47.5t-154.5 -19.5z" />
    <glyph glyph-name="H.smcp" horiz-adv-x="1294" 
d="M307 0q-123 0 -123 37v1024q0 37 123 37q121 0 121 -37v-406q0 -24 25 -24h391q24 0 24 24v406q0 37 121 37t121 -37v-1024q0 -37 -121 -37t-121 37v358q0 25 -24 25h-391q-25 0 -25 -25v-358q0 -37 -121 -37z" />
    <glyph glyph-name="I.smcp" horiz-adv-x="610" 
d="M305 0q-121 0 -121 37v1024q0 37 121 37t121 -37v-1024q0 -37 -121 -37z" />
    <glyph glyph-name="Iacute.smcp" horiz-adv-x="610" 
d="M305 0q-121 0 -121 37v1024q0 37 121 37t121 -37v-1024q0 -37 -121 -37zM166 1188q-15 0 -40.5 27t-25.5 42q0 17 25 46q59 70 213 239q23 23 43 23q28 0 78.5 -51t50.5 -80q0 -22 -25 -43q-43 -41 -270 -183q-32 -20 -49 -20z" />
    <glyph glyph-name="Ibreve.smcp" horiz-adv-x="610" 
d="M305 0q-121 0 -121 37v1024q0 37 121 37t121 -37v-1024q0 -37 -121 -37zM336 1206q-61 0 -119 30.5t-95.5 72t-60 80t-22.5 57.5q0 33 39.5 63.5t71.5 30.5q17 0 29.5 -12.5t29.5 -42.5q16 -25 25.5 -38t27.5 -34t37 -31t39 -10q19 0 36.5 9.5t36.5 31.5t26.5 32.5
t25.5 37.5q20 32 31.5 44.5t27.5 12.5q32 0 71.5 -30.5t39.5 -63.5q0 -19 -22.5 -57t-59.5 -79.5t-95.5 -72.5t-119.5 -31z" />
    <glyph glyph-name="Icircumflex.smcp" horiz-adv-x="610" 
d="M305 0q-121 0 -121 37v1024q0 37 121 37t121 -37v-1024q0 -37 -121 -37zM518 1163q-16 0 -43 19l-172 151l-166 -149q-24 -19 -43 -19q-17 0 -28 11l-68 65q-23 20 -23 45q0 18 17 35l219 190q23 20 39.5 25.5t54.5 5.5q40 0 56.5 -5.5t39.5 -25.5l217 -190
q17 -17 17 -37q0 -22 -21 -43l-63 -63q-15 -15 -33 -15z" />
    <glyph glyph-name="Idieresis.smcp" horiz-adv-x="610" 
d="M305 0q-121 0 -121 37v1024q0 37 121 37t121 -37v-1024q0 -37 -121 -37zM119 1184q-69 0 -103 36.5t-34 114.5q0 154 137 154q67 0 105 -39.5t38 -114.5q0 -78 -35.5 -114.5t-107.5 -36.5zM487 1184q-69 0 -103 36.5t-34 114.5q0 154 137 154q67 0 105.5 -39.5
t38.5 -114.5q0 -151 -144 -151z" />
    <glyph glyph-name="Igrave.smcp" horiz-adv-x="610" 
d="M305 0q-121 0 -121 37v1024q0 37 121 37t121 -37v-1024q0 -37 -121 -37zM444 1180q-17 0 -49 20q-230 144 -270 182q-25 21 -25 43q0 29 50.5 80t78.5 51q21 0 43 -22q143 -157 213 -240q25 -29 25 -45q0 -15 -25.5 -42t-40.5 -27z" />
    <glyph glyph-name="Imacron.smcp" horiz-adv-x="610" 
d="M305 0q-121 0 -121 37v1024q0 37 121 37t121 -37v-1024q0 -37 -121 -37zM543 1219h-473q-25 0 -41.5 15.5t-16.5 39.5v61q0 26 16 42t42 16h473q26 0 40.5 -15.5t14.5 -42.5v-61q0 -25 -14.5 -40t-40.5 -15z" />
    <glyph glyph-name="J.smcp" horiz-adv-x="882" 
d="M373 -25q-69 0 -133 23t-103 54t-62.5 58.5t-23.5 39.5q0 22 47.5 75.5t67.5 53.5q13 0 33 -17q87 -65 157 -65q46 0 72.5 29.5t26.5 88.5v742q0 39 120 39q123 0 123 -39v-772q0 -133 -88 -221.5t-237 -88.5z" />
    <glyph glyph-name="K.smcp" horiz-adv-x="1169" 
d="M305 0q-121 0 -121 37v1024q0 37 121 37t121 -37v-436q0 -11 5.5 -15t12.5 0q70 37 128.5 95.5t95.5 122.5t60 123.5t32 113.5q4 33 125 33q116 0 116 -33q0 -39 -22 -106.5t-61 -145.5t-102.5 -158t-135.5 -131q49 -19 95 -66.5t81 -100t68.5 -103.5t70 -84.5
t72.5 -34.5h29q22 0 22 -22q0 -39 -71.5 -83t-149.5 -44q-52 0 -86 20t-63 62q-26 37 -62.5 92.5t-60 91.5t-51 72.5t-49.5 56t-40 22.5q-20 2 -39.5 -7.5t-19.5 -22.5v-336q0 -37 -121 -37z" />
    <glyph glyph-name="L.smcp" horiz-adv-x="964" 
d="M217 0q-14 0 -23.5 9t-9.5 24v1028q0 37 123 37q121 0 121 -37v-828q0 -24 25 -24h122q109 0 181.5 10.5t102 20.5t34.5 10q20 0 20 -25q0 -113 -20 -169t-72 -56h-604z" />
    <glyph glyph-name="Lacute.smcp" horiz-adv-x="964" 
d="M217 0q-14 0 -23.5 9t-9.5 24v1028q0 37 123 37q121 0 121 -37v-828q0 -24 25 -24h122q109 0 181.5 10.5t102 20.5t34.5 10q20 0 20 -25q0 -113 -20 -169t-72 -56h-604zM274 1202q-15 0 -40 27.5t-25 42.5q0 18 24 45q59 70 213 239q23 23 43 23q28 0 78.5 -51t50.5 -80
q0 -22 -24 -43q-40 -38 -270 -182q-34 -21 -50 -21z" />
    <glyph glyph-name="Lcaron.smcp" horiz-adv-x="964" 
d="M217 0q-14 0 -23.5 9t-9.5 24v1028q0 37 123 37q121 0 121 -37v-828q0 -24 25 -24h122q109 0 181.5 10.5t102 20.5t34.5 10q20 0 20 -25q0 -113 -20 -169t-72 -56h-604zM608 510q-18 0 -29.5 9t-11.5 26q0 20 34 73.5t34 96.5q0 18 -9 32.5t-19.5 25.5t-19.5 44.5
t-9 85.5q0 74 38.5 107.5t116.5 33.5q77 0 114.5 -35.5t37.5 -117.5q0 -72 -32 -144.5t-76.5 -123t-91 -82t-77.5 -31.5z" />
    <glyph glyph-name="Lslash.smcp" horiz-adv-x="985" 
d="M217 0q-14 0 -23.5 9t-9.5 24v274l-57 -33q-38 -19 -100 86q-61 108 -23 127l180 105v469q0 37 123 37q121 0 121 -37v-326l68 39q38 19 100 -86q62 -107 22 -127l-190 -110v-218q0 -24 25 -24h122q109 0 181.5 10.5t102 20.5t34.5 10q20 0 20 -25q0 -113 -20 -169
t-72 -56h-604z" />
    <glyph glyph-name="M.smcp" horiz-adv-x="1533" 
d="M295 0q-69 0 -90 8.5t-21 28.5v1026q8 35 119 35q115 0 127 -33l336 -739l340 739q16 33 123 33q121 0 121 -33v-1028q0 -13 -6 -20t-31 -12t-74 -5q-69 0 -90 8.5t-21 28.5v586l-260 -562q-11 -19 -27.5 -24.5t-72.5 -5.5t-73.5 5.5t-28.5 24.5l-260 562v-586
q0 -19 -21.5 -28t-89.5 -9z" />
    <glyph glyph-name="N.smcp" horiz-adv-x="1288" 
d="M299 0q-48 0 -74.5 5.5t-33.5 12.5t-7 19v1028q0 33 86 33q58 0 79.5 -4.5t29.5 -16.5l498 -663v649q0 12 7 19t33 12.5t72 5.5q47 0 73.5 -5.5t34 -13t7.5 -18.5v-1030q0 -33 -86 -33q-98 0 -109 20l-499 648v-631q0 -12 -6.5 -19t-32.5 -12.5t-72 -5.5z" />
    <glyph glyph-name="Nacute.smcp" horiz-adv-x="1288" 
d="M299 0q-48 0 -74.5 5.5t-33.5 12.5t-7 19v1028q0 33 86 33q58 0 79.5 -4.5t29.5 -16.5l498 -663v649q0 12 7 19t33 12.5t72 5.5q47 0 73.5 -5.5t34 -13t7.5 -18.5v-1030q0 -33 -86 -33q-98 0 -109 20l-499 648v-631q0 -12 -6.5 -19t-32.5 -12.5t-72 -5.5zM563 1165
q-15 0 -40 27.5t-25 42.5q0 18 24 45q70 83 213 240q22 22 43 22q28 0 78.5 -51t50.5 -80q0 -22 -24 -43q-38 -36 -271 -182q-34 -21 -49 -21z" />
    <glyph glyph-name="Ncaron.smcp" horiz-adv-x="1288" 
d="M299 0q-48 0 -74.5 5.5t-33.5 12.5t-7 19v1028q0 33 86 33q58 0 79.5 -4.5t29.5 -16.5l498 -663v649q0 12 7 19t33 12.5t72 5.5q47 0 73.5 -5.5t34 -13t7.5 -18.5v-1030q0 -33 -86 -33q-98 0 -109 20l-499 648v-631q0 -12 -6.5 -19t-32.5 -12.5t-72 -5.5zM680 1204
q-9 0 -17.5 1.5t-16.5 5t-13.5 6t-13.5 9t-11 9t-11.5 10.5t-10.5 10l-195 205q-14 17 -14 37q0 18 16 31l62 53q10 10 28 10q29 0 39 -14l156 -168l162 168q10 14 37 14q19 0 32 -10l60 -51q14 -12 14 -33q0 -19 -12 -37l-195 -205q-2 -2 -10.5 -10t-11.5 -10.5t-11 -9
t-13.5 -9t-14 -6t-17 -5t-18.5 -1.5z" />
    <glyph glyph-name="Ntilde.smcp" horiz-adv-x="1288" 
d="M299 0q-48 0 -74.5 5.5t-33.5 12.5t-7 19v1028q0 33 86 33q58 0 79.5 -4.5t29.5 -16.5l498 -663v649q0 12 7 19t33 12.5t72 5.5q47 0 73.5 -5.5t34 -13t7.5 -18.5v-1030q0 -33 -86 -33q-98 0 -109 20l-499 648v-631q0 -12 -6.5 -19t-32.5 -12.5t-72 -5.5zM412 1225
q-16 -13 -25 -13q-19 0 -62.5 51t-43.5 66q0 18 22 43q34 41 90 68.5t115 27.5q48 0 103 -22.5t102 -45t73 -22.5q40 0 99 68q10 10 16 10q15 0 60 -50t45 -67q0 -38 -60 -88.5t-139 -50.5q-51 0 -105.5 22.5t-103 45t-86.5 22.5q-10 0 -23.5 -7t-23 -14t-27.5 -22t-26 -22z
" />
    <glyph glyph-name="O.smcp" horiz-adv-x="1251" 
d="M625 -16q-249 0 -391 145t-142 424q0 138 42 247t115.5 176.5t169 102.5t206.5 35q88 0 167 -21.5t146.5 -67t116.5 -111t76.5 -158t27.5 -203.5q0 -140 -40 -249.5t-112 -178.5t-169 -105t-213 -36zM625 182q124 0 200 87.5t76 279.5q0 190 -77.5 277t-198.5 87
q-58 0 -106 -19t-87.5 -60t-61.5 -114t-22 -171q0 -367 277 -367z" />
    <glyph glyph-name="OE.smcp" horiz-adv-x="1769" 
d="M958 0q-45 0 -45 45v29q-128 -90 -288 -90q-249 0 -391 145t-142 424q0 138 42 247t115.5 176.5t169 102.5t206.5 35q77 0 153 -27t135 -73v39q0 45 45 45h584q53 0 72.5 -54.5t19.5 -166.5q0 -25 -20 -25q-5 0 -34.5 10t-102 20.5t-181.5 10.5h-120q-25 0 -25 -25v-192
q0 -25 25 -25h294q39 0 39 -104q0 -107 -39 -107h-294q-25 0 -25 -24v-187q0 -24 25 -24h163q109 0 181 10.5t101 20.5t34 10q22 0 22 -25q0 -112 -19.5 -166.5t-72.5 -54.5h-627zM625 182q124 0 200 87.5t76 279.5q0 190 -77.5 277t-198.5 87q-58 0 -106 -19t-87.5 -60
t-61.5 -114t-22 -171q0 -367 277 -367z" />
    <glyph glyph-name="Oacute.smcp" horiz-adv-x="1251" 
d="M625 -16q-249 0 -391 145t-142 424q0 138 42 247t115.5 176.5t169 102.5t206.5 35q88 0 167 -21.5t146.5 -67t116.5 -111t76.5 -158t27.5 -203.5q0 -140 -40 -249.5t-112 -178.5t-169 -105t-213 -36zM625 182q124 0 200 87.5t76 279.5q0 190 -77.5 277t-198.5 87
q-58 0 -106 -19t-87.5 -60t-61.5 -114t-22 -171q0 -367 277 -367zM498 1194q-15 0 -40.5 27.5t-25.5 42.5q0 16 25 45q59 70 213 239q23 23 43 23q28 0 78.5 -51t50.5 -80q0 -22 -25 -43q-43 -41 -270 -183q-32 -20 -49 -20z" />
    <glyph glyph-name="Obreve.smcp" horiz-adv-x="1251" 
d="M625 -16q-249 0 -391 145t-142 424q0 138 42 247t115.5 176.5t169 102.5t206.5 35q88 0 167 -21.5t146.5 -67t116.5 -111t76.5 -158t27.5 -203.5q0 -140 -40 -249.5t-112 -178.5t-169 -105t-213 -36zM625 182q124 0 200 87.5t76 279.5q0 190 -77.5 277t-198.5 87
q-58 0 -106 -19t-87.5 -60t-61.5 -114t-22 -171q0 -367 277 -367zM625 1223q-61 0 -119 30.5t-95.5 71.5t-60 79.5t-22.5 57.5q0 33 39 63.5t71 30.5q18 0 30.5 -13t29.5 -42q21 -33 34.5 -51.5t41 -39.5t53.5 -21q19 0 36.5 9.5t36 31t27 32.5t25.5 37q20 32 31.5 44.5
t27.5 12.5q32 0 71.5 -30.5t39.5 -63.5q0 -19 -22.5 -57t-59.5 -79.5t-95.5 -72t-119.5 -30.5z" />
    <glyph glyph-name="Ocircumflex.smcp" horiz-adv-x="1251" 
d="M625 -16q-249 0 -391 145t-142 424q0 138 42 247t115.5 176.5t169 102.5t206.5 35q88 0 167 -21.5t146.5 -67t116.5 -111t76.5 -158t27.5 -203.5q0 -140 -40 -249.5t-112 -178.5t-169 -105t-213 -36zM625 182q124 0 200 87.5t76 279.5q0 190 -77.5 277t-198.5 87
q-58 0 -106 -19t-87.5 -60t-61.5 -114t-22 -171q0 -367 277 -367zM838 1190q-18 0 -43 18l-172 152l-166 -150q-23 -18 -43 -18q-19 0 -29 10l-68 66q-22 19 -22 45q0 19 16 35l219 190q23 20 40 25.5t55 5.5q40 0 56.5 -5.5t39.5 -25.5l217 -190q16 -16 16 -37
q0 -23 -20 -43l-64 -64q-14 -14 -32 -14z" />
    <glyph glyph-name="Odieresis.smcp" horiz-adv-x="1251" 
d="M625 -16q-249 0 -391 145t-142 424q0 138 42 247t115.5 176.5t169 102.5t206.5 35q88 0 167 -21.5t146.5 -67t116.5 -111t76.5 -158t27.5 -203.5q0 -140 -40 -249.5t-112 -178.5t-169 -105t-213 -36zM625 182q124 0 200 87.5t76 279.5q0 190 -77.5 277t-198.5 87
q-58 0 -106 -19t-87.5 -60t-61.5 -114t-22 -171q0 -367 277 -367zM438 1221q-69 0 -103 36.5t-34 114.5q0 154 137 154q67 0 105.5 -39.5t38.5 -114.5q0 -151 -144 -151zM807 1221q-69 0 -103 36.5t-34 114.5q0 154 137 154q67 0 105 -39.5t38 -114.5q0 -78 -35.5 -114.5
t-107.5 -36.5z" />
    <glyph glyph-name="Ograve.smcp" horiz-adv-x="1251" 
d="M625 -16q-249 0 -391 145t-142 424q0 138 42 247t115.5 176.5t169 102.5t206.5 35q88 0 167 -21.5t146.5 -67t116.5 -111t76.5 -158t27.5 -203.5q0 -140 -40 -249.5t-112 -178.5t-169 -105t-213 -36zM625 182q124 0 200 87.5t76 279.5q0 190 -77.5 277t-198.5 87
q-58 0 -106 -19t-87.5 -60t-61.5 -114t-22 -171q0 -367 277 -367zM764 1225q-17 0 -49 20q-233 146 -271 182q-24 21 -24 43q0 29 50.5 80.5t78.5 51.5q20 0 43 -23q143 -157 213 -240q24 -27 24 -45q0 -15 -25 -42t-40 -27z" />
    <glyph glyph-name="Ohungarumlaut.smcp" horiz-adv-x="1251" 
d="M625 -16q-249 0 -391 145t-142 424q0 138 42 247t115.5 176.5t169 102.5t206.5 35q88 0 167 -21.5t146.5 -67t116.5 -111t76.5 -158t27.5 -203.5q0 -140 -40 -249.5t-112 -178.5t-169 -105t-213 -36zM625 182q124 0 200 87.5t76 279.5q0 190 -77.5 277t-198.5 87
q-58 0 -106 -19t-87.5 -60t-61.5 -114t-22 -171q0 -367 277 -367zM352 1210q-15 0 -40 27.5t-25 42.5q0 18 24 45q70 83 213 240q22 22 43 22q28 0 78.5 -51t50.5 -80q0 -22 -24 -43q-38 -36 -271 -182q-34 -21 -49 -21zM721 1210q-15 0 -40.5 27.5t-25.5 42.5q0 16 25 45
q70 83 213 240q22 22 43 22q28 0 78.5 -51t50.5 -80q0 -22 -25 -43q-40 -38 -270 -182q-34 -21 -49 -21z" />
    <glyph glyph-name="Omacron.smcp" horiz-adv-x="1251" 
d="M625 -16q-249 0 -391 145t-142 424q0 138 42 247t115.5 176.5t169 102.5t206.5 35q88 0 167 -21.5t146.5 -67t116.5 -111t76.5 -158t27.5 -203.5q0 -140 -40 -249.5t-112 -178.5t-169 -105t-213 -36zM625 182q124 0 200 87.5t76 279.5q0 190 -77.5 277t-198.5 87
q-58 0 -106 -19t-87.5 -60t-61.5 -114t-22 -171q0 -367 277 -367zM862 1223h-473q-25 0 -41 15t-16 40v61q0 26 15.5 42t41.5 16h473q26 0 41 -16t15 -42v-61q0 -25 -15 -40t-41 -15z" />
    <glyph glyph-name="Oslash.smcp" horiz-adv-x="1251" 
d="M981 1112l-41 -88q103 -71 161 -189.5t58 -281.5q0 -140 -40 -249.5t-112 -178.5t-169 -105t-213 -36q-81 0 -144 14l-14 -35q-6 -11 -14.5 -18t-35 -13t-69.5 -6q-110 0 -110 41q0 5 8 25l41 90q-195 146 -195 471q0 138 42 247t115.5 176.5t169 102.5t206.5 35
q59 0 118 -12l19 39q6 11 14.5 18t35 13t69.5 6q108 0 108 -41q0 -12 -8 -25zM625 182q124 0 200 87.5t76 279.5q0 161 -59 252l-275 -615q18 -4 58 -4zM348 549q0 -149 43 -234l266 596q-5 0 -16 1t-16 1q-58 0 -106 -19t-87.5 -60t-61.5 -114t-22 -171z" />
    <glyph glyph-name="Otilde.smcp" horiz-adv-x="1251" 
d="M625 -16q-249 0 -391 145t-142 424q0 138 42 247t115.5 176.5t169 102.5t206.5 35q88 0 167 -21.5t146.5 -67t116.5 -111t76.5 -158t27.5 -203.5q0 -140 -40 -249.5t-112 -178.5t-169 -105t-213 -36zM625 182q124 0 200 87.5t76 279.5q0 190 -77.5 277t-198.5 87
q-58 0 -106 -19t-87.5 -60t-61.5 -114t-22 -171q0 -367 277 -367zM393 1208q-15 -12 -24 -12q-19 0 -63 51t-44 66q0 17 23 43q34 41 89.5 68.5t114.5 27.5q48 0 103.5 -22.5t102.5 -45t73 -22.5q39 0 98 68q10 10 17 10q15 0 59.5 -50t44.5 -67q0 -38 -60 -88.5t-139 -50.5
q-51 0 -105 22.5t-102.5 45t-86.5 22.5q-10 0 -23.5 -7t-23 -14.5t-27.5 -22.5t-27 -22z" />
    <glyph glyph-name="P.smcp" horiz-adv-x="1099" 
d="M305 0q-121 0 -121 37v981q0 38 102.5 67t248.5 29q217 0 345 -105t128 -290q0 -109 -36 -195t-98.5 -139.5t-142.5 -81t-172 -27.5q-30 0 -63 4t-50 8l-18 5v-256q0 -37 -123 -37zM428 532q0 -59 117 -59q95 0 149 59t54 179q0 113 -53 163t-160 50q-51 0 -79 -18.5
t-28 -45.5v-328z" />
    <glyph glyph-name="Q.smcp" horiz-adv-x="1228" 
d="M506 -4q-90 14 -163.5 52.5t-130.5 103t-88.5 164t-31.5 227.5q0 140 43.5 250.5t118.5 178.5t171.5 103t207.5 35q110 0 206 -35t170 -103t117 -178t43 -249q0 -193 -89 -332t-257 -197q37 -1 77.5 -16.5t72.5 -34t85.5 -34t112.5 -15.5q27 0 27 -20q0 -40 -67 -97
t-146 -57q-59 0 -107.5 22.5t-85.5 56t-74.5 69t-92 65.5t-119.5 41zM633 176q127 0 203.5 87.5t76.5 281.5q0 100 -22.5 172.5t-63 112.5t-88.5 58.5t-106 18.5t-106.5 -18.5t-89.5 -58.5t-64 -112.5t-23 -172.5q0 -369 283 -369z" />
    <glyph glyph-name="R.smcp" horiz-adv-x="1165" 
d="M305 0q-121 0 -121 37v983q0 37 103.5 65.5t244.5 28.5q219 0 346.5 -92t127.5 -258q0 -51 -13 -98t-34.5 -81t-47 -63.5t-51 -48.5t-47 -33t-34.5 -20l-13 -6q21 -10 56.5 -56t67.5 -94.5t77 -87.5t86 -39q5 0 19 1t20 1q22 0 22 -20q0 -38 -68.5 -85.5t-148.5 -47.5
q-55 0 -100 19.5t-74 50.5t-53 69t-42.5 76t-36.5 69t-41.5 50.5t-51.5 19.5h-52q-20 0 -20 -18v-285q0 -37 -121 -37zM426 582q0 -50 84 -50q48 0 88 10.5t74.5 34.5t53.5 68t19 105q0 176 -194 176q-125 0 -125 -54v-290z" />
    <glyph glyph-name="Racute.smcp" horiz-adv-x="1165" 
d="M305 0q-121 0 -121 37v983q0 37 103.5 65.5t244.5 28.5q219 0 346.5 -92t127.5 -258q0 -51 -13 -98t-34.5 -81t-47 -63.5t-51 -48.5t-47 -33t-34.5 -20l-13 -6q21 -10 56.5 -56t67.5 -94.5t77 -87.5t86 -39q5 0 19 1t20 1q22 0 22 -20q0 -38 -68.5 -85.5t-148.5 -47.5
q-55 0 -100 19.5t-74 50.5t-53 69t-42.5 76t-36.5 69t-41.5 50.5t-51.5 19.5h-52q-20 0 -20 -18v-285q0 -37 -121 -37zM426 582q0 -50 84 -50q48 0 88 10.5t74.5 34.5t53.5 68t19 105q0 176 -194 176q-125 0 -125 -54v-290zM451 1180q-15 0 -40.5 27t-25.5 42q0 16 25 45
q70 83 213 240q22 22 43 22q28 0 78.5 -51t50.5 -80q0 -22 -25 -43q-40 -38 -270 -182q-32 -20 -49 -20z" />
    <glyph glyph-name="Rcaron.smcp" horiz-adv-x="1165" 
d="M305 0q-121 0 -121 37v983q0 37 103.5 65.5t244.5 28.5q219 0 346.5 -92t127.5 -258q0 -51 -13 -98t-34.5 -81t-47 -63.5t-51 -48.5t-47 -33t-34.5 -20l-13 -6q21 -10 56.5 -56t67.5 -94.5t77 -87.5t86 -39q5 0 19 1t20 1q22 0 22 -20q0 -38 -68.5 -85.5t-148.5 -47.5
q-55 0 -100 19.5t-74 50.5t-53 69t-42.5 76t-36.5 69t-41.5 50.5t-51.5 19.5h-52q-20 0 -20 -18v-285q0 -37 -121 -37zM582 1210q-9 0 -17.5 1.5t-17 5t-14 6.5t-13 9.5t-11 9t-12 10.5t-10.5 10l-194 204q-14 17 -14 37q0 18 16 31l61 53q10 10 29 10q28 0 39 -14l156 -168
l161 168q11 14 37 14q20 0 33 -10l59 -51q15 -12 15 -33q0 -17 -13 -37l-194 -204q-2 -1 -12.5 -11t-13.5 -13t-13 -10t-17 -10t-18 -5.5t-22 -2.5zM426 582q0 -50 84 -50q48 0 88 10.5t74.5 34.5t53.5 68t19 105q0 176 -194 176q-125 0 -125 -54v-290z" />
    <glyph glyph-name="S.smcp" horiz-adv-x="972" 
d="M502 -18q-119 0 -228.5 48.5t-123.5 86.5q-27 62 -27 166q0 28 24 28q9 0 41 -19.5t71.5 -43t105 -43t133.5 -19.5q76 0 118.5 35.5t42.5 91.5q0 20 -6 37t-23 32t-28 24t-43 22.5t-44 18t-53 18.5q-7 3 -11 4q-42 15 -65 23.5t-62 25.5t-61.5 32.5t-51 40t-43.5 51
t-26 63.5t-11 79q0 145 116.5 236.5t293.5 91.5q61 0 115 -11.5t90 -28.5t62 -36t38 -34.5t12 -24.5q0 -26 -33.5 -74.5t-54.5 -48.5q-11 0 -39.5 16t-77 32t-106.5 16q-87 0 -132.5 -31.5t-45.5 -87.5q0 -23 11 -42.5t25 -32.5t42.5 -26.5t49.5 -20.5l60 -20
q142 -45 202 -81q142 -85 142 -246q0 -153 -107 -250.5t-292 -97.5z" />
    <glyph glyph-name="Sacute.smcp" horiz-adv-x="972" 
d="M502 -18q-119 0 -228.5 48.5t-123.5 86.5q-27 62 -27 166q0 28 24 28q9 0 41 -19.5t71.5 -43t105 -43t133.5 -19.5q76 0 118.5 35.5t42.5 91.5q0 20 -6 37t-23 32t-28 24t-43 22.5t-44 18t-53 18.5q-7 3 -11 4q-42 15 -65 23.5t-62 25.5t-61.5 32.5t-51 40t-43.5 51
t-26 63.5t-11 79q0 145 116.5 236.5t293.5 91.5q61 0 115 -11.5t90 -28.5t62 -36t38 -34.5t12 -24.5q0 -26 -33.5 -74.5t-54.5 -48.5q-11 0 -39.5 16t-77 32t-106.5 16q-87 0 -132.5 -31.5t-45.5 -87.5q0 -23 11 -42.5t25 -32.5t42.5 -26.5t49.5 -20.5l60 -20
q142 -45 202 -81q142 -85 142 -246q0 -153 -107 -250.5t-292 -97.5zM424 1178q-15 0 -40.5 27t-25.5 42q0 16 25 45q70 83 213 240q22 22 43 22q28 0 78.5 -51t50.5 -80q0 -22 -25 -43q-40 -38 -270 -182q-32 -20 -49 -20z" />
    <glyph glyph-name="Scaron.smcp" horiz-adv-x="972" 
d="M502 -18q-119 0 -228.5 48.5t-123.5 86.5q-27 62 -27 166q0 28 24 28q9 0 41 -19.5t71.5 -43t105 -43t133.5 -19.5q76 0 118.5 35.5t42.5 91.5q0 20 -6 37t-23 32t-28 24t-43 22.5t-44 18t-53 18.5q-7 3 -11 4q-42 15 -65 23.5t-62 25.5t-61.5 32.5t-51 40t-43.5 51
t-26 63.5t-11 79q0 145 116.5 236.5t293.5 91.5q61 0 115 -11.5t90 -28.5t62 -36t38 -34.5t12 -24.5q0 -26 -33.5 -74.5t-54.5 -48.5q-11 0 -39.5 16t-77 32t-106.5 16q-87 0 -132.5 -31.5t-45.5 -87.5q0 -23 11 -42.5t25 -32.5t42.5 -26.5t49.5 -20.5l60 -20
q142 -45 202 -81q142 -85 142 -246q0 -153 -107 -250.5t-292 -97.5zM520 1198q-9 0 -17.5 1.5t-16.5 5t-13.5 6t-13.5 9t-11 9t-11.5 10.5t-10.5 10l-195 205q-14 17 -14 37q0 18 16 31l62 53q10 10 29 10q28 0 38 -14l156 -168l162 168q10 14 37 14q21 0 33 -10l59 -51
q14 -12 14 -33q0 -19 -12 -37l-195 -205q-2 -2 -10.5 -10t-11.5 -10.5t-11 -9t-13.5 -9t-14 -6t-17 -5t-18.5 -1.5z" />
    <glyph glyph-name="Scommaaccent.smcp" horiz-adv-x="972" 
d="M502 -18q-119 0 -228.5 48.5t-123.5 86.5q-27 62 -27 166q0 28 24 28q9 0 41 -19.5t71.5 -43t105 -43t133.5 -19.5q76 0 118.5 35.5t42.5 91.5q0 20 -6 37t-23 32t-28 24t-43 22.5t-44 18t-53 18.5q-7 3 -11 4q-42 15 -65 23.5t-62 25.5t-61.5 32.5t-51 40t-43.5 51
t-26 63.5t-11 79q0 145 116.5 236.5t293.5 91.5q61 0 115 -11.5t90 -28.5t62 -36t38 -34.5t12 -24.5q0 -26 -33.5 -74.5t-54.5 -48.5q-11 0 -39.5 16t-77 32t-106.5 16q-87 0 -132.5 -31.5t-45.5 -87.5q0 -23 11 -42.5t25 -32.5t42.5 -26.5t49.5 -20.5l60 -20
q142 -45 202 -81q142 -85 142 -246q0 -153 -107 -250.5t-292 -97.5zM369 -684q-18 0 -29.5 9t-11.5 26q0 20 33.5 73.5t33.5 96.5q0 18 -9 32.5t-19.5 25.5t-19.5 44.5t-9 85.5q0 74 39 107.5t117 33.5q77 0 114 -35t37 -118q0 -72 -32 -144.5t-76.5 -123t-90.5 -82
t-77 -31.5z" />
    <glyph glyph-name="T.smcp" horiz-adv-x="901" 
d="M451 0q-121 0 -121 37v827q0 25 -25 25h-217q-37 0 -37 106q0 103 37 103h725q37 0 37 -103q0 -106 -37 -106h-217q-25 0 -25 -25v-827q0 -37 -120 -37z" />
    <glyph glyph-name="Tcaron.smcp" horiz-adv-x="901" 
d="M451 0q-121 0 -121 37v827q0 25 -25 25h-217q-37 0 -37 106q0 103 37 103h725q37 0 37 -103q0 -106 -37 -106h-217q-25 0 -25 -25v-827q0 -37 -120 -37zM451 1178q-9 0 -17.5 1t-17 5.5t-13.5 6t-14 9t-11 9t-12 11.5l-10 9l-194 205q-15 18 -15 36q0 17 17 31l61 53
q11 11 29 11q28 0 39 -15l156 -168l161 168q11 15 37 15q19 0 33 -11l59 -51q15 -13 15 -33q0 -16 -13 -36l-194 -205q-2 -2 -10.5 -10t-11.5 -10.5t-11 -9t-13.5 -9t-14 -6t-17 -5t-18.5 -1.5z" />
    <glyph glyph-name="Tcommaaccent.smcp" horiz-adv-x="901" 
d="M451 0q-121 0 -121 37v827q0 25 -25 25h-217q-37 0 -37 106q0 103 37 103h725q37 0 37 -103q0 -106 -37 -106h-217q-25 0 -25 -25v-827q0 -37 -120 -37zM332 -684q-18 0 -29.5 9t-11.5 26q0 20 33.5 73.5t33.5 96.5q0 18 -9 32.5t-19.5 25.5t-19.5 44.5t-9 85.5
q0 74 39 107.5t117 33.5q77 0 114 -35t37 -118q0 -72 -32 -144.5t-76.5 -123t-90.5 -82t-77 -31.5z" />
    <glyph glyph-name="U.smcp" horiz-adv-x="1224" 
d="M612 -25q-118 0 -207.5 33t-143.5 92.5t-80.5 136.5t-26.5 171v649q0 39 120 39q121 0 121 -39v-604q0 -134 52.5 -201.5t164.5 -67.5q217 0 217 269v604q0 39 121 39t121 -39v-649q0 -94 -26.5 -171t-81 -136.5t-144 -92.5t-207.5 -33z" />
    <glyph glyph-name="Uacute.smcp" horiz-adv-x="1224" 
d="M612 -25q-118 0 -207.5 33t-143.5 92.5t-80.5 136.5t-26.5 171v649q0 39 120 39q121 0 121 -39v-604q0 -134 52.5 -201.5t164.5 -67.5q217 0 217 269v604q0 39 121 39t121 -39v-649q0 -94 -26.5 -171t-81 -136.5t-144 -92.5t-207.5 -33zM535 1176q-15 0 -40.5 27
t-25.5 42q0 16 25 45q70 83 213 240q22 22 43 22q28 0 78.5 -51t50.5 -80q0 -22 -25 -43q-40 -38 -270 -182q-32 -20 -49 -20z" />
    <glyph glyph-name="Ubreve.smcp" horiz-adv-x="1224" 
d="M612 -25q-118 0 -207.5 33t-143.5 92.5t-80.5 136.5t-26.5 171v649q0 39 120 39q121 0 121 -39v-604q0 -134 52.5 -201.5t164.5 -67.5q217 0 217 269v604q0 39 121 39t121 -39v-649q0 -94 -26.5 -171t-81 -136.5t-144 -92.5t-207.5 -33zM612 1192q-61 0 -119 30.5
t-95.5 72t-60 80t-22.5 57.5q0 33 39.5 63.5t71.5 30.5q17 0 29.5 -13t29.5 -43q21 -33 34.5 -51.5t41 -39.5t53.5 -21q19 0 36.5 9.5t36 31t27 32.5t25.5 37q20 32 32 45t28 13q32 0 71 -30.5t39 -63.5q0 -19 -22.5 -57t-59.5 -79.5t-95.5 -72.5t-119.5 -31z" />
    <glyph glyph-name="Ucircumflex.smcp" horiz-adv-x="1224" 
d="M612 -25q-118 0 -207.5 33t-143.5 92.5t-80.5 136.5t-26.5 171v649q0 39 120 39q121 0 121 -39v-604q0 -134 52.5 -201.5t164.5 -67.5q217 0 217 269v604q0 39 121 39t121 -39v-649q0 -94 -26.5 -171t-81 -136.5t-144 -92.5t-207.5 -33zM825 1200q-16 0 -43 19l-172 151
l-166 -149q-24 -19 -43 -19q-18 0 -28 10l-68 66q-22 19 -22 45q0 19 16 35l219 190q23 20 39.5 25.5t54.5 5.5q40 0 57 -6t40 -25l217 -190q16 -16 16 -37q0 -23 -20 -43l-64 -64q-14 -14 -33 -14z" />
    <glyph glyph-name="Udieresis.smcp" horiz-adv-x="1224" 
d="M612 -25q-118 0 -207.5 33t-143.5 92.5t-80.5 136.5t-26.5 171v649q0 39 120 39q121 0 121 -39v-604q0 -134 52.5 -201.5t164.5 -67.5q217 0 217 269v604q0 39 121 39t121 -39v-649q0 -94 -26.5 -171t-81 -136.5t-144 -92.5t-207.5 -33zM424 1208q-137 0 -137 152
q0 153 137 153q67 0 105 -39t38 -114q0 -152 -143 -152zM793 1208q-138 0 -138 152q0 153 138 153q67 0 105 -39t38 -114q0 -152 -143 -152z" />
    <glyph glyph-name="Ugrave.smcp" horiz-adv-x="1224" 
d="M612 -25q-118 0 -207.5 33t-143.5 92.5t-80.5 136.5t-26.5 171v649q0 39 120 39q121 0 121 -39v-604q0 -134 52.5 -201.5t164.5 -67.5q217 0 217 269v604q0 39 121 39t121 -39v-649q0 -94 -26.5 -171t-81 -136.5t-144 -92.5t-207.5 -33zM752 1171q-16 0 -50 21
q-230 144 -270 182q-24 21 -24 43q0 29 50.5 80t78.5 51q21 0 43 -22q143 -157 213 -240q24 -27 24 -45q0 -15 -25 -42.5t-40 -27.5z" />
    <glyph glyph-name="Uhungarumlaut.smcp" horiz-adv-x="1224" 
d="M612 -25q-118 0 -207.5 33t-143.5 92.5t-80.5 136.5t-26.5 171v649q0 39 120 39q121 0 121 -39v-604q0 -134 52.5 -201.5t164.5 -67.5q217 0 217 269v604q0 39 121 39t121 -39v-649q0 -94 -26.5 -171t-81 -136.5t-144 -92.5t-207.5 -33zM360 1202q-15 0 -40 27.5
t-25 42.5q0 18 24 45q59 70 213 239q23 23 43 23q28 0 79 -51t51 -80q0 -22 -25 -43q-40 -38 -270 -182q-34 -21 -50 -21zM729 1202q-15 0 -40 27.5t-25 42.5q0 18 24 45q59 70 213 239q23 23 43 23q28 0 78.5 -51t50.5 -80q0 -22 -24 -43q-38 -36 -271 -182
q-34 -21 -49 -21z" />
    <glyph glyph-name="Umacron.smcp" horiz-adv-x="1224" 
d="M612 -25q-118 0 -207.5 33t-143.5 92.5t-80.5 136.5t-26.5 171v649q0 39 120 39q121 0 121 -39v-604q0 -134 52.5 -201.5t164.5 -67.5q217 0 217 269v604q0 39 121 39t121 -39v-649q0 -94 -26.5 -171t-81 -136.5t-144 -92.5t-207.5 -33zM850 1223h-473q-25 0 -41.5 15.5
t-16.5 39.5v61q0 26 16 42t42 16h473q26 0 40.5 -15.5t14.5 -42.5v-61q0 -25 -14.5 -40t-40.5 -15z" />
    <glyph glyph-name="Uring.smcp" horiz-adv-x="1224" 
d="M612 -25q-118 0 -207.5 33t-143.5 92.5t-80.5 136.5t-26.5 171v649q0 39 120 39q121 0 121 -39v-604q0 -134 52.5 -201.5t164.5 -67.5q217 0 217 269v604q0 39 121 39t121 -39v-649q0 -94 -26.5 -171t-81 -136.5t-144 -92.5t-207.5 -33zM610 1206q-89 0 -150 59t-61 144
t61.5 145t149.5 60t150.5 -60t62.5 -145q0 -84 -62.5 -143.5t-150.5 -59.5zM610 1501q-34 0 -58 -27.5t-24 -64.5t23.5 -63.5t58.5 -26.5t58.5 26.5t23.5 63.5t-24 64.5t-58 27.5z" />
    <glyph glyph-name="V.smcp" horiz-adv-x="1060" 
d="M530 -2q-66 0 -88.5 9t-29.5 28l-381 999q0 2 -4 14t-4 13q-2 11 6 18t34.5 12t73.5 5q139 0 152 -37l241 -737l242 737q13 37 152 37q47 0 73.5 -5t34.5 -12t6 -18q0 -2 -7.5 -22t-8.5 -21l-373 -983q-5 -12 -12.5 -19t-34 -12.5t-72.5 -5.5z" />
    <glyph glyph-name="W.smcp" horiz-adv-x="1570" 
d="M436 0q-67 0 -91.5 9t-29.5 28l-274 999q-1 1 -4.5 13t-3.5 14q-2 12 6 19.5t34 11.5t74 4q73 0 101 -8.5t33 -28.5l186 -707l201 664q8 29 28.5 40t87.5 11q65 0 87 -11t30 -40l203 -664l184 707q5 20 33.5 28.5t101.5 8.5q48 0 74 -4t34.5 -11.5t6.5 -19.5
q0 -2 -4.5 -17t-5.5 -18l-273 -991q-7 -20 -30.5 -28.5t-91.5 -8.5q-70 0 -97 9t-32 28l-220 678l-217 -678q-7 -19 -33.5 -28t-97.5 -9z" />
    <glyph glyph-name="X.smcp" horiz-adv-x="1032" 
d="M868 0q-117 0 -139 37l-231 350q-152 -194 -185 -344q-5 -23 -37.5 -33t-105.5 -10q-71 0 -105 8.5t-34 34.5q0 41 24.5 93.5t78.5 124t97.5 123t122.5 142.5q19 22 29 33l-315 479q-9 12 -9 23q0 37 125 37q124 0 146 -37l207 -316q65 87 97 158.5t52 151.5
q5 23 37.5 33t105.5 10q71 0 105.5 -8.5t34.5 -34.5q0 -85 -75.5 -193.5t-238.5 -294.5l336 -508q10 -20 10 -22q0 -10 -12 -18t-43.5 -13.5t-77.5 -5.5z" />
    <glyph glyph-name="Y.smcp" horiz-adv-x="1001" 
d="M500 0q-121 0 -121 37v401l-6 31l-334 569q-8 16 -8 23q0 37 129 37q70 0 98 -9.5t39 -27.5l203 -367l202 367q22 37 140 37q129 0 129 -37q0 -10 -10 -23l-334 -569q-6 -17 -6 -31v-401q0 -37 -121 -37z" />
    <glyph glyph-name="Yacute.smcp" horiz-adv-x="1001" 
d="M500 0q-121 0 -121 37v401l-6 31l-334 569q-8 16 -8 23q0 37 129 37q70 0 98 -9.5t39 -27.5l203 -367l202 367q22 37 140 37q129 0 129 -37q0 -10 -10 -23l-334 -569q-6 -17 -6 -31v-401q0 -37 -121 -37zM414 1153q-15 0 -40.5 27.5t-25.5 42.5q0 16 25 45q59 70 213 239
q23 23 43 23q28 0 78.5 -51t50.5 -80q0 -22 -25 -43q-40 -38 -270 -182q-34 -21 -49 -21z" />
    <glyph glyph-name="Ydieresis.smcp" horiz-adv-x="1001" 
d="M500 0q-121 0 -121 37v401l-6 31l-334 569q-8 16 -8 23q0 37 129 37q70 0 98 -9.5t39 -27.5l203 -367l202 367q22 37 140 37q129 0 129 -37q0 -10 -10 -23l-334 -569q-6 -17 -6 -31v-401q0 -37 -121 -37zM313 1192q-69 0 -103 36.5t-34 114.5q0 154 137 154
q67 0 105.5 -39.5t38.5 -114.5q0 -151 -144 -151zM682 1192q-69 0 -103 36.5t-34 114.5q0 154 137 154q67 0 105 -39.5t38 -114.5q0 -78 -35.5 -114.5t-107.5 -36.5z" />
    <glyph glyph-name="Z.smcp" horiz-adv-x="1085" 
d="M408 211h266q97 0 162.5 9.5t93 19.5t33.5 10q20 0 20 -25q0 -113 -20 -169t-72 -56h-756q-33 0 -33 106q0 85 25 115l522 668h-217q-97 0 -161.5 -10.5t-92 -20.5t-33.5 -10q-20 0 -20 24q0 112 20.5 169t73.5 57h699q32 0 32 -107q0 -76 -28 -121z" />
    <glyph glyph-name="Zacute.smcp" horiz-adv-x="1085" 
d="M408 211h266q97 0 162.5 9.5t93 19.5t33.5 10q20 0 20 -25q0 -113 -20 -169t-72 -56h-756q-33 0 -33 106q0 85 25 115l522 668h-217q-97 0 -161.5 -10.5t-92 -20.5t-33.5 -10q-20 0 -20 24q0 112 20.5 169t73.5 57h699q32 0 32 -107q0 -76 -28 -121zM424 1167
q-15 0 -40.5 27.5t-25.5 42.5q0 16 25 45q70 83 213 240q22 22 43 22q28 0 78.5 -51t50.5 -80q0 -22 -25 -43q-40 -38 -270 -182q-34 -21 -49 -21z" />
    </font>
</defs>
</svg>
